<svg xmlns="http://www.w3.org/2000/svg" viewBox="0 0 249.45 250.43"><defs><style>.a{fill:#58595b;}.b{fill:#231f20;}.c{fill:#faaf42;}.d{fill:#fff;}</style></defs><title>gigazone-gaming-on-light-2-color</title><polygon class="a" points="89.93 113.54 87.16 117.84 91.41 117.84 89.93 113.54"/><polyline class="b" points="74.38 163.6 74.37 163.58 74.39 163.58 226.66 163.58 249.45 125.22 181.78 125.22 181.78 125.22 180.94 123.82 169.54 104.67 180.12 86.85 181.78 84.07 181.78 84.07 203.4 47.7 175.07 0 149.24 43.48 175.07 86.83 175.08 86.85 175.05 86.85 22.79 86.85 0 125.22 67.67 125.22 67.67 125.22 79.91 145.77 69.32 163.58 67.67 166.36 67.67 166.36 46.04 202.73 74.38 250.43 100.21 206.95 74.38 163.6"/><polygon class="c" points="175.07 86.83 175.05 86.85 123.47 86.85 149.24 43.48 175.07 86.83"/><polygon class="c" points="203.4 47.7 181.78 84.07 194.01 104.64 181.78 125.22 249.45 125.22 203.4 47.7"/><polygon class="c" points="74.38 163.6 74.39 163.58 125.97 163.58 100.21 206.95 74.38 163.6"/><polygon class="c" points="46.04 202.73 67.67 166.36 55.44 145.79 67.67 125.22 0 125.22 46.04 202.73"/><path class="d" d="M99,142.91h12.61v.27c0,3.09-1.1,7.77-3.92,10.71s-6.06,3.47-9.07,3.47-6.33-.5-9.3-3.54a14.47,14.47,0,0,1-.08-19.32c3.13-3.24,7-3.7,10-3.7a12.81,12.81,0,0,1,7.13,1.9,14.06,14.06,0,0,1,4.12,4.53l-5.3,2.86a7.69,7.69,0,0,0-2.25-2.74A6.38,6.38,0,0,0,99,136.13a6.88,6.88,0,0,0-5.26,2.06,8.7,8.7,0,0,0-2.17,6A8,8,0,0,0,93.69,150a6.68,6.68,0,0,0,5.14,2,6.52,6.52,0,0,0,4.42-1.37,5.93,5.93,0,0,0,1.83-3H99Z" transform="translate(0 0)"/><path class="d" d="M127.24,152h-9.6l-1.94,4.8h-6.1l10.25-25.42h5.37l10,25.42h-6.1Zm-1.6-4.5-3.13-8.54-3.16,8.54Z" transform="translate(0 0)"/><path class="d" d="M134.06,156.78l4.08-25.42H143l6.33,15.2,6.33-15.2h4.88l4.08,25.42h-5.87l-2-15.17-6.36,15.17h-2.06L142,141.62l-2,15.17Z" transform="translate(0 0)"/><path class="d" d="M172.14,131.37v25.42h-5.87V131.37Z" transform="translate(0 0)"/><path class="d" d="M175,156.78V131.37h5.11l13.79,16.39V131.37h5.87v25.42h-5.11l-13.79-16.46v16.46Z" transform="translate(0 0)"/><path class="d" d="M214.68,142.91h12.61v.27c0,3.09-1.1,7.77-3.93,10.71s-6.06,3.47-9.07,3.47-6.33-.5-9.3-3.54a14.47,14.47,0,0,1-.08-19.32c3.12-3.24,7-3.7,10-3.7a12.81,12.81,0,0,1,7.13,1.9,14.05,14.05,0,0,1,4.12,4.53l-5.3,2.86a7.69,7.69,0,0,0-2.25-2.74,6.38,6.38,0,0,0-3.89-1.22,6.88,6.88,0,0,0-5.26,2.06,8.7,8.7,0,0,0-2.17,6,8,8,0,0,0,2.13,5.83,6.68,6.68,0,0,0,5.14,2,6.52,6.52,0,0,0,4.42-1.37,5.94,5.94,0,0,0,1.83-3h-6.13Z" transform="translate(0 0)"/><path class="d" d="M30.79,109.47V104.7H43c0,.15,0,.33,0,.51s0,.46,0,.82q0,5.87-3.1,9.11t-8.72,3.24a13.57,13.57,0,0,1-4.91-.83A10.89,10.89,0,0,1,22.42,115a11.47,11.47,0,0,1-2.51-3.86,12.42,12.42,0,0,1-.89-4.67,12.3,12.3,0,0,1,.87-4.68,11.5,11.5,0,0,1,6.51-6.36,13.15,13.15,0,0,1,4.77-.85,12.75,12.75,0,0,1,5.91,1.32,11.55,11.55,0,0,1,4.32,3.93L36,102.42a6.53,6.53,0,0,0-2.17-2,5.62,5.62,0,0,0-2.69-.64,5.48,5.48,0,0,0-4.38,1.86,7.51,7.51,0,0,0-1.6,5.07,7.59,7.59,0,0,0,1.6,5.11,5.47,5.47,0,0,0,4.38,1.86,6.48,6.48,0,0,0,3.94-1.16A4.43,4.43,0,0,0,37,109.47Z" transform="translate(0 0)"/><polygon class="d" points="44.22 117.84 44.22 97.48 49.83 97.48 49.83 117.84 44.22 117.84 44.22 117.84"/><path class="d" d="M61.54,110.34v-4.27h10.9q0,.21,0,.46t0,.74q0,5.26-2.77,8.15t-7.81,2.9a12.15,12.15,0,0,1-4.4-.74A9.75,9.75,0,0,1,54,115.31a10.29,10.29,0,0,1-2.25-3.46,11.5,11.5,0,0,1,0-8.37,10.3,10.3,0,0,1,5.83-5.69A11.78,11.78,0,0,1,61.88,97a11.42,11.42,0,0,1,5.29,1.18A10.33,10.33,0,0,1,71,101.72L66.24,104a5.85,5.85,0,0,0-1.94-1.76,5,5,0,0,0-2.41-.58A4.91,4.91,0,0,0,58,103.36a6.72,6.72,0,0,0-1.43,4.54A6.79,6.79,0,0,0,58,112.47a4.89,4.89,0,0,0,3.92,1.67,5.8,5.8,0,0,0,3.52-1,4,4,0,0,0,1.65-2.76Z" transform="translate(0 0)"/><path class="d" d="M78.23,110.23l2-6.72q.18-.63.35-1.31t.35-1.43l.43,1.75q.17.68.26,1l2.07,6.72Zm6.2-12.75h-7l-7,20.36H76L77,114.19h7.88l1,3.64h1.27L90,113.55,84.43,97.48Z" transform="translate(0 0)"/><polygon class="b" points="89.99 113.55 87.22 117.84 91.47 117.84 89.99 113.55 89.99 113.55"/><path class="c" d="M133.16,107.35q0-.6-.07-1.32-.08-1-.24-2.27.6,1.31,1.11,2.27a11.65,11.65,0,0,0,.74,1.29l0,0h5.7l-7.25-9.87h-5.35v9.87Z" transform="translate(0 0)"/><polygon class="c" points="147.71 107.35 147.71 97.48 142.39 97.48 142.39 107.35 147.71 107.35 147.71 107.35"/><polygon class="c" points="127.82 108.04 127.82 117.84 133.17 117.84 133.17 108.04 127.82 108.04 127.82 108.04"/><path class="c" d="M142.4,108c0,.38,0,.8.07,1.25q.08,1,.24,2.25-.61-1.34-1.12-2.3t-.67-1.2h-5.7l7.17,9.8h5.33V108Z" transform="translate(0 0)"/><polygon class="c" points="155.25 109.84 161.91 109.84 161.91 108.04 149.85 108.04 149.85 117.84 162.32 117.84 162.32 113.28 155.25 113.28 155.25 109.84 155.25 109.84"/><polygon class="c" points="149.85 97.48 149.85 107.35 161.91 107.35 161.91 105.48 155.25 105.48 155.25 101.94 162.32 101.94 162.32 97.48 149.85 97.48 149.85 97.48"/><path class="c" d="M121.2,108a6.1,6.1,0,0,1-1.5,3.94,4.85,4.85,0,0,1-3.48,1.69v4.7a11,11,0,0,0,3.82-.81,11.11,11.11,0,0,0,3.56-2.32,10.31,10.31,0,0,0,3.15-7.2Z" transform="translate(0 0)"/><path class="c" d="M119.68,103.43a6.08,6.08,0,0,1,1.52,3.92h5.55a10.38,10.38,0,0,0-3.15-7.2,10.76,10.76,0,0,0-3.54-2.31,11,11,0,0,0-3.85-.81v4.7a4.87,4.87,0,0,1,3.46,1.7Z" transform="translate(0 0)"/><polygon class="c" points="93.97 107.36 100.73 107.36 107.01 97.6 87.88 97.6 87.88 102.52 97.09 102.52 93.97 107.36 93.97 107.36"/><polygon class="c" points="100.29 108.05 93.53 108.05 89.99 113.55 91.47 117.84 87.22 117.84 85.61 120.33 105.71 120.33 105.71 115.38 95.57 115.38 100.29 108.05 100.29 108.05"/><path class="c" d="M112,112a6.12,6.12,0,0,1-1.48-4H105a10.27,10.27,0,0,0,3.19,7.2,10.65,10.65,0,0,0,3.51,2.32,10.94,10.94,0,0,0,3.82.8v-4.7A4.83,4.83,0,0,1,112,112Z" transform="translate(0 0)"/><path class="c" d="M111.71,97.84a10.64,10.64,0,0,0-3.51,2.31,10.24,10.24,0,0,0-3.19,7.2h5.57a6.11,6.11,0,0,1,1.5-3.93,4.84,4.84,0,0,1,3.46-1.69V97a10.93,10.93,0,0,0-3.82.81Z" transform="translate(0 0)"/><path class="c" d="M164.94,99.11h.17c.2,0,.37-.07.37-.23s-.11-.24-.34-.24l-.2,0v.45Zm0,.89h-.37V98.43a3.18,3.18,0,0,1,.61,0,1,1,0,0,1,.55.12.44.44,0,0,1,.15.35.4.4,0,0,1-.33.37v0a.47.47,0,0,1,.29.38,1.2,1.2,0,0,0,.12.39h-.39a1.34,1.34,0,0,1-.13-.38c0-.17-.13-.25-.33-.25h-.17V100Zm-1-.83a1.22,1.22,0,0,0,1.23,1.26,1.21,1.21,0,0,0,1.2-1.25,1.22,1.22,0,1,0-2.43,0Zm2.84,0a1.62,1.62,0,1,1-1.62-1.58,1.59,1.59,0,0,1,1.62,1.58Z" transform="translate(0 0)"/></svg>