<svg xmlns="http://www.w3.org/2000/svg" viewBox="0 0 249.45 250.43"><defs><style>.a{fill:none;}.b{fill:#fff;}.c{fill:#231f20;}.d{fill:#fbb042;}</style></defs><title>gigazone-gaming-on-dark-2-color</title><polygon class="a" points="90.57 190.77 81.17 174.99 81.17 174.99 90.57 190.77"/><polygon class="b" points="175.05 86.85 175.08 86.85 175.07 86.83 163.28 67.05 175.07 86.83 175.05 86.85"/><path class="c" d="M138.14,131.37l-3.74,23.3-9.19-23.3h-5.37l-10.25,25.42h6.1l1.94-4.8h9.6l1.91,4.8h10.79l2-15.17,6.36,15.17h2.06l6.36-15.17,2,15.17h5.87l-4.08-25.42h-4.88l-6.33,15.2L143,131.37Zm-18.79,16.12,3.16-8.54,3.13,8.54Z" transform="translate(0 0)"/><path class="c" d="M72.39,106.52q0-.25,0-.46H61.46v4.27H67a4,4,0,0,1-1.65,2.76,5.8,5.8,0,0,1-3.53,1,4.9,4.9,0,0,1-3.92-1.67,6.8,6.8,0,0,1-1.43-4.58,6.73,6.73,0,0,1,1.43-4.54,4.91,4.91,0,0,1,3.92-1.66,5,5,0,0,1,2.41.58A5.85,5.85,0,0,1,66.16,104L71,101.71a10.35,10.35,0,0,0-3.88-3.52A11.43,11.43,0,0,0,61.81,97a11.78,11.78,0,0,0-4.28.77,10.31,10.31,0,0,0-5.84,5.7,11.5,11.5,0,0,0,0,8.38A10.29,10.29,0,0,0,54,115.3a9.75,9.75,0,0,0,3.44,2.27,12.16,12.16,0,0,0,4.4.74q5,0,7.81-2.9t2.78-8.16Q72.4,106.77,72.39,106.52Z" transform="translate(0 0)"/><rect class="c" x="44.13" y="97.46" width="5.61" height="20.37"/><path class="c" d="M42.87,104.69H30.69v4.77h6.17A4.43,4.43,0,0,1,35,112.55a6.48,6.48,0,0,1-3.94,1.16,5.47,5.47,0,0,1-4.38-1.86,7.59,7.59,0,0,1-1.6-5.11,7.51,7.51,0,0,1,1.6-5.07,5.48,5.48,0,0,1,4.38-1.86,5.63,5.63,0,0,1,2.7.64,6.53,6.53,0,0,1,2.17,2l5.38-2.58A11.56,11.56,0,0,0,37,95.89a12.76,12.76,0,0,0-5.91-1.32,13.16,13.16,0,0,0-4.78.85,11.51,11.51,0,0,0-6.52,6.36,12.31,12.31,0,0,0-.87,4.68,12.43,12.43,0,0,0,.89,4.67A11.49,11.49,0,0,0,22.31,115a10.89,10.89,0,0,0,3.85,2.54,13.58,13.58,0,0,0,4.92.83q5.62,0,8.73-3.24T42.9,106q0-.54,0-.82T42.87,104.69Z" transform="translate(0 0)"/><polygon class="b" points="62.54 174.99 62.54 174.99 67.67 166.36 62.54 174.99"/><polygon class="b" points="67.67 125.22 0 125.22 67.67 125.22 67.67 125.22"/><polygon class="b" points="74.38 163.6 74.38 163.6 81.17 174.99 81.17 174.99 74.38 163.6 74.39 163.58 74.37 163.58 74.38 163.6"/><path class="c" d="M214.3,157.36c3,0,6.25-.53,9.07-3.47s3.93-7.62,3.93-10.71v-.27H214.68v4.73h6.13a5.94,5.94,0,0,1-1.83,3,6.52,6.52,0,0,1-4.42,1.37,6.68,6.68,0,0,1-5.14-2,8,8,0,0,1-2.13-5.83,8.7,8.7,0,0,1,2.17-6,6.88,6.88,0,0,1,5.26-2.06,6.38,6.38,0,0,1,3.89,1.22,7.69,7.69,0,0,1,2.25,2.74l5.3-2.86A14.05,14.05,0,0,0,222,132.7a12.81,12.81,0,0,0-7.13-1.9c-3,0-6.86.46-10,3.7a14.47,14.47,0,0,0,.08,19.32C208,156.86,211.25,157.36,214.3,157.36Z" transform="translate(0 0)"/><polygon class="c" points="180.83 140.32 194.62 156.78 199.73 156.78 199.73 131.37 193.86 131.37 193.86 147.75 180.07 131.37 174.96 131.37 174.96 156.78 180.83 156.78 180.83 140.32"/><polygon class="b" points="181.78 125.22 249.45 125.22 181.78 125.22 181.78 125.22"/><path class="c" d="M111.57,142.91H99v4.73h6.14a5.93,5.93,0,0,1-1.83,3A6.52,6.52,0,0,1,98.84,152a6.68,6.68,0,0,1-5.14-2,8,8,0,0,1-2.13-5.83,8.7,8.7,0,0,1,2.17-6A6.88,6.88,0,0,1,99,136.13a6.38,6.38,0,0,1,3.89,1.22,7.69,7.69,0,0,1,2.25,2.74l5.3-2.86a14.05,14.05,0,0,0-4.12-4.53,12.81,12.81,0,0,0-7.13-1.9c-3,0-6.86.46-10,3.7a14.47,14.47,0,0,0,.08,19.32c3,3,6.25,3.54,9.3,3.54s6.25-.53,9.07-3.47,3.92-7.62,3.92-10.71Z" transform="translate(0 0)"/><rect class="c" x="166.27" y="131.37" width="5.87" height="25.42"/><path class="c" d="M85.89,117.84h1.27l2.77-4.29L84.37,97.46h-7l-7,20.37h5.52L77,114.19h7.89Zm-7.72-7.61,2-6.72q.18-.63.35-1.31t.35-1.43l.43,1.75q.17.68.26,1l2.07,6.72Z" transform="translate(0 0)"/><polygon class="b" points="119.35 147.49 125.64 147.49 122.51 138.95 119.35 147.49"/><path class="b" d="M81.35,102.52l-.43-1.75q-.18.75-.35,1.43t-.35,1.31l-2,6.72h5.52l-2.07-6.72Q81.52,103.2,81.35,102.52Z" transform="translate(0 0)"/><path class="b" d="M74.4,163.58H226.66l22.79-38.36H181.78l-.83-1.4-11.4-19.16,12.23-20.59h0L203.4,47.7,175.07,0,149.24,43.48l25.83,43.35v0H22.79L0,125.21H67.67L79.9,145.77,67.67,166.36h0L46,202.73l28.34,47.7L100.21,207,74.38,163.6h0v0h0Zm24.18-6.23c-3,0-6.33-.5-9.3-3.54a14.47,14.47,0,0,1-.08-19.32c3.13-3.24,7-3.7,10-3.7a12.81,12.81,0,0,1,7.13,1.9,14.05,14.05,0,0,1,4.12,4.53l-5.3,2.86a7.69,7.69,0,0,0-2.25-2.74A6.38,6.38,0,0,0,99,136.13a6.88,6.88,0,0,0-5.26,2.06,8.7,8.7,0,0,0-2.17,6A8,8,0,0,0,93.69,150a6.68,6.68,0,0,0,5.14,2,6.52,6.52,0,0,0,4.42-1.37,5.93,5.93,0,0,0,1.83-3H99v-4.73h12.61v.27c0,3.09-1.1,7.77-3.92,10.71S101.58,157.36,98.57,157.36Zm7.19-45.56A10.42,10.42,0,0,1,105,108h5.57a6.13,6.13,0,0,0,1.48,4,4.84,4.84,0,0,0,3.48,1.67v4.71a11,11,0,0,1-3.82-.81,10.66,10.66,0,0,1-3.51-2.32A10.33,10.33,0,0,1,105.77,111.8Zm99.15,22.69c3.12-3.24,7-3.7,10-3.7a12.81,12.81,0,0,1,7.13,1.9,14.05,14.05,0,0,1,4.12,4.53l-5.3,2.86a7.69,7.69,0,0,0-2.25-2.74,6.38,6.38,0,0,0-3.89-1.22,6.88,6.88,0,0,0-5.26,2.06,8.7,8.7,0,0,0-2.17,6,8,8,0,0,0,2.13,5.83,6.68,6.68,0,0,0,5.14,2,6.52,6.52,0,0,0,4.42-1.37,5.94,5.94,0,0,0,1.83-3h-6.13v-4.73h12.61v.27c0,3.09-1.1,7.77-3.93,10.71s-6.06,3.47-9.07,3.47-6.33-.5-9.3-3.54a14.47,14.47,0,0,1-.08-19.32Zm-30-3.13h5.11l13.79,16.39V131.37h5.87v25.42h-5.11l-13.79-16.46v16.46H175Zm-2.82,0v25.42h-5.87V131.37Zm-6.3-33.9h.68l.38,1.31v0a1.71,1.71,0,0,1,.07.3,1.26,1.26,0,0,1,0-.15l.05-.2.39-1.3h.69l.39,2.54h-.65l-.15-1.1c0-.08,0-.16,0-.26s0-.2,0-.31a3.06,3.06,0,0,1-.1.4l0,.07-.34,1.19h-.46l-.34-1.19,0-.07a2.82,2.82,0,0,1-.1-.4c0,.1,0,.19,0,.28s0,.19,0,.28l-.15,1.1h-.64Zm-2.39,0h1.83v.6h-.57V100H164V98.06h-.57Zm-13.62,0h12.48v4.47h-7.07v3.53h6.67v1.87H149.84Zm0,10.56h12.08v1.81h-6.67v3.44h7.07v4.56H149.84Zm5.83,23.34h4.88l4.08,25.42h-5.87l-2-15.17-6.36,15.17h-2.06L142,141.62l-2,15.17H129.14l-1.91-4.8h-9.6l-1.94,4.8h-6.1l10.25-25.42h5.37l9.19,23.3,3.74-23.3H143l6.33,15.2Zm-13.3-33.9h5.33v9.87h-5.33Zm-.8,11.77q.51,1,1.12,2.3-.17-1.27-.24-2.25c0-.45-.06-.87-.07-1.25h5.32v9.81h-5.33L135.2,108h5.7Q141.13,108.38,141.57,109.23ZM127.79,97.46h5.36l7.25,9.87h-5.7l0,0a11.7,11.7,0,0,1-.74-1.29q-.51-1-1.11-2.27.17,1.28.24,2.27c0,.48.06.92.07,1.32h-5.35Zm0,10.56h5.36v9.81h-5.36ZM116.18,97a11,11,0,0,1,3.85.81,10.78,10.78,0,0,1,3.54,2.32,10.39,10.39,0,0,1,3.15,7.21h-5.56a6.08,6.08,0,0,0-1.52-3.93,4.87,4.87,0,0,0-3.47-1.7Zm0,16.65a4.85,4.85,0,0,0,3.49-1.69,6.11,6.11,0,0,0,1.5-3.94h5.56a10.31,10.31,0,0,1-3.15,7.21,11.11,11.11,0,0,1-3.56,2.32,11,11,0,0,1-3.83.81Zm-4.51-15.85a10.93,10.93,0,0,1,3.82-.81v4.71a4.84,4.84,0,0,0-3.46,1.69,6.11,6.11,0,0,0-1.5,3.93H105a10.24,10.24,0,0,1,3.19-7.21A10.66,10.66,0,0,1,111.67,97.82Zm-23.84-.24H107l-6.29,9.77H93.92L97,102.51H87.82Zm-48,17.56q-3.1,3.24-8.73,3.24a13.58,13.58,0,0,1-4.92-.83A10.89,10.89,0,0,1,22.31,115a11.49,11.49,0,0,1-2.51-3.86,12.43,12.43,0,0,1-.89-4.67,12.31,12.31,0,0,1,.87-4.68,11.51,11.51,0,0,1,6.52-6.36,13.16,13.16,0,0,1,4.78-.85A12.76,12.76,0,0,1,37,95.89a11.56,11.56,0,0,1,4.33,3.93l-5.38,2.58a6.53,6.53,0,0,0-2.17-2,5.63,5.63,0,0,0-2.7-.64,5.48,5.48,0,0,0-4.38,1.86,7.51,7.51,0,0,0-1.6,5.07,7.59,7.59,0,0,0,1.6,5.11,5.47,5.47,0,0,0,4.38,1.86A6.48,6.48,0,0,0,35,112.55a4.43,4.43,0,0,0,1.84-3.08H30.69v-4.77H42.87q0,.23,0,.51t0,.82Q42.9,111.9,39.8,115.14Zm9.94,2.7H44.13V97.46h5.61Zm12.07.49a12.16,12.16,0,0,1-4.4-.74A9.75,9.75,0,0,1,54,115.3a10.29,10.29,0,0,1-2.25-3.46,11.5,11.5,0,0,1,0-8.38,10.31,10.31,0,0,1,5.84-5.7A11.78,11.78,0,0,1,61.81,97a11.43,11.43,0,0,1,5.29,1.18A10.35,10.35,0,0,1,71,101.71L66.16,104a5.85,5.85,0,0,0-1.94-1.76,5,5,0,0,0-2.41-.58,4.91,4.91,0,0,0-3.92,1.66,6.73,6.73,0,0,0-1.43,4.54,6.8,6.8,0,0,0,1.43,4.58,4.9,4.9,0,0,0,3.92,1.67,5.8,5.8,0,0,0,3.53-1A4,4,0,0,0,67,110.34H61.46v-4.27H72.37q0,.21,0,.46t0,.74q0,5.26-2.78,8.16T61.81,118.32ZM77,114.19l-1.06,3.65H70.39l7-20.37h7l5.56,16.08L93.48,108h6.76l-4.72,7.34h10.15v5H85.56l1.61-2.5H85.89l-1-3.65Z" transform="translate(0 0)"/><polygon class="c" points="91.41 117.84 89.93 113.54 87.16 117.84 91.41 117.84"/><polygon class="d" points="149.24 43.48 149.24 43.48 149.24 43.48 123.47 86.85 175.05 86.85 175.05 86.85 175.07 86.83 149.24 43.48"/><line class="d" x1="149.24" y1="43.48" x2="149.24" y2="43.48"/><polygon class="d" points="175.05 86.85 175.05 86.85 175.05 86.85 175.05 86.85"/><polygon class="d" points="249.45 125.22 203.4 47.7 181.78 84.07 194.01 104.64 181.78 125.22 249.45 125.22"/><path class="d" d="M133.07,106q-.08-1-.24-2.27.6,1.31,1.11,2.27a11.7,11.7,0,0,0,.74,1.29l0,0h5.7l-7.25-9.87h-5.36v9.87h5.35C133.13,106.94,133.11,106.5,133.07,106Z" transform="translate(0 0)"/><rect class="d" x="142.37" y="97.46" width="5.33" height="9.87"/><rect class="d" x="127.79" y="108.03" width="5.36" height="9.81"/><path class="d" d="M142.37,117.84h5.33V108h-5.32c0,.38,0,.8.07,1.25q.08,1,.24,2.25-.61-1.34-1.12-2.3t-.67-1.2h-5.7Z" transform="translate(0 0)"/><polygon class="d" points="162.32 113.27 155.25 113.27 155.25 109.83 161.91 109.83 161.91 108.03 149.84 108.03 149.84 117.84 162.32 117.84 162.32 113.27"/><polygon class="d" points="161.91 105.47 155.25 105.47 155.25 101.93 162.32 101.93 162.32 97.47 149.84 97.47 149.84 107.34 161.91 107.34 161.91 105.47"/><path class="d" d="M123.57,115.25a10.31,10.31,0,0,0,3.15-7.21h-5.56a6.11,6.11,0,0,1-1.5,3.94,4.85,4.85,0,0,1-3.49,1.69v4.71a11,11,0,0,0,3.83-.81A11.11,11.11,0,0,0,123.57,115.25Z" transform="translate(0 0)"/><path class="d" d="M121.16,107.35h5.56a10.39,10.39,0,0,0-3.15-7.21A10.78,10.78,0,0,0,120,97.82a11,11,0,0,0-3.85-.81v4.71a4.87,4.87,0,0,1,3.47,1.7A6.08,6.08,0,0,1,121.16,107.35Z" transform="translate(0 0)"/><polygon class="d" points="93.92 107.35 100.68 107.35 106.97 97.58 87.82 97.58 87.82 102.51 97.04 102.51 93.92 107.35"/><polygon class="d" points="95.52 115.38 100.24 108.04 95.52 115.38 95.52 115.38"/><polygon class="d" points="87.16 117.84 85.56 120.33 105.66 120.33 105.66 115.38 95.52 115.38 95.52 115.38 100.24 108.04 93.48 108.04 89.93 113.54 91.41 117.84 87.16 117.84"/><path class="d" d="M111.67,117.56a11,11,0,0,0,3.82.81v-4.71A4.84,4.84,0,0,1,112,112a6.13,6.13,0,0,1-1.48-4H105a10.27,10.27,0,0,0,3.19,7.21A10.66,10.66,0,0,0,111.67,117.56Z" transform="translate(0 0)"/><path class="d" d="M105,107.35h5.57a6.11,6.11,0,0,1,1.5-3.93,4.84,4.84,0,0,1,3.46-1.69V97a10.93,10.93,0,0,0-3.82.81,10.66,10.66,0,0,0-3.51,2.32,10.24,10.24,0,0,0-3.19,7.21Z" transform="translate(0 0)"/><polygon class="d" points="164.03 100 164.72 100 164.72 98.06 165.28 98.06 165.28 97.47 163.46 97.47 163.46 98.06 164.03 98.06 164.03 100"/><path class="d" d="M166.24,98.9c0-.09,0-.19,0-.28s0-.19,0-.28a2.82,2.82,0,0,0,.1.4l0,.07.34,1.19h.46l.34-1.19,0-.07a3.06,3.06,0,0,0,.1-.4c0,.11,0,.22,0,.31s0,.18,0,.26l.15,1.1h.65l-.39-2.54h-.69l-.39,1.3L167,99a1.26,1.26,0,0,0,0,.15,1.71,1.71,0,0,0-.07-.3v0l-.38-1.31h-.68l-.39,2.54h.64Z" transform="translate(0 0)"/><polygon class="d" points="74.39 163.58 74.39 163.58 74.38 163.6 100.21 206.95 100.21 206.95 125.97 163.58 74.39 163.58"/><line class="d" x1="100.21" y1="206.95" x2="100.21" y2="206.95"/><polygon class="d" points="74.39 163.58 74.39 163.58 74.39 163.58 74.39 163.58"/><polygon class="d" points="67.67 125.22 0 125.22 46.04 202.73 67.67 166.36 55.44 145.79 67.67 125.22"/></svg>