<svg xmlns="http://www.w3.org/2000/svg" viewBox="0 0 249.45 250.43"><defs><style>.a{fill:#231f20;}.b{fill:#58595b;}.c{fill:#fbb042;}.d{fill:#fff;}</style></defs><title>gigazone-gaming-on-light</title><polygon class="a" points="175.07 0 203.4 47.7 181.78 84.07 179.25 79.82 175.07 86.83 149.24 43.48 175.07 0"/><polygon class="a" points="74.38 250.43 46.04 202.73 67.67 166.36 70.2 170.62 74.38 163.6 100.21 206.95 74.38 250.43"/><polygon class="b" points="89.93 113.54 87.16 117.84 91.41 117.84 89.93 113.54"/><polygon class="b" points="181.78 125.22 181.78 125.22 180.94 123.82 180.94 123.82 169.54 104.67 180.12 86.85 181.78 84.07 181.78 84.07 179.25 79.82 175.07 86.83 175.08 86.85 175.05 86.85 22.79 86.85 0 125.22 67.67 125.22 67.67 125.22 79.91 145.77 69.32 163.58 67.67 166.36 67.67 166.36 70.2 170.62 74.38 163.6 74.37 163.58 74.39 163.58 226.66 163.58 249.45 125.22 181.78 125.22"/><polygon class="c" points="175.07 86.83 175.05 86.85 123.47 86.85 149.24 43.48 175.07 86.83"/><polygon class="c" points="203.4 47.7 181.78 84.07 194.01 104.64 181.78 125.22 249.45 125.22 203.4 47.7"/><path class="c" d="M133.15,97.46h-5.36v9.87h5.35c0-.4,0-.84-.07-1.32q-.08-1-.24-2.27.6,1.31,1.11,2.27a11.7,11.7,0,0,0,.74,1.29l0,0h5.7Z"/><rect class="c" x="142.37" y="97.46" width="5.33" height="9.87"/><rect class="c" x="127.79" y="108.03" width="5.36" height="9.81"/><path class="c" d="M142.45,109.28q.08,1,.24,2.25-.61-1.34-1.12-2.3t-.67-1.2h-5.7l7.17,9.81h5.33V108h-5.32C142.39,108.41,142.41,108.83,142.45,109.28Z"/><polygon class="c" points="155.25 109.83 161.91 109.83 161.91 108.03 149.84 108.03 149.84 117.84 162.32 117.84 162.32 113.27 155.25 113.27 155.25 109.83"/><polygon class="c" points="149.84 107.34 161.91 107.34 161.91 105.47 155.25 105.47 155.25 101.93 162.32 101.93 162.32 97.47 149.84 97.47 149.84 107.34"/><path class="c" d="M119.67,112a4.85,4.85,0,0,1-3.49,1.69v4.71a11,11,0,0,0,3.83-.81,11.11,11.11,0,0,0,3.56-2.32,10.31,10.31,0,0,0,3.15-7.21h-5.56A6.11,6.11,0,0,1,119.67,112Z"/><path class="c" d="M123.57,100.14A10.78,10.78,0,0,0,120,97.82a11,11,0,0,0-3.85-.81v4.71a4.87,4.87,0,0,1,3.47,1.7,6.08,6.08,0,0,1,1.52,3.93h5.56a10.39,10.39,0,0,0-3.15-7.21Z"/><polygon class="c" points="93.92 107.35 100.68 107.35 106.97 97.58 87.82 97.58 87.82 102.51 97.04 102.51 93.92 107.35"/><polygon class="c" points="95.52 115.38 100.24 108.04 95.52 115.38 95.52 115.38"/><polygon class="c" points="95.52 115.38 100.24 108.04 93.48 108.04 89.93 113.54 91.41 117.84 87.16 117.84 85.56 120.33 105.66 120.33 105.66 115.38 95.52 115.38 95.52 115.38"/><path class="c" d="M110.53,108H105a10.27,10.27,0,0,0,3.19,7.21,10.66,10.66,0,0,0,3.51,2.32,11,11,0,0,0,3.82.81v-4.71A4.84,4.84,0,0,1,112,112,6.13,6.13,0,0,1,110.53,108Z"/><path class="c" d="M108.15,100.14a10.24,10.24,0,0,0-3.19,7.21h5.57a6.11,6.11,0,0,1,1.5-3.93,4.84,4.84,0,0,1,3.46-1.69V97a10.93,10.93,0,0,0-3.82.81A10.66,10.66,0,0,0,108.15,100.14Z"/><polygon class="c" points="163.46 98.06 164.03 98.06 164.03 100 164.72 100 164.72 98.06 165.28 98.06 165.28 97.47 163.46 97.47 163.46 98.06"/><path class="c" d="M168.14,97.46h-.69l-.39,1.3L167,99a1.26,1.26,0,0,0,0,.15,1.71,1.71,0,0,0-.07-.3v0l-.38-1.31h-.68l-.39,2.54h.64l.15-1.1c0-.09,0-.19,0-.28s0-.19,0-.28a2.82,2.82,0,0,0,.1.4l0,.07.34,1.19h.46l.34-1.19,0-.07a3.06,3.06,0,0,0,.1-.4c0,.11,0,.22,0,.31s0,.18,0,.26l.15,1.1h.65Z"/><polygon class="c" points="74.38 163.6 74.39 163.58 125.97 163.58 100.21 206.95 74.38 163.6"/><polygon class="c" points="46.04 202.73 67.67 166.36 55.44 145.79 67.67 125.22 0 125.22 46.04 202.73"/><path class="d" d="M30.69,109.46v-4.77H42.87q0,.23,0,.51t0,.82q0,5.87-3.1,9.11t-8.73,3.24a13.58,13.58,0,0,1-4.92-.83A10.89,10.89,0,0,1,22.31,115a11.48,11.48,0,0,1-2.51-3.86,12.43,12.43,0,0,1-.89-4.67,12.31,12.31,0,0,1,.87-4.68,11.51,11.51,0,0,1,6.52-6.36,13.16,13.16,0,0,1,4.78-.85A12.76,12.76,0,0,1,37,95.89a11.56,11.56,0,0,1,4.33,3.93l-5.38,2.58a6.53,6.53,0,0,0-2.17-2,5.63,5.63,0,0,0-2.7-.64,5.48,5.48,0,0,0-4.38,1.86,7.51,7.51,0,0,0-1.6,5.07,7.59,7.59,0,0,0,1.6,5.11,5.47,5.47,0,0,0,4.38,1.86A6.48,6.48,0,0,0,35,112.55a4.43,4.43,0,0,0,1.84-3.08Z"/><path class="d" d="M44.13,117.84V97.46h5.61v20.37Z"/><path class="d" d="M61.46,110.34v-4.27H72.37q0,.21,0,.46t0,.74q0,5.26-2.78,8.16t-7.81,2.9a12.16,12.16,0,0,1-4.4-.74A9.75,9.75,0,0,1,54,115.3a10.29,10.29,0,0,1-2.25-3.46,11.5,11.5,0,0,1,0-8.38,10.31,10.31,0,0,1,5.84-5.7A11.78,11.78,0,0,1,61.81,97a11.43,11.43,0,0,1,5.29,1.18A10.35,10.35,0,0,1,71,101.71L66.16,104a5.85,5.85,0,0,0-1.94-1.76,5,5,0,0,0-2.41-.58,4.91,4.91,0,0,0-3.92,1.66,6.73,6.73,0,0,0-1.43,4.54,6.8,6.8,0,0,0,1.43,4.58,4.9,4.9,0,0,0,3.92,1.67,5.8,5.8,0,0,0,3.53-1A4,4,0,0,0,67,110.34Z"/><path class="d" d="M84.37,97.46h-7l-7,20.37h5.52L77,114.19h7.89l1,3.65h1.27l2.77-4.29Zm-6.21,12.76,2-6.72q.18-.63.35-1.31t.35-1.43l.43,1.75q.17.68.26,1l2.07,6.72Z"/><path class="d" d="M99,142.91h12.61v.27c0,3.09-1.1,7.77-3.92,10.71s-6.06,3.47-9.07,3.47-6.33-.5-9.3-3.54a14.47,14.47,0,0,1-.08-19.32c3.13-3.24,7-3.7,10-3.7a12.81,12.81,0,0,1,7.13,1.9,14.06,14.06,0,0,1,4.12,4.53l-5.3,2.86a7.69,7.69,0,0,0-2.25-2.74A6.38,6.38,0,0,0,99,136.13a6.88,6.88,0,0,0-5.26,2.06,8.7,8.7,0,0,0-2.17,6A8,8,0,0,0,93.69,150a6.68,6.68,0,0,0,5.14,2,6.52,6.52,0,0,0,4.42-1.37,5.93,5.93,0,0,0,1.83-3H99Z"/><path class="d" d="M127.24,152h-9.6l-1.94,4.8h-6.1l10.25-25.42h5.37l10,25.42h-6.1Zm-1.6-4.5-3.13-8.54-3.16,8.54Z"/><path class="d" d="M134.06,156.78l4.08-25.42H143l6.33,15.2,6.33-15.2h4.88l4.08,25.42h-5.87l-2-15.17-6.36,15.17h-2.06L142,141.62l-2,15.17Z"/><path class="d" d="M172.14,131.37v25.42h-5.87V131.37Z"/><path class="d" d="M175,156.78V131.37h5.11l13.79,16.39V131.37h5.87v25.42h-5.11l-13.79-16.46v16.46Z"/><path class="d" d="M214.68,142.91h12.61v.27c0,3.09-1.1,7.77-3.93,10.71s-6.06,3.47-9.07,3.47-6.33-.5-9.3-3.54a14.47,14.47,0,0,1-.08-19.32c3.12-3.24,7-3.7,10-3.7a12.81,12.81,0,0,1,7.13,1.9,14.05,14.05,0,0,1,4.12,4.53l-5.3,2.86a7.69,7.69,0,0,0-2.25-2.74,6.38,6.38,0,0,0-3.89-1.22,6.88,6.88,0,0,0-5.26,2.06,8.7,8.7,0,0,0-2.17,6,8,8,0,0,0,2.13,5.83,6.68,6.68,0,0,0,5.14,2,6.52,6.52,0,0,0,4.42-1.37,5.94,5.94,0,0,0,1.83-3h-6.13Z"/></svg>