<?xml version="1.0" encoding="UTF-8"?>
<svg id="Layer_1" data-name="Layer 1" xmlns="http://www.w3.org/2000/svg" viewBox="0 0 650.7 145.01">
  <defs>
    <style>
      .cls-1 {
        fill: #fff;
      }
    </style>
  </defs>
  <g>
    <path class="cls-1" d="M208.64,90.67v-29.05h74.2c.06.94.11,1.99.14,3.12.03,1.13.05,2.81.05,5.02,0,23.85-6.3,42.35-18.88,55.51-12.59,13.16-30.3,19.73-53.15,19.73-11.23,0-21.22-1.69-29.95-5.06-8.74-3.38-16.55-8.53-23.43-15.47-6.56-6.63-11.66-14.46-15.28-23.53-3.63-9.05-5.44-18.53-5.44-28.44s1.77-19.86,5.3-28.53c3.53-8.68,8.81-16.48,15.81-23.43,6.94-6.75,14.9-11.86,23.9-15.33,8.99-3.47,18.69-5.21,29.1-5.21,13.57,0,25.57,2.68,36.01,8.04,10.44,5.37,19.23,13.34,26.36,23.95l-32.75,15.71c-3.91-5.36-8.31-9.35-13.2-11.97-4.89-2.61-10.37-3.93-16.42-3.93-11.3,0-20.19,3.77-26.69,11.31-6.5,7.54-9.75,17.84-9.75,30.9s3.25,23.56,9.75,31.14c6.5,7.57,15.39,11.36,26.69,11.36,9.59,0,17.59-2.35,23.99-7.05,6.4-4.7,10.14-10.96,11.22-18.79h-37.57Z"/>
    <path class="cls-1" d="M463.42,90.67v-29.05h74.2c.06.94.11,1.99.14,3.12.03,1.13.05,2.81.05,5.02,0,23.85-6.3,42.35-18.88,55.51-12.59,13.16-30.3,19.73-53.15,19.73-11.23,0-21.22-1.69-29.95-5.06-8.74-3.38-16.55-8.53-23.43-15.47-6.56-6.63-11.66-14.46-15.28-23.53-3.63-9.05-5.44-18.53-5.44-28.44s1.77-19.86,5.3-28.53c3.53-8.68,8.81-16.48,15.81-23.43,6.94-6.75,14.9-11.86,23.9-15.33,8.99-3.47,18.69-5.21,29.1-5.21,13.57,0,25.57,2.68,36.01,8.04,10.44,5.37,19.23,13.34,26.36,23.95l-32.75,15.71c-3.91-5.36-8.31-9.35-13.2-11.97-4.89-2.61-10.37-3.93-16.42-3.93-11.3,0-20.19,3.77-26.69,11.31-6.5,7.54-9.75,17.84-9.75,30.9s3.25,23.56,9.75,31.14c6.5,7.57,15.39,11.36,26.69,11.36,9.59,0,17.59-2.35,23.99-7.05,6.4-4.7,10.14-10.96,11.22-18.79h-37.57Z"/>
    <polygon class="cls-1" points="329.89 114.8 391.68 114.8 391.68 145.01 269.21 145.01 339.17 36.43 283.04 36.43 283.04 6.44 399.63 6.44 329.89 114.8"/>
    <path class="cls-1" d="M594.41,43.12c-6.53,7.53-9.76,17.84-9.76,30.89s3.23,23.56,9.76,31.12c6.5,7.59,15.38,11.37,26.69,11.37,9.57,0,17.58-2.36,23.98-7.04,2.2-1.62,4.07-3.43,5.62-5.4v36.29c-8.66,3.1-18.55,4.65-29.6,4.65s-21.23-1.71-29.96-5.07c-8.76-3.39-16.58-8.53-23.43-15.48-6.56-6.62-11.67-14.48-15.28-23.53-3.65-9.05-5.46-18.52-5.46-28.44s1.78-19.87,5.3-28.53c3.55-8.69,8.82-16.48,15.8-23.43,6.95-6.75,14.93-11.86,23.91-15.32C600.97,1.73,610.66.01,621.1.01s20.75,1.71,29.6,5.17v42.49c-3.94-5.36-8.3-9.34-13.18-11.96-4.91-2.62-10.37-3.91-16.42-3.91-11.31,0-20.2,3.75-26.69,11.31Z"/>
  </g>
  <path class="cls-1" d="M123.91,80l-3.7,25.43h-22.17l-6.3,39.56h-29.13l6.52-39.56h-18.48l-6.3,39.56H15.65l6.52-39.56H0l3.91-25.43h21.96l3.04-18.04H6.96l3.91-25.22h21.96L38.7,0h28.69l-6.09,36.74h18.48L85.65,0h28.91l-5.87,36.74h21.74l-3.91,25.22h-21.74l-2.83,18.04h21.96ZM75.87,61.96h-18.48l-2.83,18.04h18.48l2.83-18.04Z"/>
</svg>