<svg xmlns="http://www.w3.org/2000/svg" viewBox="0 0 506.24 506.24"><defs><style>.a{fill:#231f20;}</style></defs><title>gigazone gaming championship atom - one color solid</title><path class="a" d="M249.17,85.27V19a127.46,127.46,0,0,0-58.08,16.32,155.09,155.09,0,0,0-25.61,17.76,194.86,194.86,0,0,0-35.88,41.21q3.07-1.24,6.18-2.42l1.4,3.7q-5.56,2.11-11,4.4l-.09-.22Q121,108.07,116.39,117l-.68.37.33.33L137.32,139A161.66,161.66,0,0,1,249.16,90.55h0Zm-108.3,9-1.35-3.72q5.59-2,11.33-3.86l1.21,3.76Q146.38,92.23,140.87,94.23Zm14.94-5-1.15-3.78q5.68-1.73,11.51-3.27l1,3.82Q161.43,87.53,155.81,89.24ZM171,85l-1-3.83q5.76-1.45,11.66-2.7l.82,3.86Q176.69,83.59,171,85Zm15.38-3.46-.77-3.88q5.82-1.16,11.77-2.13l.63,3.9Q192.13,80.41,186.37,81.56Zm15.52-2.72-.59-3.91q5.88-.89,11.86-1.58l.45,3.92Q207.7,78,201.89,78.84Zm15.64-2-.4-3.93q5.9-.61,11.91-1l.27,3.94Q223.38,76.25,217.53,76.86Zm15.72-1.26L233,71.65q5.93-.34,11.95-.49l.09,4Q239.12,75.26,233.25,75.6Z"/><path class="a" d="M487.33,252.59c-.06-28.23-9.89-54.8-27.1-78.11-12.46-16.88-28.87-32-48.28-44.83q1.23,3,2.4,6.13l-3.69,1.4q-2.11-5.56-4.4-11l.19-.08q-4.21-2.62-8.59-5.1l-4.24,4.24-19.34,19.34v0a160.43,160.43,0,0,1,30.18,48.89,161.82,161.82,0,0,1,11.32,59.6c0,.65,0,1.29-.05,1.93,0,.44,0,.89,0,1.33H431.2c0-1,0-1.9,0-2.85l0-4.53,4,0,0,4.58c0,1,0,1.9,0,2.85H487.2C487.24,255.12,487.33,253.86,487.33,252.59ZM412,140.86l3.72-1.35q2,5.59,3.86,11.33l-3.76,1.2Q414,146.38,412,140.86Zm8.22,26.31q-1.52-5.75-3.23-11.37l3.78-1.15q1.73,5.68,3.28,11.51Zm1,3.81,3.83-1q1.45,5.77,2.7,11.66l-3.87.82Q422.65,176.69,421.22,171Zm3.46,15.38,3.88-.77q1.17,5.83,2.13,11.77l-3.9.63Q425.83,192.13,424.68,186.36Zm2.72,15.52,3.91-.59q.89,5.88,1.58,11.86l-3.92.45Q428.27,207.7,427.4,201.89Zm2,15.64,3.93-.41q.62,5.92,1,11.92l-3.94.27Q430,223.38,429.38,217.53Zm1.74,27.53q-.14-5.94-.48-11.82l3.94-.23q.34,5.94.49,12Z"/><path class="a" d="M92.89,132.49c.28-.73.58-1.45.87-2.18a201.73,201.73,0,0,0-33.28,27.56c-16.24,16.84-28.3,35.9-35.12,56.42a123.42,123.42,0,0,0-6.44,39.37c0,.92.07,1.82.1,2.73H71.08l0-3.67q0-3.63.07-7.23l4,.08q-.07,3.56-.07,7.15l0,3.67H90.58c0-.45,0-.9,0-1.35,0-.64-.05-1.27-.05-1.91A162.15,162.15,0,0,1,132,144.66v0L112.39,125l-3.82-3.82q-4.6,2.6-9,5.36c-1,2.43-2,4.87-3,7.35ZM75.18,241.63l-4-.13q.2-6,.58-11.94l3.94.26Q75.37,235.68,75.18,241.63ZM76,225.88l-3.94-.31q.46-6,1.12-11.9l3.93.43Q76.49,220,76,225.88ZM77.6,210.2l-3.92-.49q.74-6,1.67-11.84l3.91.62Q78.33,204.29,77.6,210.2Zm2.29-15.6-3.9-.66q1-5.93,2.23-11.76l3.87.81Q80.89,188.73,79.89,194.6Zm3-15.46-3.86-.85q1.3-5.88,2.8-11.64l3.82,1Q84.21,173.32,82.92,179.13Zm3.78-15.3-3.81-1q1.59-5.81,3.38-11.48L90,152.49Q88.27,158.09,86.7,163.83Zm4.55-15.09-3.75-1.24q1.88-5.73,4-11.29l3.7,1.38Q93.11,143.09,91.25,148.74Z"/><path class="a" d="M381,393.64l-19.4-19.4h0a162.49,162.49,0,0,1-104.51,41.39h0v71.6c27-.82,52.32-10.5,74.69-27,16.88-12.46,32-28.86,44.83-48.27q-3,1.2-6,2.34l-1.4-3.7q5.57-2.11,11-4.41l0,.09q2.57-4.14,5-8.44ZM261.43,435.08l-.1-3.95q6-.14,11.81-.48l.23,3.94Q267.45,434.93,261.43,435.08Zm15.92-.75-.27-3.94q5.93-.41,11.78-1l.4,3.93Q283.36,433.91,277.36,434.33Zm15.88-1.46-.45-3.92q5.91-.68,11.72-1.56l.59,3.91Q299.21,432.17,293.23,432.87Zm15.8-2.2-.63-3.9q5.86-1,11.63-2.11l.78,3.88Q315,429.69,309,430.66Zm15.68-2.94-.82-3.86q5.82-1.24,11.52-2.67l1,3.83Q330.6,426.47,324.71,427.72Zm15.52-3.7-1-3.82q5.74-1.52,11.36-3.24l1.16,3.78Q346,422.48,340.22,424Zm15.32-4.47-1.21-3.76Q360,414,365.52,412l1.35,3.72Q361.29,417.71,355.54,419.55Z"/><path class="a" d="M257.07,75V90.61h0A161.7,161.7,0,0,1,368.9,139L390,117.87l.71-.71c-.52-.27-1-.57-1.54-.84q-4.5-8.68-9.55-16.76c-2.37-1-4.76-2-7.19-2.93L373.9,93l2,.81a201.11,201.11,0,0,0-27.54-33.29c-16.84-16.24-35.9-28.3-56.42-35.12a124.1,124.1,0,0,0-34.88-6.26v52c1.28,0,2.56,0,3.84,0l-.08,4C259.58,75.06,258.33,75.06,257.07,75Zm101.81,12.5q5.72,1.89,11.29,4l-1.39,3.7q-5.49-2.06-11.14-3.93Zm-15.28-4.61q5.81,1.6,11.48,3.39l-1.19,3.77q-5.6-1.77-11.33-3.34ZM328.12,79.1q5.88,1.3,11.63,2.81l-1,3.82q-5.68-1.48-11.49-2.77ZM312.47,76q5.93,1,11.75,2.24l-.81,3.87q-5.75-1.2-11.61-2.21ZM296.68,73.7q6,.74,11.85,1.68l-.63,3.9q-5.8-.93-11.7-1.66Zm-15.86-1.59q6,.46,11.91,1.13l-.44,3.92q-5.84-.65-11.77-1.11Zm-15.92-.86q6,.19,11.94.58l-.26,3.94q-5.86-.39-11.81-.58Z"/><path class="a" d="M249.17,435.15c-1.23,0-2.46,0-3.68,0l.08-4c1.2,0,2.41,0,3.61,0V415.63h0a162.47,162.47,0,0,1-104.47-41.42h0L125,393.85l-3.83,3.83q2.59,4.59,5.35,9c2.43,1,4.89,2,7.37,3l-1.43,3.68-2.18-.88c16.61,24.88,37,44.73,60,57.7a128,128,0,0,0,58.89,17ZM147.5,418.75q-5.72-1.89-11.29-4l1.38-3.7q5.5,2.05,11.15,3.92Zm15.28,4.6Q157,421.77,151.3,420l1.19-3.77q5.6,1.77,11.34,3.34Zm15.49,3.83q-5.88-1.3-11.63-2.8l1-3.82q5.68,1.48,11.49,2.76Zm15.65,3.06q-5.93-1-11.76-2.23l.81-3.87q5.74,1.2,11.61,2.2Zm15.78,2.32q-6-.74-11.84-1.67l.62-3.9q5.8.92,11.71,1.65Zm15.87,1.58q-6-.46-11.9-1.12l.43-3.92q5.85.65,11.77,1.11Zm15.92.86q-6-.19-11.95-.58l.26-3.94q5.86.39,11.81.57Z"/><path class="a" d="M53.12,340.76a194.86,194.86,0,0,0,41.2,35.88q-1.21-3-2.36-6l3.69-1.4q2.11,5.56,4.41,11l-.11,0q8.19,5.07,17,9.6l.38.74.37-.37L139,368.87a163,163,0,0,1-29.85-40,161,161,0,0,1-18.3-64.66v0H75.21c.1,3,.22,6,.39,9l-3.94.23c-.18-3.06-.3-6.14-.4-9.23H19.45a128.72,128.72,0,0,0,15.91,51A155.11,155.11,0,0,0,53.12,340.76Zm41.16,24.76-3.72,1.35q-2-5.58-3.86-11.33l3.76-1.21Q92.27,360,94.27,365.53ZM86,339.22q1.52,5.75,3.23,11.37l-3.78,1.15q-1.73-5.68-3.28-11.51Zm-1-3.81-3.83,1q-1.45-5.77-2.71-11.66l3.87-.82Q83.62,329.71,85.05,335.4ZM81.59,320l-3.88.78Q76.55,315,75.58,309l3.9-.63Q80.43,314.26,81.59,320ZM78.86,304.5l-3.91.59q-.89-5.88-1.58-11.86l3.92-.45Q78,298.69,78.86,304.5Zm-3-27.42q.41,5.93,1,11.78l-3.93.41q-.62-5.92-1-11.92Z"/><path class="a" d="M413.29,373.9c-.27.69-.55,1.37-.83,2.06,24.89-16.61,44.74-37,57.72-60a129.26,129.26,0,0,0,16.55-51.81H415.36v0a164.28,164.28,0,0,1-4.13,27.06,161.27,161.27,0,0,1-24.48,54.56,164,164,0,0,1-19.5,23.11L388.38,390l.7.7c.26-.5.55-1,.81-1.48q8.69-4.51,16.77-9.56c1-2.39,2-4.8,2.95-7.24ZM431,264.77l4,.13q-.19,6-.58,11.94l-3.94-.26Q430.86,270.71,431,264.77Zm-.85,15.74,3.94.31q-.46,6-1.13,11.91l-3.93-.44Q429.74,286.44,430.2,280.51Zm-1.58,15.68,3.92.48q-.74,6-1.68,11.85l-3.9-.62Q427.9,302.1,428.62,296.2Zm-2.3,15.59,3.89.67q-1,5.94-2.24,11.75l-3.87-.81Q425.31,317.66,426.32,311.79Zm-3,15.47,3.86.85q-1.3,5.88-2.81,11.64l-3.82-1Q422,333.07,423.28,327.26Zm-3.79,15.3,3.81,1q-1.59,5.81-3.38,11.48l-3.77-1.19Q417.92,348.29,419.5,342.56Zm-4.56,15.08,3.75,1.24q-1.89,5.72-4,11.29l-3.7-1.38Q413.08,363.29,414.94,357.64Z"/><path class="a" d="M252.55,4h.26V2l-.27-2c-4,0-8.06.2-12.05.58l.37,3.93C244.73,4.15,248.67,4,252.55,4Z"/><path class="a" d="M237,4.94,236.49,1c-4,.49-8,1.18-11.9,2l.85,3.86C229.25,6.08,233.13,5.42,237,4.94Z"/><path class="a" d="M206.72,12.46l-1.39-3.7c-3.72,1.4-7.46,3-11.1,4.71L195.93,17C199.47,15.36,203.1,13.82,206.72,12.46Z"/><path class="a" d="M111.79,404.35q3,1.43,6,2.81l1.64-3.6q-5.42-2.46-10.64-5.12l-.06.12-.3-.57-3.52,1.81c1.82,3.54,3.74,7.08,5.71,10.53l3.43-2C113.27,407,112.53,405.7,111.79,404.35Z"/><path class="a" d="M123.73,81.66l-3.27-2.22c-2.22,3.28-4.4,6.67-6.48,10.09l3.38,2.05C119.4,88.22,121.55,84.88,123.73,81.66Z"/><path class="a" d="M110.47,103.66l1.44,2.91q5.25-2.6,10.69-5L121,98c-3.38,1.49-6.72,3.06-10,4.65,1.39-2.57,2.82-5.13,4.29-7.64l-3.41-2c-2,3.43-4,7-5.82,10.47l3.49,1.84C109.88,104.74,110.18,104.2,110.47,103.66Z"/><path class="a" d="M116,411.77l-3.4,2c2.06,3.47,4.2,6.89,6.36,10.16l3.3-2.18C120.13,418.54,118,415.18,116,411.77Z"/><path class="a" d="M124.45,425l-3.26,2.23c2.27,3.32,4.63,6.59,7,9.72l3.14-2.39C129,431.51,126.68,428.3,124.45,425Z"/><path class="a" d="M187.55,21.34Q190,20,192.42,18.76l-1.79-3.52q-2.51,1.27-5,2.64-2.79,1.54-5.53,3.2l2,3.38Q184.83,22.84,187.55,21.34Z"/><path class="a" d="M178.83,26.52l-2.13-3.33c-3.35,2.14-6.69,4.44-9.9,6.83l2.36,3.17C172.3,30.86,175.55,28.61,178.83,26.52Z"/><path class="a" d="M133,69l-3.11-2.44c-2.43,3.1-4.83,6.34-7.14,9.64L126,78.42C128.24,75.19,130.6,72,133,69Z"/><path class="a" d="M160.42,40.15q2.77-2.37,5.61-4.58l-2.43-3.11q-2.9,2.27-5.74,4.69-1.74,1.49-3.47,3L157,43.12Q158.71,41.61,160.42,40.15Z"/><path class="a" d="M154.13,45.77l-2.7-2.88c-2.89,2.7-5.76,5.55-8.51,8.47l2.87,2.72C148.49,51.21,151.3,48.42,154.13,45.77Z"/><path class="a" d="M143.11,56.95l-2.92-2.66c-2.65,2.91-5.29,6-7.83,9.1l3.07,2.49C137.92,62.81,140.51,59.8,143.11,56.95Z"/><path class="a" d="M221.63,7.8l-1-3.83c-3.86,1-7.75,2.12-11.57,3.43l1.29,3.73C214.1,9.86,217.88,8.74,221.63,7.8Z"/><path class="a" d="M372.57,68.66l3.1-2.45C373.19,63.08,370.61,60,368,57l-3,2.61C367.6,62.54,370.14,65.58,372.57,68.66Z"/><path class="a" d="M362.4,56.7,365.31,54c-2.69-2.94-5.51-5.84-8.36-8.61l-2.75,2.83C357,51,359.75,53.81,362.4,56.7Z"/><path class="a" d="M354,42.66c-3-2.75-6-5.4-9.07-7.9l-2.49,3.06c3,2.44,6,5,8.87,7.73Z"/><path class="a" d="M328.73,23c-3.41-2.17-6.91-4.22-10.39-6.08l-1.86,3.49c3.39,1.81,6.8,3.81,10.13,5.93Z"/><path class="a" d="M341.83,32.26c-3.19-2.49-6.47-4.86-9.74-7.06l-2.2,3.28c3.2,2.15,6.4,4.47,9.52,6.9Z"/><path class="a" d="M381.86,81.34l3.27-2.23c-2.25-3.3-4.61-6.57-7-9.73L375,71.77C377.33,74.88,379.65,78.1,381.86,81.34Z"/><path class="a" d="M409.88,124.66l-3.45,1.47q2.79,1.73,5.51,3.52Q410.93,127.14,409.88,124.66Z"/><path class="a" d="M390.31,94.61l3.4-2c-2-3.46-4.18-6.88-6.35-10.17l-3.3,2.17C386.19,87.84,388.29,91.21,390.31,94.61Z"/><path class="a" d="M394.45,101.91c-1.94-.94-3.89-1.86-5.85-2.75l-1.64,3.6q5.42,2.47,10.64,5.13v0l.28.53,3.52-1.8c-1.82-3.55-3.73-7.09-5.7-10.54l-3.43,2C393,99.29,393.74,100.6,394.45,101.91Z"/><path class="a" d="M298.66,12.35,300,8.65q-2.32-.86-4.65-1.64Q292,5.88,288.57,4.93l-1.05,3.81q3.34.93,6.63,2Q296.41,11.51,298.66,12.35Z"/><path class="a" d="M314.77,15.07c-3.62-1.82-7.32-3.49-11-5l-1.48,3.67c3.56,1.44,7.16,3.06,10.69,4.83Z"/><path class="a" d="M408.71,385c1.3-3,2.54-6,3.75-9q-2.86,1.91-5.81,3.75c-.52,1.23-1,2.46-1.56,3.67Z"/><path class="a" d="M97.46,121.42c-1.28,2.92-2.51,5.9-3.7,8.89q2.86-1.91,5.8-3.75c.5-1.19,1-2.38,1.51-3.56Z"/><path class="a" d="M133.76,437.7l-3.1,2.45c2.5,3.16,5.08,6.26,7.69,9.21l3-2.62C138.76,443.85,136.22,440.81,133.76,437.7Z"/><path class="a" d="M284.68,3.91c-3.91-1-7.89-1.76-11.83-2.37l-.6,3.91c3.83.59,7.69,1.37,11.48,2.3Z"/><path class="a" d="M96.41,381.72l3.53-1.5c-1.9-1.17-3.78-2.36-5.63-3.58Q95.34,379.2,96.41,381.72Z"/><path class="a" d="M268.87,1c-4-.49-8-.8-12-.92L256.71,4c3.87.12,7.8.42,11.68.9Z"/><path class="a" d="M253.62,502.29l-.07,2,.15,2c4,0,8-.2,11.9-.56l-.36-3.93C261.41,502.1,257.52,502.28,253.62,502.29Z"/><path class="a" d="M336.28,473.61c-3,2.19-6,4.28-9,6.2l2.13,3.33c3.08-2,6.18-4.11,9.22-6.35l.68-.5-2.37-3.16Z"/><path class="a" d="M206.3,497.66c3.79,1.41,7.64,2.66,11.47,3.72l1.05-3.81c-3.72-1-7.47-2.24-11.15-3.61Z"/><path class="a" d="M395.84,402.38l-1.37-2.77q-5.25,2.6-10.69,5l1.6,3.61q5-2.2,9.76-4.56c-1.42,2.62-2.87,5.21-4.34,7.73l3.4,2c2-3.39,4-6.91,5.84-10.47l-3.49-1.84C396.31,401.53,396.07,402,395.84,402.38Z"/><path class="a" d="M313.7,487.58l1.79,3.52c3.53-1.78,7.07-3.75,10.52-5.84l-2-3.38C320.59,483.93,317.14,485.84,313.7,487.58Z"/><path class="a" d="M284.47,498.49l.95,3.83c3.87-1,7.76-2.1,11.57-3.41l-1.28-3.74C292,496.45,288.23,497.56,284.47,498.49Z"/><path class="a" d="M299.39,493.87l1.39,3.7c3.72-1.39,7.45-3,11.1-4.69l-1.69-3.57C306.64,491,303,492.51,299.39,493.87Z"/><path class="a" d="M352,460.55l2.69,2.89c2.88-2.69,5.75-5.54,8.53-8.46l-2.87-2.72C357.59,455.12,354.78,457.91,352,460.55Z"/><path class="a" d="M221.67,502.39c3.89,1,7.88,1.75,11.83,2.35l.6-3.91c-3.84-.58-7.7-1.35-11.49-2.28Z"/><path class="a" d="M269.12,501.33l.48,3.92c4-.49,8-1.17,11.9-2l-.83-3.86C276.86,500.2,273,500.85,269.12,501.33Z"/><path class="a" d="M143.94,449.66,141,452.33c2.73,3,5.55,5.87,8.38,8.61l2.75-2.84C149.38,455.42,146.62,452.58,143.94,449.66Z"/><path class="a" d="M363,449.39l2.92,2.66c2.68-2.94,5.31-6,7.83-9.09l-3.07-2.49C368.21,443.5,365.62,446.51,363,449.39Z"/><path class="a" d="M237.49,505.29c4,.48,8,.78,12,.9l.11-3.95c-3.89-.12-7.82-.41-11.67-.88Z"/><path class="a" d="M373.13,437.39l3.1,2.44c2.44-3.11,4.85-6.35,7.16-9.63l-3.23-2.27C377.89,431.16,375.53,434.34,373.13,437.39Z"/><path class="a" d="M382.4,424.7l3.27,2.22c2.24-3.3,4.42-6.69,6.49-10.08l-3.38-2.05C386.75,418.12,384.6,421.45,382.4,424.7Z"/><path class="a" d="M179.74,480l-2.12,3.33q3.54,2.25,7.14,4.29c1.08.61,2.16,1.2,3.25,1.78l1.86-3.48q-1.59-.86-3.17-1.74Q183.19,482.17,179.74,480Z"/><path class="a" d="M191.58,491.24c3.61,1.81,7.31,3.48,11,5l1.48-3.66c-3.57-1.44-7.17-3.07-10.69-4.84Z"/><path class="a" d="M340,470.75l2.43,3.11c3.12-2.44,6.22-5,9.22-7.72l-2.64-2.94C346.13,465.82,343.1,468.36,340,470.75Z"/><path class="a" d="M164.51,474.07c3.18,2.48,6.47,4.85,9.74,7l2.2-3.28c-3.2-2.15-6.41-4.47-9.52-6.89Z"/><path class="a" d="M152.32,463.69c3,2.74,6,5.4,9.06,7.89l2.49-3.06c-3-2.44-6-5-8.87-7.72Z"/><path class="a" d="M437.69,372.48l2.45,3.1c3.16-2.49,6.26-5.08,9.21-7.69l-2.62-3C443.84,367.49,440.8,370,437.69,372.48Z"/><path class="a" d="M425,381.79l2.23,3.26c3.3-2.26,6.57-4.62,9.73-7l-2.4-3.14C431.49,377.25,428.27,379.57,425,381.79Z"/><path class="a" d="M473.61,170c2.17,2.94,4.26,6,6.21,9l3.33-2.13c-2-3.11-4.13-6.21-6.46-9.37l-.37-.5-3.2,2.32Z"/><path class="a" d="M470.75,166.19l3.11-2.43c-2.44-3.13-5-6.23-7.72-9.22l-2.94,2.64C465.82,160.1,468.36,163.14,470.75,166.19Z"/><path class="a" d="M449.66,362.3l2.67,2.91c3-2.73,5.87-5.55,8.6-8.38l-2.84-2.75C455.42,356.86,452.58,359.62,449.66,362.3Z"/><path class="a" d="M411.76,390.24l2,3.4c3.42-2,6.84-4.17,10.17-6.36l-2.17-3.3C418.5,386.14,415.13,388.24,411.76,390.24Z"/><path class="a" d="M124.66,96.36l1.46,3.42c1.14-1.84,2.3-3.67,3.48-5.46Q127.11,95.33,124.66,96.36Z"/><path class="a" d="M460.79,351.24l2.9,2.69c2.72-2.93,5.37-6,7.89-9.06l-3.06-2.5C466.05,345.38,463.46,348.37,460.79,351.24Z"/><path class="a" d="M494,298.56l3.7,1.38c1.41-3.78,2.66-7.64,3.72-11.47l-3.81-1.05C496.54,291.14,495.32,294.89,494,298.56Z"/><path class="a" d="M484.17,319.53q-2,3.52-4.19,7l3.33,2.12q2.25-3.54,4.29-7.15.92-1.62,1.79-3.25l-3.49-1.86Q485.06,318,484.17,319.53Z"/><path class="a" d="M402.55,110.48l-2.87,1.42q2.59,5.25,5,10.7l3.62-1.6q-2.23-5-4.63-9.91c2.61,1.42,5.21,2.87,7.75,4.36l2-3.41c-3.41-2-6.93-4-10.46-5.84l-1.85,3.49Z"/><path class="a" d="M383.37,101.16,385,97.54c-3-1.3-6-2.55-9-3.77q1.9,2.86,3.74,5.8C380.9,100.09,382.14,100.61,383.37,101.16Z"/><path class="a" d="M460.55,154.28l2.89-2.7c-2.71-2.9-5.56-5.77-8.46-8.52l-2.72,2.87C455.1,148.63,457.89,151.44,460.55,154.28Z"/><path class="a" d="M452,140.34c-2.9-2.65-6-5.28-9.09-7.83l-2.49,3.06c3.07,2.5,6.08,5.09,8.93,7.69Z"/><path class="a" d="M439.84,130c-3.11-2.44-6.35-4.85-9.63-7.15l-2.27,3.23c3.22,2.27,6.4,4.63,9.46,7Z"/><path class="a" d="M404.32,394.47q1.41-2.91,2.76-5.86L403.48,387q-2.47,5.41-5.13,10.63l0,0-.41.22,1.81,3.51c3.57-1.84,7.12-3.76,10.53-5.71l-2-3.43C407,393,405.68,393.72,404.32,394.47Z"/><path class="a" d="M426.91,120.58c-3.27-2.22-6.66-4.4-10.08-6.49l-2.06,3.37c3.37,2.06,6.71,4.21,9.92,6.39Z"/><path class="a" d="M68.66,133.67l-2.45-3.1c-3.12,2.46-6.22,5-9.22,7.68l2.61,3C62.55,138.63,65.6,136.09,68.66,133.67Z"/><path class="a" d="M493.86,206.86l3.7-1.38c-1.39-3.72-3-7.46-4.7-11.1l-3.57,1.69C491,199.61,492.51,203.24,493.86,206.86Z"/><path class="a" d="M498.49,221.77l3.84-.95c-1-3.86-2.1-7.76-3.41-11.57l-3.74,1.28C496.45,214.24,497.57,218,498.49,221.77Z"/><path class="a" d="M94.61,115.94l-2-3.4c-3.46,2.05-6.88,4.19-10.17,6.35l2.17,3.3C87.83,120.06,91.2,118,94.61,115.94Z"/><path class="a" d="M101.89,111.8q-1.43,3-2.81,6l3.6,1.63q2.45-5.41,5.11-10.64l-.11-.06.7-.37-1.8-3.52c-3.57,1.83-7.11,3.75-10.54,5.71L98,114C99.28,113.23,100.59,112.52,101.89,111.8Z"/><path class="a" d="M470.95,339.3l3.12,2.43c2.46-3.17,4.83-6.45,7-9.74l-3.28-2.2C475.67,333,473.35,336.21,470.95,339.3Z"/><path class="a" d="M81.34,124.38l-2.23-3.27c-3.34,2.28-6.61,4.64-9.73,7l2.4,3.14C74.83,128.94,78.05,126.62,81.34,124.38Z"/><path class="a" d="M498.56,283.64l3.84.94c1-3.92,1.75-7.91,2.35-11.83l-3.91-.59C500.26,276,499.49,279.83,498.56,283.64Z"/><path class="a" d="M487.71,312.9l3.53,1.77c1.82-3.63,3.49-7.32,5-11l-3.66-1.48C491.1,305.77,489.48,309.37,487.71,312.9Z"/><path class="a" d="M501.37,268.28l3.92.47c.48-4,.78-8,.9-12l-4-.12C502.13,260.5,501.83,264.43,501.37,268.28Z"/><path class="a" d="M56.7,143.84,54,140.93c-3,2.71-5.85,5.53-8.61,8.37l2.84,2.75C51,149.26,53.8,146.5,56.7,143.84Z"/><path class="a" d="M123,405.17l-1.59,3.62c2.92,1.28,5.89,2.5,8.88,3.7q-1.91-2.86-3.75-5.81C125.36,406.18,124.17,405.68,123,405.17Z"/><path class="a" d="M381.72,409.83l-1.51-3.54q-1.78,2.87-3.62,5.67Q379.17,410.91,381.72,409.83Z"/><path class="a" d="M487.59,192.55l3.52-1.78c-1.79-3.54-3.75-7.08-5.85-10.53l-3.38,2C483.92,185.65,485.84,189.11,487.59,192.55Z"/><path class="a" d="M12.46,299.52l-3.7,1.39c1.4,3.72,3,7.45,4.71,11.09L17,310.31C15.36,306.77,13.82,303.14,12.46,299.52Z"/><path class="a" d="M7.8,284.61l-3.84,1c1,3.86,2.12,7.75,3.43,11.56l3.74-1.29C9.85,292.14,8.73,288.36,7.8,284.61Z"/><path class="a" d="M4.94,269.27,1,269.75c.49,3.95,1.17,7.95,2,11.89l3.86-.84C6.08,277,5.42,273.1,4.94,269.27Z"/><path class="a" d="M21.33,318.69q-1.33-2.41-2.57-4.86l-3.52,1.78q1.27,2.51,2.64,5,1.54,2.79,3.2,5.54l3.38-2Q22.84,321.41,21.33,318.69Z"/><path class="a" d="M26.52,327.42l-3.33,2.12c2.14,3.35,4.44,6.68,6.83,9.9l3.17-2.36C30.85,333.94,28.61,330.69,26.52,327.42Z"/><path class="a" d="M4,253.69v-.26H2l-2,.27c0,4,.2,8.08.58,12.06l3.94-.37C4.15,261.52,4,257.59,4,253.69Z"/><path class="a" d="M35.38,166.84l-3.12-2.43c-2.46,3.17-4.84,6.44-7.06,9.74l3.28,2.2C30.64,173.13,33,169.93,35.38,166.84Z"/><path class="a" d="M18.6,193.24l-3.53-1.77c-1.81,3.6-3.48,7.3-5,11l3.66,1.48C15.21,200.34,16.84,196.75,18.6,193.24Z"/><path class="a" d="M26.33,179.63,23,177.51c-2.17,3.41-4.22,6.91-6.09,10.39l3.49,1.87C22.21,186.37,24.21,183,26.33,179.63Z"/><path class="a" d="M45.55,154.9l-2.89-2.69c-2.73,2.93-5.39,6-7.9,9.06l3.06,2.5C40.28,160.76,42.88,157.77,45.55,154.9Z"/><path class="a" d="M4.91,237.85,1,237.37c-.49,4-.8,8-.93,12l4,.12C4.13,245.63,4.43,241.7,4.91,237.85Z"/><path class="a" d="M10.76,212.11q.76-2.28,1.6-4.54L8.65,206.2c-.57,1.54-1.11,3.1-1.64,4.66q-1.13,3.38-2.08,6.81l3.81,1.06Q9.67,215.39,10.76,212.11Z"/><path class="a" d="M7.75,222.5l-3.84-.95c-1,3.91-1.76,7.89-2.37,11.83l3.91.6C6,230.16,6.81,226.3,7.75,222.5Z"/><path class="a" d="M66.51,376.37c3.09,2.42,6.34,4.83,9.63,7.14l2.27-3.23c-3.24-2.28-6.43-4.64-9.47-7Z"/><path class="a" d="M40.15,345.82q-2.37-2.77-4.58-5.61l-3.11,2.43q2.27,2.91,4.69,5.75,1.49,1.75,3,3.47l2.94-2.64Q41.61,347.53,40.15,345.82Z"/><path class="a" d="M79.44,385.78c3.25,2.2,6.64,4.38,10.09,6.48l2.05-3.38c-3.39-2.07-6.74-4.21-9.92-6.37Z"/><path class="a" d="M103.83,395.86l2.79-1.38q-2.6-5.25-5-10.69L98,385.38q2.21,5,4.58,9.8c-2.58-1.4-5.14-2.82-7.62-4.28l-2,3.41c3.4,2,6.92,4,10.47,5.83l1.85-3.49Z"/><path class="a" d="M501.34,237.12l3.92-.48c-.48-4-1.16-8-2-11.9l-3.86.84C500.21,229.4,500.86,233.28,501.34,237.12Z"/><path class="a" d="M502.29,252.55l2,.15,2-.15c0-4-.2-8-.56-11.9l-3.94.36C502.1,244.83,502.29,248.72,502.29,252.55Z"/><path class="a" d="M54.28,366c2.94,2.68,6,5.31,9.1,7.82l2.49-3.07c-3-2.47-6-5.05-8.93-7.68Z"/><path class="a" d="M45.77,352.11l-2.88,2.7c2.7,2.89,5.55,5.75,8.47,8.51l2.72-2.87C51.21,357.74,48.42,354.94,45.77,352.11Z"/><path class="a" d="M341.29,314.83H243.38l52.44-82.31H255.14V196.86H344.9a107.65,107.65,0,0,0-191.47,15.67c.21-.21.41-.43.62-.64a59.46,59.46,0,0,1,20.18-13.05A67.26,67.26,0,0,1,199,194.35q18,0,32,7.89a61.21,61.21,0,0,1,22.9,23.1l-37.55,13.93a20.32,20.32,0,0,0-7.13-7.29,18.72,18.72,0,0,0-9.53-2.4,18,18,0,0,0-14.93,7.13q-5.57,7.13-5.57,19.14,0,12.41,5.61,19.26t15.85,6.85a17.37,17.37,0,0,0,9.89-2.56,10.16,10.16,0,0,0,4.52-7.13H196.72V244.72h64.77q.16,3.6.24,5.36t.08,3.12a82,82,0,0,1-1.92,18.42,53.56,53.56,0,0,1-5.61,14.73,62.32,62.32,0,0,1-23.14,23q-14.17,8-32.19,8a67.49,67.49,0,0,1-24.7-4.44,59.07,59.07,0,0,1-16.4-9.67,107.62,107.62,0,0,0,183.44,11.6Z"/><path class="a" d="M357.84,278a107.44,107.44,0,0,0-4.41-63.85L313.28,278Z"/><path class="a" d="M351.8,308.19v4.21h1v-1.69h.46c.54,0,.8.2.87.67a3.6,3.6,0,0,0,.33,1h1.05a3.2,3.2,0,0,1-.31-1.05,1.24,1.24,0,0,0-.77-1v-.05a1.08,1.08,0,0,0,.87-1,1.17,1.17,0,0,0-.41-.92,2.63,2.63,0,0,0-1.46-.31A8.37,8.37,0,0,0,351.8,308.19Zm2.44,1.21c0,.44-.44.62-1,.62h-.46v-1.21a2.25,2.25,0,0,1,.54-.05C354,308.75,354.24,309,354.24,309.4Z"/><path class="a" d="M349.1,310.19a4.33,4.33,0,0,0,8.66,0,4.33,4.33,0,0,0-8.66,0Zm7.58,0a3.22,3.22,0,0,1-3.21,3.34,3.37,3.37,0,1,1,3.21-3.34Z"/><path class="a" d="M124,264.15H106.75A145.69,145.69,0,0,0,150.2,357.7l.27-.27,11.85-11.85A128.56,128.56,0,0,1,124,264.15Z"/><path class="a" d="M257.07,382.68v17.14A146.13,146.13,0,0,0,350.41,363l-.27-.27-11.9-11.9A129,129,0,0,1,257.07,382.68Z"/><path class="a" d="M249.17,399.81V382.67A129,129,0,0,1,168,350.86l-11.87,11.87-.27.27A146.05,146.05,0,0,0,249.17,399.81Z"/><path class="a" d="M257.07,106.8v16.77a129.19,129.19,0,0,1,88.53,38.73l11.85-11.85.27-.27a146.27,146.27,0,0,0-100.65-43.75Z"/><path class="a" d="M399.48,256.39h.38c0-1.09.1-2.17.1-3.26A145.84,145.84,0,0,0,363,155.83l-.27.27L350.88,168a129.32,129.32,0,0,1,31.92,85.13c0,1.1-.07,2.18-.1,3.26Z"/><path class="a" d="M356.07,357.72a147.75,147.75,0,0,0,17.69-20.94,146.06,146.06,0,0,0,22.1-49.26,147.9,147.9,0,0,0,3.63-23.38H382.28a130.77,130.77,0,0,1-3.09,19.37A129,129,0,0,1,359.67,327a130.46,130.46,0,0,1-15.72,18.59l11.85,11.85Z"/><path class="a" d="M249.17,123.59V106.44a146.17,146.17,0,0,0-100.62,43.76l.27.27,11.85,11.85A129.1,129.1,0,0,1,249.17,123.59Z"/><path class="a" d="M143.52,156.15l-.27-.27a145.8,145.8,0,0,0-37,97.23c0,1.1.08,2.17.1,3.26h17.14c0-1.09-.1-2.17-.1-3.26a128.71,128.71,0,0,1,32-85.09Z"/></svg>