<svg xmlns="http://www.w3.org/2000/svg" viewBox="0 0 506.24 506.24"><defs><style>.a{fill:#231f20;}</style></defs><title>gigazone gaming championship atom - one color solid horizontal halftone</title><path class="a" d="M249.17,90.93V19a127.46,127.46,0,0,0-58.08,16.32,155.09,155.09,0,0,0-25.61,17.76,194.86,194.86,0,0,0-35.88,41.21q3.07-1.24,6.18-2.42l1.4,3.7q-5.56,2.11-11,4.4l-.09-.22Q121,108.07,116.39,117l-.68.37.33.33,21.55,21.55,1-1v2l1,1v-4q1.55-1.52,3.14-3v10.11l1,1v-12q1.55-1.42,3.14-2.79v18l1,1V129.69q1.55-1.33,3.14-2.61v20.7q-1.24,1.2-2.44,2.43l12.11,12.11a129.1,129.1,0,0,1,88.5-38.73V106.44l-2,.08V91ZM245,71.16l.09,4q-5.94.14-11.81.48L233,71.65Q239,71.31,245,71.16ZM229,71.9l.27,3.94q-5.93.41-11.78,1l-.4-3.93Q223,72.31,229,71.9Zm-15.88,1.46.45,3.92q-5.91.68-11.72,1.56l-.59-3.91Q207.18,74.05,213.16,73.36Zm-15.79,2.19.63,3.9q-5.87,1-11.63,2.11l-.77-3.88Q191.42,76.52,197.36,75.56Zm-15.68,2.94.82,3.86Q176.69,83.59,171,85l-1-3.83Q175.79,79.74,181.69,78.49Zm-15.52,3.69,1,3.82q-5.75,1.52-11.37,3.24l-1.15-3.78Q160.34,83.73,166.17,82.19Zm-25.3,12-1.35-3.72q5.59-2,11.33-3.86l1.21,3.76Q146.38,92.23,140.87,94.23ZM152,146.83V126.27q1.55-1.24,3.14-2.44v20.1Q153.54,145.36,152,146.83Zm4.14-3.8V123.08q1.55-1.16,3.14-2.29v19.55Q157.68,141.67,156.13,143Zm4.14-3.51V120.08q1.55-1.09,3.14-2.14V137Q161.82,138.25,160.27,139.52Zm4.14-3.27v-19q1.56-1,3.14-2v18.66Q166,135.07,164.41,136.25Zm4.14-3V114.67q1.56-1,3.14-1.87v18.27Q170.1,132.12,168.54,133.22Zm4.14-2.83V112.22q1.56-.89,3.14-1.75v17.93Q174.23,129.38,172.68,130.4Zm4.14-2.61V109.92q1.56-.83,3.14-1.63v17.63Q178.37,126.83,176.82,127.78Zm4.14-2.44V107.79q1.56-.78,3.14-1.52v17.35Q182.51,124.46,181,125.34Zm4.14-2.25V105.81q1.56-.72,3.14-1.41v17.1Q186.65,122.28,185.09,123.09Zm4.14-2.08V104q1.56-.67,3.14-1.31v16.88Q190.78,120.25,189.23,121Zm4.14-1.93V102.26q1.56-.62,3.14-1.21v16.67Q194.92,118.38,193.36,119.08Zm4.14-1.77V100.68q1.56-.57,3.14-1.11v16.49Q199.06,116.67,197.5,117.31Zm4.14-1.62V99.23c1-.35,2.09-.68,3.14-1v16.33Q203.19,115.1,201.63,115.69Zm4.14-1.48V97.9c1-.32,2.09-.62,3.14-.92v16.19Q207.33,113.68,205.77,114.21Zm4.14-1.35V96.7q1.56-.43,3.14-.83v16.06Q211.47,112.38,209.91,112.86Zm4.14-1.2v-16c1-.26,2.09-.51,3.14-.75v16Q215.61,111.22,214,111.66Zm4.14-1.07V94.66c1-.23,2.09-.45,3.14-.66v15.86Q219.74,110.2,218.18,110.59Zm4.14-.95V93.81c1-.2,2.09-.4,3.14-.58V109Q223.88,109.31,222.32,109.64Zm4.14-.82V93.07c1-.17,2.09-.34,3.14-.49v15.7Q228,108.53,226.45,108.82Zm4.14-.7V92.44c1-.14,2.09-.28,3.14-.41v15.64C232.68,107.81,231.63,108,230.59,108.12Zm4.14-.58V91.92c1-.12,2.09-.23,3.14-.33v15.58Q236.29,107.34,234.73,107.54Zm4.14-.45V91.51c1-.09,2.09-.18,3.14-.25v15.55C241,106.89,239.91,107,238.86,107.08Zm7.27-.52c-1,0-2.09.11-3.14.18V91.2c1-.06,2.09-.12,3.14-.17Z"/><path class="a" d="M487.33,252.59c-.06-28.23-9.89-54.8-27.1-78.11-12.46-16.88-28.87-32-48.28-44.83q1.23,3,2.4,6.13l-3.69,1.4q-2.11-5.56-4.4-11l.19-.08q-4.21-2.62-8.59-5.1l-4.24,4.24L374,144.89l.38.44v25q-1.53-2.23-3.14-4.4V147.64l-1,1v16q-1.54-2-3.14-4v-8.84l-1,1v6.63c-1-1.21-2-2.4-3.06-3.57L350.88,168a129.32,129.32,0,0,1,31.92,85.13c0,1.1-.07,2.18-.1,3.26h17.48V184.55q1.65,3.56,3.14,7.21v64.62h1V194.26q1.69,4.34,3.14,8.8v53.33h1V206.25q1.79,5.91,3.14,12v38.14h1V223.16a162,162,0,0,1,2.79,30c0,1.1-.08,2.17-.1,3.26H431.2c0-1,0-1.9,0-2.85l0-4.53,4,0,0,4.58c0,1,0,1.9,0,2.85H487.2C487.24,255.12,487.33,253.86,487.33,252.59Zm-112-80.8V146.46q1.59,1.82,3.14,3.69v26.54Q377,174.21,375.37,171.79Zm4.14,6.57v-27q1.6,2,3.14,4V184Q381.14,181.12,379.51,178.37Zm4.14,7.5V156.72q1.61,2.17,3.14,4.39v31.25Q385.29,189.07,383.64,185.86Zm6.09,13.46c-.62-1.58-1.28-3.14-2-4.7V162.56c1.08,1.6,2.12,3.22,3.14,4.85v35Q390.34,200.87,389.73,199.32Zm2.19,5.93V169q1.62,2.67,3.14,5.42v41.08Q393.67,210.3,391.92,205.24Zm7.27,33a146.06,146.06,0,0,0-3.14-18.7V176.28q1.63,3,3.14,6.17ZM412,140.86l3.72-1.35q2,5.59,3.86,11.33l-3.76,1.2Q414,146.38,412,140.86Zm8.22,26.31q-1.52-5.75-3.23-11.37l3.78-1.15q1.73,5.68,3.28,11.51Zm1,3.81,3.83-1q1.45,5.77,2.7,11.66l-3.87.82Q422.65,176.69,421.22,171Zm3.46,15.38,3.88-.77q1.17,5.83,2.13,11.77l-3.9.63Q425.83,192.13,424.68,186.36Zm2.72,15.52,3.91-.59q.89,5.88,1.58,11.86l-3.92.45Q428.27,207.7,427.4,201.89Zm2,15.64,3.93-.41q.62,5.92,1,11.92l-3.94.27Q430,223.38,429.38,217.53Zm1.74,27.53q-.14-5.94-.48-11.82l3.94-.23q.34,5.94.49,12Z"/><path class="a" d="M381,393.64,361.35,374q-1.25,1.12-2.52,2.21v-4.73l-1-1V377q-1.55,1.31-3.14,2.59v-12.3l-1-1v14.1q-1.55,1.23-3.14,2.43V363.18l-.14-.14-12.16-12.16a129,129,0,0,1-81.18,31.8v17.14l1.47-.06v15.44l-1.47.05v72c27-.82,52.32-10.5,74.69-27,16.88-12.46,32-28.86,44.83-48.27q-3,1.2-6,2.34l-1.4-3.7q5.57-2.11,11-4.41l0,.09q2.57-4.14,5-8.44Zm-31.46-29.86v19.8q-1.55,1.15-3.14,2.26v-19.4Q348,365.14,349.55,363.79Zm-4.14,3.48v19.28q-1.56,1.08-3.14,2.12V369.73Q343.86,368.52,345.41,367.27Zm-12.41,9v18.06q-1.56.88-3.14,1.73V378.27Q331.45,377.3,333,376.29Zm-4.14,2.58V396.6q-1.56.82-3.14,1.61v-17.5Q327.31,379.81,328.87,378.87Zm-8.27,4.63v17.18q-1.56.71-3.14,1.39v-17Q319,384.31,320.6,383.5Zm-4.14,2.07V402.5q-1.56.66-3.14,1.29V387Q314.9,386.32,316.46,385.57Zm-4.14,1.89v16.72q-1.56.61-3.14,1.19V388.8Q310.76,388.15,312.32,387.46ZM304,390.81v16.36q-1.56.51-3.14,1V391.93Q302.49,391.39,304,390.81Zm-4.14,1.46v16.2q-1.56.47-3.14.91v-16.1Q298.35,392.79,299.91,392.27Zm-12.41,3.56v15.83q-1.56.34-3.14.64V396.54Q285.94,396.2,287.5,395.83Zm-4.14.93V412.5q-1.56.29-3.14.56V397.38Q281.8,397.09,283.37,396.76Zm-12.41,2v15.54c-1,.11-2.09.22-3.14.32V399.15Q269.39,399,271,398.8Zm-4.14.44v15.49q-1.56.13-3.14.23V399.5Q265.26,399.39,266.82,399.25Zm-7.27.49q1.57-.07,3.14-.17V415q-1.56.09-3.14.15Zm1.89,35.34-.1-3.95q6-.14,11.81-.48l.23,3.94Q267.45,434.93,261.43,435.08ZM272,414.23V398.67q1.57-.2,3.14-.44v15.6C274.05,414,273,414.11,272,414.23Zm4.14-16.15q1.57-.25,3.14-.53v15.67c-1,.17-2.09.32-3.14.47Zm1.26,36.24-.27-3.94q5.93-.41,11.78-1l.4,3.93Q283.36,433.91,277.36,434.33Zm11.15-22.89V395.59q1.58-.39,3.14-.81v15.94Q290.08,411.09,288.5,411.44Zm4.14-16.93q1.58-.44,3.14-.91v16.05q-1.56.42-3.14.82Zm.59,38.36-.45-3.92q5.91-.68,11.72-1.56l.59,3.91Q299.21,432.17,293.23,432.87Zm11.82-26V390.44q1.58-.6,3.14-1.23v16.52Q306.62,406.3,305,406.83Zm4,23.83-.63-3.9q5.86-1,11.63-2.11l.78,3.88Q315,429.69,309,430.66ZM321.6,383q1.58-.83,3.14-1.7v17.43q-1.56.77-3.14,1.5Zm3.11,44.74-.82-3.86q5.82-1.24,11.52-2.67l1,3.83Q330.6,426.47,324.71,427.72Zm9.3-34V375.63q1.58-1,3.14-2.13v18.42Q335.58,392.86,334,393.77Zm4.14-21c1.06-.75,2.1-1.52,3.14-2.3v18.83q-1.56,1-3.14,2ZM340.22,424l-1-3.82q5.74-1.52,11.36-3.24l1.16,3.78Q346,422.48,340.22,424Zm15.32-4.47-1.21-3.76Q360,414,365.52,412l1.35,3.72Q361.29,417.71,355.54,419.55Z"/><path class="a" d="M249.17,435.15c-1.23,0-2.46,0-3.68,0l.08-4c1.2,0,2.41,0,3.61,0V415.25l-2-.07V399.73l2,.08V382.67A129,129,0,0,1,168,350.86L155.88,363l-.74.74v18.6q-1.58-1.2-3.14-2.45v-13l-1,1v11.21q-1.58-1.29-3.14-2.61V371l-1,1v3.6c-.64-.56-1.29-1.12-1.92-1.68L125,393.85l-3.83,3.83q2.59,4.59,5.35,9c2.43,1,4.89,2,7.37,3l-1.43,3.68-2.18-.88c16.61,24.88,37,44.73,60,57.7a128,128,0,0,0,58.89,17ZM147.5,418.75q-5.72-1.89-11.29-4l1.38-3.7q5.5,2.05,11.15,3.92Zm90.36-19.68v15.52q-1.57-.15-3.14-.33V398.71Q236.29,398.91,237.86,399.07Zm-4.14-.49v15.56c-1-.12-2.09-.26-3.14-.4V398.14Q232.15,398.38,233.73,398.58Zm-8.27-1.33v15.69q-1.57-.27-3.14-.57V396.62Q223.88,397,225.45,397.25Zm-4.14-.85v15.77q-1.57-.31-3.14-.66V395.67Q219.74,396,221.32,396.4Zm-4.14-1V411.3q-1.57-.36-3.14-.74v-16Q215.61,395,217.18,395.43Zm-8.27-2.35V409.2q-1.57-.45-3.14-.92V392Q207.33,392.58,208.91,393.08Zm-4.14-1.37V408q-1.58-.49-3.14-1V390.57Q203.19,391.16,204.77,391.71Zm-12.41-5v16.81q-1.58-.64-3.14-1.31v-17Q190.78,386,192.36,386.73Zm-4.14-2v17q-1.58-.69-3.14-1.41V383.16Q186.65,384,188.23,384.76Zm-12.41-6.89v17.85q-1.58-.86-3.14-1.75V375.85Q174.23,376.88,175.82,377.86Zm-4.14-2.68v18.2q-1.58-.92-3.14-1.87V373Q170.09,374.13,171.68,375.19Zm-8.27-6v19q-1.58-1.05-3.14-2.14V366.73Q161.82,368,163.41,369.23Zm-7.27-6q1.55,1.37,3.14,2.68v19.48q-1.58-1.13-3.14-2.28Zm6.65,60.13Q157,421.77,151.3,420l1.19-3.77q5.6,1.77,11.34,3.34ZM164.41,370q1.55,1.18,3.14,2.32V390.9q-1.58-1-3.14-2Zm13.87,57.19q-5.88-1.3-11.63-2.8l1-3.82q5.68,1.48,11.49,2.76Zm-1.46-30.92V378.47q1.56.95,3.14,1.86v17.56Q178.37,397.09,176.82,396.26ZM181,380.91q1.56.88,3.14,1.73v17.27q-1.58-.74-3.14-1.52Zm13,49.34q-5.93-1-11.76-2.23l.81-3.87q5.74,1.2,11.61,2.2Zm-.57-26.32V387.17q1.56.7,3.14,1.36v16.6Q194.92,404.55,193.36,403.93Zm4.14-15q1.56.64,3.14,1.24v16.42q-1.58-.54-3.14-1.11Zm12.21,43.62q-6-.74-11.84-1.67l.62-3.9q5.8.92,11.71,1.65Zm.2-23.09V393.39q1.56.48,3.14.93v16Q211.47,409.91,209.91,409.47Zm15.67,24.68q-6-.46-11.9-1.12l.43-3.92q5.85.65,11.77,1.11Zm.88-36.71q1.56.29,3.14.54V413.6q-1.57-.23-3.14-.48Zm15,37.56q-6-.19-11.95-.58l.26-3.94q5.86.39,11.81.57Zm-2.63-20.33v-15.5q1.56.15,3.14.27v15.48C241,414.85,239.91,414.76,238.86,414.67ZM243,399.51q1.56.11,3.14.18v15.45c-1,0-2.09-.1-3.14-.17Z"/><path class="a" d="M413.29,373.9c-.27.69-.55,1.37-.83,2.06,24.89-16.61,44.74-37,57.72-60a129.27,129.27,0,0,0,16.55-51.81H415A164.76,164.76,0,0,1,412.6,283V264.15h-1v23.8q-.35,1.61-.73,3.2c-.72,3-1.52,5.93-2.4,8.84V264.15h-1v39q-1.45,4.46-3.14,8.81V264.15h-1v50.35q-1.48,3.63-3.14,7.17V264.15H382.28a130.76,130.76,0,0,1-3.09,19.37A129,129,0,0,1,359.67,327a130.46,130.46,0,0,1-15.72,18.59l12.12,12.12c.59-.58,1.17-1.18,1.76-1.77v3.52l1,1v-5.55q1.6-1.65,3.14-3.36v12l1,1V350.47q1.6-1.8,3.14-3.65v20.93l.89.89L388.38,390l.7.7c.26-.5.55-1,.81-1.48q8.69-4.51,16.77-9.56c1-2.39,2-4.8,2.95-7.24ZM431,264.77l4,.13q-.19,6-.58,11.94l-3.94-.26Q430.86,270.71,431,264.77Zm-.85,15.74,3.94.31q-.46,6-1.13,11.91l-3.93-.44Q429.74,286.44,430.2,280.51Zm-1.58,15.68,3.92.48q-.74,6-1.68,11.85l-3.9-.62Q427.9,302.1,428.62,296.2Zm-2.3,15.59,3.89.67q-1,5.94-2.24,11.75l-3.87-.81Q425.31,317.66,426.32,311.79Zm-3,15.47,3.86.85q-1.3,5.88-2.81,11.64l-3.82-1Q422,333.07,423.28,327.26Zm-3.79,15.3,3.81,1q-1.59,5.81-3.38,11.48l-3.77-1.19Q417.92,348.29,419.5,342.56Zm-4.56,15.08,3.75,1.24q-1.89,5.72-4,11.29l-3.7-1.38Q413.08,363.29,414.94,357.64ZM367.1,368.53V345.61q1.6-2,3.14-4v23.71Q368.68,367,367.1,368.53Zm4.14-4.25v-24c.86-1.16,1.7-2.32,2.52-3.5l.61-.9v25Q372.83,362.6,371.23,364.28Zm4.14-4.55V334.4q1.62-2.43,3.14-4.93V356Q377,357.91,375.37,359.73Zm4.14-4.91v-27q1.63-2.75,3.14-5.56V350.8Q381.1,352.84,379.51,354.82Zm6.94-9.24c-.91,1.31-1.85,2.6-2.8,3.89V320.34q1.64-3.19,3.14-6.46v31.2Zm1.34-2v-32q1.67-3.85,3.14-7.8v34.95Q389.39,341.22,387.78,343.61Zm4.14-6.47V301q1.75-5.08,3.14-10.31v41Q393.54,334.47,391.92,337.14Zm4.14-7.22V286.66a146.88,146.88,0,0,0,3.14-19.16v56.27Q397.68,326.89,396.05,329.93Z"/><path class="a" d="M252.55,4h.26V2l-.27-2c-4,0-8.06.2-12.05.58l.37,3.93C244.73,4.15,248.67,4,252.55,4Z"/><path class="a" d="M237,4.94,236.49,1c-4,.49-8,1.18-11.9,2l.85,3.86C229.25,6.08,233.13,5.42,237,4.94Z"/><path class="a" d="M206.72,12.46l-1.39-3.7c-3.72,1.4-7.46,3-11.1,4.71L195.93,17C199.47,15.36,203.1,13.82,206.72,12.46Z"/><path class="a" d="M111.79,404.35q3,1.43,6,2.81l1.64-3.6q-5.42-2.46-10.64-5.12l-.06.12-.3-.57-3.52,1.81c1.82,3.54,3.74,7.08,5.71,10.53l3.43-2C113.27,407,112.53,405.7,111.79,404.35Z"/><path class="a" d="M123.73,81.66l-3.27-2.22c-2.22,3.28-4.4,6.67-6.48,10.09l3.38,2.05C119.4,88.22,121.55,84.88,123.73,81.66Z"/><path class="a" d="M110.47,103.66l1.44,2.91q5.25-2.6,10.69-5L121,98c-3.38,1.49-6.72,3.06-10,4.65,1.39-2.57,2.82-5.13,4.29-7.64l-3.41-2c-2,3.43-4,7-5.82,10.47l3.49,1.84C109.88,104.74,110.18,104.2,110.47,103.66Z"/><path class="a" d="M116,411.77l-3.4,2c2.06,3.47,4.2,6.89,6.36,10.16l3.3-2.18C120.13,418.54,118,415.18,116,411.77Z"/><path class="a" d="M124.45,425l-3.26,2.23c2.27,3.32,4.63,6.59,7,9.72l3.14-2.39C129,431.51,126.68,428.3,124.45,425Z"/><path class="a" d="M187.55,21.34Q190,20,192.42,18.76l-1.79-3.52q-2.51,1.27-5,2.64-2.79,1.54-5.53,3.2l2,3.38Q184.83,22.84,187.55,21.34Z"/><path class="a" d="M178.83,26.52l-2.13-3.33c-3.35,2.14-6.69,4.44-9.9,6.83l2.36,3.17C172.3,30.86,175.55,28.61,178.83,26.52Z"/><path class="a" d="M133,69l-3.11-2.44c-2.43,3.1-4.83,6.34-7.14,9.64L126,78.42C128.24,75.19,130.6,72,133,69Z"/><path class="a" d="M160.42,40.15q2.77-2.37,5.61-4.58l-2.43-3.11q-2.9,2.27-5.74,4.69-1.74,1.49-3.47,3L157,43.12Q158.71,41.61,160.42,40.15Z"/><path class="a" d="M154.13,45.77l-2.7-2.88c-2.89,2.7-5.76,5.55-8.51,8.47l2.87,2.72C148.49,51.21,151.3,48.42,154.13,45.77Z"/><path class="a" d="M143.11,56.95l-2.92-2.66c-2.65,2.91-5.29,6-7.83,9.1l3.07,2.49C137.92,62.81,140.51,59.8,143.11,56.95Z"/><path class="a" d="M221.63,7.8l-1-3.83c-3.86,1-7.75,2.12-11.57,3.43l1.29,3.73C214.1,9.86,217.88,8.74,221.63,7.8Z"/><path class="a" d="M372.57,68.66l3.1-2.45C373.19,63.08,370.61,60,368,57l-3,2.61C367.6,62.54,370.14,65.58,372.57,68.66Z"/><path class="a" d="M362.4,56.7,365.31,54c-2.69-2.94-5.51-5.84-8.36-8.61l-2.75,2.83C357,51,359.75,53.81,362.4,56.7Z"/><path class="a" d="M354,42.66c-3-2.75-6-5.4-9.07-7.9l-2.49,3.06c3,2.44,6,5,8.87,7.73Z"/><path class="a" d="M328.73,23c-3.41-2.17-6.91-4.22-10.39-6.08l-1.86,3.49c3.39,1.81,6.8,3.81,10.13,5.93Z"/><path class="a" d="M341.83,32.26c-3.19-2.49-6.47-4.86-9.74-7.06l-2.2,3.28c3.2,2.15,6.4,4.47,9.52,6.9Z"/><path class="a" d="M381.86,81.34l3.27-2.23c-2.25-3.3-4.61-6.57-7-9.73L375,71.77C377.33,74.88,379.65,78.1,381.86,81.34Z"/><path class="a" d="M409.88,124.66l-3.45,1.47q2.79,1.73,5.51,3.52Q410.93,127.14,409.88,124.66Z"/><path class="a" d="M390.31,94.61l3.4-2c-2-3.46-4.18-6.88-6.35-10.17l-3.3,2.17C386.19,87.84,388.29,91.21,390.31,94.61Z"/><path class="a" d="M394.45,101.91c-1.94-.94-3.89-1.86-5.85-2.75l-1.64,3.6q5.42,2.47,10.64,5.13v0l.28.53,3.52-1.8c-1.82-3.55-3.73-7.09-5.7-10.54l-3.43,2C393,99.29,393.74,100.6,394.45,101.91Z"/><path class="a" d="M298.66,12.35,300,8.65q-2.32-.86-4.65-1.64Q292,5.88,288.57,4.93l-1.05,3.81q3.34.93,6.63,2Q296.41,11.51,298.66,12.35Z"/><path class="a" d="M314.77,15.07c-3.62-1.82-7.32-3.49-11-5l-1.48,3.67c3.56,1.44,7.16,3.06,10.69,4.83Z"/><path class="a" d="M408.71,385c1.3-3,2.54-6,3.75-9q-2.86,1.91-5.81,3.75c-.52,1.23-1,2.46-1.56,3.67Z"/><path class="a" d="M101.08,123l-3.62-1.59c-1.28,2.92-2.51,5.9-3.7,8.89q2.86-1.91,5.8-3.75C100.06,125.37,100.56,124.18,101.08,123Z"/><path class="a" d="M133.76,437.7l-3.1,2.45c2.5,3.16,5.08,6.26,7.69,9.21l3-2.62C138.76,443.85,136.22,440.81,133.76,437.7Z"/><path class="a" d="M284.68,3.91c-3.91-1-7.89-1.76-11.83-2.37l-.6,3.91c3.83.59,7.69,1.37,11.48,2.3Z"/><path class="a" d="M96.41,381.72l3.53-1.5c-1.9-1.17-3.78-2.36-5.63-3.58Q95.34,379.2,96.41,381.72Z"/><path class="a" d="M268.87,1c-4-.49-8-.8-12-.92L256.71,4c3.87.12,7.8.42,11.68.9Z"/><path class="a" d="M253.62,502.29l-.07,2,.15,2c4,0,8-.2,11.9-.56l-.36-3.93C261.41,502.1,257.52,502.28,253.62,502.29Z"/><path class="a" d="M336.28,473.61c-3,2.19-6,4.28-9,6.2l2.13,3.33c3.08-2,6.18-4.11,9.22-6.35l.68-.5-2.37-3.16Z"/><path class="a" d="M206.3,497.66c3.79,1.41,7.64,2.66,11.47,3.72l1.05-3.81c-3.72-1-7.47-2.24-11.15-3.61Z"/><path class="a" d="M395.84,402.38l-1.37-2.77q-5.25,2.6-10.69,5l1.6,3.61q5-2.2,9.76-4.56c-1.42,2.62-2.87,5.21-4.34,7.73l3.4,2c2-3.39,4-6.91,5.84-10.47l-3.49-1.84C396.31,401.53,396.07,402,395.84,402.38Z"/><path class="a" d="M313.7,487.58l1.79,3.52c3.53-1.78,7.07-3.75,10.52-5.84l-2-3.38C320.59,483.93,317.14,485.84,313.7,487.58Z"/><path class="a" d="M284.47,498.49l.95,3.83c3.87-1,7.76-2.1,11.57-3.41l-1.28-3.74C292,496.45,288.23,497.56,284.47,498.49Z"/><path class="a" d="M299.39,493.87l1.39,3.7c3.72-1.39,7.45-3,11.1-4.69l-1.69-3.57C306.64,491,303,492.51,299.39,493.87Z"/><path class="a" d="M352,460.55l2.69,2.89c2.88-2.69,5.75-5.54,8.53-8.46l-2.87-2.72C357.59,455.12,354.78,457.91,352,460.55Z"/><path class="a" d="M221.67,502.39c3.89,1,7.88,1.75,11.83,2.35l.6-3.91c-3.84-.58-7.7-1.35-11.49-2.28Z"/><path class="a" d="M269.12,501.33l.48,3.92c4-.49,8-1.17,11.9-2l-.83-3.86C276.86,500.2,273,500.85,269.12,501.33Z"/><path class="a" d="M143.94,449.66,141,452.33c2.73,3,5.55,5.87,8.38,8.61l2.75-2.84C149.38,455.42,146.62,452.58,143.94,449.66Z"/><path class="a" d="M363,449.39l2.92,2.66c2.68-2.94,5.31-6,7.83-9.09l-3.07-2.49C368.21,443.5,365.62,446.51,363,449.39Z"/><path class="a" d="M237.49,505.29c4,.48,8,.78,12,.9l.11-3.95c-3.89-.12-7.82-.41-11.67-.88Z"/><path class="a" d="M373.13,437.39l3.1,2.44c2.44-3.11,4.85-6.35,7.16-9.63l-3.23-2.27C377.89,431.16,375.52,434.34,373.13,437.39Z"/><path class="a" d="M382.4,424.7l3.27,2.22c2.24-3.3,4.42-6.69,6.49-10.08l-3.38-2.05C386.75,418.12,384.6,421.45,382.4,424.7Z"/><path class="a" d="M179.74,480l-2.12,3.33q3.54,2.25,7.14,4.29c1.08.61,2.16,1.2,3.25,1.78l1.86-3.48q-1.59-.86-3.17-1.74Q183.19,482.17,179.74,480Z"/><path class="a" d="M191.58,491.24c3.61,1.81,7.31,3.48,11,5l1.48-3.66c-3.57-1.44-7.17-3.07-10.69-4.84Z"/><path class="a" d="M340,470.75l2.43,3.11c3.12-2.44,6.22-5,9.22-7.72l-2.64-2.94C346.13,465.82,343.1,468.36,340,470.75Z"/><path class="a" d="M164.51,474.07c3.18,2.48,6.47,4.85,9.74,7l2.2-3.28c-3.2-2.15-6.41-4.47-9.52-6.89Z"/><path class="a" d="M152.32,463.69c3,2.74,6,5.4,9.06,7.89l2.49-3.06c-3-2.44-6-5-8.87-7.72Z"/><path class="a" d="M437.69,372.48l2.45,3.1c3.16-2.49,6.26-5.08,9.21-7.69l-2.62-3C443.84,367.49,440.8,370,437.69,372.48Z"/><path class="a" d="M425,381.79l2.23,3.26c3.3-2.26,6.57-4.62,9.73-7l-2.4-3.14C431.49,377.25,428.27,379.57,425,381.79Z"/><path class="a" d="M473.61,170c2.17,2.94,4.26,6,6.21,9l3.33-2.13c-2-3.11-4.13-6.21-6.46-9.37l-.37-.5-3.2,2.32Z"/><path class="a" d="M470.75,166.19l3.11-2.43c-2.44-3.13-5-6.23-7.72-9.22l-2.94,2.64C465.82,160.1,468.36,163.14,470.75,166.19Z"/><path class="a" d="M449.66,362.3l2.67,2.91c3-2.73,5.87-5.55,8.6-8.38l-2.84-2.75C455.42,356.86,452.58,359.62,449.66,362.3Z"/><path class="a" d="M411.76,390.24l2,3.4c3.42-2,6.84-4.17,10.17-6.36l-2.17-3.3C418.5,386.14,415.13,388.24,411.76,390.24Z"/><path class="a" d="M124.66,96.36l1.46,3.42c1.14-1.84,2.3-3.67,3.48-5.46Q127.11,95.33,124.66,96.36Z"/><path class="a" d="M460.79,351.24l2.9,2.69c2.72-2.93,5.37-6,7.89-9.06l-3.06-2.5C466.05,345.38,463.46,348.37,460.79,351.24Z"/><path class="a" d="M494,298.56l3.7,1.38c1.41-3.78,2.66-7.64,3.72-11.47l-3.81-1.05C496.54,291.14,495.32,294.89,494,298.56Z"/><path class="a" d="M484.17,319.53q-2,3.52-4.19,7l3.33,2.12q2.25-3.54,4.29-7.15.92-1.62,1.79-3.25l-3.49-1.86Q485.06,318,484.17,319.53Z"/><path class="a" d="M402.55,110.48l-2.87,1.42q2.59,5.25,5,10.7l3.62-1.6q-2.23-5-4.63-9.91c2.61,1.42,5.21,2.87,7.75,4.36l2-3.41c-3.41-2-6.93-4-10.46-5.84l-1.85,3.49Z"/><path class="a" d="M383.37,101.16,385,97.54c-3-1.3-6-2.55-9-3.77q1.9,2.86,3.74,5.8C380.9,100.09,382.14,100.61,383.37,101.16Z"/><path class="a" d="M460.55,154.28l2.89-2.7c-2.71-2.9-5.56-5.77-8.46-8.52l-2.72,2.87C455.1,148.63,457.89,151.44,460.55,154.28Z"/><path class="a" d="M452,140.34c-2.9-2.65-6-5.28-9.09-7.83l-2.49,3.06c3.07,2.5,6.08,5.09,8.93,7.69Z"/><path class="a" d="M439.84,130c-3.11-2.44-6.35-4.85-9.63-7.15l-2.27,3.23c3.22,2.27,6.4,4.63,9.46,7Z"/><path class="a" d="M404.32,394.47q1.41-2.91,2.76-5.86L403.48,387q-2.47,5.41-5.13,10.63l0,0-.41.22,1.81,3.51c3.57-1.84,7.12-3.76,10.53-5.71l-2-3.43C407,393,405.68,393.72,404.32,394.47Z"/><path class="a" d="M426.91,120.58c-3.27-2.22-6.66-4.4-10.08-6.49l-2.06,3.37c3.37,2.06,6.71,4.21,9.92,6.39Z"/><path class="a" d="M68.66,133.67l-2.45-3.1c-3.12,2.46-6.22,5-9.22,7.68l2.61,3C62.55,138.63,65.6,136.09,68.66,133.67Z"/><path class="a" d="M493.86,206.86l3.7-1.38c-1.39-3.72-3-7.46-4.7-11.1l-3.57,1.69C491,199.61,492.51,203.24,493.86,206.86Z"/><path class="a" d="M498.49,221.77l3.84-.95c-1-3.86-2.1-7.76-3.41-11.57l-3.74,1.28C496.45,214.24,497.57,218,498.49,221.77Z"/><path class="a" d="M94.61,115.94l-2-3.4c-3.46,2.05-6.88,4.19-10.17,6.35l2.17,3.3C87.83,120.06,91.2,118,94.61,115.94Z"/><path class="a" d="M101.89,111.8q-1.43,3-2.81,6l3.6,1.63q2.45-5.41,5.11-10.64l-.11-.06.7-.37-1.8-3.52c-3.57,1.83-7.11,3.75-10.54,5.71L98,114C99.28,113.23,100.59,112.52,101.89,111.8Z"/><path class="a" d="M470.95,339.3l3.12,2.43c2.46-3.17,4.83-6.45,7-9.74l-3.28-2.2C475.67,333,473.35,336.21,470.95,339.3Z"/><path class="a" d="M81.34,124.38l-2.23-3.27c-3.34,2.28-6.61,4.64-9.73,7l2.4,3.14C74.83,128.94,78.05,126.62,81.34,124.38Z"/><path class="a" d="M498.56,283.64l3.84.94c1-3.92,1.75-7.91,2.35-11.83l-3.91-.59C500.26,276,499.49,279.83,498.56,283.64Z"/><path class="a" d="M487.71,312.9l3.53,1.77c1.82-3.63,3.49-7.32,5-11l-3.66-1.48C491.1,305.77,489.48,309.37,487.71,312.9Z"/><path class="a" d="M501.37,268.28l3.92.47c.48-4,.78-8,.9-12l-4-.12C502.13,260.5,501.83,264.43,501.37,268.28Z"/><path class="a" d="M56.7,143.84,54,140.93c-3,2.71-5.85,5.53-8.61,8.37l2.84,2.75C51,149.26,53.8,146.5,56.7,143.84Z"/><path class="a" d="M123,405.17l-1.59,3.62c2.92,1.28,5.89,2.5,8.88,3.7q-1.91-2.86-3.75-5.81C125.36,406.18,124.17,405.68,123,405.17Z"/><path class="a" d="M381.72,409.83l-1.51-3.54q-1.78,2.87-3.62,5.67Q379.17,410.91,381.72,409.83Z"/><path class="a" d="M487.59,192.55l3.52-1.78c-1.79-3.54-3.75-7.08-5.85-10.53l-3.38,2C483.92,185.65,485.84,189.11,487.59,192.55Z"/><path class="a" d="M12.46,299.52l-3.7,1.39c1.4,3.72,3,7.45,4.71,11.09L17,310.31C15.36,306.77,13.82,303.14,12.46,299.52Z"/><path class="a" d="M7.8,284.61l-3.84,1c1,3.86,2.12,7.75,3.43,11.56l3.74-1.29C9.85,292.14,8.73,288.36,7.8,284.61Z"/><path class="a" d="M4.94,269.27,1,269.75c.49,3.95,1.17,7.95,2,11.89l3.86-.84C6.08,277,5.42,273.1,4.94,269.27Z"/><path class="a" d="M21.33,318.69q-1.33-2.41-2.57-4.86l-3.52,1.78q1.27,2.51,2.64,5,1.54,2.79,3.2,5.54l3.38-2Q22.84,321.41,21.33,318.69Z"/><path class="a" d="M26.52,327.42l-3.33,2.12c2.14,3.35,4.44,6.68,6.83,9.9l3.17-2.36C30.85,333.94,28.61,330.69,26.52,327.42Z"/><path class="a" d="M4,253.69v-.26H2l-2,.27c0,4,.2,8.08.58,12.06l3.94-.37C4.15,261.52,4,257.59,4,253.69Z"/><path class="a" d="M35.38,166.84l-3.12-2.43c-2.46,3.17-4.84,6.44-7.06,9.74l3.28,2.2C30.64,173.13,33,169.93,35.38,166.84Z"/><path class="a" d="M18.6,193.24l-3.53-1.77c-1.81,3.6-3.48,7.3-5,11l3.66,1.48C15.21,200.34,16.84,196.75,18.6,193.24Z"/><path class="a" d="M26.33,179.63,23,177.51c-2.17,3.41-4.22,6.91-6.09,10.39l3.49,1.87C22.21,186.37,24.21,183,26.33,179.63Z"/><path class="a" d="M45.55,154.9l-2.89-2.69c-2.73,2.93-5.39,6-7.9,9.06l3.06,2.5C40.28,160.76,42.88,157.77,45.55,154.9Z"/><path class="a" d="M4.91,237.85,1,237.37c-.49,4-.8,8-.93,12l4,.12C4.13,245.63,4.43,241.7,4.91,237.85Z"/><path class="a" d="M10.76,212.11q.76-2.28,1.6-4.54L8.65,206.2c-.57,1.54-1.11,3.1-1.64,4.66q-1.13,3.38-2.08,6.81l3.81,1.06Q9.67,215.39,10.76,212.11Z"/><path class="a" d="M7.75,222.5l-3.84-.95c-1,3.91-1.76,7.89-2.37,11.83l3.91.6C6,230.16,6.81,226.3,7.75,222.5Z"/><path class="a" d="M66.51,376.37c3.09,2.42,6.34,4.83,9.63,7.14l2.27-3.23c-3.24-2.28-6.43-4.64-9.47-7Z"/><path class="a" d="M40.15,345.82q-2.37-2.77-4.58-5.61l-3.11,2.43q2.27,2.91,4.69,5.75,1.49,1.75,3,3.47l2.94-2.64Q41.61,347.53,40.15,345.82Z"/><path class="a" d="M79.44,385.78c3.25,2.2,6.64,4.38,10.09,6.48l2.05-3.38c-3.39-2.07-6.74-4.21-9.92-6.37Z"/><path class="a" d="M103.83,395.86l2.79-1.38q-2.6-5.25-5-10.69L98,385.38q2.21,5,4.58,9.8c-2.58-1.4-5.14-2.82-7.62-4.28l-2,3.41c3.4,2,6.92,4,10.47,5.83l1.85-3.49Z"/><path class="a" d="M501.34,237.12l3.92-.48c-.48-4-1.16-8-2-11.9l-3.86.84C500.21,229.4,500.86,233.28,501.34,237.12Z"/><path class="a" d="M502.29,252.55l2,.15,2-.15c0-4-.2-8-.56-11.9l-3.94.36C502.1,244.83,502.29,248.72,502.29,252.55Z"/><path class="a" d="M54.28,366c2.94,2.68,6,5.31,9.1,7.82l2.49-3.07c-3-2.47-6-5.05-8.93-7.68Z"/><path class="a" d="M45.77,352.11l-2.88,2.7c2.7,2.89,5.55,5.75,8.47,8.51l2.72-2.87C51.21,357.74,48.42,354.94,45.77,352.11Z"/><path class="a" d="M341.56,314.45c.25-.36.48-.73.72-1.09v-35h3.14v30.1c.33-.56.68-1.11,1-1.67V278.34h3.14V300.9c.34-.69.67-1.39,1-2.09V278.34h3.14v13.09c.34-.9.68-1.8,1-2.71V278.34h3.07a107.55,107.55,0,0,0-4.49-64.67L350.55,218V207.42c-.33-.71-.65-1.43-1-2.14v14.31l-3.14,5V199.45c-.33-.58-.66-1.16-1-1.73v28.44l-3.14,5V197.24h2.86a107.66,107.66,0,0,0-191.71,15.29c.21-.21.41-.43.62-.64a59.46,59.46,0,0,1,20.18-13.05A67.26,67.26,0,0,1,199,194.35q18,0,32,7.89a61.21,61.21,0,0,1,22.9,23.1l-37.55,13.93a20.32,20.32,0,0,0-7.13-7.29,18.72,18.72,0,0,0-9.53-2.4,18,18,0,0,0-14.93,7.13q-5.57,7.13-5.57,19.14,0,12.41,5.61,19.26t15.85,6.85a17.37,17.37,0,0,0,9.89-2.56,10.16,10.16,0,0,0,4.52-7.13H196.72V244.72h64.77q.16,3.6.24,5.36t.08,3.12a82,82,0,0,1-1.92,18.42,53.56,53.56,0,0,1-5.61,14.73,62.32,62.32,0,0,1-23.14,23q-14.17,8-32.19,8a67.49,67.49,0,0,1-24.7-4.44,59.07,59.07,0,0,1-16.4-9.67,107.62,107.62,0,0,0,183.7,11.23Zm-11.69,0V278.34H333v36.11Zm4.14,0V278.34h3.14v36.11Zm7.27,0h-3.14V278.34h3.14Zm0-117.22v35.51l-3.14,5v-40.5Zm-4.14,0v42.09l-3.14,5V197.24Zm-4.14,0V245.9l-3.14,5V197.24Zm-4.14,0v55.24l-3.14,5V197.24Zm-4.14,0v61.82l-3.14,5V197.24Zm-4.14,0v68.4l-3.14,5V197.24Zm-4.14,0v75l-3.14,5v-80Zm-20.68,0v34.91h-3.14V197.24Zm-4.14,0v34.91H288.5V197.24Zm-4.14,0v34.91h-3.14V197.24Zm-4.14,0v34.91h-3.14V197.24Zm-4.14,0v34.91h-3.14V197.24Zm-4.14,0v34.91H272V197.24Zm-4.14,0v34.91h-3.14V197.24Zm-4.14,0v34.91h-3.14V197.24Zm-11.3,34.91V197.24h3v34.91Zm4,0V197.24h3.14v34.91Zm-15.48,82.31,2.07-3.25v3.25Zm3.07,0v-4.82l3.14-4.92v9.74Zm4.14,0V303.15l3.14-4.92v16.23Zm4.14,0v-17.8l3.14-4.92v22.72Zm4.14,0V290.16l3.14-4.92v29.22Zm4.14,0V283.67l3.14-4.92v35.71Zm4.14,0V277.18l3.14-4.92v42.2Zm4.14,0V270.68l3.14-4.92v48.69Zm4.14,0V264.19l3.14-4.92v55.19Zm4.14,0V257.7l3.14-4.92v61.68Zm4.14,0V251.21l3.14-4.92v68.17Zm4.14,0V244.71l3.14-4.92v74.66Zm4.14,0V238.22l3.14-4.92v81.16Zm4.14,0V197.24h3.14V314.45Zm4.14,0V197.24H304V314.45Zm4.14,0V197.24h3.14V314.45Zm4.14,0V197.24h3.14V314.45Zm4.14,0V278.34h3.14v36.11Zm4.14,0V278.34h3.14v36.11Zm4.14,0V278.34h3.14v36.11Zm4.14,0V278.34h3.14v36.11Z"/><path class="a" d="M357.76,310.19a4.33,4.33,0,0,0-8.66,0,4.33,4.33,0,0,0,8.66,0Zm-7.58,0a3.25,3.25,0,1,1,6.5,0,3.22,3.22,0,0,1-3.21,3.34A3.26,3.26,0,0,1,350.18,310.19Z"/><path class="a" d="M354.11,311.37a3.6,3.6,0,0,0,.33,1h1.05a3.2,3.2,0,0,1-.31-1.05,1.24,1.24,0,0,0-.77-1v-.05a1.08,1.08,0,0,0,.87-1,1.17,1.17,0,0,0-.41-.92,2.63,2.63,0,0,0-1.46-.31,8.37,8.37,0,0,0-1.62.13v4.21h1v-1.69h.46C353.78,310.71,354,310.91,354.11,311.37ZM352.8,310v-1.21a2.25,2.25,0,0,1,.54-.05c.62,0,.9.26.9.64s-.44.62-1,.62Z"/><path class="a" d="M147.86,360V355.3c.78.8,1.55,1.61,2.34,2.39l12.11-12.11A128.56,128.56,0,0,1,124,264.15H106.75a147.38,147.38,0,0,0,2.88,20v44.75l-.12-.22c-1-2-2-4-3-6V264.15h-1v56.33q-1.65-3.62-3.14-7.33v-49h-1v46.41q-1.7-4.48-3.14-9.07V264.15h-1v34q-1.82-6.3-3.14-12.81v-21.2h-1v15.69c-.86-5.15-1.48-10.39-1.84-15.69h-16c.1,3,.22,6,.39,9l-3.94.23c-.18-3.06-.3-6.14-.4-9.23H19.45a128.72,128.72,0,0,0,15.91,51,155.11,155.11,0,0,0,17.76,25.61,194.86,194.86,0,0,0,41.2,35.88q-1.21-3-2.36-6l3.69-1.4q2.11,5.56,4.41,11l-.11,0q8.19,5.07,17,9.6l.38.74.37-.37,21.59-21.59.3-.3V346.07c1,1.25,2.07,2.49,3.14,3.7v15.4l1-1v-13.3c1,1.15,2.07,2.29,3.14,3.41V361Zm-76-82.68,3.94-.27q.41,5.93,1,11.78l-3.93.41Q72.32,283.36,71.91,277.35Zm1.47,15.88,3.92-.45q.69,5.91,1.56,11.72l-3.91.59Q74.07,299.21,73.38,293.24ZM75.58,309l3.9-.63q1,5.87,2.11,11.63l-3.88.78Q76.55,315,75.58,309Zm2.94,15.68,3.87-.82q1.24,5.82,2.67,11.52l-3.83,1Q79.77,330.6,78.52,324.71Zm3.7,15.52,3.82-1q1.52,5.75,3.23,11.37l-3.78,1.15Q83.76,346.05,82.22,340.23Zm8.34,26.64q-2-5.58-3.86-11.33l3.76-1.21q1.81,5.67,3.82,11.19Zm20.07-36.19V288.45q1.36,5.53,3.14,10.88v36.84Q112.15,333.46,110.63,330.68Zm4.14,7.13V302.25q1.45,4.09,3.14,8.07v32.38Q116.29,340.29,114.77,337.82Zm4.14,6.4V312.63q1.49,3.35,3.14,6.62v29.38C121,347.18,119.92,345.71,118.9,344.22ZM123,350v-28.8l.13.26c1,1.82,2,3.62,3,5.39V354C125.11,352.71,124.06,351.37,123,350Zm4.14,5.28V328.51q1.52,2.52,3.14,5V359Q128.72,357.17,127.18,355.28Zm4.14,4.87V335q1.53,2.26,3.14,4.45v24.16Q132.86,361.91,131.31,360.16Zm7.27,7.73q-1.59-1.59-3.14-3.21V340.83q1.53,2,3.14,4Z"/><path class="a" d="M257.07,106.42v17.14a129.19,129.19,0,0,1,88.53,38.73l12.12-12.12c-1-1-2-2-3-3V126.66q1.59,1.27,3.14,2.59v20.83l1-1v-19q1.59,1.36,3.14,2.77v13.06l1-1V133.78q1.59,1.46,3.14,3v5.06l1-1v-3.07c.51.51,1,1,1.54,1.53L390,117.87l.71-.71c-.52-.27-1-.57-1.54-.84q-4.5-8.68-9.55-16.76c-2.37-1-4.76-2-7.19-2.93L373.9,93l2,.81a201.11,201.11,0,0,0-27.54-33.29c-16.84-16.24-35.9-28.3-56.42-35.12a124.1,124.1,0,0,0-34.88-6.26v52c1.28,0,2.56,0,3.84,0l-.08,4c-1.25,0-2.5,0-3.76,0V91l1.47.05v15.45Zm10.75.68V91.6q1.57.14,3.14.31v15.53C269.91,107.33,268.87,107.21,267.82,107.1Zm4.14.47V92q1.57.18,3.14.39V108Q273.53,107.77,272,107.57Zm12.41,2.14V93.95c1,.2,2.09.42,3.14.65v15.83Q285.94,110.06,284.37,109.71Zm4.14,1V94.81c1.05.23,2.09.48,3.14.74v15.94Q290.08,111.06,288.5,110.67Zm8.27,2.31V96.88q1.58.44,3.14.91V114Q298.35,113.46,296.78,113Zm4.14,1.36V98.09c1,.32,2.1.65,3.14,1v16.37Q302.49,114.88,300.91,114.33Zm4.14,1.49V99.43c1,.35,2.1.72,3.14,1.09v16.53Q306.63,116.42,305,115.83Zm8.27,3.42V102.48q1.58.63,3.14,1.29V120.7Q314.9,120,313.32,119.25Zm4.14,1.94v-17q1.58.68,3.14,1.4v17.17Q319,122,317.46,121.19ZM329.87,128V110.21q1.58.85,3.14,1.73V130Q331.45,129,329.87,128Zm4.14,2.63V112.51q1.58.91,3.14,1.86v18.41Q335.59,131.69,334,130.64Zm12.41,9.19v-19.4q1.58,1.11,3.14,2.27v19.79Q348,141.14,346.41,139.83Zm7.27,6.41q-1.55-1.46-3.14-2.88V123.45q1.58,1.19,3.14,2.42Zm5.19-58.69q5.72,1.89,11.29,4l-1.39,3.7q-5.49-2.06-11.14-3.93Zm-15.28-4.61q5.81,1.6,11.48,3.39l-1.19,3.77q-5.6-1.77-11.33-3.34Zm1.81,36.79V139q-1.55-1.26-3.14-2.48V117.61Q343.86,118.65,345.41,119.73Zm-4.14,16.06q-1.55-1.17-3.14-2.29V115q1.58,1,3.14,2ZM328.12,79.1q5.88,1.3,11.63,2.81l-1,3.82q-5.68-1.48-11.49-2.77Zm.75,30.56V127.4q-1.56-.94-3.14-1.84V108Q327.31,108.84,328.87,109.66ZM324.73,125q-1.56-.87-3.14-1.71V106.05q1.58.74,3.14,1.51ZM312.47,76q5.93,1,11.75,2.24l-.81,3.87q-5.75-1.2-11.61-2.21Zm-.14,26.05V118.8q-1.56-.69-3.14-1.34V100.89Q310.76,101.47,312.32,102.08ZM296.68,73.7q6,.74,11.85,1.68l-.63,3.9q-5.8-.93-11.7-1.66Zm-.91,39q-1.56-.47-3.14-.92v-16c1.05.26,2.09.54,3.14.83Zm-15-40.56q6,.46,11.91,1.13l-.44,3.92q-5.84-.65-11.77-1.11Zm2.55,21.66V109.5q-1.56-.33-3.14-.62V93.2C281.28,93.38,282.32,93.56,283.37,93.76Zm-4.14,14.93c-1-.19-2.09-.36-3.14-.52V92.56q1.57.22,3.14.48ZM264.9,71.24q6,.19,11.94.58l-.26,3.94q-5.86-.39-11.81-.58Zm1.92,20.28V107c-1-.1-2.09-.18-3.14-.26V91.29Q265.26,91.39,266.82,91.52Zm-7.27-.45q1.57.06,3.14.15v15.47q-1.56-.1-3.14-.17Z"/><path class="a" d="M143.26,155.89l-.54-.54v1.15q-1.6,1.82-3.14,3.7v-8l-1-1v10.22q-1.6,2-3.14,4V148.08l-1-1v19.75q-1.61,2.2-3.14,4.45V146l1-1.1L112.39,125l-3.82-3.82q-4.6,2.6-9,5.36c-1,2.43-2,4.87-3,7.35l-3.68-1.43c.28-.73.58-1.45.87-2.18a201.73,201.73,0,0,0-33.28,27.56c-16.24,16.84-28.3,35.9-35.12,56.42a123.42,123.42,0,0,0-6.44,39.37c0,.92.07,1.82.1,2.73H71.08l0-3.67q0-3.63.07-7.23l4,.08q-.07,3.56-.07,7.15l0,3.67H91c0-1.09-.1-2.17-.1-3.26a162.48,162.48,0,0,1,2.23-26.84v30.11h1V220.86q1.31-6.48,3.14-12.76v48.28h1V204.78q1.44-4.61,3.14-9.11v60.72h1V193.12c.16-.4.31-.8.47-1.19q1.27-3.12,2.67-6.16v70.62h18c0-1.09-.1-2.17-.1-3.26a128.71,128.71,0,0,1,32-85.09ZM75.18,241.63l-4-.13q.2-6,.58-11.94l3.94.26Q75.37,235.68,75.18,241.63ZM76,225.88l-3.94-.31q.46-6,1.12-11.9l3.93.43Q76.49,220,76,225.88ZM77.6,210.2l-3.92-.49q.74-6,1.67-11.84l3.91.62Q78.33,204.29,77.6,210.2Zm2.29-15.6-3.9-.66q1-5.93,2.23-11.76l3.87.81Q80.89,188.73,79.89,194.6Zm3-15.46-3.86-.85q1.3-5.88,2.8-11.64l3.82,1Q84.21,173.32,82.92,179.13Zm3.78-15.3-3.81-1q1.59-5.81,3.38-11.48L90,152.49Q88.27,158.09,86.7,163.83Zm4.55-15.09-3.75-1.24q1.88-5.73,4-11.29l3.7,1.38Q93.11,143.09,91.25,148.74Zm15.24,96.72V183.63q1.5-3.16,3.14-6.25V222A146.38,146.38,0,0,0,106.49,245.47Zm4.14-27.82V175.52q1.52-2.78,3.14-5.49v36.84Q112,212.17,110.63,217.65Zm6.5-19.9q-1.25,3.07-2.36,6.2V168.4q1.53-2.48,3.14-4.91v32.42C117.64,196.52,117.38,197.13,117.13,197.75Zm1.78-4.14V162q1.53-2.25,3.14-4.44V187Q120.39,190.26,118.9,193.61Zm4.14-8.52V156.2q1.54-2.06,3.14-4.06v27.3Q124.55,182.22,123,185.09Zm4.14-7.33V150.89q1.54-1.9,3.14-3.75v25.63Q128.7,175.23,127.18,177.75Z"/></svg>