<svg xmlns="http://www.w3.org/2000/svg" viewBox="0 0 506.24 506.24"><defs><style>.a{fill:#fff;}.b{fill:#fbb042;}.c{fill:#231f20;}.d{fill:#58595b;}</style></defs><title>gigazone-gaming-championship-atom</title><circle class="a" cx="253.12" cy="253.12" r="107.64"/><path class="b" d="M257.07,415.27A161.51,161.51,0,0,0,361.35,374L350.41,363a146.12,146.12,0,0,1-93.34,36.79Z"/><path class="b" d="M395.86,287.53a146.06,146.06,0,0,1-22.1,49.26,147.75,147.75,0,0,1-17.69,20.94L367,368.64a163.27,163.27,0,0,0,19.46-23.06,161.43,161.43,0,0,0,24.42-54.44,163.33,163.33,0,0,0,4.12-27h-15.5A147.9,147.9,0,0,1,395.86,287.53Z"/><path class="b" d="M249.17,106.44V90.93a161.64,161.64,0,0,0-111.58,48.32l11,11A146.17,146.17,0,0,1,249.17,106.44Z"/><path class="b" d="M155.88,363l-10.94,10.94a161.44,161.44,0,0,0,104.23,41.32V399.81A146.05,146.05,0,0,1,155.88,363Z"/><path class="b" d="M123.17,321.47a146,146,0,0,1-16.43-57.32H91.25a161.18,161.18,0,0,0,48,104.46L150.2,357.7A147.36,147.36,0,0,1,123.17,321.47Z"/><path class="b" d="M357.72,150.18l10.91-10.91A161.65,161.65,0,0,0,257.07,91v15.44A146.27,146.27,0,0,1,357.72,150.18Z"/><path class="b" d="M378.63,176.89A147.41,147.41,0,0,1,400,253.12c0,1.1-.07,2.17-.1,3.26h15.44c0-1.09.1-2.17.1-3.26A161.54,161.54,0,0,0,374,144.89L363,155.83A147.31,147.31,0,0,1,378.63,176.89Z"/><path class="b" d="M117.13,197.75a146.86,146.86,0,0,1,26.13-41.86l-11-11A161.77,161.77,0,0,0,90.85,253.12c0,1.1.08,2.17.1,3.26h15.44c0-1.09-.1-2.17-.1-3.26A146.34,146.34,0,0,1,117.13,197.75Z"/><path class="c" d="M138.35,313.49A129,129,0,0,1,124,264.15H106.75A145.69,145.69,0,0,0,150.2,357.7l12.11-12.11A130.15,130.15,0,0,1,138.35,313.49Z"/><path class="c" d="M257.07,382.68v17.14A146.12,146.12,0,0,0,350.41,363l-12.16-12.16A129,129,0,0,1,257.07,382.68Z"/><path class="c" d="M249.17,382.67A129,129,0,0,1,168,350.86L155.88,363a146.05,146.05,0,0,0,93.29,36.81Z"/><path class="c" d="M345.6,162.29l12.12-12.12a146.27,146.27,0,0,0-100.65-43.75v17.14A129.19,129.19,0,0,1,345.6,162.29Z"/><path class="c" d="M389.73,199.32A144.15,144.15,0,0,0,363,155.83L350.88,168a129.32,129.32,0,0,1,31.92,85.13c0,1.1-.07,2.18-.1,3.26h17.14c0-1.09.1-2.17.1-3.26A146.37,146.37,0,0,0,389.73,199.32Z"/><path class="c" d="M379.19,283.51A129,129,0,0,1,359.67,327a130.45,130.45,0,0,1-15.72,18.59l12.12,12.12a147.75,147.75,0,0,0,17.69-20.94,146.06,146.06,0,0,0,22.1-49.26,147.9,147.9,0,0,0,3.63-23.38H382.28A130.78,130.78,0,0,1,379.19,283.51Z"/><path class="c" d="M249.17,123.59V106.44a146.17,146.17,0,0,0-100.62,43.76l12.11,12.11A129.1,129.1,0,0,1,249.17,123.59Z"/><path class="c" d="M123.44,253.12a128.71,128.71,0,0,1,32-85.09l-12.14-12.14a145.8,145.8,0,0,0-37,97.23c0,1.1.08,2.17.1,3.26h17.14C123.51,255.3,123.44,254.22,123.44,253.12Z"/><path class="d" d="M296.51,232.15h-41V197.24h89.62a107.66,107.66,0,0,0-191.71,15.29c.21-.21.41-.43.62-.64a59.45,59.45,0,0,1,20.18-13.05A67.25,67.25,0,0,1,199,194.36q18,0,32,7.89a61.22,61.22,0,0,1,22.9,23.1l-37.55,13.93a20.32,20.32,0,0,0-7.13-7.29,18.73,18.73,0,0,0-9.53-2.4,18,18,0,0,0-14.93,7.13q-5.57,7.13-5.57,19.14,0,12.41,5.61,19.26t15.85,6.84a17.38,17.38,0,0,0,9.89-2.56,10.15,10.15,0,0,0,4.52-7.13H196.72V244.72h64.77q.16,3.6.24,5.36t.08,3.12a82,82,0,0,1-1.92,18.41,53.53,53.53,0,0,1-5.61,14.73,62.32,62.32,0,0,1-23.14,23q-14.17,8-32.19,8a67.46,67.46,0,0,1-24.7-4.44,59.06,59.06,0,0,1-16.4-9.67,107.62,107.62,0,0,0,183.7,11.23H244.07Z"/><path class="d" d="M165.48,53.12c-19.31,16.46-36,38.29-49.08,63.89l-.68.37.33.33,21.55,21.55A161.64,161.64,0,0,1,249.17,90.93V19a127.46,127.46,0,0,0-58.08,16.32A155.09,155.09,0,0,0,165.48,53.12Z"/><path class="d" d="M460.22,174.48c-15.38-20.83-36.75-39-62.38-53.45l-4.24,4.24L374,144.89a162.18,162.18,0,0,1,41.4,108.24c0,1.1-.08,2.17-.1,3.26H487.2c0-1.27.12-2.52.12-3.8C487.26,224.36,477.44,197.79,460.22,174.48Z"/><path class="d" d="M91,256.39c0-1.09-.1-2.17-.1-3.26a161.77,161.77,0,0,1,41.42-108.21L112.39,125l-3.82-3.82a210.49,210.49,0,0,0-48.09,36.67c-16.24,16.84-28.3,35.9-35.12,56.42a123.42,123.42,0,0,0-6.44,39.37c0,.92.07,1.82.1,2.73H91Z"/><path class="d" d="M361.35,374a161.51,161.51,0,0,1-104.27,41.29v72c27-.82,52.32-10.5,74.69-27,20.83-15.38,39-36.75,53.45-62.38l-4.2-4.2Z"/><path class="d" d="M390,117.87l.71-.71c-.52-.27-1-.57-1.54-.84-11.24-21.68-25-40.62-40.83-55.84-16.84-16.24-35.9-28.3-56.42-35.12a124.1,124.1,0,0,0-34.88-6.26V91a161.65,161.65,0,0,1,111.56,48.28Z"/><path class="d" d="M125,393.85l-3.83,3.83c18,31.84,41.75,57,69.09,72.51a128,128,0,0,0,58.89,17V415.25a161.44,161.44,0,0,1-104.23-41.32Z"/><path class="d" d="M109.51,328.66a161.36,161.36,0,0,1-18.26-64.51H19.45a128.72,128.72,0,0,0,15.91,51,155.1,155.1,0,0,0,17.76,25.61c16.45,19.29,38.26,35.95,63.83,49.06l.38.74.37-.37,21.59-21.59A162.84,162.84,0,0,1,109.51,328.66Z"/><path class="d" d="M415,264.15a163.33,163.33,0,0,1-4.12,27,161.43,161.43,0,0,1-24.42,54.44A163.27,163.27,0,0,1,367,368.64L388.38,390l.7.7c.26-.5.55-1,.81-1.48,35.53-18.42,63.6-43.77,80.3-73.3a129.26,129.26,0,0,0,16.55-51.81H415Z"/><path class="d" d="M357.76,278.34a107.54,107.54,0,0,0-4.49-64.67l-40.66,64.67Z"/><path class="b" d="M353.27,213.68a107.29,107.29,0,0,0-8.14-16.44H255.52v34.91h41l-52.44,82.31h97.49a107.08,107.08,0,0,0,16.2-36.11H312.61Z"/><path class="b" d="M352.62,314.45v-5.16H351.1v-1.6H356v1.6h-1.51v5.16Z"/><path class="b" d="M364.63,314.45H362.9l-.4-2.92c0-.21-.05-.44-.08-.69s0-.53-.06-.83a8.36,8.36,0,0,1-.25,1.07l-.06.2-.92,3.17h-1.23l-.92-3.17-.06-.2a7.34,7.34,0,0,1-.25-1.07q0,.38-.06.76t-.09.75l-.4,2.92h-1.71l1-6.76h1.82l1,3.49,0,.12a4.47,4.47,0,0,1,.18.8,3.3,3.3,0,0,1,.07-.4q.05-.22.14-.53l1-3.48h1.83Z"/><path class="b" d="M253.7,506.24l-.15-2,.07-2c3.91,0,7.79-.19,11.62-.55l.36,3.93C261.66,506,257.65,506.23,253.7,506.24Zm-4.17-.06c-4-.12-8.06-.42-12-.9l.47-3.92c3.85.47,7.78.76,11.67.88Zm20.08-.94-.48-3.92c3.85-.47,7.74-1.13,11.55-2l.83,3.86C277.57,504.08,273.57,504.76,269.6,505.25Zm-36.1-.51c-4-.6-7.94-1.39-11.83-2.35l.94-3.84c3.78.93,7.65,1.7,11.49,2.28Zm51.92-2.41-.95-3.83c3.75-.93,7.54-2,11.24-3.31l1.28,3.74C293.18,500.23,289.29,501.37,285.42,502.33Zm-67.65-.95c-3.83-1.06-7.69-2.31-11.47-3.72l1.38-3.7c3.68,1.37,7.43,2.58,11.15,3.61Zm83-3.81-1.39-3.7c3.62-1.35,7.25-2.89,10.8-4.57l1.69,3.57C308.23,494.59,304.5,496.17,300.78,497.57Zm-98.22-1.36c-3.67-1.48-7.37-3.15-11-5l1.77-3.53c3.52,1.77,7.12,3.39,10.69,4.84Zm112.92-5.1-1.79-3.52c3.44-1.74,6.89-3.66,10.26-5.7l2,3.38C322.55,487.36,319,489.32,315.48,491.11ZM188,489.39c-1.09-.58-2.17-1.18-3.25-1.79q-3.61-2-7.14-4.29l2.12-3.33q3.45,2.19,7,4.19,1.57.89,3.17,1.74Zm141.39-6.25-2.13-3.33c3-1.92,6-4,9-6.2l.65-.49,2.37,3.16-.68.5C335.59,479,332.48,481.17,329.4,483.14Zm-155.15-2c-3.28-2.2-6.56-4.57-9.74-7l2.43-3.12c3.11,2.42,6.32,4.74,9.52,6.89Zm168.23-7.26L340,470.75c3.05-2.39,6.08-4.93,9-7.55l2.64,2.94C348.7,468.82,345.6,471.42,342.48,473.86Zm-181.1-2.28c-3.06-2.49-6.11-5.15-9.06-7.89l2.69-2.89c2.9,2.69,5.88,5.28,8.87,7.72Zm193.27-8.14L352,460.55c2.82-2.64,5.63-5.43,8.35-8.29l2.87,2.72C360.41,457.9,357.54,460.75,354.65,463.44Zm-205.25-2.5c-2.83-2.73-5.65-5.63-8.38-8.61l2.91-2.67c2.68,2.92,5.44,5.76,8.21,8.43ZM365.91,452,363,449.39c2.63-2.88,5.22-5.89,7.69-8.93l3.07,2.49C371.22,446.05,368.59,449.11,365.91,452Zm-227.56-2.69c-2.61-2.95-5.19-6-7.69-9.21l3.1-2.45c2.46,3.11,5,6.15,7.55,9Zm237.88-9.53-3.1-2.44c2.4-3.06,4.76-6.24,7-9.46l3.23,2.27C381.08,433.49,378.68,436.72,376.23,439.83Zm-248-2.84c-2.38-3.13-4.74-6.41-7-9.72l3.26-2.23c2.24,3.27,4.55,6.48,6.9,9.56Zm257.46-10.07-3.27-2.22c2.2-3.25,4.35-6.58,6.37-9.92l3.38,2.05C390.09,420.22,387.91,423.62,385.66,426.92Zm-266.7-3c-2.16-3.27-4.3-6.69-6.36-10.16l3.4-2c2,3.41,4.12,6.78,6.25,10ZM394.2,413.41l-3.4-2c2-3.34,3.89-6.8,5.74-10.31l3.49,1.84C398.16,406.5,396.19,410,394.2,413.41Zm-283.6-3.08c-2-3.45-3.89-7-5.71-10.53L108.4,398c1.79,3.49,3.68,7,5.63,10.37ZM401.88,399.4l-3.52-1.79q2.66-5.22,5.13-10.63l3.59,1.64C405.41,392.26,403.66,395.89,401.88,399.4Zm-298.8-3.17q-2.63-5.32-5.08-10.84l3.62-1.6q2.41,5.44,5,10.69ZM408.71,385l-3.62-1.59q2.35-5.37,4.51-10.91l3.68,1.43Q411.1,379.52,408.71,385Zm-312.3-3.24q-2.32-5.47-4.46-11.11l3.69-1.4q2.11,5.56,4.41,11Zm318.31-11.55-3.7-1.38q2.06-5.5,3.92-11.15l3.75,1.24Q416.8,364.6,414.72,370.17Zm-324.16-3.3q-2-5.58-3.86-11.33l3.76-1.21q1.81,5.67,3.82,11.19Zm329.36-11.79-3.77-1.19q1.77-5.6,3.35-11.34l3.81,1Q421.71,349.41,419.92,355.08ZM85.5,351.74q-1.73-5.68-3.28-11.51l3.82-1q1.52,5.75,3.23,11.37Zm338.84-12-3.82-1q1.48-5.68,2.77-11.49l3.86.85Q425.84,334,424.34,339.75ZM81.23,336.37q-1.45-5.77-2.71-11.66l3.87-.82q1.24,5.82,2.67,11.52ZM428,324.22l-3.87-.81q1.2-5.75,2.21-11.62l3.89.67Q429.19,318.4,428,324.22ZM77.71,320.81Q76.55,315,75.58,309l3.9-.63q1,5.87,2.11,11.63Zm353.15-12.28-3.9-.62q.93-5.8,1.66-11.71l3.92.48Q431.81,302.65,430.87,308.53ZM75,305.09q-.89-5.88-1.58-11.86l3.92-.45q.69,5.91,1.56,11.72ZM433,292.73l-3.93-.44q.66-5.84,1.12-11.77l3.94.31Q433.67,286.82,433,292.73ZM72.94,289.27q-.62-5.92-1-11.92l3.94-.27q.41,5.93,1,11.78Zm361.48-12.43-3.94-.26q.39-5.87.58-11.81l4,.13Q434.81,270.9,434.42,276.84ZM71.66,273.38q-.34-5.94-.49-12l4-.1q.14,5.94.48,11.82ZM435.1,260.91l-4-.08q.07-3.64.08-7.3l0-4.53,4,0,0,4.58Q435.18,257.23,435.1,260.91Zm-364-3.47,0-4.72q0-3.63.07-7.23l4,.08q-.07,3.56-.07,7.15l0,4.67Zm360-12.38q-.14-5.94-.48-11.82l3.94-.23q.34,5.94.49,12ZM75.18,241.63l-4-.13q.2-6,.58-11.94l3.94.26Q75.37,235.68,75.18,241.63ZM430.4,229.31q-.41-5.93-1-11.78l3.93-.41q.62,5.92,1,11.92ZM76,225.88l-3.94-.31q.46-6,1.12-11.9l3.93.43Q76.49,220,76,225.88ZM429,213.61q-.69-5.91-1.56-11.72l3.91-.59q.89,5.88,1.58,11.86ZM77.6,210.2l-3.92-.49q.74-6,1.67-11.84l3.91.62Q78.33,204.29,77.6,210.2ZM426.79,198q-1-5.87-2.11-11.63l3.88-.77q1.17,5.83,2.13,11.77ZM79.89,194.6l-3.9-.66q1-5.93,2.23-11.76l3.87.81Q80.89,188.73,79.89,194.6Zm344-12.09q-1.23-5.82-2.67-11.52l3.83-1q1.45,5.77,2.7,11.66Zm-341-3.37-3.86-.85q1.3-5.88,2.8-11.64l3.82,1Q84.21,173.32,82.92,179.13Zm337.31-12q-1.52-5.75-3.23-11.37l3.78-1.15q1.73,5.68,3.28,11.51ZM86.7,163.83l-3.81-1q1.59-5.81,3.38-11.48L90,152.49Q88.27,158.09,86.7,163.83ZM415.83,152Q414,146.38,412,140.86l3.72-1.35q2,5.59,3.86,11.33Zm-324.58-3.3-3.75-1.24q1.88-5.73,4-11.29l3.7,1.38Q93.11,143.09,91.25,148.74Zm319.4-11.57q-2.11-5.56-4.4-11l3.64-1.54q2.32,5.47,4.46,11.11ZM96.57,133.92l-3.68-1.43q2.19-5.62,4.57-11.07l3.62,1.59Q98.72,128.37,96.57,133.92Zm308.1-11.32q-2.41-5.44-5-10.7l3.54-1.75q2.63,5.33,5.08,10.85Zm-302-3.19-3.6-1.63q2.5-5.49,5.19-10.79l3.52,1.79Q105.14,114,102.68,119.4Zm295.22-11c-1.79-3.49-3.68-7-5.62-10.38l3.43-2c2,3.45,3.89,7,5.7,10.54Zm-288.3-3.11-3.49-1.84c1.85-3.52,3.81-7,5.82-10.47l3.41,2C113.35,98.34,111.42,101.81,109.6,105.27ZM390.31,94.61c-2-3.4-4.12-6.77-6.25-10l3.3-2.17c2.17,3.29,4.31,6.71,6.35,10.17Zm-272.94-3L114,89.53c2.08-3.41,4.26-6.81,6.48-10.09l3.27,2.22C121.55,84.88,119.4,88.22,117.36,91.58Zm264.5-10.24c-2.21-3.24-4.53-6.46-6.89-9.57l3.14-2.39c2.4,3.16,4.76,6.43,7,9.73ZM126,78.42l-3.23-2.27c2.32-3.29,4.72-6.54,7.14-9.64L133,69C130.6,72,128.24,75.19,126,78.42Zm246.6-9.76c-2.43-3.08-5-6.13-7.54-9L368,57c2.62,3,5.21,6.08,7.69,9.22ZM135.43,65.88l-3.07-2.49c2.54-3.13,5.18-6.19,7.83-9.1l2.92,2.66C140.51,59.8,137.92,62.81,135.43,65.88Zm227-9.18c-2.64-2.89-5.4-5.73-8.2-8.44l2.75-2.83c2.86,2.77,5.67,5.67,8.36,8.61ZM145.79,54.07l-2.87-2.72c2.76-2.92,5.63-5.77,8.51-8.47l2.7,2.88C151.3,48.42,148.49,51.21,145.79,54.07Zm205.55-8.52c-2.89-2.69-5.87-5.29-8.87-7.73L345,34.76c3.06,2.5,6.11,5.15,9.07,7.9ZM157,43.12l-2.64-2.94q1.72-1.54,3.47-3,2.84-2.42,5.74-4.69L166,35.57q-2.84,2.22-5.61,4.58Q158.71,41.61,157,43.12ZM339.4,35.37c-3.12-2.43-6.32-4.75-9.52-6.9l2.2-3.28c3.27,2.2,6.55,4.58,9.74,7.06ZM169.15,33.19,166.8,30c3.22-2.39,6.55-4.69,9.9-6.83l2.13,3.33C175.55,28.61,172.3,30.86,169.15,33.19Zm157.45-6.86c-3.33-2.12-6.74-4.12-10.13-5.93l1.86-3.49c3.49,1.86,7,3.91,10.39,6.08ZM182.14,24.46l-2-3.38q2.75-1.66,5.53-3.2,2.48-1.37,5-2.64l1.79,3.52Q190,20,187.55,21.34,184.83,22.84,182.14,24.46ZM313,18.6c-3.53-1.77-7.13-3.4-10.69-4.83l1.48-3.67c3.66,1.48,7.36,3.15,11,5ZM195.93,17l-1.69-3.57c3.64-1.72,7.37-3.31,11.1-4.71l1.39,3.7C203.1,13.82,199.47,15.36,195.93,17Zm102.73-4.69q-2.25-.84-4.52-1.59-3.29-1.1-6.63-2l1.05-3.81Q292,5.88,295.39,7q2.33.78,4.65,1.64ZM210.4,11.13,209.11,7.4c3.82-1.31,7.71-2.47,11.57-3.43l1,3.83C217.88,8.74,214.1,9.86,210.4,11.13Zm73.34-3.39c-3.8-.94-7.66-1.71-11.48-2.3l.6-3.91c3.94.61,7.92,1.41,11.83,2.37Zm-58.3-.83-.85-3.86c3.93-.86,7.93-1.54,11.9-2L237,4.94C233.13,5.42,229.25,6.08,225.44,6.92Zm43-2c-3.88-.48-7.8-.78-11.68-.9l.12-3.95c4,.12,8,.43,12,.93Zm-27.53-.39L240.49.58c4-.38,8-.57,12.05-.58l.27,2V4h-.26C248.67,4,244.73,4.15,240.86,4.51Z"/><path class="b" d="M252.72,435.18q-3.63,0-7.24-.07l.08-4q3.57.07,7.16.07h.79l3.88,0,.05,4-3.91,0Zm8.71-.11-.1-3.95q6-.14,11.81-.48l.23,3.94Q267.45,434.93,261.43,435.08ZM241.49,435q-6-.19-11.95-.58l.26-3.94q5.86.39,11.81.57Zm35.86-.68-.27-3.94q5.93-.41,11.78-1l.4,3.93Q283.36,433.91,277.36,434.33Zm-51.78-.18q-6-.46-11.9-1.12l.43-3.92q5.85.65,11.77,1.11Zm67.66-1.28-.45-3.92q5.91-.68,11.72-1.56l.59,3.91Q299.21,432.17,293.23,432.87Zm-83.53-.3q-6-.74-11.84-1.67l.62-3.9q5.8.92,11.71,1.65Zm99.32-1.9-.63-3.9q5.86-1,11.63-2.11l.78,3.88Q315,429.69,309,430.66Zm-115.1-.42q-5.93-1-11.76-2.23l.81-3.87q5.74,1.2,11.61,2.2Zm130.78-2.52-.82-3.86q5.82-1.24,11.52-2.67l1,3.83Q330.6,426.47,324.71,427.72Zm-146.43-.54q-5.88-1.3-11.63-2.8l1-3.82q5.68,1.48,11.49,2.76Zm162-3.16-1-3.82q5.74-1.52,11.36-3.24l1.16,3.78Q346,422.48,340.22,424Zm-177.44-.67Q157,421.77,151.3,420l1.19-3.77q5.6,1.77,11.34,3.34Zm192.76-3.8-1.21-3.76Q360,414,365.52,412l1.35,3.72Q361.29,417.71,355.54,419.55Zm-208-.8q-5.72-1.89-11.29-4l1.38-3.7q5.5,2.05,11.15,3.92Zm223.11-4.46-1.4-3.7q5.57-2.11,11-4.41l1.55,3.64Q376.26,412.16,370.61,414.3Zm-238.13-.94q-5.62-2.19-11.07-4.57l1.59-3.62q5.37,2.35,10.91,4.51Zm252.9-5.12-1.6-3.61q5.45-2.41,10.69-5l1.75,3.54Q390.9,405.79,385.38,408.24Zm-267.62-1.07q-5.49-2.5-10.79-5.19l1.79-3.52q5.22,2.65,10.64,5.12Zm282-5.81L398,397.84c3.52-1.81,7-3.7,10.38-5.63l2,3.43C406.92,397.6,403.37,399.52,399.8,401.36Zm-296.37-1.22c-3.54-1.87-7.07-3.83-10.47-5.83l2-3.41c3.35,2,6.82,3.9,10.31,5.74Zm310.35-6.5-2-3.4c3.36-2,6.73-4.1,10-6.26l2.17,3.3C420.62,389.47,417.2,391.61,413.78,393.64ZM89.53,392.26c-3.45-2.1-6.85-4.28-10.09-6.48l2.22-3.27c3.19,2.16,6.53,4.31,9.92,6.37Zm337.73-7.21L425,381.79c3.24-2.22,6.46-4.54,9.56-6.9L437,378C433.83,380.43,430.56,382.8,427.26,385.05ZM76.14,383.51c-3.3-2.32-6.54-4.72-9.63-7.14l2.43-3.11c3,2.38,6.23,4.75,9.47,7Zm364-7.92-2.45-3.1c3.1-2.45,6.14-5,9-7.55l2.62,3C446.4,370.5,443.3,373.09,440.14,375.58ZM63.39,373.87c-3.1-2.52-6.16-5.15-9.1-7.83l2.66-2.92c2.88,2.63,5.89,5.21,8.93,7.68Zm388.94-8.66-2.67-2.91c2.92-2.68,5.76-5.44,8.43-8.21l2.84,2.75C458.2,359.66,455.31,362.48,452.33,365.22Zm-401-1.89c-2.92-2.76-5.77-5.63-8.47-8.51l2.88-2.7c2.65,2.83,5.44,5.64,8.3,8.35Zm412.33-9.39-2.9-2.69c2.67-2.87,5.26-5.86,7.73-8.88l3.06,2.5C469.06,347.95,466.41,351,463.69,353.93ZM40.18,351.86q-1.54-1.72-3-3.47-2.43-2.84-4.69-5.75l3.11-2.43q2.22,2.84,4.58,5.61,1.46,1.71,3,3.39Zm433.88-10.13-3.12-2.43c2.41-3.1,4.73-6.3,6.89-9.52l3.28,2.2C478.9,335.28,476.53,338.56,474.07,341.73ZM30,339.45c-2.39-3.22-4.69-6.55-6.83-9.9l3.33-2.12c2.08,3.27,4.33,6.52,6.67,9.67Zm453.29-10.82L480,326.51q2.19-3.45,4.19-7,.89-1.57,1.74-3.16l3.49,1.86q-.87,1.63-1.79,3.25Q485.56,325.09,483.31,328.63ZM21.08,326.14q-1.66-2.75-3.2-5.54-1.37-2.48-2.64-5l3.52-1.78q1.24,2.45,2.57,4.86,1.5,2.73,3.12,5.4Zm470.16-11.47-3.53-1.77c1.77-3.53,3.39-7.13,4.83-10.69l3.66,1.48C494.73,307.35,493.06,311,491.24,314.67ZM13.47,312c-1.72-3.64-3.3-7.37-4.71-11.09l3.7-1.39c1.36,3.62,2.9,7.25,4.58,10.79Zm484.19-12.06-3.7-1.38c1.37-3.68,2.58-7.43,3.61-11.15l3.81,1.05C500.32,292.3,499.07,296.16,497.66,299.94ZM7.39,297.13c-1.31-3.81-2.46-7.7-3.43-11.56l3.84-1c.93,3.75,2.05,7.53,3.33,11.23Zm495-12.55-3.84-.94c.93-3.81,1.7-7.67,2.28-11.49l3.91.59C504.15,276.67,503.36,280.65,502.4,284.58ZM3.05,281.65c-.86-3.94-1.54-7.95-2-11.89l3.92-.49c.48,3.83,1.14,7.71,2,11.54Zm502.24-12.89-3.92-.47c.47-3.85.76-7.78.87-11.67l4,.12C506.07,260.74,505.77,264.78,505.29,268.75Zm-504.71-3c-.37-4-.57-8-.58-12.06l2-.27H4v.26c0,3.89.19,7.83.56,11.69ZM504.27,252.7l-2-.15c0-3.83-.19-7.72-.55-11.54l3.94-.36c.36,3.94.55,7.95.56,11.9ZM4,249.53l-4-.12c.13-4,.43-8.06.93-12l3.92.48C4.43,241.7,4.13,245.63,4,249.53Zm497.32-12.4c-.47-3.84-1.13-7.73-2-11.54l3.86-.84c.85,3.93,1.53,7.94,2,11.9ZM5.44,234l-3.91-.6c.61-3.94,1.41-7.92,2.37-11.83l3.84.95C6.81,226.3,6,230.16,5.44,234Zm493.05-12.22c-.93-3.75-2-7.53-3.31-11.24l3.74-1.28c1.3,3.81,2.45,7.7,3.41,11.57Zm-489.76-3-3.81-1.06q1-3.43,2.08-6.81c.52-1.56,1.06-3.11,1.64-4.66l3.71,1.37q-.84,2.25-1.6,4.54Q9.66,215.39,8.73,218.73Zm485.13-11.87c-1.35-3.62-2.89-7.25-4.57-10.8l3.57-1.69c1.72,3.64,3.3,7.38,4.7,11.1Zm-480.1-2.93-3.66-1.48c1.49-3.68,3.16-7.38,5-11l3.53,1.77C16.84,196.75,15.21,200.34,13.76,203.93Zm473.82-11.38c-1.74-3.45-3.66-6.9-5.7-10.26l3.38-2c2.09,3.45,4.06,7,5.85,10.53ZM20.4,189.77l-3.49-1.87c1.87-3.48,3.91-7,6.09-10.39l3.33,2.12C24.21,183,22.21,186.37,20.4,189.77ZM479.82,179c-1.95-3-4-6.07-6.21-9l-.5-.68,3.2-2.32.37.5c2.33,3.16,4.47,6.26,6.46,9.37ZM28.48,176.36l-3.28-2.2c2.22-3.3,4.6-6.58,7.06-9.74l3.12,2.43C33,169.93,30.64,173.13,28.48,176.36Zm442.27-10.16c-2.39-3.06-4.93-6.09-7.55-9l2.94-2.64c2.67,3,5.27,6.09,7.72,9.22ZM37.82,163.77l-3.06-2.5c2.51-3.08,5.17-6.13,7.9-9.06l2.89,2.69C42.88,157.77,40.28,160.76,37.82,163.77Zm422.73-9.48c-2.65-2.85-5.45-5.66-8.29-8.35l2.72-2.87c2.9,2.75,5.75,5.62,8.46,8.52ZM48.25,152.05l-2.84-2.75c2.75-2.84,5.65-5.66,8.61-8.37l2.67,2.91C53.8,146.5,51,149.26,48.25,152.05Zm401.13-8.79c-2.85-2.6-5.85-5.19-8.93-7.69L443,132.5c3.13,2.55,6.19,5.19,9.09,7.83Zm-389.78-2-2.61-3c3-2.64,6.1-5.22,9.22-7.68l2.45,3.1C65.6,136.09,62.55,138.63,59.61,141.22Zm377.79-8.11c-3.06-2.4-6.24-4.77-9.46-7l2.27-3.23c3.28,2.31,6.51,4.71,9.63,7.15ZM71.77,131.27l-2.4-3.14c3.12-2.37,6.39-4.73,9.73-7l2.23,3.27C78.05,126.62,74.83,128.94,71.77,131.27Zm352.93-7.42c-3.21-2.18-6.55-4.33-9.92-6.39l2.06-3.37c3.43,2.09,6.82,4.27,10.08,6.49ZM84.6,122.19l-2.17-3.3c3.28-2.16,6.71-4.3,10.17-6.35l2,3.4C91.2,118,87.83,120.06,84.6,122.19Zm326.81-6.74c-3.36-2-6.83-3.91-10.31-5.75l1.85-3.49c3.53,1.87,7.05,3.83,10.46,5.84ZM98,114l-2-3.43c3.43-2,7-3.88,10.54-5.71l1.8,3.52C104.88,110.14,101.38,112,98,114Zm299.6-6.07q-5.22-2.66-10.64-5.13l1.64-3.6c3.62,1.65,7.25,3.4,10.79,5.2Zm-285.69-1.32L110.16,103c3.51-1.74,7.16-3.45,10.85-5.08l1.59,3.61Q117.16,104,111.91,106.57Zm271.46-5.41Q378,98.8,372.47,96.64L373.9,93q5.62,2.19,11.06,4.58ZM126.21,100l-1.55-3.64q5.47-2.33,11.11-4.46l1.4,3.7Q131.61,97.7,126.21,100Zm242.57-4.77q-5.49-2.06-11.14-3.93l1.24-3.75q5.72,1.89,11.29,4Zm-227.91-1-1.35-3.72q5.59-2,11.33-3.86l1.21,3.76Q146.38,92.23,140.87,94.23Zm213-4.14q-5.6-1.77-11.33-3.34l1-3.81q5.81,1.6,11.48,3.39Zm-198.08-.85-1.15-3.78q5.68-1.73,11.51-3.27l1,3.82Q161.43,87.53,155.81,89.24Zm182.95-3.51q-5.68-1.48-11.49-2.77l.85-3.86q5.88,1.3,11.63,2.81ZM171,85l-1-3.83q5.76-1.45,11.66-2.7l.82,3.86Q176.69,83.59,171,85Zm152.42-2.9q-5.75-1.2-11.61-2.21l.66-3.89q5.93,1,11.75,2.24Zm-137-.57-.77-3.88q5.82-1.16,11.77-2.13l.63,3.9Q192.13,80.41,186.37,81.56Zm121.54-2.28q-5.8-.93-11.7-1.66l.48-3.92q6,.74,11.85,1.68Zm-106-.43-.59-3.91q5.88-.89,11.86-1.58l.45,3.92Q207.7,78,201.89,78.84Zm90.4-1.69q-5.84-.65-11.77-1.11l.31-3.94q6,.46,11.91,1.13Zm-74.76-.3-.4-3.93q5.9-.61,11.91-1l.27,3.94Q223.38,76.25,217.53,76.86Zm59.05-1.09q-5.86-.39-11.81-.58l.13-3.95q6,.19,11.94.58Zm-43.33-.17L233,71.65q5.93-.34,11.95-.49l.09,4Q239.12,75.26,233.25,75.6Zm27.58-.51q-3.64-.07-7.3-.08h-.8L249,75l0-4,3.75,0h.82q3.71,0,7.39.08Z"/></svg>