<svg xmlns="http://www.w3.org/2000/svg" viewBox="0 0 637.77 151.93"><defs><style>.a{fill:#fbb042;}.b{fill:#231f20;}.c{fill:none;}</style></defs><title>gigazone-gaming-championship-X-wide-on-light-2-color</title><polygon class="a" points="231.05 66.74 242.6 66.74 253.33 50.07 220.64 50.07 220.64 58.48 236.38 58.48 231.05 66.74"/><polygon class="a" points="241.84 67.92 230.29 67.92 224.24 77.32 219.51 84.65 216.77 88.91 251.1 88.91 251.1 80.44 233.78 80.44 241.84 67.92"/><path class="b" d="M123.09,70.35V62.2h20.8q0,.4,0,.88t0,1.41q0,10-5.29,15.56t-14.9,5.53a23.19,23.19,0,0,1-8.4-1.42,18.6,18.6,0,0,1-6.57-4.34,19.61,19.61,0,0,1-4.28-6.59,21.22,21.22,0,0,1-1.53-8,21,21,0,0,1,1.49-8,19.65,19.65,0,0,1,11.13-10.86,22.47,22.47,0,0,1,8.16-1.46,21.79,21.79,0,0,1,10.09,2.26,19.73,19.73,0,0,1,7.39,6.71l-9.18,4.4a11.16,11.16,0,0,0-3.7-3.36,9.61,9.61,0,0,0-4.6-1.1A9.36,9.36,0,0,0,116.27,57q-2.73,3.17-2.73,8.66t2.73,8.73a9.34,9.34,0,0,0,7.48,3.18,11.06,11.06,0,0,0,6.73-2,7.57,7.57,0,0,0,3.14-5.27Z" transform="translate(0 0)"/><path class="b" d="M146,84.65V49.87h9.57V84.65Z" transform="translate(0 0)"/><path class="b" d="M175.63,71.84V64.55h18.63q0,.36,0,.78t0,1.26q0,9-4.74,13.93t-13.34,5a20.75,20.75,0,0,1-7.52-1.27,16.65,16.65,0,0,1-5.88-3.88,17.57,17.57,0,0,1-3.84-5.9,19.64,19.64,0,0,1,0-14.3,17.6,17.6,0,0,1,10-9.73,20.12,20.12,0,0,1,7.31-1.31,19.52,19.52,0,0,1,9,2,17.67,17.67,0,0,1,6.62,6l-8.22,3.94a10,10,0,0,0-3.31-3,8.59,8.59,0,0,0-4.12-1,8.38,8.38,0,0,0-6.7,2.84,11.49,11.49,0,0,0-2.45,7.76q0,5,2.45,7.82a8.37,8.37,0,0,0,6.7,2.85,9.9,9.9,0,0,0,6-1.77,6.78,6.78,0,0,0,2.82-4.72Z" transform="translate(0 0)"/><path class="c" d="M209.59,58.49l-.74-3q-.31,1.28-.61,2.45t-.61,2.23l-3.49,11.47h9.43L210,60.18Q209.88,59.66,209.59,58.49Z" transform="translate(0 0)"/><path class="b" d="M214.75,49.87H202.87l-12,34.78h9.43l1.81-6.22h13.47l1.76,6.22h2.18l4.72-7.33Zm-10.6,21.79,3.49-11.47q.31-1.07.61-2.23t.61-2.45l.74,3q.29,1.17.45,1.69l3.54,11.47Z" transform="translate(0 0)"/><polygon class="b" points="224.24 77.32 219.51 84.65 226.77 84.65 224.24 77.32"/><path class="a" d="M298,66.73c0-.68-.06-1.43-.12-2.25q-.13-1.69-.42-3.87,1,2.23,1.89,3.88a20,20,0,0,0,1.27,2.2l0,0h9.74L298,49.87h-9.15V66.73Z" transform="translate(0 0)"/><rect class="a" x="313.77" y="49.87" width="9.1" height="16.86"/><rect class="a" x="288.88" y="67.91" width="9.15" height="16.74"/><path class="a" d="M313.79,67.91c0,.65.06,1.36.12,2.13q.13,1.69.42,3.85-1-2.28-1.91-3.93-.76-1.45-1.15-2h-9.73l12.25,16.74h9.1V67.91Z" transform="translate(0 0)"/><polygon class="a" points="335.76 70.99 347.14 70.99 347.14 67.91 326.52 67.91 326.52 84.65 347.83 84.65 347.83 76.86 335.76 76.86 335.76 70.99"/><polygon class="a" points="326.52 49.87 326.52 66.73 347.14 66.73 347.14 63.53 335.76 63.53 335.76 57.49 347.83 57.49 347.83 49.87 326.52 49.87"/><path class="a" d="M277.57,67.92A10.42,10.42,0,0,1,275,74.65a8.29,8.29,0,0,1-6,2.88v8a18.69,18.69,0,0,0,6.54-1.38,19,19,0,0,0,6.08-4,17.6,17.6,0,0,0,5.38-12.31Z" transform="translate(0 0)"/><path class="a" d="M275,60a10.38,10.38,0,0,1,2.59,6.7h9.49a17.74,17.74,0,0,0-5.38-12.31,18.4,18.4,0,0,0-6-4,18.83,18.83,0,0,0-6.57-1.38v8A8.32,8.32,0,0,1,275,60Z" transform="translate(0 0)"/><polygon class="a" points="231.05 66.74 242.6 66.74 253.33 50.07 220.64 50.07 220.64 58.48 236.38 58.48 231.05 66.74"/><polygon class="a" points="241.84 67.92 230.29 67.92 224.24 77.32 226.77 84.65 219.51 84.65 216.77 88.91 251.1 88.91 251.1 80.44 233.78 80.44 241.84 67.92"/><path class="a" d="M261.93,74.67a10.47,10.47,0,0,1-2.52-6.75H249.9a17.54,17.54,0,0,0,5.45,12.31,18.2,18.2,0,0,0,6,4,18.7,18.7,0,0,0,6.53,1.38v-8A8.26,8.26,0,0,1,261.93,74.67Z" transform="translate(0 0)"/><path class="a" d="M261.35,50.47a18.19,18.19,0,0,0-6,4,17.49,17.49,0,0,0-5.45,12.31h9.51A10.44,10.44,0,0,1,262,60a8.27,8.27,0,0,1,5.91-2.89v-8A18.66,18.66,0,0,0,261.35,50.47Z" transform="translate(0 0)"/><path class="a" d="M350.74,54.2V50.89h-1v-1h3.12v1h-1V54.2Z" transform="translate(0 0)"/><path class="a" d="M358.43,54.2h-1.1l-.25-1.87c0-.13,0-.28,0-.44s0-.34,0-.53a5.23,5.23,0,0,1-.16.69l0,.13-.59,2h-.79l-.59-2,0-.13a4.83,4.83,0,0,1-.16-.68c0,.16,0,.33,0,.49s0,.32-.06.48l-.25,1.87h-1.1l.67-4.33H355l.65,2.23,0,.08a2.93,2.93,0,0,1,.12.51,2.15,2.15,0,0,1,0-.26q0-.14.09-.34l.66-2.23h1.17Z" transform="translate(0 0)"/><path class="b" d="M146.43,115h15.77v.33c0,3.86-1.38,9.72-4.91,13.38S149.71,133,145.95,133s-7.91-.62-11.62-4.43a18.09,18.09,0,0,1-.1-24.15c3.91-4,8.72-4.62,12.48-4.62a16,16,0,0,1,8.91,2.38,17.57,17.57,0,0,1,5.14,5.67l-6.62,3.57a9.62,9.62,0,0,0-2.81-3.43,8,8,0,0,0-4.86-1.52,8.6,8.6,0,0,0-6.57,2.57,10.88,10.88,0,0,0-2.71,7.53,10,10,0,0,0,2.67,7.29,8.35,8.35,0,0,0,6.43,2.48,8.14,8.14,0,0,0,5.53-1.71,7.42,7.42,0,0,0,2.29-3.76h-7.67Z" transform="translate(0 0)"/><path class="b" d="M181.78,126.31h-12l-2.43,6h-7.62l12.81-31.77h6.72l12.53,31.77h-7.62Zm-2-5.62L175.87,110l-4,10.67Z" transform="translate(0 0)"/><path class="b" d="M190.31,132.31l5.1-31.77h6.1l7.91,19,7.91-19h6.1l5.1,31.77h-7.34l-2.52-19-8,19h-2.57l-8-19-2.52,19Z" transform="translate(0 0)"/><path class="b" d="M237.9,100.54v31.77h-7.33V100.54Z" transform="translate(0 0)"/><path class="b" d="M241.43,132.31V100.54h6.38L265.06,121V100.54h7.34v31.77H266l-17.24-20.58v20.58Z" transform="translate(0 0)"/><path class="b" d="M291.08,115h15.77v.33c0,3.86-1.38,9.72-4.91,13.38S294.36,133,290.6,133s-7.91-.62-11.62-4.43a18.09,18.09,0,0,1-.09-24.15c3.91-4,8.72-4.62,12.48-4.62a16,16,0,0,1,8.91,2.38,17.57,17.57,0,0,1,5.14,5.67l-6.62,3.57A9.62,9.62,0,0,0,296,108a8,8,0,0,0-4.86-1.52,8.59,8.59,0,0,0-6.57,2.57,10.88,10.88,0,0,0-2.71,7.53,10,10,0,0,0,2.67,7.29,8.35,8.35,0,0,0,6.43,2.48,8.14,8.14,0,0,0,5.53-1.71,7.43,7.43,0,0,0,2.29-3.76h-7.67Z" transform="translate(0 0)"/><path class="b" d="M346.38,131.31a14.77,14.77,0,0,1-7,1.71c-5.86,0-9.81-2-12.48-4.62a17,17,0,0,1,0-24,16.87,16.87,0,0,1,11.86-4.57,18.92,18.92,0,0,1,7.62,1.76v8.48a10.07,10.07,0,0,0-7.43-3.38,8.91,8.91,0,0,0-6.48,2.48,10.17,10.17,0,0,0-3,7.33,9.29,9.29,0,0,0,9.62,9.67,10,10,0,0,0,7.29-3.29Z" transform="translate(0 0)"/><path class="b" d="M356,112.64h12.67v-12.1H376v31.77h-7.34V118.83H356v13.48h-7.34V100.54H356Z" transform="translate(0 0)"/><path class="b" d="M398.07,126.31h-12l-2.43,6H376l12.81-31.77h6.72l12.53,31.77h-7.62Zm-2-5.62L392.17,110l-4,10.67Z" transform="translate(0 0)"/><path class="b" d="M406.61,132.31l5.1-31.77h6.1l7.91,19,7.91-19h6.1l5.1,31.77h-7.33l-2.53-19-8,19h-2.57l-8-19-2.52,19Z" transform="translate(0 0)"/><path class="b" d="M457.92,100.54c2.76,0,5.81.38,8.34,2.62a9.77,9.77,0,0,1,3.1,7.72,10.22,10.22,0,0,1-2.71,7.48c-2.52,2.57-5.86,2.81-8.1,2.81h-4.48v11.15h-7.34V100.54Zm-3.86,14.62h2.62a5.62,5.62,0,0,0,4-1.19,4.42,4.42,0,0,0,1.19-3.14,4.19,4.19,0,0,0-1.19-3.1,5.72,5.72,0,0,0-4.1-1.19h-2.48Z" transform="translate(0 0)"/><path class="b" d="M477.88,100.54v31.77h-7.33V100.54Z" transform="translate(0 0)"/><path class="b" d="M509.56,104.44a16.9,16.9,0,0,1,0,23.91A17,17,0,0,1,497.27,133a17.49,17.49,0,0,1-12.39-4.67,16.22,16.22,0,0,1-5-11.81,17.74,17.74,0,0,1,4.91-12.05c2.14-2.14,6.1-4.67,12.43-4.67A17,17,0,0,1,509.56,104.44Zm-19.29,4.86a9.73,9.73,0,0,0-2.81,7.19,9.48,9.48,0,0,0,2.91,7.15,9.34,9.34,0,0,0,6.81,2.62,9.62,9.62,0,0,0,7-2.71,9.52,9.52,0,0,0,2.76-7.1,10,10,0,0,0-2.76-7.15,10.19,10.19,0,0,0-7-2.71A9.75,9.75,0,0,0,490.27,109.3Z" transform="translate(0 0)"/><path class="b" d="M516.43,132.31V100.54h6.38L540.05,121V100.54h7.33v31.77H541l-17.24-20.58v20.58Z" transform="translate(0 0)"/><path class="b" d="M567.16,108.3a7.74,7.74,0,0,0-5.33-2.29,4,4,0,0,0-3.1,1.1,2.83,2.83,0,0,0-.81,2,2.23,2.23,0,0,0,.71,1.76c.76.71,1.86,1,4,1.81l2.38.91a12.75,12.75,0,0,1,4.34,2.43,7.93,7.93,0,0,1,2.33,5.91,11.38,11.38,0,0,1-2.81,7.86c-2.81,3-6.91,3.24-9,3.24a13.47,13.47,0,0,1-6.29-1.33,20.21,20.21,0,0,1-4.67-3.48l3.81-5.24a19.39,19.39,0,0,0,3,2.43,7.37,7.37,0,0,0,4,1.14,5.07,5.07,0,0,0,3.33-1.1,3.28,3.28,0,0,0,1.14-2.57,2.8,2.8,0,0,0-1.1-2.29,15.49,15.49,0,0,0-3.72-1.76l-2.62-.9a10.71,10.71,0,0,1-4.43-2.53,7.8,7.8,0,0,1-1.91-5.53,9.76,9.76,0,0,1,2.76-7.14c2.24-2.29,4.91-2.91,7.86-2.91a15.35,15.35,0,0,1,9.43,3.14Z" transform="translate(0 0)"/><path class="b" d="M580.74,112.64h12.67v-12.1h7.34v31.77h-7.34V118.83H580.74v13.48h-7.33V100.54h7.33Z" transform="translate(0 0)"/><path class="b" d="M611.62,100.54v31.77h-7.33V100.54Z" transform="translate(0 0)"/><path class="b" d="M626.34,100.54c2.76,0,5.81.38,8.34,2.62a9.76,9.76,0,0,1,3.1,7.72,10.22,10.22,0,0,1-2.71,7.48c-2.52,2.57-5.86,2.81-8.1,2.81h-4.48v11.15h-7.33V100.54Zm-3.86,14.62h2.62a5.62,5.62,0,0,0,4-1.19,4.43,4.43,0,0,0,1.19-3.14,4.19,4.19,0,0,0-1.19-3.1,5.72,5.72,0,0,0-4.1-1.19h-2.48Z" transform="translate(0 0)"/><polygon class="a" points="78.83 122.31 78.84 122.32 118.66 122.32 98.77 88.85 78.83 122.31"/><polygon class="a" points="5.95 0 58.87 88.81 58.9 88.85 78.83 55.28 63.58 29.61 34.7 29.61 31.73 34.6 11.16 0 5.95 0"/><polygon class="b" points="52.33 0 50.41 3.21 66.09 29.61 94.08 29.61 80.08 53.19 86.26 63.6 117.66 10.78 131.46 34 151.72 0 52.33 0"/><path class="b" d="M55.8,94.05" transform="translate(0 0)"/><polygon class="b" points="34.7 29.61 63.58 29.61 49.16 5.32 34.7 29.61"/><path class="b" d="M118.66,122.32H78.82v0h0L98.77,88.85,78.83,55.29,73.67,64,58.9,88.85,57,92h0L2.36,0H0L55.8,94.05,21.42,151.93H73.65l-9.44-15.88,9.44-15.88h0l9.44,15.9-9.44,15.86h62.59Z" transform="translate(0 0)"/></svg>