<svg xmlns="http://www.w3.org/2000/svg" viewBox="0 0 589.67 292.94"><defs><style>.a{fill:#231f20;}</style></defs><title>gigazone-gaming-championship-X-black</title><path class="a" d="M210.11,104.95a10.6,10.6,0,0,1,5.08,1.22,12.32,12.32,0,0,1,4.09,3.7L229.41,105a21.78,21.78,0,0,0-8.16-7.41,24.06,24.06,0,0,0-11.14-2.49,24.81,24.81,0,0,0-9,1.61,21.7,21.7,0,0,0-12.29,12,23.2,23.2,0,0,0-1.64,8.83,23.43,23.43,0,0,0,1.68,8.8,21.64,21.64,0,0,0,4.73,7.28,20.53,20.53,0,0,0,7.25,4.79,25.6,25.6,0,0,0,9.27,1.57q10.6,0,16.45-6.11t5.84-17.18q0-1,0-1.55t0-1h-23v9H221a8.35,8.35,0,0,1-3.47,5.81,12.21,12.21,0,0,1-7.42,2.18,10.31,10.31,0,0,1-8.26-3.52q-3-3.52-3-9.64t3-9.56A10.33,10.33,0,0,1,210.11,104.95Z" transform="translate(0 0)"/><rect class="a" x="234.71" y="100.56" width="10.57" height="38.4"/><path class="a" d="M268,108.5a9.49,9.49,0,0,1,4.55,1.09,11,11,0,0,1,3.66,3.32l9.08-4.35a19.51,19.51,0,0,0-7.3-6.64,21.55,21.55,0,0,0-10-2.23,22.21,22.21,0,0,0-8.07,1.44,19.43,19.43,0,0,0-11,10.74,21.68,21.68,0,0,0,0,15.79,19.39,19.39,0,0,0,4.24,6.52,18.38,18.38,0,0,0,6.49,4.29,22.91,22.91,0,0,0,8.3,1.4q9.49,0,14.73-5.47T288,119q0-.92,0-1.39t0-.86H267.38v8.05h10.41a7.48,7.48,0,0,1-3.11,5.21,10.93,10.93,0,0,1-6.65,2,9.24,9.24,0,0,1-7.4-3.15q-2.7-3.15-2.7-8.63t2.7-8.56A9.25,9.25,0,0,1,268,108.5Z" transform="translate(0 0)"/><path class="a" d="M294.62,139l2-6.87h14.87l1.94,6.87h2.4l-3,4.7h37.9v-9.34H331.57l8.9-13.83H327.73L321,130.86l-10.47-30.31H297.45L284.21,139Zm8.1-27q.34-1.18.67-2.47t.67-2.7l.81,3.3q.32,1.29.5,1.86l3.91,12.67H298.87Z" transform="translate(0 0)"/><path class="a" d="M402.36,116.69q-.14-1.86-.46-4.27,1.13,2.46,2.08,4.29a22,22,0,0,0,1.4,2.43l0,0h10.75L402.5,100.56H392.4v18.61h10.09C402.47,118.41,402.43,117.59,402.36,116.69Z" transform="translate(0 0)"/><rect class="a" x="419.89" y="100.56" width="10.05" height="18.61"/><rect class="a" x="392.4" y="120.47" width="10.1" height="18.48"/><path class="a" d="M419.89,139h10V120.47h-10c0,.72.06,1.5.13,2.35q.14,1.86.46,4.25-1.15-2.52-2.11-4.34-.84-1.6-1.27-2.26H406.37Z" transform="translate(0 0)"/><polygon class="a" points="457.49 130.35 444.16 130.35 444.16 123.87 456.73 123.87 456.73 120.47 433.96 120.47 433.96 138.95 457.49 138.95 457.49 130.35"/><polygon class="a" points="456.73 115.64 444.16 115.64 444.16 108.97 457.49 108.97 457.49 100.56 433.96 100.56 433.96 119.17 456.73 119.17 456.73 115.64"/><path class="a" d="M384.45,134.08a19.43,19.43,0,0,0,5.94-13.59H379.92a11.51,11.51,0,0,1-2.82,7.43,9.15,9.15,0,0,1-6.57,3.18V140a20.63,20.63,0,0,0,7.21-1.52A21,21,0,0,0,384.45,134.08Z" transform="translate(0 0)"/><path class="a" d="M377.06,111.78a11.46,11.46,0,0,1,2.86,7.4h10.47a19.59,19.59,0,0,0-5.94-13.59,20.32,20.32,0,0,0-6.67-4.37,20.8,20.8,0,0,0-7.25-1.52v8.87A9.19,9.19,0,0,1,377.06,111.78Z" transform="translate(0 0)"/><polygon class="a" points="328.57 119.18 341.31 119.18 353.16 100.78 317.07 100.78 317.07 110.06 334.44 110.06 328.57 119.18"/><path class="a" d="M369.22,140v-8.87a9.12,9.12,0,0,1-6.56-3.15,11.56,11.56,0,0,1-2.78-7.45h-10.5a19.36,19.36,0,0,0,6,13.59,20.09,20.09,0,0,0,6.62,4.37A20.64,20.64,0,0,0,369.22,140Z" transform="translate(0 0)"/><path class="a" d="M349.38,119.18h10.5a11.52,11.52,0,0,1,2.82-7.41,9.13,9.13,0,0,1,6.52-3.19V99.71a20.6,20.6,0,0,0-7.21,1.52,20.09,20.09,0,0,0-6.62,4.37,19.31,19.31,0,0,0-6,13.59Z" transform="translate(0 0)"/><polygon class="a" points="460.7 105.33 462.01 105.33 462.01 101.69 463.08 101.69 463.08 100.56 459.63 100.56 459.63 101.69 460.7 101.69 460.7 105.33"/><path class="a" d="M464.88,103.27c0-.18,0-.35.06-.53s0-.36,0-.54a5.32,5.32,0,0,0,.18.75l0,.14.65,2.24h.87l.65-2.24,0-.14a5.78,5.78,0,0,0,.18-.76c0,.21,0,.41,0,.58s0,.34.05.49l.28,2.07h1.22l-.73-4.78h-1.29l-.73,2.46q-.06.22-.1.37a2.37,2.37,0,0,0,0,.28,3.22,3.22,0,0,0-.13-.57l0-.08-.72-2.47h-1.29l-.74,4.78h1.21Z" transform="translate(0 0)"/><path class="a" d="M234.51,188c4.15,0,8.62-.74,12.52-4.79s5.42-10.52,5.42-14.78v-.37H235v6.52h8.47a8.19,8.19,0,0,1-2.52,4.15,9,9,0,0,1-6.1,1.89,9.22,9.22,0,0,1-7.1-2.73,11,11,0,0,1-2.94-8,12,12,0,0,1,3-8.31,9.49,9.49,0,0,1,7.26-2.84,8.8,8.8,0,0,1,5.36,1.68,10.62,10.62,0,0,1,3.1,3.79l7.31-3.94a19.4,19.4,0,0,0-5.68-6.26,17.68,17.68,0,0,0-9.83-2.63c-4.15,0-9.47.63-13.78,5.1a20,20,0,0,0,.11,26.66C225.78,187.33,230.3,188,234.51,188Z" transform="translate(0 0)"/><path class="a" d="M260.81,180.6h13.25l2.63,6.63h14.89l2.79-20.93,8.78,20.93H306l8.78-20.93,2.79,20.93h8.1L320,152.15H313.3l-8.73,21-8.73-21h-6.73L284,184.3l-12.68-32.15h-7.41l-14.15,35.08h8.41Zm6.73-18,4.31,11.78h-8.68Z" transform="translate(0 0)"/><rect class="a" x="327.93" y="152.15" width="8.1" height="35.08"/><polygon class="a" points="339.93 152.15 339.93 187.22 348.02 187.22 348.02 164.5 367.06 187.22 374.11 187.22 374.11 152.15 366.01 152.15 366.01 174.76 346.97 152.15 339.93 152.15"/><path class="a" d="M394.78,158.72a8.8,8.8,0,0,1,5.36,1.68,10.62,10.62,0,0,1,3.1,3.79l7.31-3.94a19.39,19.39,0,0,0-5.68-6.26,17.68,17.68,0,0,0-9.83-2.63c-4.15,0-9.47.63-13.78,5.1a20,20,0,0,0,.1,26.66c4.1,4.21,8.62,4.89,12.83,4.89s8.62-.74,12.51-4.79,5.42-10.52,5.42-14.78v-.37H394.73v6.52h8.47a8.2,8.2,0,0,1-2.52,4.15,9,9,0,0,1-6.1,1.89,9.22,9.22,0,0,1-7.1-2.73,11,11,0,0,1-2.94-8,12,12,0,0,1,3-8.31A9.49,9.49,0,0,1,394.78,158.72Z" transform="translate(0 0)"/><path class="a" d="M246.46,201.61a18.79,18.79,0,0,0,0,26.5c2.94,2.89,7.31,5.1,13.78,5.1a16.31,16.31,0,0,0,7.73-1.89V222c-3.1,3-5.94,3.63-8,3.63A10.26,10.26,0,0,1,249.3,215a11.23,11.23,0,0,1,3.31-8.1,9.84,9.84,0,0,1,7.15-2.74,11.12,11.12,0,0,1,8.2,3.73v-9.36a20.89,20.89,0,0,0-8.41-1.95A18.62,18.62,0,0,0,246.46,201.61Z" transform="translate(0 0)"/><polygon class="a" points="292.59 210.71 278.6 210.71 278.6 197.35 270.5 197.35 270.5 232.43 278.6 232.43 278.6 217.55 292.59 217.55 292.59 232.43 300.69 232.43 300.69 197.35 292.59 197.35 292.59 210.71"/><path class="a" d="M364.28,197.36l-8.73,21-8.73-21h-6.73l-5.16,32.15-12.68-32.15h-7.41L300.7,232.43h8.41l2.68-6.63H325l2.63,6.63h14.89l2.79-20.93,8.78,20.93H357l8.78-20.93,2.79,20.93h8.1L371,197.36ZM314.16,219.6l4.36-11.78,4.31,11.78Z" transform="translate(0 0)"/><path class="a" d="M400.31,200.25c-2.79-2.47-6.15-2.89-9.2-2.89H378.75v35.08h8.1V220.12h4.94c2.47,0,6.15-.26,8.94-3.1a11.28,11.28,0,0,0,3-8.26A10.79,10.79,0,0,0,400.31,200.25Zm-6.21,11.94a6.2,6.2,0,0,1-4.36,1.31h-2.89V204h2.73a6.31,6.31,0,0,1,4.52,1.31,4.63,4.63,0,0,1,1.32,3.42A4.88,4.88,0,0,1,394.11,212.19Z" transform="translate(0 0)"/><rect class="a" x="405.05" y="197.35" width="8.1" height="35.08"/><path class="a" d="M434.56,196.57c-7,0-11.36,2.79-13.73,5.15a19.58,19.58,0,0,0-5.42,13.3,17.91,17.91,0,0,0,5.47,13,19.31,19.31,0,0,0,13.67,5.15,18.73,18.73,0,0,0,13.57-5.15,18.66,18.66,0,0,0,0-26.4C444.6,198.25,440,196.57,434.56,196.57Zm7.68,26.19a10.62,10.62,0,0,1-7.78,3,10.31,10.31,0,0,1-7.52-2.89,10.47,10.47,0,0,1-3.21-7.89A10.44,10.44,0,0,1,434.51,204a11.25,11.25,0,0,1,7.73,3,11.05,11.05,0,0,1,3,7.89A10.51,10.51,0,0,1,442.23,222.75Z" transform="translate(0 0)"/><polygon class="a" points="481.79 219.97 462.75 197.35 455.71 197.35 455.71 232.43 463.81 232.43 463.81 209.71 482.84 232.43 489.89 232.43 489.89 197.35 481.79 197.35 481.79 219.97"/><path class="a" d="M509.35,211.76l-2.63-1c-2.37-.89-3.58-1.21-4.42-2a2.46,2.46,0,0,1-.79-1.95,3.13,3.13,0,0,1,.89-2.21,4.38,4.38,0,0,1,3.42-1.21,8.54,8.54,0,0,1,5.89,2.52l3.63-5.89a17,17,0,0,0-10.41-3.47c-3.26,0-6.21.68-8.68,3.21a10.78,10.78,0,0,0-3,7.89,8.62,8.62,0,0,0,2.1,6.1,11.82,11.82,0,0,0,4.89,2.79l2.89,1a17.1,17.1,0,0,1,4.1,1.95,3.09,3.09,0,0,1,1.21,2.52,3.63,3.63,0,0,1-1.26,2.84,5.6,5.6,0,0,1-3.68,1.21,8.14,8.14,0,0,1-4.42-1.26,21.41,21.41,0,0,1-3.26-2.68l-4.21,5.79a22.31,22.31,0,0,0,5.15,3.84,14.87,14.87,0,0,0,6.94,1.47c2.31,0,6.84-.32,9.94-3.58a12.57,12.57,0,0,0,3.1-8.68,8.75,8.75,0,0,0-2.58-6.52A14.07,14.07,0,0,0,509.35,211.76Z" transform="translate(0 0)"/><polygon class="a" points="540.7 210.71 526.72 210.71 526.72 197.35 518.62 197.35 518.62 232.43 526.72 232.43 526.72 217.55 540.7 217.55 540.7 232.43 548.8 232.43 548.8 197.35 540.7 197.35 540.7 210.71"/><rect class="a" x="552.7" y="197.35" width="8.1" height="35.08"/><path class="a" d="M586.25,200.25c-2.79-2.47-6.15-2.89-9.2-2.89H564.69v35.08h8.1V220.12h4.94c2.47,0,6.15-.26,8.94-3.1a11.28,11.28,0,0,0,3-8.26A10.78,10.78,0,0,0,586.25,200.25ZM580,212.19a6.21,6.21,0,0,1-4.37,1.31h-2.89V204h2.74A6.32,6.32,0,0,1,580,205.3a4.63,4.63,0,0,1,1.31,3.42A4.89,4.89,0,0,1,580,212.19Z" transform="translate(0 0)"/><polygon class="a" points="181.4 57.09 154.4 102.55 166.31 122.62 226.86 20.79 253.45 65.55 292.52 0 100.89 0 97.2 6.19 127.42 57.09 181.4 57.09"/><path class="a" d="M94.78,10.26,61.18,66.7,21.51,0h-10l102,171.23,0,.08h0l-3.64,6.13h0L4.55,0H0L107.59,181.34,41.3,292.94H142L123.8,262.32,142,231.7l18.21,30.65L142,292.94H262.69Zm18.76,145.4-48-80.6,5.93-10H118l24.65,41.5Zm52.51,72.19L190.42,187l24.29,40.9Z" transform="translate(0 0)"/></svg>