<svg xmlns="http://www.w3.org/2000/svg" viewBox="0 0 637.77 151.93"><defs><style>.a{fill:#231f20;}</style></defs><title>gigazone-gaming-championship-X-wide-black</title><path class="a" d="M123.75,53.85a9.61,9.61,0,0,1,4.6,1.1,11.16,11.16,0,0,1,3.7,3.36l9.18-4.4a19.73,19.73,0,0,0-7.39-6.71,21.79,21.79,0,0,0-10.09-2.26,22.47,22.47,0,0,0-8.16,1.46,19.65,19.65,0,0,0-11.13,10.86,21,21,0,0,0-1.49,8,21.22,21.22,0,0,0,1.53,8,19.61,19.61,0,0,0,4.28,6.59,18.6,18.6,0,0,0,6.57,4.34,23.19,23.19,0,0,0,8.4,1.42q9.6,0,14.9-5.53t5.29-15.56q0-.93,0-1.41t0-.88h-20.8v8.14h10.53a7.57,7.57,0,0,1-3.14,5.27,11.06,11.06,0,0,1-6.73,2,9.34,9.34,0,0,1-7.48-3.18q-2.73-3.18-2.73-8.73T116.27,57A9.36,9.36,0,0,1,123.75,53.85Z" transform="translate(0 0)"/><rect class="a" x="146.04" y="49.87" width="9.57" height="34.78"/><path class="a" d="M162.82,80.32a16.65,16.65,0,0,0,5.88,3.88,20.75,20.75,0,0,0,7.52,1.27q8.6,0,13.34-5t4.74-13.93q0-.83,0-1.26t0-.78H175.63v7.29h9.43a6.78,6.78,0,0,1-2.82,4.72,9.9,9.9,0,0,1-6,1.77,8.37,8.37,0,0,1-6.7-2.85q-2.45-2.85-2.45-7.82a11.49,11.49,0,0,1,2.45-7.76,8.38,8.38,0,0,1,6.7-2.84,8.59,8.59,0,0,1,4.12,1,10,10,0,0,1,3.31,3l8.22-3.94a17.67,17.67,0,0,0-6.62-6,19.52,19.52,0,0,0-9-2,20.11,20.11,0,0,0-7.31,1.31,17.6,17.6,0,0,0-10,9.73,19.64,19.64,0,0,0,0,14.3A17.56,17.56,0,0,0,162.82,80.32Z" transform="translate(0 0)"/><path class="a" d="M200.3,84.65l1.81-6.22h13.47l1.76,6.22h2.18l-2.74,4.26H251.1V80.45H233.78l8.06-12.53H230.29l-6.06,9.4-9.49-27.45H202.87l-12,34.78Zm7.34-24.47q.31-1.07.61-2.23t.61-2.45l.74,3q.29,1.17.45,1.69l3.54,11.47h-9.43Z" transform="translate(0 0)"/><path class="a" d="M297.89,64.48q-.13-1.69-.42-3.87,1,2.23,1.89,3.88a20,20,0,0,0,1.27,2.2l0,0h9.74L298,49.87h-9.15V66.73H298C298,66,298,65.3,297.89,64.48Z" transform="translate(0 0)"/><rect class="a" x="313.77" y="49.87" width="9.1" height="16.86"/><rect class="a" x="288.88" y="67.9" width="9.15" height="16.74"/><path class="a" d="M322.87,67.91h-9.08c0,.65.06,1.36.12,2.13q.13,1.69.42,3.85-1-2.28-1.91-3.93-.76-1.45-1.15-2h-9.73l12.25,16.74h9.1Z" transform="translate(0 0)"/><polygon class="a" points="335.76 70.99 347.14 70.99 347.14 67.91 326.52 67.91 326.52 84.65 347.83 84.65 347.83 76.86 335.76 76.86 335.76 70.99"/><polygon class="a" points="326.52 66.73 347.14 66.73 347.14 63.53 335.76 63.53 335.76 57.49 347.83 57.49 347.83 49.87 326.52 49.87 326.52 66.73"/><path class="a" d="M281.67,80.23a17.6,17.6,0,0,0,5.38-12.31h-9.49A10.42,10.42,0,0,1,275,74.65a8.29,8.29,0,0,1-6,2.88v8a18.69,18.69,0,0,0,6.54-1.38A19,19,0,0,0,281.67,80.23Z" transform="translate(0 0)"/><path class="a" d="M275,60a10.38,10.38,0,0,1,2.59,6.7h9.49a17.74,17.74,0,0,0-5.38-12.31,18.4,18.4,0,0,0-6-4,18.83,18.83,0,0,0-6.57-1.38v8A8.32,8.32,0,0,1,275,60Z" transform="translate(0 0)"/><polygon class="a" points="231.05 66.74 242.6 66.74 242.6 66.74 253.33 50.07 253.33 50.07 253.33 50.07 220.64 50.07 220.64 50.07 220.64 58.48 236.38 58.48 231.05 66.74"/><path class="a" d="M261.93,74.67a10.47,10.47,0,0,1-2.52-6.75H249.9a17.54,17.54,0,0,0,5.45,12.31,18.2,18.2,0,0,0,6,4,18.7,18.7,0,0,0,6.53,1.38v-8A8.26,8.26,0,0,1,261.93,74.67Z" transform="translate(0 0)"/><path class="a" d="M249.9,66.74h9.51A10.44,10.44,0,0,1,262,60a8.27,8.27,0,0,1,5.91-2.89v-8a18.66,18.66,0,0,0-6.53,1.38,18.2,18.2,0,0,0-6,4,17.49,17.49,0,0,0-5.45,12.31Z" transform="translate(0 0)"/><polygon class="a" points="350.74 54.2 351.92 54.2 351.92 50.89 352.89 50.89 352.89 49.87 349.77 49.87 349.77 50.89 350.74 50.89 350.74 54.2"/><path class="a" d="M354.53,52.32c0-.16,0-.32.06-.48s0-.32,0-.49a4.84,4.84,0,0,0,.16.68l0,.13.59,2h.79l.59-2,0-.13a5.23,5.23,0,0,0,.16-.69c0,.19,0,.37,0,.53s0,.31,0,.44l.25,1.87h1.1l-.66-4.33H356.6l-.66,2.23q-.06.2-.09.34a2.14,2.14,0,0,0,0,.26,2.92,2.92,0,0,0-.12-.51l0-.08L355,49.87h-1.17l-.67,4.33h1.1Z" transform="translate(0 0)"/><path class="a" d="M162.19,115H146.43v5.91h7.67a7.42,7.42,0,0,1-2.29,3.76,8.14,8.14,0,0,1-5.53,1.71,8.35,8.35,0,0,1-6.43-2.48,10,10,0,0,1-2.67-7.29,10.88,10.88,0,0,1,2.71-7.53,8.6,8.6,0,0,1,6.57-2.57,8,8,0,0,1,4.86,1.52,9.62,9.62,0,0,1,2.81,3.43l6.62-3.57a17.57,17.57,0,0,0-5.14-5.67,16,16,0,0,0-8.91-2.38c-3.76,0-8.57.57-12.48,4.62a18.09,18.09,0,0,0,.1,24.15c3.71,3.81,7.81,4.43,11.62,4.43s7.81-.67,11.34-4.33,4.91-9.53,4.91-13.38Z" transform="translate(0 0)"/><path class="a" d="M217.32,100.54l-7.91,19-7.91-19h-6.1l-4.67,29.12-11.48-29.12h-6.72l-12.81,31.77h7.62l2.43-6h12l2.38,6h13.49l2.52-19,8,19h2.57l8-19,2.52,19h7.34l-5.1-31.77Zm-45.4,20.15,4-10.67,3.91,10.67Z" transform="translate(0 0)"/><rect class="a" x="230.57" y="100.54" width="7.33" height="31.77"/><polygon class="a" points="265.06 121.02 247.82 100.54 241.43 100.54 241.43 132.31 248.77 132.31 248.77 111.73 266.01 132.31 272.39 132.31 272.39 100.54 265.06 100.54 265.06 121.02"/><path class="a" d="M291.08,120.88h7.67a7.43,7.43,0,0,1-2.29,3.76,8.14,8.14,0,0,1-5.53,1.71,8.35,8.35,0,0,1-6.43-2.48,10,10,0,0,1-2.67-7.29,10.88,10.88,0,0,1,2.71-7.53,8.59,8.59,0,0,1,6.57-2.57A8,8,0,0,1,296,108a9.62,9.62,0,0,1,2.81,3.43l6.62-3.57a17.57,17.57,0,0,0-5.14-5.67,16,16,0,0,0-8.91-2.38c-3.76,0-8.57.57-12.48,4.62a18.09,18.09,0,0,0,.09,24.15c3.72,3.81,7.81,4.43,11.62,4.43s7.81-.67,11.34-4.33,4.91-9.53,4.91-13.38V115H291.08Z" transform="translate(0 0)"/><path class="a" d="M326.9,104.4a17,17,0,0,0,0,24c2.67,2.62,6.62,4.62,12.48,4.62a14.77,14.77,0,0,0,7-1.71v-8.43a10,10,0,0,1-7.29,3.29,9.29,9.29,0,0,1-9.62-9.67,10.17,10.17,0,0,1,3-7.33,8.91,8.91,0,0,1,6.48-2.48,10.07,10.07,0,0,1,7.43,3.38v-8.48a18.92,18.92,0,0,0-7.62-1.76A16.87,16.87,0,0,0,326.9,104.4Z" transform="translate(0 0)"/><polygon class="a" points="368.68 112.64 356.01 112.64 356.01 100.54 348.67 100.54 348.67 132.31 356.01 132.31 356.01 118.83 368.68 118.83 368.68 132.31 376.01 132.31 376.01 100.54 368.68 100.54 368.68 112.64"/><path class="a" d="M433.61,100.54l-7.91,19-7.91-19h-6.1L407,129.66l-11.48-29.12h-6.72L376,132.31h7.62l2.43-6h12l2.38,6h13.49l2.52-19,8,19H427l8-19,2.53,19h7.33l-5.1-31.77Zm-45.4,20.15,4-10.67,3.91,10.67Z" transform="translate(0 0)"/><path class="a" d="M457.92,100.54H446.72v31.77h7.34V121.16h4.48c2.24,0,5.57-.24,8.1-2.81a10.22,10.22,0,0,0,2.71-7.48,9.77,9.77,0,0,0-3.1-7.72C463.73,100.92,460.68,100.54,457.92,100.54ZM460.63,114a5.62,5.62,0,0,1-4,1.19h-2.62v-8.62h2.48a5.72,5.72,0,0,1,4.1,1.19,4.19,4.19,0,0,1,1.19,3.1A4.42,4.42,0,0,1,460.63,114Z" transform="translate(0 0)"/><rect class="a" x="470.54" y="100.54" width="7.33" height="31.77"/><path class="a" d="M497.27,99.82c-6.34,0-10.29,2.53-12.43,4.67a17.74,17.74,0,0,0-4.91,12.05,16.22,16.22,0,0,0,5,11.81A17.49,17.49,0,0,0,497.27,133a17,17,0,0,0,12.29-4.67,16.9,16.9,0,0,0,0-23.91A17,17,0,0,0,497.27,99.82Zm7,23.72a9.62,9.62,0,0,1-7,2.71,9.34,9.34,0,0,1-6.81-2.62,9.48,9.48,0,0,1-2.91-7.15,9.46,9.46,0,0,1,9.77-9.91,10.19,10.19,0,0,1,7,2.71,10,10,0,0,1,2.76,7.15A9.52,9.52,0,0,1,504.22,123.54Z" transform="translate(0 0)"/><polygon class="a" points="540.05 121.02 522.81 100.54 516.43 100.54 516.43 132.31 523.76 132.31 523.76 111.73 541 132.31 547.39 132.31 547.39 100.54 540.05 100.54 540.05 121.02"/><path class="a" d="M565,113.59l-2.38-.91c-2.14-.81-3.24-1.1-4-1.81a2.23,2.23,0,0,1-.71-1.76,2.83,2.83,0,0,1,.81-2,4,4,0,0,1,3.1-1.1,7.74,7.74,0,0,1,5.33,2.29l3.29-5.33A15.35,15.35,0,0,0,561,99.82c-3,0-5.62.62-7.86,2.91a9.76,9.76,0,0,0-2.76,7.14,7.8,7.8,0,0,0,1.91,5.53,10.71,10.71,0,0,0,4.43,2.53l2.62.9a15.48,15.48,0,0,1,3.72,1.76,2.8,2.8,0,0,1,1.1,2.29,3.28,3.28,0,0,1-1.14,2.57,5.07,5.07,0,0,1-3.33,1.1,7.37,7.37,0,0,1-4-1.14,19.39,19.39,0,0,1-3-2.43l-3.81,5.24a20.21,20.21,0,0,0,4.67,3.48,13.47,13.47,0,0,0,6.29,1.33c2.09,0,6.19-.29,9-3.24a11.38,11.38,0,0,0,2.81-7.86,7.93,7.93,0,0,0-2.33-5.91A12.74,12.74,0,0,0,565,113.59Z" transform="translate(0 0)"/><polygon class="a" points="593.41 112.64 580.75 112.64 580.75 100.54 573.41 100.54 573.41 132.31 580.75 132.31 580.75 118.83 593.41 118.83 593.41 132.31 600.75 132.31 600.75 100.54 593.41 100.54 593.41 112.64"/><rect class="a" x="604.28" y="100.54" width="7.33" height="31.77"/><path class="a" d="M634.67,103.16c-2.52-2.24-5.57-2.62-8.34-2.62H615.14v31.77h7.33V121.16H627c2.24,0,5.57-.24,8.1-2.81a10.22,10.22,0,0,0,2.71-7.48A9.76,9.76,0,0,0,634.67,103.16ZM629.05,114a5.62,5.62,0,0,1-4,1.19h-2.62v-8.62H625a5.72,5.72,0,0,1,4.1,1.19,4.19,4.19,0,0,1,1.19,3.1A4.43,4.43,0,0,1,629.05,114Z" transform="translate(0 0)"/><path class="a" d="M73.65,120.18h0l9.44,15.9-9.44,15.86h62.59L78.83,55.29h0L67.15,35.61h0l-18-30.29L34.7,29.61h0l-3,5L11.16,0H6L58.87,88.81l0,0h0L57,92h0L2.36,0H0L55.8,94.05,21.42,151.93H73.65l-9.44-15.88,9.44-15.88M58.89,77.11,36.13,38.93l2-3.32H60.17L71.86,55.29Zm30.49,39.21,9.38-15.74,9.35,15.74Z" transform="translate(0 0)"/><polygon class="a" points="94.08 29.61 80.08 53.19 86.26 63.6 117.66 10.78 131.46 34 151.72 0 52.33 0 50.41 3.21 66.09 29.61 94.08 29.61"/></svg>