<svg xmlns="http://www.w3.org/2000/svg" viewBox="0 0 637.77 151.93"><defs><style>.a{fill:#231f20;}</style></defs><title>gigazone-gaming-championship-X-wide-black</title><path class="a" d="M179.25,100.54h-6.72l-12.81,31.77h7.62l2.43-6h12l2.38,6h6.15l.43-2.65Zm-7.33,20.15,4-10.67,3.91,10.67Z" transform="translate(0 0)"/><polygon class="a" points="217.32 100.54 209.41 119.54 201.5 100.54 195.41 100.54 190.74 129.66 191.78 132.31 197.65 132.31 200.17 113.35 208.13 132.31 210.7 132.31 218.65 113.35 221.18 132.31 228.51 132.31 223.41 100.54 217.32 100.54"/><polygon class="a" points="190.31 132.31 191.78 132.31 190.74 129.66 190.31 132.31"/><rect class="a" x="230.57" y="100.54" width="7.33" height="31.77"/><polygon class="a" points="265.06 121.02 247.82 100.54 241.43 100.54 241.43 132.31 248.77 132.31 248.77 111.73 266.01 132.31 272.39 132.31 272.39 100.54 265.06 100.54 265.06 121.02"/><path class="a" d="M291.08,120.88h7.67a7.43,7.43,0,0,1-2.29,3.76,8.14,8.14,0,0,1-5.53,1.71,8.35,8.35,0,0,1-6.43-2.48,10,10,0,0,1-2.67-7.29,10.88,10.88,0,0,1,2.71-7.53,8.59,8.59,0,0,1,6.57-2.57A8,8,0,0,1,296,108a9.62,9.62,0,0,1,2.81,3.43l6.62-3.57a17.57,17.57,0,0,0-5.14-5.67,16,16,0,0,0-8.91-2.38c-3.76,0-8.57.57-12.48,4.62a18.09,18.09,0,0,0,.09,24.15c3.72,3.81,7.81,4.43,11.62,4.43s7.81-.67,11.34-4.33,4.91-9.53,4.91-13.38V115H291.08Z" transform="translate(0 0)"/><path class="a" d="M326.9,104.4a17,17,0,0,0,0,24c2.67,2.62,6.62,4.62,12.48,4.62a14.77,14.77,0,0,0,7-1.71v-8.43a10,10,0,0,1-7.29,3.29,9.29,9.29,0,0,1-9.62-9.67,10.17,10.17,0,0,1,3-7.33,8.91,8.91,0,0,1,6.48-2.48,10.07,10.07,0,0,1,7.43,3.38v-8.48a18.92,18.92,0,0,0-7.62-1.76A16.87,16.87,0,0,0,326.9,104.4Z" transform="translate(0 0)"/><polygon class="a" points="368.68 112.64 356.01 112.64 356.01 100.54 348.67 100.54 348.67 132.31 356.01 132.31 356.01 118.83 368.68 118.83 368.68 132.31 376.01 132.31 376.01 100.54 368.68 100.54 368.68 112.64"/><path class="a" d="M395.55,100.54h-6.72L376,132.31h7.62l2.43-6h12l2.38,6h6.15l.42-2.65Zm-7.34,20.15,4-10.67,3.91,10.67Z" transform="translate(0 0)"/><polygon class="a" points="433.61 100.54 425.71 119.54 417.8 100.54 411.7 100.54 407.03 129.66 408.07 132.31 413.94 132.31 416.47 113.35 424.42 132.31 426.99 132.31 434.95 113.35 437.47 132.31 444.81 132.31 439.71 100.54 433.61 100.54"/><polygon class="a" points="406.61 132.31 408.07 132.31 407.03 129.66 406.61 132.31"/><path class="a" d="M457.92,100.54H446.72v31.77h7.34V121.16h4.48c2.24,0,5.57-.24,8.1-2.81a10.22,10.22,0,0,0,2.71-7.48,9.77,9.77,0,0,0-3.1-7.72C463.73,100.92,460.68,100.54,457.92,100.54ZM460.63,114a5.62,5.62,0,0,1-4,1.19h-2.62v-8.62h2.48a5.72,5.72,0,0,1,4.1,1.19,4.19,4.19,0,0,1,1.19,3.1A4.42,4.42,0,0,1,460.63,114Z" transform="translate(0 0)"/><rect class="a" x="470.54" y="100.54" width="7.33" height="31.77"/><path class="a" d="M497.27,99.82c-6.34,0-10.29,2.53-12.43,4.67a17.74,17.74,0,0,0-4.91,12.05,16.22,16.22,0,0,0,5,11.81A17.49,17.49,0,0,0,497.27,133a17,17,0,0,0,12.29-4.67,16.9,16.9,0,0,0,0-23.91A17,17,0,0,0,497.27,99.82Zm7,23.72a9.62,9.62,0,0,1-7,2.71,9.34,9.34,0,0,1-6.81-2.62,9.48,9.48,0,0,1-2.91-7.15,9.46,9.46,0,0,1,9.77-9.91,10.19,10.19,0,0,1,7,2.71,10,10,0,0,1,2.76,7.15A9.52,9.52,0,0,1,504.22,123.54Z" transform="translate(0 0)"/><polygon class="a" points="540.05 121.02 522.81 100.54 516.43 100.54 516.43 132.31 523.76 132.31 523.76 111.73 541 132.31 547.39 132.31 547.39 100.54 540.05 100.54 540.05 121.02"/><path class="a" d="M565,113.59l-2.38-.91c-2.14-.81-3.24-1.1-4-1.81a2.23,2.23,0,0,1-.71-1.76,2.83,2.83,0,0,1,.81-2,4,4,0,0,1,3.1-1.1,7.74,7.74,0,0,1,5.33,2.29l3.29-5.33A15.35,15.35,0,0,0,561,99.82c-3,0-5.62.62-7.86,2.91a9.76,9.76,0,0,0-2.76,7.14,7.8,7.8,0,0,0,1.91,5.53,10.71,10.71,0,0,0,4.43,2.53l2.62.9a15.48,15.48,0,0,1,3.72,1.76,2.8,2.8,0,0,1,1.1,2.29,3.28,3.28,0,0,1-1.14,2.57,5.07,5.07,0,0,1-3.33,1.1,7.37,7.37,0,0,1-4-1.14,19.39,19.39,0,0,1-3-2.43l-3.81,5.24a20.21,20.21,0,0,0,4.67,3.48,13.47,13.47,0,0,0,6.29,1.33c2.09,0,6.19-.29,9-3.24a11.38,11.38,0,0,0,2.81-7.86,7.93,7.93,0,0,0-2.33-5.91A12.74,12.74,0,0,0,565,113.59Z" transform="translate(0 0)"/><polygon class="a" points="593.41 112.64 580.75 112.64 580.75 100.54 573.41 100.54 573.41 132.31 580.75 132.31 580.75 118.83 593.41 118.83 593.41 132.31 600.75 132.31 600.75 100.54 593.41 100.54 593.41 112.64"/><rect class="a" x="604.28" y="100.54" width="7.33" height="31.77"/><path class="a" d="M634.67,103.16c-2.52-2.24-5.57-2.62-8.34-2.62H615.14v31.77h7.33V121.16H627c2.24,0,5.57-.24,8.1-2.81a10.22,10.22,0,0,0,2.71-7.48A9.76,9.76,0,0,0,634.67,103.16ZM629.05,114a5.62,5.62,0,0,1-4,1.19h-2.62v-8.62H625a5.72,5.72,0,0,1,4.1,1.19,4.19,4.19,0,0,1,1.19,3.1A4.43,4.43,0,0,1,629.05,114Z" transform="translate(0 0)"/><path class="a" d="M162.88,80.33a16.65,16.65,0,0,0,5.88,3.88,20.75,20.75,0,0,0,7.52,1.27q8.6,0,13.33-5t4.74-13.93q0-.83,0-1.26t0-.78H175.68v7.29h9.43a6.78,6.78,0,0,1-2.82,4.71,9.9,9.9,0,0,1-6,1.77,8.36,8.36,0,0,1-6.7-2.85q-2.45-2.85-2.45-7.81a11.48,11.48,0,0,1,2.45-7.75,8.38,8.38,0,0,1,6.7-2.84,8.59,8.59,0,0,1,4.12,1,10,10,0,0,1,3.31,3l8.22-3.94a17.65,17.65,0,0,0-6.61-6,19.5,19.5,0,0,0-9-2A20.12,20.12,0,0,0,169,50.4a17.59,17.59,0,0,0-10,9.73,19.64,19.64,0,0,0,0,14.3A17.58,17.58,0,0,0,162.88,80.33Z" transform="translate(0 0)"/><path class="a" d="M200.35,84.65l1.8-6.22h13.47l1.76,6.22h2.18l4.72-7.33-9.48-27.44H202.92l-12,34.77Zm7.34-24.46q.31-1.07.61-2.23t.61-2.45l.74,3q.29,1.16.45,1.69l3.54,11.47H204.2Z" transform="translate(0 0)"/><path class="a" d="M297.91,64.49q-.13-1.69-.42-3.87,1,2.23,1.89,3.88a19.89,19.89,0,0,0,1.27,2.2l0,0h9.74L298,49.88H288.9V66.73H298Q298,65.71,297.91,64.49Z" transform="translate(0 0)"/><rect class="a" x="313.79" y="49.88" width="9.1" height="16.85"/><rect class="a" x="288.9" y="67.91" width="9.14" height="16.74"/><path class="a" d="M322.88,67.91H313.8c0,.65.06,1.36.12,2.13q.13,1.69.42,3.85-1-2.28-1.91-3.93-.76-1.45-1.15-2h-9.73l12.24,16.74h9.1Z" transform="translate(0 0)"/><polygon class="a" points="335.76 70.99 347.14 70.99 347.14 67.91 326.52 67.91 326.52 84.65 347.83 84.65 347.83 76.86 335.76 76.86 335.76 70.99"/><polygon class="a" points="326.52 66.73 347.14 66.73 347.14 63.53 335.76 63.53 335.76 57.5 347.83 57.5 347.83 49.88 326.52 49.88 326.52 66.73"/><path class="a" d="M281.7,80.23a17.6,17.6,0,0,0,5.38-12.31h-9.48A10.42,10.42,0,0,1,275,74.65a8.28,8.28,0,0,1-6,2.88v8a18.7,18.7,0,0,0,6.53-1.38A19,19,0,0,0,281.7,80.23Z" transform="translate(0 0)"/><path class="a" d="M275,60a10.38,10.38,0,0,1,2.59,6.7h9.48a17.74,17.74,0,0,0-5.38-12.31,18.38,18.38,0,0,0-6-4,18.81,18.81,0,0,0-6.57-1.38v8A8.32,8.32,0,0,1,275,60Z" transform="translate(0 0)"/><polygon class="a" points="231.09 66.75 242.63 66.75 253.36 50.08 220.69 50.08 220.69 58.49 236.41 58.49 231.09 66.75"/><polygon class="a" points="219.56 84.65 216.81 88.91 251.13 88.91 251.13 80.45 233.81 80.45 241.87 67.92 230.33 67.92 224.28 77.32 226.81 84.65 219.56 84.65"/><path class="a" d="M262,74.67a10.46,10.46,0,0,1-2.52-6.75h-9.51a17.54,17.54,0,0,0,5.45,12.31,18.19,18.19,0,0,0,6,4,18.69,18.69,0,0,0,6.52,1.37v-8A8.25,8.25,0,0,1,262,74.67Z" transform="translate(0 0)"/><path class="a" d="M249.93,66.75h9.51A10.44,10.44,0,0,1,262,60a8.27,8.27,0,0,1,5.91-2.89v-8a18.67,18.67,0,0,0-6.52,1.38,18.17,18.17,0,0,0-6,4,17.49,17.49,0,0,0-5.45,12.31Z" transform="translate(0 0)"/><path class="a" d="M352.71,55.5a2.71,2.71,0,1,0-2.78-2.73A2.71,2.71,0,0,0,352.71,55.5Zm0-4.88a2.09,2.09,0,0,1,2.07,2.17,2.06,2.06,0,0,1-2.05,2.14,2.15,2.15,0,0,1,0-4.31Z" transform="translate(0 0)"/><path class="a" d="M352.29,53.1h.3c.35,0,.51.13.56.43a2.28,2.28,0,0,0,.21.66H354a2.05,2.05,0,0,1-.2-.67.79.79,0,0,0-.49-.66v0a.69.69,0,0,0,.56-.62.75.75,0,0,0-.26-.59,1.68,1.68,0,0,0-.94-.2,5.42,5.42,0,0,0-1,.08v2.7h.62Zm0-1.22a1.48,1.48,0,0,1,.34,0c.39,0,.58.16.58.41s-.28.39-.62.39h-.3Z" transform="translate(0 0)"/><path class="a" d="M146.43,115v5.91h7.67a7.42,7.42,0,0,1-2.29,3.76,8.14,8.14,0,0,1-5.53,1.71,8.35,8.35,0,0,1-6.43-2.48,10,10,0,0,1-2.67-7.29,10.88,10.88,0,0,1,2.71-7.53,8.6,8.6,0,0,1,6.57-2.57,8,8,0,0,1,4.86,1.52,9.62,9.62,0,0,1,2.81,3.43l6.62-3.57a17.57,17.57,0,0,0-5.14-5.67,16,16,0,0,0-8.91-2.38c-3.76,0-8.57.57-12.48,4.62a18.09,18.09,0,0,0,.1,24.15c3.71,3.81,7.81,4.43,11.62,4.43s7.81-.67,11.34-4.33,4.91-9.53,4.91-13.38V115Z" transform="translate(0 0)"/><polygon class="a" points="94.08 29.61 80.08 53.19 86.26 63.6 117.66 10.78 131.46 34 151.72 0 52.33 0 50.41 3.21 66.09 29.61 94.08 29.61"/><path class="a" d="M118.66,122.32l-1.08-1.82L49.16,5.32,34.7,29.61h0l-3,5L11.16,0H6L58.87,88.81l0,0h0L57,92h0L2.36,0H0L55.8,94.05,21.42,151.93H73.65l-9.44-15.88,9.44-15.88,9.44,15.9-9.44,15.86h62.59l-17.59-29.61ZM58.89,77.11,36.13,38.93l.75-1.26,1.22-2.05H60.17L71.86,55.29Zm30.49,39.21,9.38-15.74,9.35,15.74Z" transform="translate(0 0)"/><path class="a" d="M123.83,53.86a9.6,9.6,0,0,1,4.6,1.1,11.15,11.15,0,0,1,3.7,3.35l9.18-4.4a19.72,19.72,0,0,0-7.39-6.71,21.78,21.78,0,0,0-10.09-2.25,22.46,22.46,0,0,0-8.16,1.46,19.65,19.65,0,0,0-11.13,10.86,21,21,0,0,0-1.48,8,21.22,21.22,0,0,0,1.52,8,19.59,19.59,0,0,0,4.28,6.59,18.6,18.6,0,0,0,6.56,4.34,23.18,23.18,0,0,0,8.39,1.42q9.6,0,14.89-5.53T144,64.49q0-.93,0-1.41c0-.32,0-.61,0-.87H123.17v8.14h10.53a7.57,7.57,0,0,1-3.14,5.26,11.06,11.06,0,0,1-6.72,2,9.34,9.34,0,0,1-7.48-3.18q-2.73-3.18-2.73-8.73T116.35,57A9.36,9.36,0,0,1,123.83,53.86Z" transform="translate(0 0)"/><rect class="a" x="146.11" y="49.88" width="9.57" height="34.77"/></svg>