<svg xmlns="http://www.w3.org/2000/svg" viewBox="0 0 606.39 610.01"><defs><style>.a{fill:#231f20;}.b{fill:none;}.c{fill:#010101;}.d{fill:#fff;}.e{fill:#fbb043;}.f{fill:#fbb044;}</style></defs><title>gz after midnight neon</title><path class="a" d="M598.34,286.38q-10.44-17.63-20.88-35.27c-5.22-8.79-10.48-17.56-15.7-26.36q-11.07-18.65-22.11-37.32c-5.26-8.86-10.57-17.7-15.83-26.56q-11.07-18.65-22.12-37.32T479.64,86.48q-11.81-19.89-23.59-39.79-8.63-14.53-17.3-29c-2.41-4-4.76-8.14-7.27-12.13-2.1-3.34-5.51-3.35-7.77-.15-.23.32-.4.69-.61,1q-6.46,10.94-12.93,21.87c-5.76,9.68-11.55,19.34-17.31,29q-10.34,17.41-20.64,34.85-11.63,19.58-23.3,39.12-12.61,21.22-25.17,42.47-8,13.4-16,26.76c-1.88,3.16-3.82,6.28-5.61,9.49a3,3,0,0,1-3.3,1.78,15,15,0,0,0-1.68,0H65.15c-.88,0-1.76.05-2.64,0a5.2,5.2,0,0,0-5.25,3c-3.18,5.54-6.5,11-9.77,16.5q-9.14,15.34-18.28,30.68c-8.45,14.22-16.85,28.46-25.34,42.65a6.27,6.27,0,0,0,0,7q9.31,15.66,18.61,31.32,8.46,14.21,16.93,28.41,10.66,17.92,21.28,35.86c4.36,7.35,8.7,14.72,13.1,22a2.73,2.73,0,0,1,.06,3.3c-1.22,1.87-2.28,3.85-3.43,5.77-2,3.29-4,6.57-5.9,9.88-1.67,2.85-.91,7.15,3.82,7,.64,0,1.28,0,1.92,0,5.68,0,11.36,0,17,0a2.85,2.85,0,0,1,2.86,1.63q8.54,14.58,17.21,29.08t17.18,28.82q10.34,17.42,20.64,34.85,11.81,19.89,23.66,39.75c4.21,7.07,8.55,14.07,12.57,21.24a4.61,4.61,0,0,0,8.27-.16c1.65-3.19,3.6-6.22,5.44-9.31q8.52-14.31,17.06-28.61,10.4-17.52,20.76-35.06,12.54-21.12,25.13-42.22c7.47-12.57,15-25.11,22.35-37.74a4.1,4.1,0,0,1,4.17-2.28q58.79.08,117.59,0t117.83,0c2.7,0,4.53-.82,5.87-3.22,2.58-4.6,5.33-9.1,8-13.64q11.79-19.9,23.58-39.8,12.37-20.81,24.77-41.6,13.48-22.66,26.95-45.33ZM168.82,415h0Zm.57-98.67c8.41,14,16.43,27.53,24.55,41.2l-5.83,9.87c-2.07,3.5-4.18,7-6.21,10.51a3.4,3.4,0,0,1-3.4,2c-6.15-.12-12.3-.08-18.45,0a2.92,2.92,0,0,1-2.93-1.53c-4-6.88-8.12-13.73-12.29-20.77C153,343.86,161,330.28,169.39,316.31Zm275.16-17.76c-.2.33-.45.63-.87,1.2-1.31-2.14-2.51-4.08-3.68-6q-9.46-15.83-18.91-31.67c-1.92-3.21-2-3.23-.12-6.38q8.83-14.95,17.72-29.87c1.34-2.27,2.67-4.55,4-6.81a17.49,17.49,0,0,1,1.13-1.44c1.82,3,3.43,5.66,5,8.32,6,10.08,12,20.19,18,30.24a4.06,4.06,0,0,1,.11,4.79C459.46,273.42,452,286,444.54,298.55Z" transform="translate(-2.8 -2.99)"/><polygon class="b" points="256.57 251.77 256.57 251.77 256.57 251.77 256.57 251.77"/><circle class="b" cx="169" cy="415.21" transform="translate(-170.65 116.42) rotate(-26.57)"/><path class="b" d="M168.73,414.83l.07.11,0,0h0l-.09-.14h0Z" transform="translate(-2.8 -2.99)"/><polygon class="b" points="166.02 411.99 166.02 411.99 166.02 411.99 166.02 411.98 166.02 411.99 166.02 411.99"/><path class="c" d="M196.64,402l-3.45.06.15.08-.17,0a3.37,3.37,0,0,1,1.71,3c0,.19,0,.38,0,.58-.08,7.74,0,15.48,0,23.23v2.27h.39v-2.36c0-7.82,0-15.64,0-23.47,0-1.38.2-2.53,1.52-3.23l-.19-.07S196.63,402,196.64,402Z" transform="translate(-2.8 -2.99)"/><path class="c" d="M196.64,402l-3.46.07,3.45-.06Z" transform="translate(-2.8 -2.99)"/><path class="c" d="M169,415.21h0a2.1,2.1,0,0,0,.28.28A2.1,2.1,0,0,1,169,415.21Z" transform="translate(-2.8 -2.99)"/><path class="c" d="M168.8,414.95l-.07-.11h0Z" transform="translate(-2.8 -2.99)"/><path class="c" d="M169.28,415.49a2.42,2.42,0,0,1-.28-.28A2.1,2.1,0,0,0,169.28,415.49Z" transform="translate(-2.8 -2.99)"/><path class="c" d="M168.82,415l0,0-.07-.11Z" transform="translate(-2.8 -2.99)"/><path class="c" d="M168,404.92a1.31,1.31,0,0,1,0,.22c0,8.19,0,16.39,0,24.59,0,.52.07,1,.1,1.57h.28q0-1.05,0-2.11c0-3.34.05-6.69,0-10a2.87,2.87,0,0,1,1.74-3.06V416a3.3,3.3,0,0,1-.8-.47,2.1,2.1,0,0,1-.28-.28,2.31,2.31,0,0,1-.18-.23l-.09-.14a2.49,2.49,0,0,1-.27-.64,3.33,3.33,0,0,1-.09-.56,4.52,4.52,0,0,1,0-.5c.08-3.23.07-6.47.1-9.71C167.61,403.72,167.9,404.39,168,404.92Z" transform="translate(-2.8 -2.99)"/><path class="c" d="M168.45,403.34v.08l.06,0,0,0Z" transform="translate(-2.8 -2.99)"/><path class="c" d="M168.35,413.14c.08-3.24.07-6.48.1-9.71h0C168.43,406.67,168.43,409.91,168.35,413.14Z" transform="translate(-2.8 -2.99)"/><path class="c" d="M168.45,403.43h0c-.84.29-.55,1-.46,1.5C167.9,404.39,167.61,403.72,168.45,403.43Z" transform="translate(-2.8 -2.99)"/><path class="c" d="M170.09,416a3.29,3.29,0,0,1-.8-.46,3.3,3.3,0,0,0,.8.47Z" transform="translate(-2.8 -2.99)"/><circle class="c" cx="168.45" cy="403.43" transform="translate(-256.32 286.11) rotate(-52.18)"/><path class="c" d="M212.18,417.47h0c-.17,2.4-.24,4.78-.23,6.89a40.67,40.67,0,0,0,.34,5.85,4.29,4.29,0,0,0,.33,1.21c.1-.09.3-.19.3-.28q.07-6.81.11-13.63Z" transform="translate(-2.8 -2.99)"/><path class="c" d="M212.18,417.47c-.17,2.4-.24,4.78-.23,6.89,0-2.11.07-4.49.23-6.89Z" transform="translate(-2.8 -2.99)"/><path class="c" d="M237.94,402.74c-.3.6-.85,1.2-.86,1.8q0,1.76,0,3.52t0,3.52c0,1.64,0,3.29,0,4.93l.75,0h0c0-.87.08-1.74.09-2.62q.08-5.48.14-11A1,1,0,0,0,237.94,402.74Z" transform="translate(-2.8 -2.99)"/><path class="c" d="M237.89,416.53h0c0-.87.08-1.75.09-2.62,0,.87-.06,1.74-.09,2.62Z" transform="translate(-2.8 -2.99)"/><path class="c" d="M237,421.88c-.05.84-.08,1.75-.08,2.66,0,.3,0,.61,0,.91,0,.61,0,1.21.05,1.78a13.38,13.38,0,0,0,.63,4.23c.11-.24.29-.44.29-.63,0-3.67,0-7.34-.07-11l-.59-.18C237.17,420.27,237.09,421,237,421.88Z" transform="translate(-2.8 -2.99)"/><path class="c" d="M213,414.54h0l.06-5.28.07-6.31a1,1,0,0,0-.18-.21c-.3.6-.85,1.19-.86,1.8,0,1.67,0,3.34,0,5s0,3.35.06,5Z" transform="translate(-2.8 -2.99)"/><path class="c" d="M213,414.54l.06-5.28-.06,5.28Z" transform="translate(-2.8 -2.99)"/><path class="c" d="M237.14,416.51h0l.11,2.48,0,.64h0l.59.18c1.88-1.37,3.84-.78,5.81-.19V418.1c-1.11,0-2.14,0-3.16,0h-.45a3.36,3.36,0,0,1-.52-.08,2.12,2.12,0,0,1-1.23-.72,2.35,2.35,0,0,1-.2-.29l0-.05a3,3,0,0,1-.19-.42Z" transform="translate(-2.8 -2.99)"/><polygon class="c" points="234.34 413.52 234.34 413.52 234.34 413.52 234.34 413.52"/><path class="c" d="M238.08,417a3,3,0,0,1-.19-.42h0A3,3,0,0,0,238.08,417Z" transform="translate(-2.8 -2.99)"/><path class="c" d="M151.39,423.09h0l-11.14,0-.12.11.11.12h0l11.17,0A.2.2,0,0,0,151.39,423.09Z" transform="translate(-2.8 -2.99)"/><path class="c" d="M140.24,423.33h0l11.18,0-11.17,0Z" transform="translate(-2.8 -2.99)"/><path class="c" d="M151.39,423.09l-11.15,0,11.14,0Z" transform="translate(-2.8 -2.99)"/><path class="c" d="M224.56,416.23v-.42H214.31a.28.28,0,0,1,0,.42h10.25Z" transform="translate(-2.8 -2.99)"/><path class="c" d="M214.31,416.23h0Z" transform="translate(-2.8 -2.99)"/><path class="c" d="M224.58,402.21l0-.21H214.35v.21Z" transform="translate(-2.8 -2.99)"/><path class="c" d="M145.78,404.46l-1.36,3.14h2.66Z" transform="translate(-2.8 -2.99)"/><path class="c" d="M169.41,402.09h0v.24h8.69v-.24Z" transform="translate(-2.8 -2.99)"/><path class="c" d="M169.41,402.09h0Z" transform="translate(-2.8 -2.99)"/><path class="d" d="M170.09,416v.14h7.85V416h-7.84Z" transform="translate(-2.8 -2.99)"/><path class="d" d="M170.09,416h0Z" transform="translate(-2.8 -2.99)"/><path class="c" d="M140.13,423.22l.12-.11-2-1.62-.61,1.85h2.57Z" transform="translate(-2.8 -2.99)"/><path class="c" d="M139,423.33h0Z" transform="translate(-2.8 -2.99)"/><path class="c" d="M214.31,415.81,213,414.54l-.85,0h0q0,1.45,0,2.89l.85,0h0l.8-.8.47-.47A.28.28,0,0,0,214.31,415.81Z" transform="translate(-2.8 -2.99)"/><path class="c" d="M213,417.5l.8-.8-.8.8Z" transform="translate(-2.8 -2.99)"/><path class="c" d="M151.39,423.09a.2.2,0,0,1,0,.27h2.29l-.74-2.08Z" transform="translate(-2.8 -2.99)"/><path class="c" d="M196.64,402h0s-.08.19-.08.19l.19.07h4.85V402Z" transform="translate(-2.8 -2.99)"/><path class="c" d="M196.64,402h0Z" transform="translate(-2.8 -2.99)"/><path class="c" d="M193.33,402.12l-.15-.08H188a2.27,2.27,0,0,0,1.12.26c1.33,0,2.66-.09,4-.14h0Z" transform="translate(-2.8 -2.99)"/><path class="c" d="M189.17,402.3c1.33,0,2.66-.09,4-.14h0C191.83,402.21,190.5,402.27,189.17,402.3Z" transform="translate(-2.8 -2.99)"/><path class="d" d="M240.36,402.15V402h-1.11v.16Z" transform="translate(-2.8 -2.99)"/><path class="d" d="M169.27,403.06l-.06,0,.06,0Z" transform="translate(-2.8 -2.99)"/><path class="d" d="M169.27,403.06h0l-.06,0-.75.26,0,0,0,0,.77-.34h0Z" transform="translate(-2.8 -2.99)"/><path class="d" d="M238.12,403h0l.41-.38-.59.17A1,1,0,0,1,238.12,403Z" transform="translate(-2.8 -2.99)"/><path class="d" d="M238.12,403l.41-.38-.41.38Z" transform="translate(-2.8 -2.99)"/><path class="d" d="M213.16,403h0l.41-.38-.59.17a1,1,0,0,1,.18.21Z" transform="translate(-2.8 -2.99)"/><path class="d" d="M213.16,403l.41-.38h0l-.41.38Z" transform="translate(-2.8 -2.99)"/><path class="d" d="M169.41,402.09a1.4,1.4,0,0,1-.15.17l-.16.16a.45.45,0,0,0-.12.23c0,.12.06.25.3.4l.37-.72h-.24Z" transform="translate(-2.8 -2.99)"/><path class="d" d="M169.41,402.09a1.39,1.39,0,0,1-.15.17,1.4,1.4,0,0,0,.15-.17Z" transform="translate(-2.8 -2.99)"/><path class="d" d="M169.27,403.06h0Z" transform="translate(-2.8 -2.99)"/><path class="d" d="M169.27,403.05l.37-.72-.37.72Z" transform="translate(-2.8 -2.99)"/><polygon class="d" points="166.47 400.07 166.46 400.07 166.46 400.07 166.47 400.07"/><polygon class="d" points="166.47 400.07 166.48 400.06 166.47 400.07 166.47 400.07"/><path class="d" d="M556.77,383.3c-4.64,0-9.28,0-13.92,0-.59,0-1.18-.06-2-.1,1.64-1.45,3.08-2.57,4.33-3.87a29,29,0,0,0,3.49-4.25A39.54,39.54,0,0,0,555,352.36c-.05-2.88-.46-3.32-3.35-3.33H524.51a11,11,0,0,0-1.2,0,2,2,0,0,0-2.09,2.15q-.09,5.28,0,10.56c0,1.55.8,2.22,2.47,2.24,2.88,0,5.76,0,8.64,0h1.87c-1.68,4.52-8,7.29-11.92,6.89a16.83,16.83,0,0,1-14.82-20c1.4-6.87,5.09-12,12.19-14a11.31,11.31,0,0,1,4-.42c4.59.41,8,2.84,10.76,6.44a5.6,5.6,0,0,0,7.11,1.8c2.92-1.47,5.8-3,8.63-4.68a2.9,2.9,0,0,0,1.43-1.75c.21-2.12.23-4.15-1.23-6.12-6.13-8.24-14.34-12.21-24.49-12.3a93.24,93.24,0,0,0-9.57.35,29.21,29.21,0,0,0-12.67,4c-7.32,4.47-11.36,11.24-13.58,19.3-.26.95-.48,1.91-.71,2.86l-.29-.05q0-1.56,0-3.11c0-6.24,0-12.48,0-18.72,0-2.55-.69-3.22-3.29-3.23-3.6,0-7.2,0-10.8,0-3.14,0-3.65.49-3.65,3.56q0,14.64,0,29.27c0,.59,0,1.19,0,2.28-.86-.95-1.35-1.45-1.79-2l-14.34-17.07q-5.78-6.88-11.57-13.76c-.88-1-1.79-2.22-3.25-2.25-4.08-.09-8.16-.08-12.24,0a2.18,2.18,0,0,0-2.19,2.12,15.91,15.91,0,0,0,0,1.92q0,26.63,0,53.27c0,.84-.06,1.67-.08,2.46H422.5v-2.72q0-25.91,0-51.83c0-.88,0-1.76,0-2.64-.07-1.84-.77-2.58-2.66-2.6q-6.24-.06-12.48,0c-1.7,0-2.46.82-2.58,2.49,0,.56,0,1.12,0,1.68q0,26.39,0,52.79c0,.89,0,1.77-.07,2.66a1.06,1.06,0,0,1-.63-.85q-1.9-11.68-3.79-23.36-2.65-16.4-5.29-32.8c-.31-1.89-1.13-2.59-3-2.61-3.2,0-6.4.1-9.6,0a3.86,3.86,0,0,0-4.17,2.79c-1.88,4.67-3.84,9.3-5.78,13.94-2.11,5.07-4.23,10.13-6.46,15.47-.44-.9-.77-1.53-1-2.18q-2.91-7-5.81-13.93c-1.87-4.5-3.77-9-5.6-13.5a3.61,3.61,0,0,0-3.82-2.59c-3.28.1-6.56,0-9.84,0a2.62,2.62,0,0,0-3,2.42c-.1.47-.21.93-.29,1.4q-3.45,21.6-6.91,43.21c-.1.6-.32,1.18-.62,2.26-3.25-8.25-6.3-16-9.33-23.69q-4.43-11.26-8.83-22.53c-1.07-2.72-1.62-3.08-4.64-3.09-3.36,0-6.72.08-10.08,0a3.68,3.68,0,0,0-4,2.71c-.83,2.24-1.8,4.44-2.69,6.66L276,364.44l-.55,1.38-.5-.13.51-1.71a40.11,40.11,0,0,0,1.25-6.38q.15-1.34.21-2.68c0-.56,0-1.12,0-1.68s0-1,0-1.56c-.07-1.93-.7-2.62-2.61-2.62q-14.28,0-28.56,0c-1.92,0-2.62.7-2.65,2.59q-.08,4.8,0,9.6c0,2,.79,2.65,2.84,2.68,2.72,0,5.44,0,8.16,0,.59,0,1.19.08,1.86.13-2.42,5-9,7.82-14.54,6.36a17,17,0,0,1-12.08-19.84c1.38-6.13,4.57-10.91,10.65-13.18a13.67,13.67,0,0,1,5.56-.87c4.59.32,8,2.81,10.75,6.43a5.61,5.61,0,0,0,7.12,1.78c2.92-1.47,5.79-3.07,8.63-4.69.58-.33,1.34-1,1.39-1.5.19-1.94.52-3.88-.8-5.74-6-8.54-14.3-12.74-24.65-12.9a84.76,84.76,0,0,0-9.57.33c-9.25.9-16.91,4.78-21.88,12.86-7.29,11.84-7.67,24.35-2.36,36.94,3.42,8.1,9.43,13.78,18.18,16.12a6,6,0,0,1,.93.4c.2,7.64.47,15.13.57,22.62s0,15,0,22.6h-3.39c-.48-2-1.91-2.26-3.67-2.2-2.64.09-5.28.06-7.92,0-2,0-2.71-.77-2.78-2.78,0-1.28,0-2.56,0-3.84,0-2.84.55-3.39,3.31-3.41,2.48,0,5,0,7.44,0,2.23,0,2.94-.78,3-3.05,0-.24,0-.48,0-.72,0-2.57-.68-3.24-3.26-3.25s-5.28,0-7.92,0c-1.74,0-2.42-.75-2.55-2.48,0-.4,0-.8,0-1.2,0-2.5.64-3.14,3.08-3.16,2.8,0,5.6,0,8.4,0a2.51,2.51,0,0,0,2.43-1.22c1.63-2.76,0-5.85-3.17-5.86H168.05c-3,0-3.49.5-3.49,3.47q0,13.56,0,27.12v2.44c-1.49.52-2.28.17-2.68-1.08-.24-.76-.63-1.47-.94-2.2q-5.88-13.77-11.77-27.54c-.31-.72-.69-1.8-1.23-1.94a9.12,9.12,0,0,0-4-.1c-.61.13-1.14,1.22-1.47,2-4.31,9.71-8.62,19.42-12.82,29.18-.63,1.47-1.33,2.07-3,2-4.24-.11-8.48,0-12.72,0L82,432c-1.83.51-3.17,2.57-3.26,5,4.56,0,9.11-.13,13.67-.14q19.44-.06,38.87-.07c.64,0,1.28-.07,1.92-.08A3.85,3.85,0,0,0,137,434c.63-1.64,1.39-3.23,2-4.87a3.35,3.35,0,0,1,3.67-2.4c2,.11,4,.09,6,0a3.24,3.24,0,0,1,3.46,2.35c.67,1.71,1.42,3.39,2.09,5.1a3.28,3.28,0,0,0,3.46,2.35c3.76-.07,7.52,0,11.27,0,2,0,2.72-.71,2.74-2.74,0-3.68,0-7.36,0-11,0-2.59.52-3.11,3.06-3.13,1.92,0,3.84,0,5.76,0s2.6-.82,2.69-2.6a17.5,17.5,0,0,0,0-1.92,2.33,2.33,0,0,0-2.54-2.52c-2.08-.06-4.16,0-6.24,0s-2.67-.63-2.73-2.73c0-.24,0-.48,0-.72,0-2.95.42-3.38,3.28-3.4,1.76,0,3.52,0,5.28,0a17.81,17.81,0,0,0,2.53-.47c.28-.05.68-.24.84-.12,1.45,1.09,3.1.52,4.66.59,2.49.11,3.09.64,3.09,3.15q0,12.12,0,24.24a5.8,5.8,0,0,0,.09,1.91c.85,2.32,2.9,1.48,4.54,1.54a2.15,2.15,0,0,0,2.54-1.94,11.35,11.35,0,0,0,0-1.68q0-11.76,0-23.52a15,15,0,0,1,0-1.68,2,2,0,0,1,2-2,29.69,29.69,0,0,1,3.12,0c1.47.06,2.68-.2,3.2-1.85.2-.65.34-.6,1.91-.51v29c0,.48,0,1,0,1.44.07,2,.72,2.76,2.73,2.77,5.68,0,11.36,0,17,0,2.8,0,5.6-.06,8.39,0,3.25.11,4.17-.26,4-3.89-.09-2,0-4,0-6,0-.14.12-.27.28-.62a11.32,11.32,0,0,1,1.06,1.14c1.6,2.29,3.24,4.56,4.75,6.92a4.59,4.59,0,0,0,4.78,2.44c1-.13,2.07-.12,3.1-.17h0l.82-4.7-5.7-8.28-1.67-2.45c.71-.39,1.35-.67,1.92-1.06a8.65,8.65,0,0,0,3.91-5.25,20.17,20.17,0,0,0,.06-9,8,8,0,0,0-5.77-6.17,21.24,21.24,0,0,0-4.68-.81c-1.82-.14-3.67,0-5.66,0V387.5c4.15-.15,8.21-.29,12.26-.45a7.6,7.6,0,0,0,1.9-.22c5.72-1.74,11.58-.92,17.39-1,4.87-.07,9.75.06,14.62.12a3.32,3.32,0,0,0,3.24-2.37c.87-2.06,1.67-4.15,2.52-6.22,1.08-2.64,1.51-2.93,4.24-2.94h13.43c2.72,0,3.22.34,4.25,2.92.77,1.93,1.49,3.88,2.26,5.8.94,2.35,1.59,2.79,4.12,2.79h23.51c2.54,0,3.21-.61,3.54-3.11q1.65-12.56,3.31-25.11a8.81,8.81,0,0,1,.37-1.09c.46.86.81,1.4,1.05,2q5,12,10.07,24.09c1.21,2.89,1.72,3.26,4.81,3.24,4.18,0,4.65.93,6.85-4.49,3.09-7.62,6.34-15.18,9.52-22.76.21-.49.43-1,.8-1.82a5.61,5.61,0,0,1,.72,1.36c.93,6.95,1.84,13.9,2.75,20.85.2,1.5.37,3,.63,4.5a2.43,2.43,0,0,0,2.76,2.36c4.71,0,9.43-.1,14.14-.12,1.52,0,3,.13,4.55.13q16.06,0,32.12,0c2.74,0,3.37-.64,3.37-3.38q0-14.51,0-29v-2.84c.87.93,1.46,1.5,2,2.13,8.47,10.11,17,20.2,25.36,30.35,1.6,1.94,3.31,3,5.94,2.82a68.33,68.33,0,0,1,8.63,0c2.85.15,3.77-1.06,3.72-3.61-.13-6.15,0-12.31,0-18.47q0-1.44,0-2.87l.29-.05c.24,1,.47,2,.74,3,2.25,8.15,6.42,14.93,13.8,19.43a26.83,26.83,0,0,0,11.3,3.64c13.07,1.39,26.18.93,39.28,1a4.13,4.13,0,0,0,.92-.12c.31-.07.62-.15.92-.21h0l.62-.89,2.22-3.21A21.88,21.88,0,0,0,556.77,383.3Zm-411,21.16,1.3,3.14h-2.66Zm-.05,9.24,2.45,5.91h-4.79C143.73,417.54,144.75,415.82,145.73,413.7Zm5.69,9.66-11.18,0h-2.57l.61-1.85,2,1.62,11.15,0,1.58-1.81.74,2.08Zm18.23-21-.37.72h0l-.77.34-.06,0h0c0,3.24,0,6.48-.1,9.71a4.52,4.52,0,0,0,0,.5,3.33,3.33,0,0,0,.09.56,2.48,2.48,0,0,0,.27.64h0l.09.14h0l.18.23h0a2.09,2.09,0,0,0,.28.28,3.29,3.29,0,0,0,.8.46h7.84v.14h-7.85a2.87,2.87,0,0,0-1.74,3.06c.07,3.34,0,6.68,0,10q0,1.05,0,2.11h-.28c0-.52-.1-1-.1-1.57,0-8.2,0-16.39,0-24.59a1.31,1.31,0,0,0,0-.22c-.09-.53-.38-1.21.46-1.5h0v-.08l0,0,0,0,.75-.26.06,0h0c-.24-.15-.31-.28-.3-.4a.45.45,0,0,1,.12-.23l.16-.16a1.39,1.39,0,0,0,.15-.17h8.68v.24Zm27.1-.09c-1.31.7-1.52,1.85-1.52,3.23,0,7.82,0,15.64,0,23.47v2.36h-.39V429c0-7.74,0-15.48,0-23.23,0-.2,0-.39,0-.58a3.37,3.37,0,0,0-1.71-3c-1.33,0-2.67.11-4,.14A2.27,2.27,0,0,1,188,402h5.14l3.46-.07h5v.26Zm27.81-.23,0,.21H214.35V402Zm-10.72,14.7-.8.8q0,6.82-.11,13.63c0,.1-.2.19-.3.28a4.29,4.29,0,0,1-.33-1.21,40.67,40.67,0,0,1-.34-5.85c0-2.11.07-4.49.23-6.89q0-1.45,0-2.89c0-1.67,0-3.35-.06-5s0-3.35,0-5c0-.6.56-1.2.86-1.8l.59-.17h0l-.41.38-.07,6.31-.06,5.28,1.28,1.27h10.24v.42H214.31Zm27.24-8.66c.1-1.9,1.09-2.47,2.88-1.75.07,0,.14.08.21.11,1.48.75,2.82,1.78,2.93,3.5s-1.18,2.72-2.47,3.55a17.42,17.42,0,0,1-2.62,1.1,8.64,8.64,0,0,1-.91-2.22A29.31,29.31,0,0,1,241.07,408.05Zm-.72-6.07v.16h-1.11V402Zm-1.82.59-.41.38q-.07,5.48-.14,11c0,.87-.06,1.74-.09,2.62a3,3,0,0,0,.19.42l0,.05a2.35,2.35,0,0,0,.2.29,2.12,2.12,0,0,0,1.23.72,3.36,3.36,0,0,0,.52.08h.45c1,0,2.05,0,3.16,0v1.53c-2-.6-3.93-1.18-5.81.19,0,3.67.06,7.34.07,11,0,.2-.18.4-.29.63a13.38,13.38,0,0,1-.63-4.23c0-.57,0-1.17-.05-1.78,0-.3,0-.61,0-.91,0-.91,0-1.82.08-2.66s.13-1.61.23-2.24l0-.64-.11-2.48h0c0-1.65,0-3.29,0-4.93q0-1.76,0-3.52h0q0-1.76,0-3.52c0-.6.56-1.2.86-1.8Zm21.89-24c-6.28,4.59-13.47,5.85-21.11,4.78-15.27-2.14-22.54-14.75-24.32-25A29.88,29.88,0,0,1,239.52,324,30.7,30.7,0,0,1,259,326.95c3,1.56,8.31,6.22,9.92,9.46l-8.16,4.39c-.42-.52-.78-.93-1.11-1.37a15.62,15.62,0,0,0-13.38-6.65,44.73,44.73,0,0,0-6.45.24c-7.47,1.21-11.8,6-13.78,13a30.58,30.58,0,0,0-.3,14.71c1.57,7.45,6.67,12.48,14.07,13.48,4.23.57,8.6.74,12.78-.79a14,14,0,0,0,7.32-6.25,7.88,7.88,0,0,0,.71-5.12c-.13-1.3-1.13-1.57-2.29-1.55-2.8,0-5.6,0-8.4,0s-3.32-.57-3.34-3.39c0-.32,0-.64,0-1,0-3.19.45-3.65,3.55-3.66h19.67a7.25,7.25,0,0,1,1.9.1,1.58,1.58,0,0,1,1.37,1.9C271.71,364,268.52,372.69,260.42,378.61Zm12.18-5.87-3.48,8.4h-3.75c2.71-2.8,5.24-5.46,6.78-8.84l.61-1.12.38.17Zm.83-2.21-.27-.12.4-.7.46-1,.43-1.49.23-.8.3.13-.4.77-.49,1.44-.45,1Zm123.91,11.81c-1.44,0-2.88,0-4.32,0-2.14,0-2.86-.65-3.15-2.77-.56-4.11-1.08-8.22-1.61-12.33q-1.12-8.53-2.25-17.06a13.84,13.84,0,0,0-.36-1.45h-4.71c-.27.58-.58,1.21-.85,1.86L368,379.3c-.46,1.09-.81,2.28-2.47,2.81a25.93,25.93,0,0,1-1.7-2.94c-3.88-9.2-7.71-18.42-11.56-27.64-.4-.95-.82-1.88-1.23-2.82h-4.85c-.37,2.65-.76,5.23-1.1,7.81-1,7.66-2,15.33-3,23-.3,2.29-1,2.86-3.27,2.89-5.68.07-11.35.08-17,.2a3.52,3.52,0,0,1-3.78-2.61c-.79-2.18-1.74-4.3-2.53-6.47a3.51,3.51,0,0,0-3.79-2.58q-10.56.11-21.12,0a3.46,3.46,0,0,0-3.66,2.44c-.86,2.24-1.84,4.43-2.67,6.67a3.5,3.5,0,0,1-3.82,2.55c-2.15-.09-4.31,0-6.89,0,.39-1.09.62-1.83.91-2.55q10.38-25.79,20.77-51.57a13.62,13.62,0,0,1,.88-2,2.89,2.89,0,0,1,2.73-1.61,40.83,40.83,0,0,0,4.56,0,3.46,3.46,0,0,1,3.81,2.56c1.87,4.84,3.8,9.66,5.7,14.49q6.79,17.28,13.58,34.57c.23.58.54,1.14.79,1.66h4.79c.48-2.83,1-5.56,1.41-8.29q3.39-21.13,6.76-42.27c.36-2.26,1.07-2.86,3.31-2.9.64,0,1.28,0,1.92,0,2.52-.24,3.64.48,4.72,3.08q5.31,12.84,10.68,25.66c.64,1.55,1.35,3.07,1.91,4.65a2,2,0,0,0,2.36,1.5,4.4,4.4,0,0,1,1.2,0c1.57.26,2.24-.56,2.8-1.92,3.76-9.16,7.59-18.3,11.41-27.44l1.29-3.09a3.45,3.45,0,0,1,3.69-2.44c.8.06,1.6,0,2.4,0,2.67,0,3.24.55,3.68,3.31s.89,5.35,1.32,8q3.48,21.73,6.93,43.46C400.29,382.1,400.07,382.32,397.33,382.34ZM419,378.68c0,3.37-.45,3.8-3.91,3.81h-2.88c-3.33,0-3.77-.43-3.77-3.68q0-12.59,0-25.18t0-25.42c0-2.93.52-3.43,3.52-3.45,1.36,0,2.72,0,4.08,0,2.28.05,3,.73,3,3.07q0,12.35,0,24.7Q419,365.61,419,378.68Zm66.42.34c0,3-.5,3.49-3.5,3.46-5-.06-4.61.82-8.52-3.87-8.94-10.75-18-21.38-26.88-32.2-1.61-2-3.37-1.73-5.31-1.6-.38,0-.89.63-1,1.07a6.5,6.5,0,0,0-.07,1.9q0,15.59,0,31.19c0,3-.45,3.43-3.5,3.45-1.52,0-3,0-4.56,0-1.93-.06-2.57-.71-2.67-2.6,0-.4,0-.8,0-1.2q0-24.95,0-49.9a16.75,16.75,0,0,1,0-1.68,2.15,2.15,0,0,1,2.31-2.24c1.67-.09,3.36-.08,5,0,1.49.07,2.42,1.14,3.3,2.18q4.66,5.48,9.27,11,9.64,11.47,19.28,22.93c.5.59,1.07,1.39,1.73,1.53a10.53,10.53,0,0,0,3.57,0c.36,0,.79-.73.91-1.19a7.53,7.53,0,0,0,.05-1.91q0-15.47,0-30.95c0-3.07.54-3.6,3.64-3.61,1.28,0,2.56,0,3.84,0,2.47,0,3.07.64,3.08,3.16q0,12.83,0,25.67T485.38,379ZM524,383.31c-1.42,0-2.88.38-4.28.24a36.31,36.31,0,0,1-6.8-1.19c-8.84-2.66-14.25-8.94-17.9-17.13-7-15.62,2.41-32.35,12-37.52,10-5.34,20.1-5.85,30.26-.61a26.82,26.82,0,0,1,9.83,9.23l-7.4,4a8,8,0,0,1-1,.36l-1.48-1.86a15.41,15.41,0,0,0-12.47-6.06,42.53,42.53,0,0,0-6.7.21c-8.32,1.32-12.6,7.24-14.14,14.1a32.82,32.82,0,0,0-.13,13.09c1.57,8.65,8.13,14.21,16.93,14.25a46.45,46.45,0,0,0,8.1-.45,12.85,12.85,0,0,0,8.43-5.46,8.2,8.2,0,0,0,1.59-5.85c-.17-1.61-.6-2.13-2.22-2.15-2.88,0-5.77-.14-8.64,0-2.27.13-3.46-1-3.43-3.44,0-3.75.16-4.73,4.63-4.64,6.24.13,12.48,0,18.71,0a7.12,7.12,0,0,1,1.9.09c.76.22,1.54.63,1.39,1.65-1.34,9.07-4.26,17.4-11.62,23.47A22.8,22.8,0,0,1,524,383.31Z" transform="translate(-2.8 -2.99)"/><path class="d" d="M86.29,293.44c11.66-.52,20.57-6.75,24.09-17.82.2-.63.45-1.24.68-1.87a2.71,2.71,0,0,1,.36,1.45c0,4.64,0,9.27,0,13.91,0,2.47.69,3.2,3.06,3.21q5.52,0,11,0c2.23,0,3-.78,3-3.06,0-3.84,0-7.67,0-11.51,0-.47.11-.95.22-1.87.55,1.3.86,2.11,1.22,2.89a24,24,0,0,0,16.92,13.95,44.08,44.08,0,0,0,12.16.67c5.53-.23,10.71-1.64,15.13-5.18.1-.08.3,0,.56,0,0,.38.09.76.11,1.14.15,2.52.67,3,3.21,3,3.52,0,7,0,10.55,0,2.1,0,2.83-.57,3.42-2.58.41-1.38.74-2.78,1.17-4.15a2.74,2.74,0,0,1,2.78-2.18c3.68,0,7.36,0,11,0a2.78,2.78,0,0,1,2.7,2,20.83,20.83,0,0,1,.79,2.76c.09.39.18.78.3,1.16a5.51,5.51,0,0,0,1.85,3h0l4.7.21.87-.29,2.08-2.9.53-.73,1.89-2.83,2.91-4.9a.67.67,0,0,0,0-.37h0a4.1,4.1,0,0,0-.3-.3l-.32-.32a1.8,1.8,0,0,1-.17-.21.83.83,0,0,1-.14-.3c-.15-.77-.27-1.54-.38-2.31s-.2-1.55-.31-2.33c-.23-.55-.47-1.09-.71-1.63s-.46-1.09-.65-1.65c-1.9-5.49-3.77-11-5.65-16.48l-.06-.21-.55-1.86h0c-1.28-3.52-2.55-7-3.84-10.56-.75-2-1.55-2.61-3.74-2.62q-7.08,0-14.16,0c-2.79,0-3.45.46-4.35,3.09-1.84,5.36-3.66,10.73-5.51,16.09-.49,1.41-1,2.81-1.6,4.41-1-2.72-1.26-2.93-3.87-2.93h-11c-4.08,0-8.16,0-12.24,0-2.2,0-2.92.7-2.94,2.81q-.05,4.2,0,8.4c0,2.05.66,2.64,2.78,2.67s4.48,0,6.72,0c.75,0,1.5,0,2.41.06-2.62,5-10.61,8-16.11,2.26s-5.77-13.57-.32-19.43c4.21-4.52,8.47-4.69,13.13-1a4.86,4.86,0,0,1,.74.61c2.07,2.46,4.83,2,7.29,1.26a47.4,47.4,0,0,0,7.35-3.47c.53-.27,1.27-.81,1.3-1.27.16-2,.69-4.09-1-5.89a25.72,25.72,0,0,0-10.77-7.33c-4.65-1.59-9.43-1.65-14.21-1.32-10.82.74-18.7,5.83-23,16a14.19,14.19,0,0,1-.88,1.42c0-4.76,0-9,0-13.23,0-2.55-.69-3.21-3.29-3.23q-5.28,0-10.56,0c-2.55,0-3.21.69-3.22,3.31,0,4.24,0,8.48,0,12.72,0,.6-.1,1.21-.16,1.8a8.33,8.33,0,0,0-1.36-.26c-9.44,0-18.88,0-28.31,0-1.77,0-2.43.71-2.45,2.52,0,3.2,0,6.4,0,9.6,0,2,.74,2.75,2.73,2.78,3,0,5.92,0,8.88,0,.59,0,1.17.1,1.85.15-3.74,6.4-11.87,8.16-17.47,3.84a15.8,15.8,0,0,1-.49-24.32c4.52-3.84,8.75-3.75,13.51-.29a7.56,7.56,0,0,1,1.46,1.23c2.18,2.67,5,2.22,7.65,1.3a73.25,73.25,0,0,0,8.44-4c.6-.3,1.4-.87,1.49-1.42.31-1.84.76-3.73-.67-5.45a27.69,27.69,0,0,0-10.59-8c-6.94-2.93-14.18-3-21.43-1.87a27.44,27.44,0,0,0-23.21,23c-.35,2.09-.48,4.22-.7,6.26H36.78c-.51.31-1.29.49-1.48.94-.58,1.32-2,2.24-1.88,3.89,0,.06.11.11.16.17H50.78c.35,1.73.62,3.38,1,5a27.31,27.31,0,0,0,26.8,20.86C81.17,293.46,83.73,293.56,86.29,293.44Zm93.58-6.81q6.91-20.15,13.85-40.29c.92-2.67,1.35-3,4.15-3h7c3,0,3.41.3,4.44,3.26q3,8.7,6.05,17.4,2.7,7.79,5.4,15.61l-5.52,8.29a15.71,15.71,0,0,1-.78-1.68c-.42-1.37-.76-2.77-1.2-4.14a2.74,2.74,0,0,0-2.83-2.1c-5.91,0-11.83,0-17.74,0a2.85,2.85,0,0,0-3,2.23c-.41,1.29-.69,2.62-1.07,3.92-.58,1.93-1.26,2.45-3.25,2.47s-3.82,0-6,0C179.56,287.81,179.67,287.21,179.87,286.63ZM133.6,256.51c4-8.15,10.68-12.82,19.59-14,7.81-1,14.37,1.87,19.84,7.4a9.35,9.35,0,0,1,.78,1.07l-6.58,3.17c-.35-.11-.55-.11-.65-.21-4.57-4.63-10.21-4.9-16-3.61a11,11,0,0,0-8.12,7.48,25.29,25.29,0,0,0,.07,17.81c1.91,5.07,6.11,7.77,11.54,7.72a54.23,54.23,0,0,0,7.61-.54,10.1,10.1,0,0,0,5.57-3.09,7.74,7.74,0,0,0,2.33-6.76c-.19-1.53-.73-2.1-2.32-2.14-2.48-.07-5-.1-7.43-.07-1.29,0-2.59-.12-3-1.47-.42-1.5-.72-3.19.44-4.55a2.45,2.45,0,0,1,1.68-.68q9-.07,18,0c1.61,0,2.28.76,2.2,2.47-.55,11.16-6.54,19.93-17.55,22.59a24.4,24.4,0,0,1-30.16-21A20.54,20.54,0,0,1,133.6,256.51Zm-18.77-10.91a2.16,2.16,0,0,1,2.32-2.21c1.68-.06,3.36,0,5,0,2.1,0,2.69.62,2.71,2.74,0,3.68,0,7.36,0,11q0,4.44,0,8.88,0,9.72,0,19.43c0,2.74-.46,3.17-3.24,3.18-1.44,0-2.88,0-4.32,0-1.74-.06-2.4-.75-2.52-2.5,0-.4,0-.8,0-1.2q0-19,0-37.91A13.25,13.25,0,0,1,114.83,245.61ZM56.62,273.07a24.67,24.67,0,0,1-2.22-10.23,25.61,25.61,0,0,1,3.43-12.09,27.08,27.08,0,0,1,20.88-14c9.4-1.21,17.18,2.22,23.55,9.09a3,3,0,0,1,.28.68l-8.17,3.93-1.46-1.29c-2-1.79-4.23-3.28-6.95-3.49a38.77,38.77,0,0,0-8.82,0c-6,.93-9.22,5-10.86,10.54a17.14,17.14,0,0,0-.58,4.25c-.09,2.48-.08,5,0,7.44.16,6.18,4.1,12.09,9.58,13.62a23,23,0,0,0,15.24-.69,12.52,12.52,0,0,0,5.19-4.14,8.08,8.08,0,0,0,1.49-5.9c-.14-1.51-.74-2.09-2.33-2.11-2.88,0-5.76,0-8.64,0-3,0-3.53-.5-3.56-3.43,0-4.42.1-4.56,4.55-4.56,6.16,0,12.32,0,18.47,0,2.06,0,2.78.58,2.69,2.46-.4,8.28-2.79,15.76-9.54,21.14C86,294.46,64.23,291.3,56.62,273.07Z" transform="translate(-2.8 -2.99)"/><path class="d" d="M309.84,357.86q-2.72-7.4-5.46-14.8c-.16-.43-.4-1.15-.68-1.18a15.81,15.81,0,0,0-4.22-.17c-.5.07-1,1.12-1.26,1.81-1.65,4.32-3.17,8.68-4.86,13a11.7,11.7,0,0,0-.66,4.92c.07,1.63.54,2.07,2.22,2.1,2.07,0,4.15,0,6.22,0,1.26,0,2.52,0,3.77,0,.42,0,.84,0,1.25,0,4.27.26,4-.95,4-4.54A3.73,3.73,0,0,0,309.84,357.86Zm-13,2.22,4.25-11.56h.53l4.17,11.42C302.79,360.19,300,360,296.88,360.08Z" transform="translate(-2.8 -2.99)"/><path class="d" d="M195.8,274.08c3.84,0,7.67,0,11.51,0a1.86,1.86,0,0,0,2-1.94,17.33,17.33,0,0,0-.37-4.26c-.52-2.17-1.29-4.27-1.94-6.41-1.08-3.57-2.15-7.14-3.24-10.74h-4.5c-.19.26-.33.37-.38.52-1.69,5.73-3.42,11.46-5,17.22a11,11,0,0,0-.25,3.55A2,2,0,0,0,195.8,274.08Zm5.39-15.24.42-.05,3.54,11.49h-7.34Z" transform="translate(-2.8 -2.99)"/><path class="e" d="M402.24,241.7H405A4.61,4.61,0,0,0,402.24,241.7Z" transform="translate(-2.8 -2.99)"/><path class="b" d="M157.12,378.33a2.92,2.92,0,0,0,2.93,1.53c6.15-.06,12.3-.1,18.45,0a3.4,3.4,0,0,0,3.4-2c2-3.53,4.14-7,6.21-10.51l5.83-9.87c-8.13-13.67-16.14-27.23-24.55-41.2-8.44,14-16.42,27.55-24.56,41.24C149,364.6,153.09,371.45,157.12,378.33Z" transform="translate(-2.8 -2.99)"/><path class="b" d="M466.89,256.11c-6.06-10-12-20.16-18-30.24-1.58-2.66-3.19-5.3-5-8.32a17.49,17.49,0,0,0-1.13,1.44c-1.35,2.26-2.67,4.54-4,6.81q-8.86,14.93-17.72,29.87c-1.86,3.15-1.8,3.17.12,6.38q9.46,15.83,18.91,31.67c1.17,2,2.37,3.89,3.68,6,.42-.58.67-.87.87-1.2C452,286,459.46,273.42,467,260.91A4.06,4.06,0,0,0,466.89,256.11Z" transform="translate(-2.8 -2.99)"/><path class="a" d="M447.83,211.56c8.78,14.77,17.52,29.56,26.38,44.28a5,5,0,0,1,0,5.88c-8.42,14-16.7,28-25,42-.38.64-1.11,1.18-.8,2.22H602.66L496,126.35l-49.37,83C447,210.19,447.43,210.88,447.83,211.56Z" transform="translate(-2.8 -2.99)"/><path class="a" d="M259.53,253.41l.1,0h-.14s0,.09,0,.13h0Z" transform="translate(-2.8 -2.99)"/><path class="a" d="M168.73,414.83h0a2.49,2.49,0,0,1-.27-.64A2.48,2.48,0,0,0,168.73,414.83Z" transform="translate(-2.8 -2.99)"/><path class="a" d="M169,415.21h0a2.42,2.42,0,0,0,.28.28A2.42,2.42,0,0,1,169,415.21Z" transform="translate(-2.8 -2.99)"/><polygon class="a" points="166.02 411.98 166.02 411.98 166.01 411.98 166.02 411.98"/><path class="a" d="M404,244c-1-.71-1,.44-1,1C403.64,245.07,405,244.69,404,244Z" transform="translate(-2.8 -2.99)"/><polygon class="a" points="166.02 411.98 166.02 411.99 166.02 411.98 166.02 411.98"/><path class="a" d="M169,415.21h0a2.3,2.3,0,0,1-.18-.23h0A2.3,2.3,0,0,0,169,415.21Z" transform="translate(-2.8 -2.99)"/><path class="a" d="M237.08,404.54q0,1.76,0,3.52h0Q237.06,406.3,237.08,404.54Z" transform="translate(-2.8 -2.99)"/><path class="a" d="M400.77,244.32a3.37,3.37,0,0,0-.13.9c0,3.8,5.68,4.05,5.91.21.2-3.29-3.77-4.06-5.31-2.1l.89.06c.22-.22,1.45-.13,1.7-.11.54,0,1.08.09,1.35.62a1,1,0,0,1-.68,1.38c.76.45.54,1.28,1,1.94-.21,0-.81.1-1,0-.6-.4,0-1.33-.94-1.53s-.58.84-.58,1.53c-.83,0-.77.16-.89-.55a10.17,10.17,0,0,1,0-2.29C401.76,244.37,401.28,244.33,400.77,244.32Z" transform="translate(-2.8 -2.99)"/><path class="a" d="M225.27,280.19a4.1,4.1,0,0,1,.3.3,4.11,4.11,0,0,0-.3-.3Z" transform="translate(-2.8 -2.99)"/><path class="a" d="M446.65,310.55c-.48,0-1,0-1.44,0a3.89,3.89,0,0,1-3.88-2.2c-2.65-4.65-5.54-9.17-8.16-13.84a4,4,0,0,0-4.12-2.4q-17.13.24-34.27.22c-14.63,0-29.27-.13-43.9-.07a6,6,0,0,1-5.41-2.78c-3.7-5.22-7.54-10.34-11.3-15.5-1.48-2-3.43-3.84-3-6.71l-2.42-.69v5.5c0,5.76,0,11.52,0,17.28,0,2-.68,2.92-2.33,3-3.92.08-7.84.07-11.76,0a2.16,2.16,0,0,1-2.25-2.29c-.07-1.12,0-2.24,0-3.36q0-5.09,0-10.18a2,2,0,0,0-1,1.08c-3.9,8.56-10.48,13.74-19.72,15.39-2.16.39-4.43.07-6.63.26-7.19.65-13.35-1.74-18.74-6.32-1.33-1.13-2.49-2.46-3.73-3.7-.28-.48-.53-1-.84-1.42a22.81,22.81,0,0,1-3.88-9.91c-.26-2,0-4.13-.15-6.17a23.78,23.78,0,0,1,1.52-10.53,2.4,2.4,0,0,0,.11-.4h0a5.09,5.09,0,0,0,.06-.6h0c0-.23,0-.45,0-.68l-5.75,9a20.28,20.28,0,0,1-2,3,25.21,25.21,0,0,1-3,2.4c.31,1.72-.44,3.16-1.39,4.59-1.91,2.85-3.73,5.76-5.57,8.65-.32.5-.56,1-1,1.78h2.67c5.27,0,10.53,0,15.8,0a13.57,13.57,0,0,1,2.93.69,3.55,3.55,0,0,1,.41,1.11c0,3.83.09,7.65,0,11.48,0,1.32-.81,1.94-2.17,2.06-.47,0-1,0-1.43,0H213.61a1.49,1.49,0,0,1-1.65-1.4c0-.39-.1-.78-.15-1.17a7.79,7.79,0,0,1-.06-1.17c0-.13,0-.26,0-.39s0-.12,0-.18a3.11,3.11,0,0,1,.81-1.62,5.51,5.51,0,0,1-1.85-3c-.11-.38-.21-.77-.3-1.16a20.83,20.83,0,0,0-.79-2.76,2.78,2.78,0,0,0-2.7-2c-3.68,0-7.36,0-11,0a2.74,2.74,0,0,0-2.78,2.18c-.43,1.37-.76,2.77-1.17,4.15-.59,2-1.32,2.57-3.42,2.58-3.52,0-7,0-10.55,0-2.55,0-3.06-.5-3.21-3,0-.38-.07-.76-.11-1.14-.26,0-.46,0-.56,0-4.42,3.54-9.59,4.95-15.13,5.18a44.08,44.08,0,0,1-12.16-.67,24,24,0,0,1-16.92-13.95c-.36-.78-.67-1.59-1.22-2.89-.11.92-.22,1.4-.22,1.87,0,3.84,0,7.67,0,11.51,0,2.29-.74,3-3,3.06q-5.52,0-11,0c-2.37,0-3.05-.74-3.06-3.21,0-4.64,0-9.27,0-13.91a2.71,2.71,0,0,0-.36-1.45c-.23.62-.48,1.24-.68,1.87-3.51,11.06-12.42,17.3-24.09,17.82-2.55.11-5.12,0-7.67,0a27.31,27.31,0,0,1-26.8-20.86c-.41-1.62-.68-3.27-1-5H33.57L10.81,306H166.62c.56,0,1.12,0,1.68,0a4,4,0,0,1,3.86,2.26q14,23.63,28.08,47.17a4,4,0,0,1,0,4.63c-4.72,7.79-9.41,15.6-14,23.5A6.36,6.36,0,0,1,180,387c-17.11-.09-34.22,0-51.33-.14a3.66,3.66,0,0,0-3.76,2.18c-1.91,3.51-4.1,6.86-6.05,10.34a4.92,4.92,0,0,1-5,2.91c-3.75-.18-7.52.05-11.27-.09a4.5,4.5,0,0,0-4.45,2.55C92.83,413.87,87.42,422.93,82,432l31.91-.07c4.24,0,8.48-.12,12.72,0,1.65,0,2.35-.56,3-2,4.21-9.75,8.51-19.47,12.82-29.18.34-.76.86-1.84,1.47-2a9.12,9.12,0,0,1,4,.1c.54.13.92,1.22,1.23,1.94q5.91,13.76,11.77,27.54c.31.73.69,1.45.94,2.2.4,1.25,1.19,1.6,2.68,1.08v-2.44q0-13.56,0-27.12c0-3,.5-3.47,3.49-3.47h58.78c3.13,0,4.8,3.09,3.17,5.86a2.51,2.51,0,0,1-2.43,1.22c-2.8,0-5.6,0-8.4,0-2.44,0-3,.66-3.08,3.16,0,.4,0,.8,0,1.2.13,1.73.81,2.44,2.55,2.48,2.64,0,5.28,0,7.92,0s3.24.68,3.26,3.25c0,.24,0,.48,0,.72,0,2.27-.75,3-3,3.05-2.48,0-5,0-7.44,0-2.76,0-3.29.56-3.31,3.41,0,1.28,0,2.56,0,3.84.07,2,.78,2.75,2.78,2.78,2.64,0,5.28.08,7.92,0,1.76-.06,3.2.23,3.67,2.2h3.39c0-7.6.08-15.1,0-22.6s-.37-15-.57-22.62a6,6,0,0,0-.93-.4c-8.75-2.34-14.77-8-18.18-16.12-5.31-12.59-4.93-25.1,2.36-36.94,5-8.08,12.63-12,21.88-12.86a84.76,84.76,0,0,1,9.57-.33c10.36.17,18.62,4.36,24.65,12.9,1.32,1.87,1,3.8.8,5.74-.05.55-.81,1.17-1.39,1.5-2.85,1.62-5.71,3.22-8.63,4.69a5.61,5.61,0,0,1-7.12-1.78c-2.7-3.62-6.16-6.11-10.75-6.43a13.67,13.67,0,0,0-5.56.87c-6.08,2.27-9.27,7-10.65,13.18a17,17,0,0,0,12.08,19.84c5.58,1.47,12.13-1.33,14.54-6.36-.67,0-1.26-.12-1.86-.13-2.72,0-5.44,0-8.16,0-2.05,0-2.81-.71-2.84-2.68q-.07-4.8,0-9.6c0-1.9.73-2.59,2.65-2.59q14.28,0,28.56,0c1.9,0,2.54.69,2.61,2.62q0,.78,0,1.56c0,.56,0,1.12,0,1.68q-.06,1.35-.21,2.68a40.18,40.18,0,0,1-1.25,6.38l.54.47,13.54-33.79c.89-2.22,1.85-4.42,2.69-6.66a3.68,3.68,0,0,1,4-2.71c3.36.11,6.72,0,10.08,0,3,0,3.58.36,4.64,3.09q4.42,11.26,8.83,22.53c3,7.72,6.08,15.44,9.33,23.69.3-1.08.52-1.66.62-2.26q3.47-21.6,6.91-43.21c.08-.47.19-.94.29-1.4a2.62,2.62,0,0,1,3-2.42c3.28,0,6.56.06,9.84,0a3.61,3.61,0,0,1,3.82,2.59c1.84,4.51,3.73,9,5.6,13.5s3.86,9.29,5.81,13.93c.27.65.61,1.27,1,2.18,2.23-5.34,4.35-10.4,6.46-15.47,1.94-4.64,3.9-9.28,5.78-13.94a3.86,3.86,0,0,1,4.17-2.79c3.19.14,6.4,0,9.6,0,1.89,0,2.72.72,3,2.61q2.66,16.4,5.29,32.8,1.89,11.68,3.79,23.36a1.06,1.06,0,0,0,.63.85c0-.89.07-1.77.07-2.66q0-26.39,0-52.79c0-.56,0-1.12,0-1.68.12-1.66.88-2.47,2.58-2.49q6.24-.07,12.48,0c1.89,0,2.59.75,2.66,2.6,0,.88,0,1.76,0,2.64q0,25.91,0,51.83v2.72h3.27c0-.78.08-1.62.08-2.46q0-26.63,0-53.27a15.91,15.91,0,0,1,0-1.92,2.18,2.18,0,0,1,2.19-2.12c4.08-.06,8.16-.08,12.24,0,1.46,0,2.37,1.21,3.25,2.25q5.79,6.88,11.57,13.76l14.34,17.07c.45.53.93,1,1.79,2,0-1.09,0-1.69,0-2.28q0-14.64,0-29.27c0-3.07.5-3.55,3.65-3.56,3.6,0,7.2,0,10.8,0,2.6,0,3.28.68,3.29,3.23,0,6.24,0,12.48,0,18.72q0,1.56,0,3.11l.29.05c.24-1,.45-1.91.71-2.86,2.21-8.06,6.25-14.83,13.58-19.3a29.21,29.21,0,0,1,12.67-4,93.24,93.24,0,0,1,9.57-.35c10.15.1,18.36,4.06,24.49,12.3,1.46,2,1.44,4,1.23,6.12a2.9,2.9,0,0,1-1.43,1.75c-2.84,1.63-5.71,3.21-8.63,4.68a5.6,5.6,0,0,1-7.11-1.8c-2.72-3.6-6.17-6-10.76-6.44a11.31,11.31,0,0,0-4,.42c-7.1,2-10.79,7.14-12.19,14a16.83,16.83,0,0,0,14.82,20c3.92.4,10.24-2.38,11.92-6.89h-1.87c-2.88,0-5.76,0-8.64,0-1.67,0-2.45-.69-2.47-2.24q-.09-5.28,0-10.56a2,2,0,0,1,2.09-2.15,11,11,0,0,1,1.2,0h27.11c2.9,0,3.3.45,3.35,3.33a39.54,39.54,0,0,1-6.35,22.72,29,29,0,0,1-3.49,4.25c-1.25,1.3-2.69,2.42-4.33,3.87.87,0,1.46.1,2,.1,4.64,0,9.28,0,13.92,0a21.88,21.88,0,0,1,2.34.26l1.85-2.94c.62-1,1.23-2,1.82-3q19.42-32.67,38.8-65.35l-2.11-1.77Z" transform="translate(-2.8 -2.99)"/><path class="a" d="M51.28,256.35a27.44,27.44,0,0,1,23.21-23c7.25-1.09,14.48-1.06,21.43,1.87a27.69,27.69,0,0,1,10.59,8c1.43,1.72,1,3.61.67,5.45-.09.55-.89,1.11-1.49,1.42a73.25,73.25,0,0,1-8.44,4c-2.62.92-5.47,1.37-7.65-1.3a7.56,7.56,0,0,0-1.46-1.23c-4.77-3.46-9-3.54-13.51.29a15.8,15.8,0,0,0,.49,24.32c5.6,4.32,13.73,2.56,17.47-3.84-.68-.06-1.26-.15-1.85-.15-3,0-5.92,0-8.88,0-2,0-2.71-.77-2.73-2.78,0-3.2,0-6.4,0-9.6,0-1.81.68-2.51,2.45-2.52,9.44,0,18.88,0,28.31,0a8.33,8.33,0,0,1,1.36.26c.05-.6.15-1.2.16-1.8,0-4.24,0-8.48,0-12.72,0-2.62.66-3.29,3.22-3.31q5.28,0,10.56,0c2.6,0,3.28.68,3.29,3.23,0,4.24,0,8.47,0,13.23a14.19,14.19,0,0,0,.88-1.42c4.32-10.16,12.2-15.26,23-16,4.78-.33,9.57-.27,14.21,1.32a25.72,25.72,0,0,1,10.77,7.33c1.65,1.81,1.11,3.88,1,5.89,0,.46-.77,1-1.3,1.27a47.4,47.4,0,0,1-7.35,3.47c-2.46.75-5.22,1.2-7.29-1.26a4.86,4.86,0,0,0-.74-.61c-4.66-3.69-8.92-3.53-13.13,1-5.45,5.86-5.06,13.83.32,19.43s13.49,2.71,16.11-2.26c-.91,0-1.66-.06-2.41-.06-2.24,0-4.48,0-6.72,0s-2.75-.62-2.78-2.67q-.06-4.2,0-8.4c0-2.11.74-2.79,2.94-2.81,4.08,0,8.16,0,12.24,0h11c2.61,0,2.9.21,3.87,2.93.58-1.6,1.11-3,1.6-4.41,1.84-5.36,3.67-10.73,5.51-16.09.9-2.63,1.56-3.09,4.35-3.09q7.08,0,14.16,0c2.18,0,3,.57,3.74,2.62,1.29,3.51,2.56,7,3.84,10.56h0q0-4.68.06-9.35c0-2.88.52-3.42,3.29-3.42H263.1a1.61,1.61,0,0,1,1.77,1.58c.1,1.56.44,3.2-.71,4.6a.56.56,0,0,0-.1.21,5.23,5.23,0,0,0-.07.75c.48-.37,1-.72,1.42-1.13,4-3.74,8.63-6.39,14.13-7a45,45,0,0,1,9.72-.27c10.05,1,17.51,6,21.94,15.25.26.54.53,1.07.8,1.6l.39-.06v-1.78c0-3.68,0-7.36,0-11,0-2.44.67-3.09,3.14-3.11,3.2,0,6.41.13,9.6,0a5.91,5.91,0,0,1,5.63,2.82c4.27,6,8.66,11.89,13.05,17.79a5.18,5.18,0,0,1,1.35,3.93,2.09,2.09,0,0,0,.21.73l2.07.54v-2.58q0-10,0-19.91c0-2.61.62-3.21,3.28-3.22q4.8,0,9.6,0c2.88,0,3.44.6,3.45,3.56q0,13.4,0,26.8,0,7.44,0,14.88c0,.78,0,1.56,0,2.86.79-.47,1.39-.62,1.49-.94a6.27,6.27,0,0,0,.11-1.9q0-8,0-16.08c0-1.26,0-2.51,0-3.77,0-7.68-.05-15.35,0-23,0-1.52.89-2.25,2.45-2.39.32,0,.64,0,1,0h26.63a9.89,9.89,0,0,1,1.2,0,2.2,2.2,0,0,1,2.22,2.34c0,.41,0,.83,0,1.24l.91,0h.4a3.64,3.64,0,0,1,2.07-1.6,4.61,4.61,0,0,1,2.75,0,3.52,3.52,0,0,1,2.55,3.51c0,5-7.9,5-7.89,0a4.14,4.14,0,0,1,.1-.9h-.15l-.74,0h0q0,1.73,0,3.47,0,1.94,0,3.88c0,1.58-.8,2.26-2.4,2.36-.56,0-1.12,0-1.68,0-3.36,0-6.72,0-10.08,0-1.76,0-2.56.66-2.75,2-.24,1.81.63,2.87,2.57,2.9,3.52.05,7,0,10.56,0,2,0,2.74.76,2.78,2.75,0,2.62,0,5.24,0,7.86,0,2.87-.61,3.45-3.54,3.46-3.28,0-6.56,0-9.84,0-2,0-3,1.41-2.46,3.14a2.43,2.43,0,0,0,2.66,1.59q5.52,0,11,0c2.55,0,3.11.57,3.14,3.08,0,2.05,0,4.11,0,6.11,2.93.5,27.85.39,29.68-.12-.4-.71-.78-1.39-1.18-2.07-4.66-7.83-9.28-15.68-14-23.46a4.3,4.3,0,0,1,0-5.06q13.32-22.21,26.49-44.5c.48-.81.95-1.63,1.41-2.42l-3.38-5.56c-.56.86-1,1.44-1.33,2-2.17,3.54-4.36,7.07-6.49,10.64a3.43,3.43,0,0,1-3.16,1.77H425l-247.14,0q-56.27,0-112.53,0a3.75,3.75,0,0,0-3.75,2.16c-7.89,13.44-15.87,26.82-23.82,40.23-.36.61-.63,1.28-.94,1.92h13.8C50.8,260.57,50.93,258.44,51.28,256.35Z" transform="translate(-2.8 -2.99)"/><path class="a" d="M555.35,387.88a4.13,4.13,0,0,1-.92.12c-13.1,0-26.22.42-39.28-1a26.83,26.83,0,0,1-11.3-3.64c-7.38-4.5-11.55-11.28-13.8-19.43-.27-1-.49-2-.74-3L489,361q0,1.44,0,2.87c0,6.16-.09,12.32,0,18.47.05,2.55-.87,3.76-3.72,3.61a68.33,68.33,0,0,0-8.63,0c-2.62.19-4.33-.88-5.94-2.82-8.41-10.16-16.89-20.25-25.36-30.35-.53-.63-1.12-1.2-2-2.13v2.84q0,14.51,0,29c0,2.74-.63,3.38-3.37,3.38q-16.06,0-32.12,0c-1.52,0-3-.14-4.55-.13-4.71,0-9.43.12-14.14.12a2.43,2.43,0,0,1-2.76-2.36c-.26-1.49-.43-3-.63-4.5-.91-6.95-1.81-13.9-2.75-20.85a5.61,5.61,0,0,0-.72-1.36c-.37.84-.59,1.33-.8,1.82-3.18,7.58-6.43,15.14-9.52,22.76-2.2,5.43-2.67,4.47-6.85,4.49-3.09,0-3.6-.34-4.81-3.24q-5-12-10.07-24.09c-.24-.58-.59-1.12-1.05-2a8.81,8.81,0,0,0-.37,1.09q-1.66,12.56-3.31,25.11c-.33,2.49-1,3.1-3.54,3.11H318.56c-2.53,0-3.18-.44-4.12-2.79-.77-1.93-1.49-3.87-2.26-5.8-1-2.58-1.53-2.92-4.25-2.92H294.5c-2.73,0-3.16.3-4.24,2.94-.85,2.07-1.64,4.16-2.52,6.22a3.32,3.32,0,0,1-3.24,2.37c-4.87-.07-9.75-.2-14.62-.12-5.81.09-11.67-.74-17.39,1a7.6,7.6,0,0,1-1.9.22c-4.05.16-8.1.3-12.26.45v11.09c2,0,3.83-.1,5.66,0a21.24,21.24,0,0,1,4.68.81,8,8,0,0,1,5.77,6.17,20.17,20.17,0,0,1-.06,9,8.65,8.65,0,0,1-3.91,5.25c-.57.38-1.21.67-1.92,1.06l1.67,2.45,5.7,8.28c4.61.41,9.2.1,13.75.2.21-.78.37-1.24.45-1.71q1.51-9.46,3-18.93c.51-3.23,1-6.47,1.55-9.7.37-2.23,1.13-2.9,3.31-2.93,1.68,0,3.36,0,5,0a3.19,3.19,0,0,1,2.94,1.73,11.42,11.42,0,0,1,.75,1.76L292,414.91c.47-1,.82-1.71,1.12-2.44,1.48-3.54,2.93-7.09,4.41-10.63,1.23-3,1.69-3.27,4.79-3.27,1.28,0,2.56,0,3.84,0,2.21,0,3,.7,3.32,2.91q1.76,11,3.51,22c.44,2.74.91,5.47,1.38,8.25h2.77v-2.21q0-10.92,0-21.84c0-2.16,0-4.32,0-6.48,0-1.74.76-2.57,2.4-2.62,2.24-.08,4.48-.08,6.72,0a2.25,2.25,0,0,1,2.29,2.29,16.69,16.69,0,0,1,0,1.68q0,13.32,0,26.64c0,.85,0,1.69.07,2.46h4.19v-2.78q0-13.08,0-26.16c0-3.91.26-4.16,4.28-4.16,3.44,0,6.88,0,10.32,0a33.38,33.38,0,0,1,5,.44,16.16,16.16,0,0,1,13.39,15.61c0,1.76,0,3.52,0,5.28a16.06,16.06,0,0,1-3.53,10.22c-.36.45-.64,1-1,1.55h6.84v-2.5q0-10.32,0-20.64c0-2.4,0-4.8,0-7.2,0-1.95.82-2.72,2.77-2.78,1.36,0,2.74.14,4.08,0,2.63-.35,4.36.85,5.95,2.78,3.74,4.58,7.6,9.07,11.42,13.59a18.12,18.12,0,0,0,1.47,1.33v-2.82c0-3.84,0-7.68,0-11.52,0-2.75.6-3.32,3.41-3.33h4.32c3.17,0,3.65.47,3.65,3.56q0,13.44,0,26.88v2.66h4.29V426q0-12.12,0-24.24c0-2.45.72-3.16,3.1-3.19,1.84,0,3.68,0,5.52,0,2,0,2.74.77,2.82,2.72,0,.48,0,1,0,1.44q0,13.2,0,26.4v2.7a62.62,62.62,0,0,0,6.94-.15c-2-2.7-3.48-5.27-3.77-8.25a54.6,54.6,0,0,1-.33-9.56c.71-8.81,6.75-14.53,13.35-15.48a67.93,67.93,0,0,1,9.55-.44A15,15,0,0,1,459,403.91c2.41,3,1.76,6.22-1.62,8l-.63.35c-3.43,1.83-5.83,1.51-8.57-1.13a7.58,7.58,0,0,0-1.09-.93c-1.34-.87-2.7-1.65-4.44-1.27-3.75.81-7.19,4.73-7.13,8.63a9.2,9.2,0,0,0,6.79,8.63,4.86,4.86,0,0,0,5.31-2.19c-1,0-2,0-2.9,0-2.13,0-2.75-.63-2.81-2.66,0-1.52,0-3,0-4.56.06-1.81.7-2.52,2.44-2.53q7.8-.07,15.6,0c1.8,0,2.37.65,2.45,2.51a22.73,22.73,0,0,1-3.46,13.48,13.08,13.08,0,0,0-.69,1.44h6.64V429q0-13.68,0-27.36c0-2.35.68-3,3-3.06q2.76,0,5.52,0c2.19,0,2.87.7,2.9,2.86,0,2.32,0,4.64,0,7,0,2.86.62,3.44,3.56,3.45h3.36c2.79,0,3.41-.61,3.43-3.33,0-2.16,0-4.32,0-6.48,0-3,.51-3.47,3.51-3.47H522c.32,0,.64,0,1,0a2.38,2.38,0,0,1,2.49,2.59c.05,1.12,0,2.24,0,3.36.19,3.79-.67,4.42-4.23,4.17H521c-2.41.05-3.08.72-3.09,3.19q0,9.12,0,18.24a14.08,14.08,0,0,0,.22,1.71c3.88,0,7.64,0,11.39,0,1,0,1.4-.55,1.82-1.27,1.74-3,3.5-5.91,5.26-8.87q9.43-15.87,18.84-31.76a3.78,3.78,0,0,0,.26-.54c.09-.24.17-.49.24-.74s.19-.68.3-1h0C556,387.72,555.66,387.81,555.35,387.88Z" transform="translate(-2.8 -2.99)"/><path class="a" d="M516.67,436.46c-2.48,0-5,.07-7.43,0-2,0-2.66-.72-2.75-2.76,0-.48,0-1,0-1.44q0-10.08,0-20.15c0-3-.47-3.42-3.52-3.44h-.72c-2.75,0-3.21-.49-3.29-3.18,0-.75.34-1.65-.72-2.43-.07.71-.16,1.17-.16,1.62q0,8.76,0,17.51c0,3.84,0,7.68,0,11.52,0,2-.72,2.71-2.75,2.75-1.84,0-3.68,0-5.52,0-2.69,0-3.15-.49-3.16-3.28s0-5.76,0-8.64c0-1.91-.72-2.58-2.61-2.63-1.52,0-3,0-4.56,0-2.53,0-3.14.6-3.16,3.07,0,2.72,0,5.44,0,8.16,0,2.87-.46,3.33-3.35,3.32-6.48,0-13-.07-19.43-.06a24.67,24.67,0,0,0-3.79.39,42,42,0,0,1-13.35,0,24.05,24.05,0,0,0-3.79-.39c-11.43,0-22.87,0-34.3.12a6.58,6.58,0,0,1-5.72-2.73c-3.72-4.6-7.58-9.09-11.38-13.62-.38-.46-.8-.89-1.56-1.72v2.36q0,6,0,12c0,3.21-.42,3.65-3.54,3.65-3.84,0-7.68-.07-11.51-.07l-57.33.07c-.56,0-1.12,0-1.68,0-1.71-.08-2.46-.71-2.74-2.37-.2-1.18-.32-2.37-.49-3.56q-.51-3.66-1-7.32a6,6,0,0,0-1.37,2.16c-1.21,2.87-2.48,5.72-3.61,8.62-.76,2-2.09,2.52-4.1,2.53s-3.54-.42-4.35-2.51c-1.18-3.05-2.51-6.05-3.78-9.07-.23-.55-.54-1.06-1.05-2.06-.2.93-.32,1.35-.38,1.77-.43,3.08-.82,6.17-1.28,9.25-.29,1.94-.94,2.56-2.79,2.55-7.83,0-15.67-.1-23.5-.15h0c-1,.05-2.07,0-3.1.17a4.59,4.59,0,0,1-4.78-2.44c-1.5-2.36-3.14-4.63-4.75-6.92a11.32,11.32,0,0,0-1.06-1.14c-.16.35-.28.49-.28.62,0,2-.12,4,0,6,.16,3.63-.77,4-4,3.89-2.79-.09-5.59,0-8.39,0-5.68,0-11.36,0-17,0-2,0-2.65-.72-2.73-2.77,0-.48,0-1,0-1.44v-29c-1.57-.09-1.71-.14-1.91.51-.52,1.65-1.73,1.91-3.2,1.85a29.69,29.69,0,0,0-3.12,0,2,2,0,0,0-2,2,15,15,0,0,0,0,1.68q0,11.76,0,23.52a11.35,11.35,0,0,1,0,1.68,2.15,2.15,0,0,1-2.54,1.94c-1.64-.06-3.69.78-4.54-1.54a5.8,5.8,0,0,1-.09-1.91q0-12.12,0-24.24c0-2.52-.61-3-3.09-3.15-1.56-.07-3.21.5-4.66-.59-.16-.12-.55.07-.84.12a17.81,17.81,0,0,1-2.53.47c-1.76.07-3.52,0-5.28,0-2.86,0-3.28.45-3.28,3.4,0,.24,0,.48,0,.72.06,2.1.64,2.7,2.73,2.73s4.16,0,6.24,0a2.33,2.33,0,0,1,2.54,2.52,17.5,17.5,0,0,1,0,1.92c-.09,1.78-.86,2.56-2.69,2.6s-3.84,0-5.76,0c-2.54,0-3,.54-3.06,3.13,0,3.68,0,7.36,0,11,0,2-.71,2.73-2.74,2.74-3.76,0-7.52,0-11.27,0a3.28,3.28,0,0,1-3.46-2.35c-.67-1.71-1.42-3.39-2.09-5.1a3.24,3.24,0,0,0-3.46-2.35c-2,.08-4,.1-6,0a3.35,3.35,0,0,0-3.67,2.4c-.64,1.64-1.39,3.23-2,4.87a3.85,3.85,0,0,1-3.81,2.73c-.64,0-1.28.08-1.92.08q-19.44,0-38.87.07c-4.56,0-9.11.09-13.67.14l-6.9,12h3l30.94-.08,33.82-.06c1.59,0,3.18.08,4.78.13.72,0,1.43-.1,2.15-.1h67.33c.71,0,1.43.09,2.14.14,1-.06,2.07-.18,3.1-.18,6,0,12,.06,18,.07q22.67.05,45.34.08h238l7.41-12.52Z" transform="translate(-2.8 -2.99)"/><path class="a" d="M242.82,270.59c.32-.51.58-1.06,1-1.82-2.82,0-5.37.08-7.91,0a4,4,0,0,0-3.78,2c-1.09,1.67-2.13,3.37-3.25,5s-2.2,3.11-3.3,4.66h0a.67.67,0,0,1,0,.37c1.16,2.83,2.58,5.58,2.41,8.79-.11,2.11-.61,2.68-2.69,2.69-2.37,0-4.74-.06-7.12-.1l-.87.29-.18,2.18c.39,0,.76.05,1.14.06h38.34c1.93-.09,2.58-.71,2.66-2.6,0-.88,0-1.76,0-2.64,0-2.67-.58-3.24-3.22-3.25-4.31,0-8.63,0-12.94,0-1.76,0-3.52,0-5.27,0a1.68,1.68,0,0,1-1.94-1.66,6.53,6.53,0,0,1,.91-4.79C238.94,276.83,240.84,273.69,242.82,270.59Z" transform="translate(-2.8 -2.99)"/><path class="a" d="M233.57,255.43c-4.54,0-9.07,0-13.61,0a7,7,0,0,1-.76-.05c-.76-.09-1.51-.28-2.27-.4,1.88,5.49,3.75,11,5.65,16.48.19.56.42,1.1.65,1.65s.48,1.08.71,1.63c.72-1.14,1.4-2.31,2.17-3.42,1.69-2.45,2.76-5.43,5.82-6.57-.45-3.92,3-5.93,4.08-9.29Z" transform="translate(-2.8 -2.99)"/><path class="a" d="M284.29,380.05c.83-2.25,1.81-4.44,2.67-6.67a3.46,3.46,0,0,1,3.66-2.44q10.56.09,21.12,0a3.51,3.51,0,0,1,3.79,2.58c.79,2.18,1.73,4.3,2.53,6.47a3.52,3.52,0,0,0,3.78,2.61c5.67-.12,11.35-.14,17-.2,2.31,0,3-.6,3.27-2.89,1-7.66,2-15.33,3-23,.34-2.58.73-5.16,1.1-7.81h4.85c.41.94.83,1.87,1.23,2.82,3.85,9.21,7.68,18.43,11.56,27.64a25.93,25.93,0,0,0,1.7,2.94c1.66-.53,2-1.72,2.47-2.81l12.05-28.72c.27-.65.59-1.28.85-1.86h4.71a13.84,13.84,0,0,1,.36,1.45q1.14,8.53,2.25,17.06c.54,4.11,1.05,8.22,1.61,12.33.29,2.12,1,2.73,3.15,2.77,1.44,0,2.88,0,4.32,0,2.74,0,3-.23,2.54-2.84q-3.45-21.73-6.93-43.46c-.43-2.68-.9-5.35-1.32-8s-1-3.29-3.68-3.31c-.8,0-1.6,0-2.4,0a3.45,3.45,0,0,0-3.69,2.44l-1.29,3.09c-3.81,9.14-7.65,18.27-11.41,27.44-.56,1.37-1.23,2.18-2.8,1.92a4.4,4.4,0,0,0-1.2,0,2,2,0,0,1-2.36-1.5c-.56-1.58-1.27-3.1-1.91-4.65q-5.34-12.83-10.68-25.66c-1.08-2.6-2.2-3.32-4.72-3.08-.63.06-1.28,0-1.92,0-2.24,0-3,.64-3.31,2.9q-3.39,21.13-6.76,42.27c-.44,2.74-.93,5.47-1.41,8.29H327.3c-.25-.52-.56-1.08-.79-1.66q-6.8-17.28-13.58-34.57c-1.9-4.83-3.83-9.65-5.7-14.49a3.46,3.46,0,0,0-3.81-2.56,40.83,40.83,0,0,1-4.56,0,2.89,2.89,0,0,0-2.73,1.61,13.62,13.62,0,0,0-.88,2Q284.86,354.25,274.48,380c-.29.72-.52,1.45-.91,2.55,2.58,0,4.73-.07,6.89,0A3.5,3.5,0,0,0,284.29,380.05Zm9.08-23.55c1.69-4.3,3.21-8.66,4.86-13,.26-.69.76-1.74,1.26-1.81a15.81,15.81,0,0,1,4.22.17c.28,0,.51.75.68,1.18q2.75,7.39,5.46,14.8a3.73,3.73,0,0,1,.29,1.15c.08,3.59.31,4.8-4,4.54-.42,0-.84,0-1.25,0-1.26,0-2.52,0-3.77,0-2.07,0-4.15,0-6.22,0-1.68,0-2.15-.47-2.22-2.1A11.7,11.7,0,0,1,293.37,356.51Z" transform="translate(-2.8 -2.99)"/><path class="a" d="M473.85,362.41a10.53,10.53,0,0,1-3.57,0c-.66-.14-1.22-.94-1.73-1.53Q458.9,349.44,449.27,338q-4.63-5.5-9.27-11c-.88-1-1.82-2.11-3.3-2.18-1.68-.08-3.36-.09-5,0a2.15,2.15,0,0,0-2.31,2.24,16.75,16.75,0,0,0,0,1.68q0,24.95,0,49.9c0,.4,0,.8,0,1.2.11,1.89.74,2.53,2.67,2.6,1.52,0,3,0,4.56,0,3.05,0,3.5-.44,3.5-3.45q0-15.59,0-31.19a6.5,6.5,0,0,1,.07-1.9c.14-.44.65-1,1-1.07,1.93-.13,3.69-.37,5.31,1.6,8.85,10.82,17.93,21.45,26.88,32.2,3.9,4.69,3.53,3.82,8.52,3.87,3,0,3.49-.49,3.5-3.46q0-12.71,0-25.43t0-25.67c0-2.53-.6-3.12-3.08-3.16-1.28,0-2.56,0-3.84,0-3.1,0-3.64.54-3.64,3.61q0,15.47,0,30.95a7.53,7.53,0,0,1-.05,1.91C474.63,361.68,474.21,362.36,473.85,362.41Z" transform="translate(-2.8 -2.99)"/><path class="a" d="M518.17,333a42.53,42.53,0,0,1,6.7-.21,15.41,15.41,0,0,1,12.47,6.06l1.48,1.86a8,8,0,0,0,1-.36l7.4-4a26.82,26.82,0,0,0-9.83-9.23c-10.15-5.24-20.3-4.73-30.26.61-9.63,5.17-19,21.9-12,37.52,3.65,8.2,9.05,14.47,17.9,17.13a36.31,36.31,0,0,0,6.8,1.19c1.4.14,2.86-.29,4.28-.24a22.8,22.8,0,0,0,15.66-5.6c7.35-6.08,10.27-14.4,11.62-23.47.15-1-.62-1.43-1.39-1.65a7.12,7.12,0,0,0-1.9-.09c-6.24,0-12.48.09-18.71,0-4.46-.09-4.58.89-4.63,4.64,0,2.41,1.17,3.57,3.43,3.44,2.87-.17,5.76-.07,8.64,0,1.61,0,2,.54,2.22,2.15a8.2,8.2,0,0,1-1.59,5.85,12.85,12.85,0,0,1-8.43,5.46,46.45,46.45,0,0,1-8.1.45c-8.81,0-15.37-5.6-16.93-14.25a32.82,32.82,0,0,1,.13-13.09C505.57,340.23,509.85,334.31,518.17,333Z" transform="translate(-2.8 -2.99)"/><path class="a" d="M239.86,333a44.73,44.73,0,0,1,6.45-.24,15.62,15.62,0,0,1,13.38,6.65c.33.44.69.86,1.11,1.37l8.16-4.39c-1.61-3.24-6.87-7.9-9.92-9.46A30.7,30.7,0,0,0,239.52,324,29.88,29.88,0,0,0,215,358.37c1.79,10.27,9.06,22.88,24.32,25,7.64,1.07,14.84-.2,21.11-4.78,8.1-5.92,11.29-14.58,12.71-24.11a1.58,1.58,0,0,0-1.37-1.9,7.25,7.25,0,0,0-1.9-.1H250.18c-3.1,0-3.54.46-3.55,3.66,0,.32,0,.64,0,1,0,2.82.56,3.37,3.34,3.39s5.6,0,8.4,0c1.16,0,2.16.25,2.29,1.55a7.88,7.88,0,0,1-.71,5.12,14,14,0,0,1-7.32,6.25c-4.18,1.53-8.55,1.36-12.78.79-7.41-1-12.51-6-14.07-13.48a30.58,30.58,0,0,1,.3-14.71C228.06,339,232.38,334.22,239.86,333Z" transform="translate(-2.8 -2.99)"/><path class="a" d="M412.16,382.49H415c3.47,0,3.91-.43,3.91-3.81q0-13.07,0-26.14,0-12.35,0-24.7c0-2.34-.68-3-3-3.07-1.36,0-2.72,0-4.08,0-3,0-3.52.51-3.52,3.45q0,12.71,0,25.42t0,25.18C408.39,382.06,408.83,382.48,412.16,382.49Z" transform="translate(-2.8 -2.99)"/><path class="a" d="M242,414.57a17.42,17.42,0,0,0,2.62-1.1c1.29-.83,2.58-1.89,2.47-3.55s-1.45-2.74-2.93-3.5c-.07,0-.14-.08-.21-.11-1.78-.72-2.77-.15-2.88,1.75a29.31,29.31,0,0,0,0,4.3A8.64,8.64,0,0,0,242,414.57Z" transform="translate(-2.8 -2.99)"/><path class="a" d="M269.12,381.14l3.48-8.4-.44-.44c-1.54,3.38-4.07,6-6.78,8.84Z" transform="translate(-2.8 -2.99)"/><path class="a" d="M145.73,413.7c-1,2.12-2,3.84-2.34,5.91h4.79Z" transform="translate(-2.8 -2.99)"/><path class="a" d="M66.28,256.2c1.65-5.51,4.91-9.61,10.86-10.54a38.77,38.77,0,0,1,8.82,0c2.71.2,4.94,1.7,6.95,3.49l1.46,1.29,8.17-3.93a3,3,0,0,0-.28-.68c-6.37-6.87-14.16-10.29-23.55-9.09a27.08,27.08,0,0,0-20.88,14,25.61,25.61,0,0,0-3.43,12.09,24.67,24.67,0,0,0,2.22,10.23c7.61,18.23,29.43,21.4,42.21,11.2,6.74-5.37,9.13-12.85,9.54-21.14.09-1.89-.62-2.46-2.69-2.46-6.16,0-12.32,0-18.47,0-4.46,0-4.59.13-4.55,4.56,0,2.93.53,3.42,3.56,3.43,2.88,0,5.76,0,8.64,0,1.59,0,2.18.6,2.33,2.11a8.08,8.08,0,0,1-1.49,5.9,12.52,12.52,0,0,1-5.19,4.14,23,23,0,0,1-15.24.69c-5.47-1.53-9.41-7.44-9.58-13.62-.07-2.48-.08-5,0-7.44A17.14,17.14,0,0,1,66.28,256.2Z" transform="translate(-2.8 -2.99)"/><path class="a" d="M150.54,250.34c5.83-1.3,11.46-1,16,3.61.1.1.3.1.65.21l6.58-3.17a9.35,9.35,0,0,0-.78-1.07c-5.47-5.52-12-8.43-19.84-7.4-8.91,1.18-15.6,5.85-19.59,14a20.54,20.54,0,0,0-2.18,11.57,24.4,24.4,0,0,0,30.16,21c11-2.66,17-11.43,17.55-22.59.08-1.7-.59-2.45-2.2-2.47q-9-.07-18,0a2.45,2.45,0,0,0-1.68.68c-1.16,1.36-.86,3.05-.44,4.55.37,1.35,1.67,1.49,3,1.47,2.48,0,5,0,7.43.07,1.59,0,2.13.61,2.32,2.14a7.74,7.74,0,0,1-2.33,6.76,10.1,10.1,0,0,1-5.57,3.09,54.23,54.23,0,0,1-7.61.54c-5.43,0-9.63-2.65-11.54-7.72a25.29,25.29,0,0,1-.07-17.81A11,11,0,0,1,150.54,250.34Z" transform="translate(-2.8 -2.99)"/><path class="a" d="M209.25,246.64c-1-3-1.44-3.25-4.44-3.26h-7c-2.8,0-3.23.29-4.15,3q-6.94,20.14-13.85,40.29c-.2.58-.3,1.18-.52,2,2.15,0,4.06,0,6,0s2.67-.54,3.25-2.47c.39-1.3.67-2.63,1.07-3.92a2.85,2.85,0,0,1,3-2.23c5.91,0,11.83,0,17.74,0a2.74,2.74,0,0,1,2.83,2.1c.44,1.37.77,2.76,1.2,4.14a15.71,15.71,0,0,0,.78,1.68l5.52-8.29q-2.71-7.83-5.4-15.61Q212.29,255.34,209.25,246.64Zm-1.94,27.45c-3.84,0-7.67,0-11.51,0a2,2,0,0,1-2.19-2.05,11,11,0,0,1,.25-3.55c1.61-5.76,3.34-11.48,5-17.22,0-.14.18-.26.38-.52h4.5c1.09,3.6,2.16,7.17,3.24,10.74.65,2.14,1.43,4.24,1.94,6.41a17.33,17.33,0,0,1,.37,4.26A1.86,1.86,0,0,1,207.31,274.09Z" transform="translate(-2.8 -2.99)"/><path class="a" d="M114.82,286.15c.12,1.75.78,2.44,2.52,2.5,1.44,0,2.88,0,4.32,0,2.78,0,3.23-.45,3.24-3.18q0-9.72,0-19.43,0-4.44,0-8.88c0-3.68,0-7.36,0-11,0-2.13-.61-2.7-2.71-2.74-1.68,0-3.36-.05-5,0a2.16,2.16,0,0,0-2.32,2.21,13.25,13.25,0,0,0,0,1.44q0,19,0,37.91C114.81,285.35,114.79,285.76,114.82,286.15Z" transform="translate(-2.8 -2.99)"/><path class="a" d="M220.78,288.6h0l2.92-.06-1-2.77Z" transform="translate(-2.8 -2.99)"/><path class="a" d="M305.83,359.94l-4.17-11.42h-.53l-4.25,11.56C300,360,302.79,360.19,305.83,359.94Z" transform="translate(-2.8 -2.99)"/><path class="a" d="M201.2,258.84l-3.38,11.44h7.34l-3.54-11.49Z" transform="translate(-2.8 -2.99)"/><path class="a" d="M259.94,253.36h0l0-.13-.26.13h.31Z" transform="translate(-2.8 -2.99)"/><path class="a" d="M470.72,402c-1.56-.05-2.32,1-2.32,3.44q0,12.23,0,24.46a8.6,8.6,0,0,0,0,1.44,2.1,2.1,0,0,0,2.4,1.83c1.31-.1,2-.85,2-2.45,0-3,0-6.08,0-9.11,0-2.33.67-3,3-3,3.6,0,7.2,0,10.79,0,2.79,0,3.3.53,3.31,3.39s0,5.76,0,8.63c0,1.92,1.29,2.95,2.91,2.45,1.29-.4,1.57-1.41,1.57-2.64,0-4.24,0-8.47,0-12.71q0-6,0-12c0-.48,0-1,0-1.44a2.25,2.25,0,0,0-2.23-2.31,2.22,2.22,0,0,0-2.23,2.31c-.06,2.64,0,5.28,0,7.91,0,2.26-.76,3-3,3q-5.52,0-11,0c-2.37,0-3.06-.75-3.08-3.21,0-2.24,0-4.48,0-6.72S472.2,402,470.72,402Z" transform="translate(-2.8 -2.99)"/><path class="a" d="M517,405.3c.88-.05,1.76,0,2.64,0a1.93,1.93,0,0,0,2.13-1.53c.18-.83-.86-1.66-2.14-1.8a4.31,4.31,0,0,0-.48,0c-4.63,0-9.27,0-13.9,0a2.59,2.59,0,0,0-2.7,1.66c.55,1.59,1.68,1.69,3,1.7,4.29,0,4.38.15,4.38,4.48q0,9.82,0,19.65a11.5,11.5,0,0,0,0,1.67,2.16,2.16,0,0,0,2.26,2,2.37,2.37,0,0,0,2.28-2,12,12,0,0,0,0-1.68q0-7.43,0-14.86c0-2.24,0-4.47,0-6.71C514.52,406.15,515.28,405.41,517,405.3Z" transform="translate(-2.8 -2.99)"/><path class="a" d="M436.1,406.87c3.23-2.4,10.87-2.55,14.18-.25A32.85,32.85,0,0,1,453,409l2.52-1.39a14.61,14.61,0,0,0-16.2-5.53,16.27,16.27,0,0,0-12,15.38c-.12,5.18,2.29,9.53,6.32,12.89,6.82,5.67,16.36,3.74,21.31-2.81a20,20,0,0,0,3.31-7.38c.45-1.81,0-2.37-1.84-2.4-2.88-.06-5.75,0-8.63,0a2,2,0,0,0-2.28,1.58,2.22,2.22,0,0,0,2.36,1.37,15.52,15.52,0,0,1,3.11,0c.62.1,1.54.51,1.69,1,.54,1.67.81,3.46-.33,5a6.71,6.71,0,0,1-4.47,3,42.43,42.43,0,0,1-5.94.4c-5.86,0-9.89-4.05-10-9.93,0-1.68-.07-3.36,0-5A10.39,10.39,0,0,1,436.1,406.87Z" transform="translate(-2.8 -2.99)"/><path class="a" d="M263.95,247.3l-.07.08h0l.11,0h0s0-.06,0-.08h0Z" transform="translate(-2.8 -2.99)"/><path class="a" d="M247.86,500.32l27.69-46.64H220.07Z" transform="translate(-2.8 -2.99)"/><path class="a" d="M95.94,453.91l21.4,36c2.82-3.6,21-34.63,21.29-36.23C135.36,453.26,97.85,453.39,95.94,453.91Z" transform="translate(-2.8 -2.99)"/><path class="a" d="M164.21,312.88c.39-.65.72-1.34,1.2-2.22H10.85L79.7,426.57c.74-1.22,1.29-2.09,1.82-3,4.37-7.35,8.76-14.69,13.07-22.07a4.82,4.82,0,0,1,4.81-2.8c3.83.17,7.68,0,11.51.07a4.38,4.38,0,0,0,4.27-2.46c2.28-3.94,4.74-7.78,6.93-11.78a4.12,4.12,0,0,1,4.16-2.46c7.84.09,15.67,0,23.51,0h2.14c-.56-1.05-.9-1.75-1.3-2.41-3.75-6.32-7.42-12.69-11.32-18.93a5.07,5.07,0,0,1,0-6.11C147.69,340.8,155.93,326.83,164.21,312.88Z" transform="translate(-2.8 -2.99)"/><path class="a" d="M263.59,247.69l.28-.32-.36.1Z" transform="translate(-2.8 -2.99)"/><path class="a" d="M423.06,213.79a.3.3,0,0,0,.2-.1,2.25,2.25,0,0,0,.15-.48l-57.8-97-58,97.69H420.67C421.47,213.89,422.26,213.83,423.06,213.79Z" transform="translate(-2.8 -2.99)"/><path class="a" d="M215.69,455.65c-.11-.19-.23-.36-.36-.54-.39-.52-.84-1-1.25-1.52h0q-33.19,0-66.38,0c-1,0-2.05.17-3.08.26h0Q132.85,473.65,121,493.4a2.54,2.54,0,0,0,.11,3q10.34,17.28,20.59,34.62l42.5,71.52c.42.71.87,1.39,1.48,2.35L245,505.05c-.31-.58-.51-1-.76-1.42Q230,479.64,215.69,455.65Z" transform="translate(-2.8 -2.99)"/><path class="a" d="M417.46,403.84a2.28,2.28,0,0,0-4.47-.11,5,5,0,0,0-.08,1.19q0,12.59,0,25.18a5.35,5.35,0,0,0,.11,1.42,2.19,2.19,0,0,0,2.37,1.6,2.1,2.1,0,0,0,2-1.72,6.44,6.44,0,0,0,.07-1.67q0-6,0-12t0-12.23A9.68,9.68,0,0,0,417.46,403.84Z" transform="translate(-2.8 -2.99)"/><path class="a" d="M331.36,261.58a3.39,3.39,0,0,0,2.31,1.83,50.36,50.36,0,0,0,6.48.09c-4.83-6.57-9.32-12.75-13.94-18.83a4.22,4.22,0,0,0-2.67-1.29,34.32,34.32,0,0,0-5.26,0c-1.62.06-2.4.76-2.42,2.33q-.08,7.78,0,15.56a2.18,2.18,0,0,0,2.24,2.3c1.59.09,3.19.09,4.79,0s2-.68,2.18-2.25c.06-.7.11-1.39.18-2.16C328.08,258.6,330.3,258.52,331.36,261.58Z" transform="translate(-2.8 -2.99)"/><path class="a" d="M351,261a2.34,2.34,0,0,0,2.46,2.62,41.92,41.92,0,0,0,4.55,0,2.22,2.22,0,0,0,2.28-2.3q.09-7.79,0-15.59c0-1.56-.82-2.24-2.45-2.3-1.36-.05-2.72,0-4.08,0-2.07,0-2.74.68-2.78,2.71,0,2.4,0,4.8,0,7.19C350.95,255.85,350.91,258.41,351,261Z" transform="translate(-2.8 -2.99)"/><path class="a" d="M290.57,250.55c4.91,1.62,7.72,5.13,9,10,.68,2.64,1.15,3,4,3.05h1.2v0a29.32,29.32,0,0,0,3.1,0,1.34,1.34,0,0,0,1.32-1.82c-.11-.46-.22-.93-.37-1.38-2.77-8.5-8.51-14-16.91-16.86-3.48-1.18-3.9-.85-3.91,2.72,0,.24,0,.48,0,.72C288,249.27,288.32,249.81,290.57,250.55Z" transform="translate(-2.8 -2.99)"/><path class="a" d="M289,277.59c3.84-1.65,8.74-8.39,7.09-13.82-1.51-5-4.36-8.65-9.68-9.91a3.77,3.77,0,0,0-1.58-.12c-5.52,1.17-10.37,7-10.55,12.53-.13,4,3.68,9.56,7.69,11.38A8.14,8.14,0,0,0,289,277.59Z" transform="translate(-2.8 -2.99)"/><path class="a" d="M282.21,289.27c1-1.28.55-2.86.58-4.31,0-2.16-.31-2.58-2.42-3.19a12,12,0,0,1-5.35-3,14.27,14.27,0,0,1-3.9-7.53c-.39-2-1.22-2.73-3.22-2.77-1.36,0-2.72-.07-4.07,0a12.08,12.08,0,0,0-2.26.61C263.45,280.75,274.61,288.79,282.21,289.27Z" transform="translate(-2.8 -2.99)"/><path class="a" d="M396.52,422.34a9.84,9.84,0,0,1-3.55.12,3.73,3.73,0,0,1-1.79-1.39c-4.66-5.48-9.27-11-13.91-16.49a11.8,11.8,0,0,0-1.65-1.72c-.74-.58-1.55-1.2-2.61-.67a2.54,2.54,0,0,0-1.39,2.56c0,8.55,0,17.11,0,25.66,0,1.85.8,2.72,2.29,2.72s2.26-.87,2.29-2.72c0-2.72,0-5.44,0-8.15,0-2.56,0-5.12,0-7.67,0-1.67.32-1.88,1.94-2a4.78,4.78,0,0,1,4.69,2c4.38,5.5,9,10.83,13.5,16.21.87,1,1.7,2.15,3.25,2.35l2.23-1.65c0-9,0-17.86,0-26.73a5,5,0,0,0,0-1,2.24,2.24,0,0,0-2.2-1.82,2.26,2.26,0,0,0-2.19,1.85,10.31,10.31,0,0,0,0,1.67q0,5.64,0,11.27c0,1.36.08,2.72,0,4.07C397.27,421.37,396.88,422.27,396.52,422.34Z" transform="translate(-2.8 -2.99)"/><path class="a" d="M288,287.65c.15,1.51.66,1.88,2.19,1.5A26,26,0,0,0,304,280.6a23.82,23.82,0,0,0,5-9.67c.45-1.77,0-2.38-1.79-2.49-.79-.05-1.59,0-2.39,0h-1.2c-2.93,0-3.38.4-4.08,3.19-1.15,4.6-3.68,8.09-8.26,9.8-3.3,1.23-3.31,1.19-3.31,4.79C288,286.69,288,287.17,288,287.65Z" transform="translate(-2.8 -2.99)"/><path class="a" d="M249,261c3.28-5.2,6.64-10.35,10-15.52.33-.51.58-1.07,1-1.89H223.88c-.56,0-1.12,0-1.68,0a2.32,2.32,0,0,0-2.3,2.28c0,.47,0,1,0,1.44-.19,4.15.27,4.86,4.67,4.76,4.71-.11,9.42,0,14.14,0,1.9,0,2.19.36,2.34,2.22a6.56,6.56,0,0,1-1.27,4.7c-1,1.37-1.85,2.89-3,4.66,2.74,0,5-.12,7.33,0A5,5,0,0,0,249,261Z" transform="translate(-2.8 -2.99)"/><path class="a" d="M268,263.6c2.11,0,2.72-.55,3.26-2.69,1.28-5.15,4.1-8.9,9.38-10.53.76-.23,1.8-.92,1.93-1.56a9.44,9.44,0,0,0-.32-6.1c-8,1.18-17.76,8.07-20.36,18.51-.45,1.79-.08,2.29,1.81,2.36C265.16,263.65,266.6,263.63,268,263.6Z" transform="translate(-2.8 -2.99)"/><path class="a" d="M320.61,431.33c.33,1.73,2,2.27,3.45,1.24a2.64,2.64,0,0,0,1-2.51q0-12.56,0-25.12a6.19,6.19,0,0,0-.06-1.19,2.24,2.24,0,0,0-2.22-1.79,2.28,2.28,0,0,0-2.17,1.87,8.6,8.6,0,0,0,0,1.43q0,6.1,0,12.2t0,12.2A9.1,9.1,0,0,0,320.61,431.33Z" transform="translate(-2.8 -2.99)"/><path class="a" d="M382.66,250.56c3.35.08,6.71,0,10.06,0a2.43,2.43,0,0,0,2.67-1.88c.49-2.14,0-4.51-1.16-5.06a2.71,2.71,0,0,0-1.16-.23c-7.27,0-14.53,0-21.8,0-1.63,0-2.35.71-2.37,2.35q-.08,7.66,0,15.33c0,1.67.84,2.41,2.54,2.51,1,.05,1.92,0,2.87,0,5.67,0,11.34,0,17,0,.68,0,1.6.35,1.94-.87-.57,0-1-.12-1.51-.13-3.51,0-7,0-10.54,0-2.1,0-2.84-.8-2.89-2.91,0-1.6.05-3.2,0-4.79C378.13,250.48,379.34,250.48,382.66,250.56Z" transform="translate(-2.8 -2.99)"/><path class="a" d="M275.85,433.11a2.38,2.38,0,0,0,2-2.32c.3-2.46.64-4.91,1-7.36.37-2.67.76-5.33,1.17-8.21h4.86l7.2,17.08,7.18-17h4.81c.15.63.27,1,.33,1.39.6,4.43,1.18,8.86,1.8,13.29a6.12,6.12,0,0,0,.56,2,1.91,1.91,0,0,0,2.45,1,1.66,1.66,0,0,0,1-2.14c-.43-2.27-.74-4.57-1.1-6.86q-1.49-9.46-3-18.93c-.22-1.38-.57-2.68-2.2-3.11a4.09,4.09,0,0,0-2.66,2.82c-1.94,4.73-4,9.41-5.84,14.18-.66,1.71-1.68,2-3.28,2s-2.64-.13-3.32-1.94c-1.79-4.78-3.88-9.46-5.83-14.18-.57-1.37-1.23-2.61-2.81-2.86-1.81.68-1.93,2.26-2.17,3.75q-1.43,8.87-2.85,17.73c-.41,2.6-.82,5.21-1.18,7.82C273.76,432.76,274.41,433.37,275.85,433.11Z" transform="translate(-2.8 -2.99)"/><path class="a" d="M336.41,430.4c0,2.1.63,2.77,2.73,2.7,3.71-.12,7.38.23,11.1-1,2.47-.85,4.81-1.67,6.72-3.38,3.64-3.26,5.75-7.39,5.26-12.32a15.32,15.32,0,0,0-12.36-13.6,67.11,67.11,0,0,0-10.48-.78c-2.3-.09-3,.67-3,3q0,3.12,0,6.24t0,6.24q0,3.24,0,6.48T336.41,430.4Zm4.46-17.55c0-1.52,0-3,0-4.55,0-2.25.77-3,3-3a35.08,35.08,0,0,1,5.94.4,9.52,9.52,0,0,1,7.82,9.06,51.94,51.94,0,0,1,0,5.51,9.62,9.62,0,0,1-9.53,9.48c-1.51.09-3,.05-4.55,0-2,0-2.68-.75-2.71-2.79,0-1.6,0-3.19,0-4.79s0-3.19,0-4.79S340.88,414.37,340.87,412.86Z" transform="translate(-2.8 -2.99)"/><path class="a" d="M344.28,423.63c.06,2.25.82,2.82,3,2.21a8.71,8.71,0,0,0,6.6-7.13c.62-3.15-.89-5.58-3.19-7.49a11.67,11.67,0,0,0-3.55-1.87c-2-.7-2.81-.07-2.87,2.08,0,1,0,2.07,0,3.11s0,2.07,0,3.11C344.27,419.64,344.23,421.63,344.28,423.63Z" transform="translate(-2.8 -2.99)"/><path class="a" d="M315.93,286.17c0,1.76.76,2.46,2.48,2.53,1.52.06,3,.06,4.55,0a2.13,2.13,0,0,0,2.35-2.4q.07-7.55,0-15.1c0-1.71-.79-2.36-2.58-2.42-1.36,0-2.72,0-4.08,0-2,.06-2.7.72-2.74,2.77,0,2.4,0,4.79,0,7.19,0,1.24,0,2.48,0,3.72S315.9,284.93,315.93,286.17Z" transform="translate(-2.8 -2.99)"/><path class="a" d="M371.61,288.7q10.43,0,20.87,0c2,0,2.88-1,2.94-2.93,0-.4,0-.8,0-1.2,0-2.73-.52-3.25-3.19-3.26-3.6,0-7.2,0-10.79,0-2.31,0-3.06-.73-3.1-3,0-2,0-4,0-6s.81-2.84,2.95-2.86c3.12,0,6.24,0,9.35,0h2.31l-.07-.47c-.14-.07-.27-.21-.41-.21-7,0-14.07-.07-21.1,0-1.81,0-2.45.77-2.46,2.78q0,7.19,0,14.39C368.92,288.06,369.53,288.69,371.61,288.7Z" transform="translate(-2.8 -2.99)"/><path class="a" d="M429.52,208.56c1.85-3.08,3.74-6.14,5.54-9.26,2-3.51,4-2.76,5.58.08.44.76.92,1.5,1.37,2.25l1.82,3c.77-1.23,1.37-2.16,1.93-3.11q23-38.74,46.1-77.45a3.94,3.94,0,0,0,0-4.71q-26.4-44.26-52.67-88.6l-11.41-19.2-59.41,100,59.45,99.77C428.52,210.19,429,209.38,429.52,208.56Z" transform="translate(-2.8 -2.99)"/><path class="a" d="M353,288.67c1.59-.07,3.2,0,4.79,0s2.47-.8,2.48-2.53q.07-7.55,0-15.1a2.38,2.38,0,0,0-2.53-2.57,42.52,42.52,0,0,0-4.31,0,2.18,2.18,0,0,0-2.32,2.2c-.09.69-.14,1.39-.22,2.16-2.85.53-5,.46-6.11-2.51a3.42,3.42,0,0,0-2.4-1.7,49.66,49.66,0,0,0-6.28-.08c4.8,6.53,9.26,12.63,13.77,18.71A3.49,3.49,0,0,0,353,288.67Z" transform="translate(-2.8 -2.99)"/><path class="e" d="M398.86,243.35h0c0,.18,0,.37,0,.55C398.86,243.72,398.86,243.54,398.86,243.35Z" transform="translate(-2.8 -2.99)"/><path class="e" d="M399.76,244.31a3.43,3.43,0,0,1,.41-1h-.4c-.07.34-.12.67-.16,1Z" transform="translate(-2.8 -2.99)"/><path class="f" d="M213.09,409.26l.07-6.31h0a1,1,0,0,0-.18-.21,1,1,0,0,1,.18.21Z" transform="translate(-2.8 -2.99)"/><path class="f" d="M275.41,364l-.51,1.71.5.13.55-1.38-.54-.47a40.18,40.18,0,0,0,1.25-6.38A40.11,40.11,0,0,1,275.41,364Z" transform="translate(-2.8 -2.99)"/><path class="f" d="M213,414.54h0l1.28,1.27Z" transform="translate(-2.8 -2.99)"/><path class="f" d="M237.14,416.51l.75,0-.75,0Z" transform="translate(-2.8 -2.99)"/><path class="f" d="M237.28,419.64h0c-.1.63-.18,1.4-.23,2.24C237.09,421,237.17,420.27,237.28,419.64Z" transform="translate(-2.8 -2.99)"/><path class="f" d="M237.14,416.52l.11,2.48-.11-2.48Z" transform="translate(-2.8 -2.99)"/><path class="f" d="M212.18,414.58l.85,0-.85,0c0-1.67,0-3.35-.06-5,0,1.67,0,3.35.06,5Z" transform="translate(-2.8 -2.99)"/><path class="f" d="M237.94,402.74a1,1,0,0,1,.18.21q-.07,5.48-.14,11,.08-5.48.14-11h0A1,1,0,0,0,237.94,402.74Z" transform="translate(-2.8 -2.99)"/><path class="f" d="M238.32,417.3a2.12,2.12,0,0,0,1.23.72A2.12,2.12,0,0,1,238.32,417.3Z" transform="translate(-2.8 -2.99)"/><path class="f" d="M294.93,363.53c2.07,0,4.15,0,6.22,0,1.26,0,2.52,0,3.77,0-1.26,0-2.52,0-3.77,0C299.07,363.54,297,363.57,294.93,363.53Z" transform="translate(-2.8 -2.99)"/><path class="f" d="M193.17,402.17h0a3.37,3.37,0,0,1,1.71,3A3.37,3.37,0,0,0,193.17,402.17Z" transform="translate(-2.8 -2.99)"/><path class="f" d="M213.57,402.57l-.59.17.59-.17Z" transform="translate(-2.8 -2.99)"/><path class="f" d="M213.83,416.71l.47-.47h0Z" transform="translate(-2.8 -2.99)"/><path class="f" d="M168.82,415h0l-.09-.14h0l.09.14h0Z" transform="translate(-2.8 -2.99)"/><path class="f" d="M151.39,423.09l1.58-1.81-1.58,1.81Z" transform="translate(-2.8 -2.99)"/><path class="f" d="M212.18,417.47l.85,0q0,6.81-.11,13.63.07-6.81.11-13.63h0Z" transform="translate(-2.8 -2.99)"/><path class="f" d="M272.15,372.3l.44.44-3.48,8.4,3.48-8.4.54-1.39-.38-.17Z" transform="translate(-2.8 -2.99)"/><path class="f" d="M274.44,367.24l-.43,1.49-.46,1-.4.7.27.12.2-.76.45-1,.49-1.44.4-.77-.3-.13Z" transform="translate(-2.8 -2.99)"/><path class="f" d="M225.3,292.33c2.08,0,2.59-.58,2.69-2.69.17-3.2-1.25-6-2.41-8.79l-2.91,4.9,1,2.77-2.92.06h0l-.53.73-2.08,2.9-.87.29.87-.29C220.55,292.27,222.93,292.34,225.3,292.33Z" transform="translate(-2.8 -2.99)"/><path class="f" d="M399.66,245.22c0,5,7.89,5,7.89,0A3.52,3.52,0,0,0,405,241.7h-2.75a3.64,3.64,0,0,0-2.07,1.6,3.43,3.43,0,0,0-.41,1A4.14,4.14,0,0,0,399.66,245.22Zm6.89.21c-.23,3.84-5.91,3.58-5.91-.21a3.37,3.37,0,0,1,.13-.9c.51,0,1,0,1.32.08,0-.12,0-.24,0-.35s-.08-.54,0-.64h0l-.89-.06C402.79,241.37,406.75,242.14,406.55,245.43Z" transform="translate(-2.8 -2.99)"/><path class="f" d="M402.12,246.68c.12.71.06.55.89.55,0-.69-.36-1.72.58-1.53s.34,1.12.94,1.53c.15.1.75,0,1,0-.44-.66-.22-1.49-1-1.94a1,1,0,0,0,.68-1.38c-.27-.53-.81-.58-1.35-.62-.25,0-1.48-.11-1.7.11l.5,0-.11,1-.44,0A10.17,10.17,0,0,0,402.12,246.68ZM404,244c1,.68-.37,1.07-1,1C403,244.45,403,243.29,404,244Z" transform="translate(-2.8 -2.99)"/><path class="f" d="M340.89,427c0,2,.73,2.74,2.71,2.79,1.52,0,3,.07,4.55,0a9.62,9.62,0,0,0,9.53-9.48,51.94,51.94,0,0,0,0-5.51,9.52,9.52,0,0,0-7.82-9.06,35.08,35.08,0,0,0-5.94-.4c-2.27,0-3,.74-3,3,0,1.52,0,3,0,4.55s0,3,0,4.55,0,3.19,0,4.79S340.87,425.4,340.89,427Zm3.39-15.56c.06-2.16.87-2.79,2.87-2.08a11.67,11.67,0,0,1,3.55,1.87c2.3,1.91,3.81,4.34,3.19,7.49a8.71,8.71,0,0,1-6.6,7.13c-2.19.61-3,0-3-2.21,0-2,0-4,0-6,0-1,0-2.07,0-3.11S344.25,412.47,344.28,411.43Z" transform="translate(-2.8 -2.99)"/><path class="f" d="M598.34,286.38q-10.44-17.63-20.88-35.27c-5.22-8.79-10.48-17.56-15.7-26.36q-11.07-18.65-22.11-37.32c-5.26-8.86-10.57-17.7-15.83-26.56q-11.07-18.65-22.12-37.32T479.64,86.48q-11.81-19.89-23.59-39.79-8.63-14.53-17.3-29c-2.41-4-4.76-8.14-7.27-12.13-2.1-3.34-5.51-3.35-7.77-.15-.23.32-.4.69-.61,1q-6.46,10.94-12.93,21.87c-5.76,9.68-11.55,19.34-17.31,29q-10.34,17.41-20.64,34.85-11.63,19.58-23.3,39.12-12.61,21.22-25.17,42.47-8,13.4-16,26.76c-1.88,3.16-3.82,6.28-5.61,9.49a3,3,0,0,1-3.3,1.78,15,15,0,0,0-1.68,0H65.15c-.88,0-1.76.05-2.64,0a5.2,5.2,0,0,0-5.25,3c-3.18,5.54-6.5,11-9.77,16.5q-9.14,15.34-18.28,30.68c-8.45,14.22-16.85,28.46-25.34,42.65a6.27,6.27,0,0,0,0,7q9.31,15.66,18.61,31.32,8.46,14.21,16.93,28.41,10.66,17.92,21.28,35.86c4.36,7.35,8.7,14.72,13.1,22a2.73,2.73,0,0,1,.06,3.3c-1.22,1.87-2.28,3.85-3.43,5.77-2,3.29-4,6.57-5.9,9.88-1.67,2.85-.91,7.15,3.82,7,.64,0,1.28,0,1.92,0,5.68,0,11.36,0,17,0a2.85,2.85,0,0,1,2.86,1.63q8.54,14.58,17.21,29.08t17.18,28.82q10.34,17.42,20.64,34.85,11.81,19.89,23.66,39.75c4.21,7.07,8.55,14.07,12.57,21.24a4.61,4.61,0,0,0,8.27-.16c1.65-3.19,3.6-6.22,5.44-9.31q8.52-14.31,17.06-28.61,10.4-17.52,20.76-35.06,12.54-21.12,25.13-42.22c7.47-12.57,15-25.11,22.35-37.74a4.1,4.1,0,0,1,4.17-2.28q58.79.08,117.59,0t117.83,0c2.7,0,4.53-.82,5.87-3.22,2.58-4.6,5.33-9.1,8-13.64q11.79-19.9,23.58-39.8,12.37-20.81,24.77-41.6,13.48-22.66,26.95-45.33Zm4.32,19.6H448.4c-.31-1,.42-1.59.8-2.22,8.31-14,16.59-28.07,25-42a5,5,0,0,0,0-5.88c-8.86-14.72-17.6-29.51-26.38-44.28-.4-.68-.78-1.37-1.23-2.16l49.37-83Zm-158.12-7.43c-.2.33-.45.63-.87,1.2-1.31-2.14-2.51-4.08-3.68-6q-9.46-15.83-18.91-31.67c-1.92-3.21-2-3.23-.12-6.38q8.83-14.95,17.72-29.87c1.34-2.27,2.67-4.55,4-6.81a17.49,17.49,0,0,1,1.13-1.44c1.82,3,3.43,5.66,5,8.32,6,10.08,12,20.19,18,30.24a4.06,4.06,0,0,1,.11,4.79C459.46,273.42,452,286,444.54,298.55Zm-16.77-287,11.41,19.2q26.32,44.31,52.67,88.6a3.94,3.94,0,0,1,0,4.71q-23.12,38.68-46.1,77.45c-.56.95-1.16,1.88-1.93,3.11l-1.82-3c-.46-.75-.94-1.49-1.37-2.25-1.63-2.83-3.56-3.58-5.58-.08-1.79,3.12-3.68,6.18-5.54,9.26-.49.82-1,1.62-1.7,2.76l-59.45-99.77ZM365.6,116.2l57.8,97a2.25,2.25,0,0,1-.15.48.3.3,0,0,1-.2.1c-.8,0-1.59.1-2.39.1H307.56ZM10.85,310.66H165.41c-.48.89-.81,1.57-1.2,2.22-8.28,13.95-16.52,27.92-24.91,41.8a5.07,5.07,0,0,0,0,6.11c3.9,6.23,7.57,12.6,11.32,18.93.39.66.73,1.36,1.3,2.41h-2.14c-7.84,0-15.67.06-23.51,0a4.12,4.12,0,0,0-4.16,2.46c-2.18,4-4.65,7.83-6.93,11.78a4.38,4.38,0,0,1-4.27,2.46c-3.84-.1-7.68.1-11.51-.07a4.82,4.82,0,0,0-4.81,2.8c-4.31,7.38-8.71,14.72-13.07,22.07-.53.89-1.08,1.77-1.82,3Zm158.53,5.65c8.41,14,16.43,27.53,24.55,41.2l-5.83,9.87c-2.07,3.5-4.18,7-6.21,10.51a3.4,3.4,0,0,1-3.4,2c-6.15-.12-12.3-.08-18.45,0a2.92,2.92,0,0,1-2.93-1.53c-4-6.88-8.12-13.73-12.29-20.77C153,343.86,161,330.28,169.39,316.31ZM95.94,453.91c1.91-.51,39.43-.64,42.69-.2-.28,1.6-18.47,32.63-21.29,36.23Zm89.79,151c-.61-1-1.06-1.64-1.48-2.35l-42.5-71.52q-10.29-17.31-20.59-34.62a2.54,2.54,0,0,1-.11-3q11.84-19.73,23.58-39.52h0c1-.09,2.05-.26,3.08-.26q33.19,0,66.38,0h0c.41.51.86,1,1.25,1.52.13.17.25.35.36.54q14.32,24,28.59,48c.24.41.45.83.76,1.42Zm62.14-104.59-27.8-46.64h55.48ZM562.79,377.67c-.59,1-1.2,2-1.82,3l-1.85,2.94-2.22,3.21-.62.89c-.11.33-.2.67-.3,1s-.15.5-.24.74a3.78,3.78,0,0,1-.26.54q-9.39,15.9-18.84,31.76c-1.76,3-3.52,5.9-5.26,8.87-.42.72-.84,1.28-1.82,1.27-3.75,0-7.5,0-11.39,0a14.08,14.08,0,0,1-.22-1.71q0-9.12,0-18.24c0-2.47.68-3.13,3.09-3.19h.24c3.56.25,4.42-.39,4.23-4.17-.06-1.12,0-2.24,0-3.36a2.38,2.38,0,0,0-2.49-2.59c-.32,0-.64,0-1,0H490.13c-3,0-3.5.51-3.51,3.47,0,2.16,0,4.32,0,6.48,0,2.72-.63,3.31-3.43,3.33h-3.36c-2.94,0-3.54-.6-3.56-3.45,0-2.32,0-4.64,0-7,0-2.16-.71-2.82-2.9-2.86q-2.76-.05-5.52,0c-2.28,0-3,.72-3,3.06q0,13.68,0,27.36v2.7h-6.64a13.08,13.08,0,0,1,.69-1.44,22.73,22.73,0,0,0,3.46-13.48c-.07-1.86-.65-2.49-2.45-2.51q-7.8-.06-15.6,0c-1.75,0-2.38.72-2.44,2.53-.05,1.52,0,3,0,4.56.06,2,.68,2.61,2.81,2.66.94,0,1.88,0,2.9,0a4.86,4.86,0,0,1-5.31,2.19,9.2,9.2,0,0,1-6.79-8.63c-.05-3.9,3.38-7.82,7.13-8.63,1.74-.38,3.1.4,4.44,1.27a7.58,7.58,0,0,1,1.09.93c2.73,2.64,5.14,3,8.57,1.13l.63-.35c3.38-1.82,4-5,1.62-8A15,15,0,0,0,446.72,398a67.93,67.93,0,0,0-9.55.44c-6.6.95-12.65,6.67-13.35,15.48a54.6,54.6,0,0,0,.33,9.56c.29,3,1.82,5.55,3.77,8.25a62.62,62.62,0,0,1-6.94.15v-2.7q0-13.2,0-26.4c0-.48,0-1,0-1.44-.08-1.95-.8-2.67-2.82-2.72-1.84,0-3.68,0-5.52,0-2.39,0-3.1.75-3.1,3.19q0,12.12,0,24.24v5.66h-4.29V429q0-13.44,0-26.88c0-3.1-.48-3.55-3.65-3.56h-4.32c-2.81,0-3.4.59-3.41,3.33,0,3.84,0,7.68,0,11.52v2.82a18.12,18.12,0,0,1-1.47-1.33c-3.82-4.52-7.68-9-11.42-13.59-1.58-1.94-3.32-3.13-5.95-2.78-1.34.18-2.72,0-4.08,0-2,.06-2.74.83-2.77,2.78,0,2.4,0,4.8,0,7.2q0,10.32,0,20.64v2.5h-6.84c.4-.6.68-1.1,1-1.55a16.06,16.06,0,0,0,3.53-10.22c0-1.76,0-3.52,0-5.28A16.16,16.16,0,0,0,352.47,399a33.38,33.38,0,0,0-5-.44c-3.44-.07-6.88,0-10.32,0-4,0-4.28.25-4.28,4.16q0,13.08,0,26.16v2.78h-4.19c0-.77-.06-1.61-.07-2.46q0-13.32,0-26.64a16.69,16.69,0,0,0,0-1.68,2.25,2.25,0,0,0-2.29-2.29c-2.24-.09-4.48-.08-6.72,0-1.64.06-2.37.89-2.4,2.62,0,2.16,0,4.32,0,6.48q0,10.92,0,21.84v2.21h-2.77c-.46-2.77-.94-5.51-1.38-8.25q-1.76-11-3.51-22c-.35-2.21-1.1-2.87-3.32-2.91-1.28,0-2.56,0-3.84,0-3.11,0-3.56.3-4.79,3.27-1.47,3.54-2.93,7.09-4.41,10.63-.3.73-.66,1.43-1.12,2.44L286.67,402a11.42,11.42,0,0,0-.75-1.76,3.19,3.19,0,0,0-2.94-1.73c-1.68.06-3.36,0-5,0-2.18,0-2.94.71-3.31,2.93-.53,3.23-1,6.47-1.55,9.7q-1.5,9.46-3,18.93c-.07.47-.24.93-.45,1.71-4.54-.1-9.14.21-13.75-.2l-.82,4.7c7.83.06,15.67.13,23.5.15,1.85,0,2.5-.62,2.79-2.55.46-3.08.85-6.17,1.28-9.25.06-.43.18-.84.38-1.77.52,1,.82,1.52,1.05,2.06,1.28,3,2.6,6,3.78,9.07.81,2.09,2.3,2.52,4.35,2.51s3.34-.58,4.1-2.53c1.13-2.9,2.4-5.75,3.61-8.62a6,6,0,0,1,1.37-2.16q.51,3.66,1,7.32c.16,1.19.29,2.38.49,3.56.28,1.66,1,2.29,2.74,2.37.56,0,1.12,0,1.68,0l57.33-.07c3.84,0,7.68.06,11.51.07,3.11,0,3.53-.44,3.54-3.65q0-6,0-12V418.5c.76.84,1.18,1.27,1.56,1.72,3.81,4.53,7.66,9,11.38,13.62a6.58,6.58,0,0,0,5.72,2.73c11.43-.16,22.87-.12,34.3-.12a24.05,24.05,0,0,1,3.79.39,42,42,0,0,0,13.35,0,24.67,24.67,0,0,1,3.79-.39c6.48,0,13,0,19.43.06,2.89,0,3.34-.45,3.35-3.32,0-2.72,0-5.44,0-8.16,0-2.47.63-3,3.16-3.07,1.52,0,3,0,4.56,0,1.89.05,2.58.72,2.61,2.63,0,2.88,0,5.76,0,8.64s.46,3.26,3.16,3.28c1.84,0,3.68,0,5.52,0,2,0,2.73-.71,2.75-2.75,0-3.84,0-7.68,0-11.52q0-8.76,0-17.51c0-.46.09-.92.16-1.62,1.06.78.7,1.68.72,2.43.09,2.69.55,3.15,3.29,3.18H503c3,0,3.52.46,3.52,3.44q0,10.08,0,20.15c0,.48,0,1,0,1.44.08,2,.74,2.74,2.75,2.76,2.48,0,5,0,7.43,0h11.19L520.45,449h-238q-22.67,0-45.34-.08c-6,0-12-.06-18-.07-1,0-2.07.12-3.1.18-.71,0-1.43-.13-2.14-.14H146.54c-.72,0-1.43.06-2.15.1-1.59,0-3.18-.13-4.78-.13l-33.82.06L74.85,449h-3l6.9-12c.09-2.45,1.42-4.5,3.26-5,5.39-9.07,10.79-18.13,16.14-27.22a4.5,4.5,0,0,1,4.45-2.55c3.75.14,7.52-.1,11.27.09a4.92,4.92,0,0,0,5-2.91c2-3.48,4.15-6.83,6.05-10.34a3.66,3.66,0,0,1,3.76-2.18c17.11.1,34.22.05,51.33.14a6.36,6.36,0,0,0,6.21-3.5c4.54-7.89,9.24-15.7,14-23.5a4,4,0,0,0,0-4.63q-14.11-23.54-28.08-47.17A4,4,0,0,0,168.3,306c-.56,0-1.12,0-1.68,0H10.81L33.57,267.6c-.06-.06-.16-.11-.16-.17-.13-1.65,1.3-2.56,1.88-3.89.19-.44,1-.63,1.48-.94.31-.64.58-1.31.94-1.92,7.95-13.41,15.93-26.79,23.82-40.23a3.75,3.75,0,0,1,3.75-2.16q56.27.09,112.53,0l247.14,0h1.92a3.43,3.43,0,0,0,3.16-1.77c2.13-3.57,4.32-7.1,6.49-10.64.37-.6.77-1.18,1.33-2l3.38,5.56c-.46.8-.93,1.61-1.41,2.42q-13.23,22.26-26.49,44.5a4.3,4.3,0,0,0,0,5.06c4.74,7.78,9.36,15.63,14,23.46.4.67.78,1.36,1.18,2.07-1.83.51-26.75.63-29.68.12,0-2,0-4.06,0-6.11,0-2.51-.59-3.06-3.14-3.08q-5.52,0-11,0a2.43,2.43,0,0,1-2.66-1.59c-.59-1.73.46-3.11,2.46-3.14,3.28-.05,6.56,0,9.84,0,2.93,0,3.53-.6,3.54-3.46,0-2.62,0-5.24,0-7.86,0-2-.76-2.73-2.78-2.75-3.52,0-7,0-10.56,0-1.94,0-2.81-1.09-2.57-2.9.18-1.37,1-2,2.75-2,3.36,0,6.72,0,10.08,0,.56,0,1.12,0,1.68,0,1.6-.1,2.37-.77,2.4-2.36,0-1.29,0-2.59,0-3.88s0-2.31,0-3.47h0l-.95.08-.11-1s.46,0,1-.09c0-.41,0-.83,0-1.24a2.2,2.2,0,0,0-2.22-2.34,9.89,9.89,0,0,0-1.2,0H368.8c-.32,0-.64,0-1,0-1.56.14-2.44.87-2.45,2.39,0,7.68,0,15.35,0,23,0,1.26,0,2.51,0,3.77q0,8,0,16.08a6.27,6.27,0,0,1-.11,1.9c-.1.31-.7.46-1.49.94,0-1.3,0-2.08,0-2.86q0-7.44,0-14.88,0-13.4,0-26.8c0-3-.57-3.55-3.45-3.56q-4.8,0-9.6,0c-2.66,0-3.27.61-3.28,3.22q0,10,0,19.91v2.58l-2.07-.54a2.09,2.09,0,0,1-.21-.73,5.18,5.18,0,0,0-1.35-3.93c-4.39-5.9-8.78-11.81-13.05-17.79a5.91,5.91,0,0,0-5.63-2.82c-3.19.18-6.4,0-9.6,0-2.48,0-3.13.66-3.14,3.11,0,3.68,0,7.36,0,11v1.78l-.39.06c-.27-.53-.54-1.07-.8-1.6-4.44-9.22-11.89-14.22-21.94-15.25a45,45,0,0,0-9.72.27c-5.5.64-10.11,3.29-14.13,7-.44.41-.94.75-1.42,1.13,0,0,0,.06,0,.08h0l-.11,0-.28.32-.08-.22.36-.1h0l.07-.08,0,0h0a5.23,5.23,0,0,1,.07-.75.56.56,0,0,1,.1-.21c1.15-1.41.82-3,.71-4.6a1.61,1.61,0,0,0-1.77-1.58H219.68c-2.77,0-3.27.55-3.29,3.42q0,4.68-.06,9.35h0c-1.28-3.52-2.55-7-3.84-10.56,1.29,3.51,2.56,7,3.84,10.56h0l.55,1.86.06.21c1.88,5.49,3.75,11,5.65,16.48-1.9-5.49-3.77-11-5.65-16.48.76.12,1.51.3,2.27.4a7,7,0,0,0,.76.05c4.54,0,9.07,0,13.61,0H236c-1.1,3.36-4.53,5.37-4.08,9.29-3.06,1.15-4.13,4.13-5.82,6.57-.77,1.11-1.45,2.28-2.17,3.42-.23-.55-.47-1.09-.71-1.63.23.54.48,1.08.71,1.63.11.77.2,1.55.31,2.33s.22,1.55.38,2.31a.83.83,0,0,0,.14.3,1.8,1.8,0,0,0,.17.21l.32.32h0a4.1,4.1,0,0,1,.3.3c1.1-1.55,2.24-3.09,3.3-4.66s2.15-3.36,3.25-5a4,4,0,0,1,3.78-2c2.54.1,5.09,0,7.91,0-.41.76-.66,1.31-1,1.82-2,3.1-3.88,6.24-6,9.25a6.53,6.53,0,0,0-.91,4.79,1.68,1.68,0,0,0,1.94,1.66c1.76,0,3.51,0,5.27,0,4.31,0,8.63,0,12.94,0,2.64,0,3.19.58,3.22,3.25,0,.88,0,1.76,0,2.64-.08,1.89-.73,2.5-2.66,2.6H218.27c-.38,0-.76,0-1.14-.06l.18-2.18-4.7-.21h0a3.11,3.11,0,0,0-.81,1.62c0,.06,0,.12,0,.18s0,.26,0,.39a7.79,7.79,0,0,0,.06,1.17c0,.39.1.79.15,1.17a1.49,1.49,0,0,0,1.65,1.4h45.45c.48,0,1,0,1.43,0,1.36-.13,2.15-.74,2.17-2.06.06-3.83,0-7.65,0-11.48a3.55,3.55,0,0,0-.41-1.11,13.57,13.57,0,0,0-2.93-.69c-5.27-.07-10.53,0-15.8,0h-2.67c.39-.73.63-1.28,1-1.78,1.84-2.89,3.66-5.8,5.57-8.65,1-1.43,1.71-2.87,1.39-4.59a25.21,25.21,0,0,0,3-2.4,20.28,20.28,0,0,0,2-3l5.75-9s0-.09,0-.13h.15l.26-.13,0,.13h-.32l-.1,0,0,.06h0c0,.22,0,.45,0,.68a5.09,5.09,0,0,1-.06.6h0a2.39,2.39,0,0,1-.11.4,23.78,23.78,0,0,0-1.52,10.53c.18,2-.11,4.14.15,6.17a22.81,22.81,0,0,0,3.88,9.91c.31.46.56.95.84,1.42,1.24,1.24,2.4,2.57,3.73,3.7,5.4,4.59,11.55,7,18.74,6.32,2.2-.2,4.47.12,6.63-.26,9.24-1.65,15.82-6.84,19.72-15.39a2,2,0,0,1,1-1.08q0,5.09,0,10.18c0,1.12-.05,2.24,0,3.36a2.16,2.16,0,0,0,2.25,2.29c3.92.07,7.84.08,11.76,0,1.65,0,2.32-1,2.33-3,0-5.76,0-11.52,0-17.28v-5.5l2.42.69c-.44,2.88,1.51,4.68,3,6.71,3.77,5.17,7.6,10.29,11.3,15.5a6,6,0,0,0,5.41,2.78c14.63-.06,29.27.07,43.9.07q17.13,0,34.27-.22a4,4,0,0,1,4.12,2.4c2.61,4.67,5.51,9.18,8.16,13.84a3.89,3.89,0,0,0,3.88,2.2c.48,0,1,0,1.44,0H599.48l2.11,1.77Q582.2,345,562.79,377.67Zm-48.33,36.89q0,7.43,0,14.86a12,12,0,0,1,0,1.68,2.37,2.37,0,0,1-2.28,2,2.16,2.16,0,0,1-2.26-2,11.5,11.5,0,0,1,0-1.67q0-9.82,0-19.65c0-4.33-.1-4.46-4.38-4.48-1.28,0-2.41-.11-3-1.7a2.59,2.59,0,0,1,2.7-1.66c4.63,0,9.27,0,13.9,0a4.31,4.31,0,0,1,.48,0c1.28.14,2.32,1,2.14,1.8a1.93,1.93,0,0,1-2.13,1.53c-.88,0-1.76,0-2.64,0-1.69.1-2.45.85-2.49,2.54C514.43,410.08,514.46,412.32,514.46,414.55Zm-20,15.86c0,1.23-.27,2.24-1.57,2.64-1.62.5-2.88-.53-2.91-2.45,0-2.88,0-5.76,0-8.63s-.52-3.38-3.31-3.39c-3.6,0-7.2,0-10.79,0-2.34,0-3,.65-3,3,0,3,0,6.08,0,9.11,0,1.6-.72,2.35-2,2.45a2.1,2.1,0,0,1-2.4-1.83,8.6,8.6,0,0,1,0-1.44q0-12.23,0-24.46c0-2.39.75-3.49,2.32-3.44s2.15,1.08,2.16,3.34,0,4.48,0,6.72c0,2.46.71,3.19,3.08,3.21q5.52,0,11,0c2.24,0,3-.78,3-3,0-2.64,0-5.28,0-7.91a2.22,2.22,0,0,1,2.23-2.31,2.25,2.25,0,0,1,2.23,2.31c0,.48,0,1,0,1.44q0,6,0,12C494.49,421.94,494.47,426.18,494.5,430.41Zm-62.59-10.25c.15,5.88,4.19,9.9,10,9.93a42.43,42.43,0,0,0,5.94-.4,6.71,6.71,0,0,0,4.47-3c1.13-1.57.86-3.36.33-5-.15-.47-1.07-.89-1.69-1a15.52,15.52,0,0,0-3.11,0,2.22,2.22,0,0,1-2.36-1.37,2,2,0,0,1,2.28-1.58c2.88,0,5.75,0,8.63,0,1.87,0,2.29.6,1.84,2.4a20,20,0,0,1-3.31,7.38c-5,6.56-14.49,8.49-21.31,2.81-4-3.36-6.44-7.71-6.32-12.89a16.27,16.27,0,0,1,12-15.38,14.61,14.61,0,0,1,16.2,5.53L453,409a32.85,32.85,0,0,0-2.72-2.36c-3.31-2.29-10.95-2.15-14.18.25a10.39,10.39,0,0,0-4.18,8.26C431.84,416.8,431.87,418.48,431.91,420.16Zm-14.41-2.41q0,6,0,12a6.44,6.44,0,0,1-.07,1.67,2.1,2.1,0,0,1-2,1.72,2.19,2.19,0,0,1-2.37-1.6,5.35,5.35,0,0,1-.11-1.42q0-12.59,0-25.18a5,5,0,0,1,.08-1.19,2.28,2.28,0,0,1,4.47.11,9.68,9.68,0,0,1,0,1.67Q417.51,411.63,417.5,417.75Zm-41.28,4.5c0,2.72,0,5.44,0,8.15,0,1.85-.8,2.72-2.29,2.72s-2.28-.87-2.29-2.72c0-8.55,0-17.11,0-25.66a2.54,2.54,0,0,1,1.39-2.56c1.06-.53,1.87.09,2.61.67a11.8,11.8,0,0,1,1.65,1.72c4.64,5.5,9.26,11,13.91,16.49a3.73,3.73,0,0,0,1.79,1.39,9.84,9.84,0,0,0,3.55-.12c.37-.07.75-1,.8-1.52.12-1.35,0-2.71,0-4.07q0-5.64,0-11.27a10.31,10.31,0,0,1,0-1.67A2.26,2.26,0,0,1,399.6,402a2.24,2.24,0,0,1,2.2,1.82,5,5,0,0,1,0,1c0,8.87,0,17.74,0,26.73l-2.23,1.65c-1.54-.21-2.38-1.32-3.25-2.35-4.52-5.38-9.12-10.71-13.5-16.21a4.78,4.78,0,0,0-4.69-2c-1.62.17-1.91.38-1.94,2C376.19,417.14,376.22,419.7,376.22,422.25Zm-39.83-11q0-3.12,0-6.24c0-2.32.68-3.08,3-3a67.11,67.11,0,0,1,10.48.78,15.32,15.32,0,0,1,12.36,13.6c.49,4.93-1.62,9.05-5.26,12.32-1.91,1.71-4.25,2.53-6.72,3.38-3.73,1.28-7.4.93-11.1,1-2.1.07-2.71-.6-2.73-2.7s0-4.32,0-6.48,0-4.32,0-6.48S336.4,413.29,336.39,411.21Zm-15.83,6.25q0-6.1,0-12.2a8.6,8.6,0,0,1,0-1.43,2.28,2.28,0,0,1,2.17-1.87,2.24,2.24,0,0,1,2.22,1.79,6.19,6.19,0,0,1,.06,1.19q0,12.56,0,25.12a2.64,2.64,0,0,1-1,2.51c-1.44,1-3.12.5-3.45-1.24a9.1,9.1,0,0,1,0-1.67Q320.56,423.56,320.56,417.46ZM309.2,433a1.91,1.91,0,0,1-2.45-1,6.12,6.12,0,0,1-.56-2c-.62-4.43-1.2-8.86-1.8-13.29-.05-.39-.18-.76-.33-1.39h-4.81l-7.18,17-7.2-17.08H280c-.41,2.88-.8,5.54-1.17,8.21-.34,2.45-.67,4.9-1,7.36a2.38,2.38,0,0,1-2,2.32c-1.44.26-2.09-.34-1.89-1.81.36-2.61.77-5.21,1.18-7.82q1.41-8.87,2.85-17.73c.24-1.5.36-3.07,2.17-3.75,1.58.26,2.24,1.49,2.81,2.86,2,4.73,4,9.4,5.83,14.18.68,1.81,1.79,1.9,3.32,1.94s2.63-.28,3.28-2c1.83-4.77,3.91-9.45,5.84-14.18A4.09,4.09,0,0,1,303.9,402c1.62.43,2,1.74,2.2,3.11q1.5,9.46,3,18.93c.36,2.29.68,4.58,1.1,6.86A1.66,1.66,0,0,1,309.2,433Zm69.12-178.15c.07,1.59,0,3.19,0,4.79,0,2.11.79,2.89,2.89,2.91,3.51,0,7,0,10.54,0,.47,0,.94.08,1.51.13-.34,1.22-1.26.87-1.94.87-5.67,0-11.34,0-17,0-1,0-1.92,0-2.87,0-1.7-.1-2.52-.84-2.54-2.51q-.07-7.66,0-15.33c0-1.64.73-2.35,2.37-2.35,7.26,0,14.53,0,21.8,0a2.71,2.71,0,0,1,1.16.23c1.13.55,1.65,2.92,1.16,5.06a2.43,2.43,0,0,1-2.67,1.88c-3.35,0-6.71.08-10.06,0S378.13,250.48,378.32,254.88Zm-7,13.88c7,0,14.07,0,21.1,0,.14,0,.27.14.41.21l.07.47h-2.31c-3.12,0-6.24,0-9.35,0-2.14,0-2.9.77-2.95,2.86s0,4,0,6c0,2.22.79,2.93,3.1,3,3.6,0,7.2,0,10.79,0,2.68,0,3.17.53,3.19,3.26,0,.4,0,.8,0,1.2-.06,1.92-1,2.92-2.94,2.93q-10.43,0-20.87,0c-2.08,0-2.69-.64-2.71-2.76q-.05-7.19,0-14.39C368.92,269.54,369.55,268.77,371.37,268.76Zm-55.44,2.78c0-2.05.71-2.71,2.74-2.77,1.36,0,2.72,0,4.08,0,1.79.06,2.56.72,2.58,2.42q.08,7.55,0,15.1a2.13,2.13,0,0,1-2.35,2.4c-1.52.07-3,.06-4.55,0-1.73-.07-2.44-.77-2.48-2.53,0-1.24,0-2.48,0-3.72s0-2.48,0-3.72C315.92,276.34,315.88,273.94,315.93,271.55Zm9.33-12.42c-.06.77-.11,1.47-.18,2.16-.14,1.57-.68,2.19-2.18,2.25s-3.19.06-4.79,0a2.18,2.18,0,0,1-2.24-2.3q-.08-7.78,0-15.56c0-1.57.8-2.27,2.42-2.33a34.32,34.32,0,0,1,5.26,0,4.22,4.22,0,0,1,2.67,1.29c4.61,6.09,9.1,12.27,13.94,18.83a50.36,50.36,0,0,1-6.48-.09,3.39,3.39,0,0,1-2.31-1.83C330.3,258.52,328.08,258.6,325.26,259.13Zm17.16,9.48a3.42,3.42,0,0,1,2.4,1.7c1.09,3,3.25,3,6.11,2.51.08-.77.13-1.46.22-2.16a2.18,2.18,0,0,1,2.32-2.2,42.52,42.52,0,0,1,4.31,0A2.38,2.38,0,0,1,360.3,271q.07,7.55,0,15.1c0,1.73-.78,2.47-2.48,2.53s-3.2,0-4.79,0a3.49,3.49,0,0,1-3.13-1.44c-4.51-6.08-9-12.18-13.77-18.71A49.66,49.66,0,0,1,342.42,268.6ZM351,246.1c0-2,.71-2.66,2.78-2.71,1.36,0,2.72,0,4.08,0,1.62.06,2.43.74,2.45,2.3q.09,7.79,0,15.59a2.22,2.22,0,0,1-2.28,2.3,41.92,41.92,0,0,1-4.55,0A2.34,2.34,0,0,1,351,261c-.06-2.56,0-5.12,0-7.67C350.95,250.9,350.91,248.5,351,246.1Zm-87.13,22.36c1.35-.1,2.71-.05,4.07,0,2,0,2.82.73,3.22,2.77a14.27,14.27,0,0,0,3.9,7.53,12,12,0,0,0,5.35,3c2.11.61,2.46,1,2.42,3.19,0,1.45.46,3-.58,4.31-7.59-.47-18.76-8.52-20.63-20.19A12.08,12.08,0,0,1,263.83,268.46Zm-1.91-7.23c2.61-10.44,12.33-17.33,20.36-18.51a9.44,9.44,0,0,1,.32,6.1c-.13.64-1.17,1.33-1.93,1.56-5.28,1.63-8.1,5.37-9.38,10.53-.53,2.14-1.14,2.65-3.26,2.69-1.44,0-2.88,0-4.31,0C261.84,263.53,261.47,263,261.92,261.24Zm20,16.41c-4-1.82-7.82-7.34-7.69-11.38.18-5.57,5-11.35,10.55-12.53a3.77,3.77,0,0,1,1.58.12c5.32,1.26,8.17,4.92,9.68,9.91,1.65,5.42-3.25,12.17-7.09,13.82A8.14,8.14,0,0,1,281.95,277.65Zm6-31.44c0-3.57.43-3.9,3.91-2.72,8.4,2.84,14.14,8.36,16.91,16.86.15.45.26.92.37,1.38a1.34,1.34,0,0,1-1.32,1.82,29.32,29.32,0,0,1-3.1,0v0h-1.2c-2.81,0-3.27-.41-4-3.05-1.26-4.88-4.07-8.38-9-10-2.25-.74-2.61-1.28-2.63-3.62C287.94,246.69,287.94,246.45,287.94,246.21Zm3.37,35.22c4.58-1.71,7.11-5.19,8.26-9.8.7-2.79,1.15-3.18,4.08-3.19h1.2c.8,0,1.6,0,2.39,0,1.77.11,2.25.72,1.79,2.49a23.82,23.82,0,0,1-5,9.67,26,26,0,0,1-13.79,8.54c-1.53.38-2,0-2.19-1.5,0-.47,0-1,0-1.43C288,282.62,288,282.66,291.31,281.43ZM241,254.24c-.15-1.85-.45-2.21-2.34-2.22-4.71,0-9.43-.09-14.14,0-4.4.1-4.86-.61-4.67-4.76,0-.48,0-1,0-1.44a2.32,2.32,0,0,1,2.3-2.28c.55-.06,1.12,0,1.68,0H260c-.45.83-.7,1.38-1,1.89-3.32,5.17-6.68,10.32-10,15.52a5,5,0,0,1-4.92,2.68c-2.28-.15-4.58,0-7.33,0,1.11-1.77,1.94-3.29,3-4.66A6.56,6.56,0,0,0,241,254.24Z" transform="translate(-2.8 -2.99)"/><path class="f" d="M399.77,243.31l-.91,0c0,.18,0,.37,0,.55s0,.3,0,.45l.74,0C399.65,244,399.7,243.65,399.77,243.31Z" transform="translate(-2.8 -2.99)"/><path class="e" d="M402.63,243.44l-.5,0h0c-.08.11,0,.5,0,.64s0,.23,0,.35l.44,0Z" transform="translate(-2.8 -2.99)"/><path class="e" d="M398.86,243.35c-.59,0-1,.08-1,.09l.11,1,.95-.08c0-.15,0-.3,0-.45S398.86,243.54,398.86,243.35Z" transform="translate(-2.8 -2.99)"/><path class="e" d="M398.87,243.9c0,.15,0,.3,0,.45h0Q398.87,244.13,398.87,243.9Z" transform="translate(-2.8 -2.99)"/></svg>