<svg viewBox="0 0 299.25 133.14" xmlns="http://www.w3.org/2000/svg"><g fill="#231f20"><path d="m70.33 74.05h17.41v.37c0 4.26-1.52 10.73-5.42 14.78-3.89 4.05-8.36 4.79-12.52 4.79s-8.73-.68-12.83-4.89c-2.05-2.1-5.15-6.36-5.15-13.36 0-5.73 2.1-10.31 5.05-13.3 4.31-4.47 9.62-5.1 13.78-5.1 2.89 0 6.57.47 9.83 2.63 2.37 1.58 4.42 4.05 5.68 6.26l-7.31 3.94c-.68-1.37-1.73-2.79-3.1-3.79-1.58-1.16-3.37-1.68-5.36-1.68-3.21 0-5.57 1.05-7.26 2.84-1.95 2.05-3 5.05-3 8.31 0 4 1.47 6.57 2.94 8.05 2.05 2.1 4.42 2.73 7.1 2.73 3.47 0 5.31-1.21 6.1-1.89.26-.21 1.84-1.58 2.52-4.15h-8.47v-6.52z"/><path d="m155.33 58.11h-6.73l-8.73 20.98-8.73-20.98h-6.73l-5.16 32.15-12.68-32.15h-7.41l-14.15 35.08h8.41l2.68-6.63h13.25l2.63 6.63h14.89l2.79-20.93 8.78 20.93h2.84l8.78-20.93 2.79 20.93h8.1l-5.63-35.08zm-56.86 22.25 4.36-11.78 4.31 11.78h-8.68z"/><path d="m171.32 58.11v35.08h-8.1v-35.08z"/><path d="m175.22 93.19v-35.08h7.05l19.04 22.61v-22.61h8.1v35.08h-7.05l-19.04-22.72v22.72z"/><path d="m230.02 74.05h17.4v.37c0 4.26-1.52 10.73-5.42 14.78-3.89 4.05-8.36 4.79-12.51 4.79s-8.73-.68-12.83-4.89c-2.05-2.1-5.15-6.36-5.15-13.36 0-5.73 2.1-10.31 5.05-13.3 4.31-4.47 9.62-5.1 13.78-5.1 2.89 0 6.57.47 9.83 2.63 2.37 1.58 4.42 4.05 5.68 6.26l-7.31 3.94c-.68-1.37-1.73-2.79-3.1-3.79-1.58-1.16-3.37-1.68-5.36-1.68-3.21 0-5.57 1.05-7.26 2.84-1.95 2.05-3 5.05-3 8.31 0 4 1.47 6.57 2.94 8.05 2.05 2.1 4.42 2.73 7.1 2.73 3.47 0 5.31-1.21 6.1-1.89.26-.21 1.84-1.58 2.52-4.15h-8.47v-6.52z"/><path d="m23.15 131.51c-2.66 1.35-4.83 1.62-6.63 1.62-5.55 0-9.3-1.9-11.83-4.38-2.71-2.62-4.69-6.59-4.69-11.42s1.99-8.71 4.69-11.33c2.66-2.57 6.55-4.33 11.24-4.33 1.99 0 4.29.41 7.22 1.67v8.03c-1.54-1.62-3.84-3.2-7.04-3.2-2.53 0-4.56.81-6.14 2.35-1.67 1.62-2.84 4.06-2.84 6.95 0 3.11 1.26 5.33 2.62 6.63.63.63 2.8 2.53 6.5 2.53 1.81 0 4.24-.5 6.91-3.11v7.99z"/><path d="m32.28 113.82h12v-11.46h6.95v30.1h-6.95v-12.77h-12v12.77h-6.95v-30.1h6.95z"/><path d="m72.13 126.77h-11.37l-2.3 5.69h-7.22l12.14-30.1h6.36l11.87 30.1h-7.22zm-1.89-5.32-3.7-10.11-3.75 10.11z"/><path d="m80.22 132.46 4.83-30.1h5.78l7.49 18.01 7.49-18.01h5.78l4.83 30.1h-6.95l-2.39-17.96-7.54 17.96h-2.44l-7.54-17.96-2.39 17.96z"/><path d="m128.84 102.36c2.62 0 5.51.36 7.9 2.48 2.57 2.26 2.93 5.24 2.93 7.31 0 3.79-1.44 5.91-2.57 7.09-2.39 2.44-5.55 2.66-7.67 2.66h-4.24v10.56h-6.95v-30.1h10.61zm-3.66 13.85h2.48c.95 0 2.62-.04 3.75-1.13.63-.63 1.13-1.67 1.13-2.98s-.45-2.3-1.13-2.93c-1.04-.99-2.53-1.13-3.88-1.13h-2.35z"/><path d="m147.75 102.36v30.1h-6.95v-30.1z"/><path d="m177.77 106.06c2.84 2.75 4.69 6.72 4.69 11.37 0 4.02-1.44 8.12-4.69 11.28-2.8 2.71-6.59 4.42-11.64 4.42-5.64 0-9.48-2.26-11.74-4.42-2.89-2.71-4.69-6.77-4.69-11.19s1.94-8.71 4.65-11.42c2.03-2.03 5.78-4.42 11.78-4.42 4.69 0 8.62 1.44 11.64 4.38zm-18.28 4.6c-1.31 1.26-2.66 3.48-2.66 6.82 0 2.75.9 4.97 2.75 6.77 1.94 1.85 4.11 2.48 6.45 2.48 3.07 0 5.23-1.13 6.68-2.57 1.17-1.13 2.62-3.25 2.62-6.72 0-3.11-1.26-5.42-2.62-6.77-1.49-1.44-3.88-2.57-6.63-2.57s-4.97.95-6.59 2.57z"/><path d="m184.28 132.46v-30.1h6.05l16.34 19.41v-19.41h6.95v30.1h-6.05l-16.34-19.5v19.5z"/><path d="m232.35 109.71c-2.26-2.03-4.2-2.17-5.05-2.17-.95 0-2.12.14-2.93 1.04-.45.45-.77 1.13-.77 1.9 0 .72.22 1.26.68 1.67.72.68 1.76.95 3.79 1.72l2.26.86c1.31.5 2.93 1.17 4.11 2.3 1.76 1.67 2.21 3.84 2.21 5.6 0 3.11-1.08 5.82-2.66 7.45-2.66 2.8-6.54 3.07-8.53 3.07-2.17 0-4.06-.32-5.96-1.26-1.53-.77-3.29-2.17-4.42-3.29l3.61-4.97c.77.77 1.98 1.81 2.8 2.3 1.17.72 2.39 1.08 3.79 1.08.9 0 2.17-.18 3.16-1.04.59-.5 1.08-1.31 1.08-2.44 0-.99-.41-1.63-1.04-2.17-.81-.68-2.66-1.35-3.52-1.67l-2.48-.86c-1.4-.5-3.02-1.13-4.2-2.39-1.58-1.67-1.81-3.79-1.81-5.24 0-2.66.81-4.92 2.62-6.77 2.12-2.17 4.65-2.75 7.45-2.75 2.07 0 5.42.36 8.93 2.98l-3.11 5.05z"/><path d="m245.22 113.82h12v-11.46h6.95v30.1h-6.95v-12.77h-12v12.77h-6.95v-30.1h6.95z"/><path d="m274.47 102.36v30.1h-6.95v-30.1z"/><path d="m288.42 102.36c2.62 0 5.51.36 7.9 2.48 2.57 2.26 2.93 5.24 2.93 7.31 0 3.79-1.44 5.91-2.57 7.09-2.39 2.44-5.55 2.66-7.67 2.66h-4.24v10.56h-6.95v-30.1h10.61zm-3.66 13.85h2.48c.95 0 2.62-.04 3.75-1.13.63-.63 1.13-1.67 1.13-2.98s-.45-2.3-1.13-2.93c-1.04-.99-2.53-1.13-3.88-1.13h-2.35z"/><path d="m36.78 29.13v-8.99h22.96c.02.29.03.62.04.97 0 .35.01.87.01 1.55 0 7.38-1.95 13.11-5.84 17.18-3.9 4.07-9.38 6.11-16.45 6.11-3.48 0-6.57-.52-9.27-1.57-2.71-1.04-5.12-2.64-7.25-4.79-2.03-2.05-3.61-4.48-4.73-7.28s-1.68-5.73-1.68-8.8.55-6.14 1.64-8.83c1.09-2.68 2.72-5.1 4.89-7.25 2.15-2.09 4.61-3.67 7.39-4.74s5.78-1.61 9.01-1.61c4.2 0 7.91.83 11.14 2.49s5.95 4.13 8.16 7.41l-10.13 4.86c-1.21-1.66-2.57-2.89-4.08-3.7s-3.21-1.22-5.08-1.22c-3.5 0-6.25 1.17-8.26 3.5s-3.02 5.52-3.02 9.56 1 7.29 3.02 9.64c2.01 2.34 4.76 3.51 8.26 3.51 2.97 0 5.44-.73 7.42-2.18s3.14-3.39 3.47-5.81h-11.63z"/><path d="m62.12 6.53h10.57v38.4h-10.57z"/><path d="m94.78 30.78v-8.05h20.56c.02.26.03.55.04.87 0 .31.01.78.01 1.39 0 6.61-1.74 11.74-5.23 15.38-3.49 3.65-8.4 5.47-14.73 5.47-3.11 0-5.88-.47-8.3-1.4s-4.59-2.36-6.49-4.29c-1.82-1.84-3.23-4.01-4.23-6.52-1.01-2.51-1.51-5.14-1.51-7.88s.49-5.5 1.47-7.91c.98-2.4 2.44-4.57 4.38-6.49 1.92-1.87 4.13-3.29 6.62-4.25s5.18-1.44 8.06-1.44c3.76 0 7.09.74 9.98 2.23s5.33 3.7 7.3 6.63l-9.08 4.35c-1.08-1.49-2.3-2.59-3.66-3.32-1.35-.73-2.87-1.09-4.55-1.09-3.13 0-5.6 1.04-7.4 3.13s-2.7 4.94-2.7 8.56.9 6.53 2.7 8.63 4.27 3.15 7.4 3.15c2.66 0 4.87-.65 6.65-1.95 1.77-1.3 2.81-3.04 3.11-5.21h-10.41z"/></g><path d="m229.88 25.14c-.02-.75-.06-1.58-.13-2.48-.09-1.24-.25-2.67-.46-4.27.75 1.64 1.45 3.07 2.08 4.29.64 1.22 1.11 2.03 1.4 2.43l.03.04h10.75l-13.67-18.61h-10.1v18.61h10.09z" fill="#fbb042"/><path d="m247.28 6.53h10.04v18.61h-10.04z" fill="#fbb042"/><path d="m219.8 26.44h10.1v18.48h-10.1z" fill="#fbb042"/><path d="m247.3 26.44c.02.72.06 1.5.13 2.35.1 1.24.25 2.66.46 4.25-.77-1.68-1.47-3.13-2.11-4.34-.56-1.07-.98-1.82-1.27-2.26h-10.74l13.52 18.48h10.04v-18.48z" fill="#fbb042"/><path d="m271.55 29.84h12.57v-3.4h-22.77v18.48h23.53v-8.6h-13.33z" fill="#fbb042"/><path d="m261.35 6.52v18.62h22.77v-3.53h-12.57v-6.67h13.33v-8.42z" fill="#fbb042"/><path d="m207.31 26.45c-.12 2.96-1.05 5.44-2.82 7.43-1.76 1.98-3.95 3.04-6.57 3.18v8.87c2.49-.07 4.89-.58 7.21-1.52 2.52-1.02 4.76-2.48 6.71-4.37 1.94-1.9 3.42-4.06 4.43-6.48.93-2.22 1.43-4.59 1.51-7.11z" fill="#fbb042"/><path d="m204.45 17.75c1.79 2 2.74 4.47 2.86 7.4h10.47c-.07-2.5-.58-4.87-1.52-7.11-1.02-2.43-2.5-4.59-4.42-6.48s-4.15-3.34-6.68-4.37c-2.33-.95-4.75-1.45-7.25-1.52v8.87c2.57.15 4.75 1.22 6.53 3.21" fill="#fbb042"/><path d="m155.97 25.15h12.74l11.85-18.41h-36.08v9.29h17.36z" fill="#fbb042"/><path d="m167.87 26.45h-12.74l-6.69 10.38 2.8 8.09h-8.01l-3.03 4.7h37.9v-9.34h-19.13z" fill="#fbb042"/><path d="m190.05 33.91c-1.74-1.97-2.67-4.46-2.78-7.45h-10.5c.07 2.49.58 4.85 1.52 7.09 1.02 2.43 2.52 4.6 4.5 6.51 1.9 1.89 4.11 3.34 6.62 4.37 2.3.94 4.71 1.44 7.21 1.52v-8.87c-2.65-.15-4.84-1.2-6.56-3.15" fill="#fbb042"/><path d="m189.41 7.19c-2.51 1.02-4.72 2.48-6.62 4.37-1.97 1.91-3.48 4.07-4.5 6.49-.94 2.23-1.44 4.6-1.52 7.1h10.5c.12-2.94 1.05-5.42 2.82-7.41 1.75-1.97 3.92-3.03 6.52-3.19v-8.87c-2.5.08-4.9.58-7.21 1.52" fill="#fbb042"/><path d="m289.82 9.6h.33c.38 0 .69-.13.69-.44 0-.27-.2-.45-.64-.45-.18 0-.31.02-.38.04zm-.02 1.68h-.69v-2.98c.27-.06.65-.09 1.14-.09.56 0 .82.09 1.03.22.16.13.29.36.29.65 0 .33-.25.58-.62.69v.04c.29.11.45.33.54.72.09.45.15.64.22.75h-.74c-.09-.11-.15-.38-.24-.73-.06-.33-.24-.47-.62-.47h-.33v1.2zm-1.83-1.56c0 1.33.98 2.38 2.32 2.38s2.27-1.05 2.27-2.36-.96-2.4-2.29-2.4-2.3 1.07-2.3 2.38m5.35-0c0 1.69-1.33 3.01-3.05 3.01s-3.07-1.33-3.07-3.01 1.36-2.98 3.07-2.98 3.05 1.33 3.05 2.98" fill="#fbb042"/><path d="m151.24 44.92-13.27-38.4h-13.11l-13.25 38.4h10.41l1.99-6.87h14.87l1.94 6.87h10.41s0 0 0 0zm-24.97-14.35 3.86-12.67c.23-.79.45-1.61.67-2.47s.44-1.76.67-2.7c.33 1.35.6 2.45.81 3.3.21.86.38 1.48.5 1.86l3.91 12.67h-10.41z" fill="#231f20"/></svg>