<svg xmlns="http://www.w3.org/2000/svg" xmlns:xlink="http://www.w3.org/1999/xlink" viewBox="0 0 589.67 292.94"><defs><style>.a{fill:none;}.b{fill:#fbb040;}.c{fill:#fff;}.d{fill:#58595b;}.e{clip-path:url(#a);}.f{fill:#fbb041;}.g{fill:#595a5c;}</style><clipPath id="a" transform="translate(0 0)"><rect class="a" width="292.52" height="292.94"/></clipPath></defs><title>gigazone-gaming-championship-X-on-dark</title><polygon class="b" points="328.57 119.18 341.31 119.18 353.16 100.78 317.07 100.78 317.07 110.06 334.44 110.06 328.57 119.18"/><polygon class="b" points="340.47 120.48 327.73 120.48 321.04 130.86 315.83 138.95 312.8 143.66 350.7 143.66 350.7 134.31 331.57 134.31 340.47 120.48"/><path class="c" d="M209.37,123.17v-9h23q0,.44,0,1t0,1.55q0,11.07-5.84,17.18T210.11,140a25.6,25.6,0,0,1-9.27-1.57,20.53,20.53,0,0,1-7.25-4.79,21.65,21.65,0,0,1-4.73-7.28,23.43,23.43,0,0,1-1.68-8.8,23.2,23.2,0,0,1,1.64-8.83,21.7,21.7,0,0,1,12.29-12,24.81,24.81,0,0,1,9-1.61,24.06,24.06,0,0,1,11.14,2.49,21.78,21.78,0,0,1,8.16,7.41l-10.13,4.86a12.32,12.32,0,0,0-4.09-3.7,10.6,10.6,0,0,0-5.08-1.22,10.33,10.33,0,0,0-8.26,3.5q-3,3.5-3,9.56t3,9.64a10.31,10.31,0,0,0,8.26,3.52,12.21,12.21,0,0,0,7.42-2.18,8.35,8.35,0,0,0,3.47-5.81Z" transform="translate(0 0)"/><path class="c" d="M234.71,139v-38.4h10.57V139Z" transform="translate(0 0)"/><path class="c" d="M267.38,124.82v-8.05h20.56q0,.39,0,.86t0,1.39q0,9.91-5.23,15.38T268,139.87a22.91,22.91,0,0,1-8.3-1.4,18.38,18.38,0,0,1-6.49-4.29,19.39,19.39,0,0,1-4.24-6.52,21.68,21.68,0,0,1,0-15.79,19.43,19.43,0,0,1,11-10.74A22.21,22.21,0,0,1,268,99.69a21.55,21.55,0,0,1,10,2.23,19.51,19.51,0,0,1,7.3,6.64l-9.08,4.35a11,11,0,0,0-3.66-3.32A9.48,9.48,0,0,0,268,108.5a9.25,9.25,0,0,0-7.4,3.13q-2.7,3.13-2.7,8.56t2.7,8.63A9.24,9.24,0,0,0,268,132a10.93,10.93,0,0,0,6.65-2,7.48,7.48,0,0,0,3.11-5.21Z" transform="translate(0 0)"/><path class="a" d="M304.87,110.08l-.81-3.3q-.34,1.42-.67,2.7t-.67,2.47l-3.86,12.67h10.41l-3.91-12.67Q305.19,111.36,304.87,110.08Z" transform="translate(0 0)"/><path class="c" d="M310.57,100.56H297.45L284.21,139h10.41l2-6.87h14.87l1.94,6.87h2.4l5.21-8.09Zm-11.7,24.05,3.86-12.67q.34-1.18.67-2.47t.67-2.7l.81,3.3q.32,1.29.5,1.86l3.91,12.67Z" transform="translate(0 0)"/><polygon class="d" points="321.04 130.86 315.83 138.95 323.84 138.95 321.04 130.86"/><path class="b" d="M402.49,119.17c0-.75-.06-1.58-.13-2.48q-.14-1.86-.46-4.27,1.13,2.46,2.08,4.29a22,22,0,0,0,1.4,2.43l0,0h10.75L402.5,100.56H392.4v18.61Z" transform="translate(0 0)"/><rect class="b" x="419.89" y="100.56" width="10.05" height="18.61"/><rect class="b" x="392.4" y="120.47" width="10.1" height="18.48"/><path class="b" d="M419.91,120.47c0,.72.06,1.5.13,2.35q.14,1.86.46,4.25-1.15-2.52-2.11-4.34-.84-1.6-1.27-2.26H406.37L419.89,139h10V120.47Z" transform="translate(0 0)"/><polygon class="b" points="444.16 123.87 456.73 123.87 456.73 120.47 433.96 120.47 433.96 138.95 457.49 138.95 457.49 130.35 444.16 130.35 444.16 123.87"/><polygon class="b" points="433.96 100.56 433.96 119.17 456.73 119.17 456.73 115.64 444.16 115.64 444.16 108.97 457.49 108.97 457.49 100.56 433.96 100.56"/><path class="b" d="M379.92,120.48a11.51,11.51,0,0,1-2.82,7.43,9.15,9.15,0,0,1-6.57,3.18V140a20.63,20.63,0,0,0,7.21-1.52,21,21,0,0,0,6.71-4.37,19.43,19.43,0,0,0,5.94-13.59Z" transform="translate(0 0)"/><path class="b" d="M377.06,111.78a11.46,11.46,0,0,1,2.86,7.4h10.47a19.59,19.59,0,0,0-5.94-13.59,20.32,20.32,0,0,0-6.67-4.37,20.79,20.79,0,0,0-7.25-1.52v8.87A9.19,9.19,0,0,1,377.06,111.78Z" transform="translate(0 0)"/><polygon class="b" points="328.57 119.18 341.31 119.18 353.16 100.78 317.07 100.78 317.07 110.06 334.44 110.06 328.57 119.18"/><polygon class="b" points="340.47 120.48 327.73 120.48 321.04 130.86 323.84 138.95 315.83 138.95 312.8 143.66 350.7 143.66 350.7 134.31 331.57 134.31 340.47 120.48"/><path class="b" d="M362.66,127.94a11.56,11.56,0,0,1-2.78-7.45h-10.5a19.36,19.36,0,0,0,6,13.59,20.09,20.09,0,0,0,6.62,4.37,20.64,20.64,0,0,0,7.21,1.52v-8.87A9.12,9.12,0,0,1,362.66,127.94Z" transform="translate(0 0)"/><path class="b" d="M362,101.23a20.09,20.09,0,0,0-6.62,4.37,19.3,19.3,0,0,0-6,13.59h10.5a11.52,11.52,0,0,1,2.82-7.41,9.13,9.13,0,0,1,6.52-3.19V99.71A20.6,20.6,0,0,0,362,101.23Z" transform="translate(0 0)"/><path class="b" d="M460.7,105.34v-3.65h-1.07v-1.13h3.44v1.13H462v3.65Z" transform="translate(0 0)"/><path class="b" d="M469.2,105.34H468l-.28-2.07c0-.15,0-.31-.05-.49s0-.37,0-.58a5.79,5.79,0,0,1-.18.76l0,.14-.65,2.24h-.87l-.65-2.24,0-.14a5.32,5.32,0,0,1-.18-.75c0,.18,0,.36,0,.54s0,.35-.06.53l-.28,2.07h-1.21l.74-4.78h1.29l.72,2.47,0,.08a3.23,3.23,0,0,1,.13.57,2.38,2.38,0,0,1,0-.28q0-.16.1-.37l.73-2.46h1.29Z" transform="translate(0 0)"/><path class="c" d="M235,168.08h17.41v.37c0,4.26-1.52,10.73-5.42,14.78S238.67,188,234.51,188s-8.73-.68-12.83-4.89a20,20,0,0,1-.11-26.66c4.31-4.47,9.62-5.1,13.78-5.1a17.68,17.68,0,0,1,9.83,2.63,19.4,19.4,0,0,1,5.68,6.26l-7.31,3.94a10.62,10.62,0,0,0-3.1-3.79,8.8,8.8,0,0,0-5.36-1.68,9.49,9.49,0,0,0-7.26,2.84,12,12,0,0,0-3,8.31,11,11,0,0,0,2.94,8,9.22,9.22,0,0,0,7.1,2.73,9,9,0,0,0,6.1-1.89,8.19,8.19,0,0,0,2.52-4.15H235Z" transform="translate(0 0)"/><path class="c" d="M274.07,180.6H260.81l-2.68,6.63h-8.41l14.15-35.08h7.41l13.83,35.08H276.7Zm-2.21-6.2-4.31-11.78-4.36,11.78Z" transform="translate(0 0)"/><path class="c" d="M283.49,187.22l5.63-35.08h6.73l8.73,21,8.73-21H320l5.63,35.08h-8.1l-2.79-20.93L306,187.22h-2.84l-8.78-20.93-2.79,20.93Z" transform="translate(0 0)"/><path class="c" d="M336,152.15v35.08h-8.1V152.15Z" transform="translate(0 0)"/><path class="c" d="M339.93,187.22V152.15h7l19,22.61V152.15h8.1v35.08h-7l-19-22.72v22.72Z" transform="translate(0 0)"/><path class="c" d="M394.73,168.08h17.4v.37c0,4.26-1.52,10.73-5.42,14.78S398.36,188,394.2,188s-8.73-.68-12.83-4.89a20,20,0,0,1-.1-26.66c4.31-4.47,9.62-5.1,13.78-5.1a17.67,17.67,0,0,1,9.83,2.63,19.39,19.39,0,0,1,5.68,6.26l-7.31,3.94a10.62,10.62,0,0,0-3.1-3.79,8.8,8.8,0,0,0-5.36-1.68,9.49,9.49,0,0,0-7.26,2.84,12,12,0,0,0-3,8.31,11,11,0,0,0,2.94,8,9.22,9.22,0,0,0,7.1,2.73,9,9,0,0,0,6.1-1.89,8.2,8.2,0,0,0,2.52-4.15h-8.47Z" transform="translate(0 0)"/><path class="c" d="M268,231.33a16.31,16.31,0,0,1-7.73,1.89c-6.47,0-10.83-2.21-13.78-5.1a18.79,18.79,0,0,1,0-26.5,18.62,18.62,0,0,1,13.09-5,20.89,20.89,0,0,1,8.41,1.95v9.36a11.12,11.12,0,0,0-8.2-3.73,9.84,9.84,0,0,0-7.15,2.74,11.23,11.23,0,0,0-3.31,8.1,10.26,10.26,0,0,0,10.62,10.68c2.1,0,4.94-.58,8-3.63Z" transform="translate(0 0)"/><path class="c" d="M278.6,210.71h14V197.36h8.1v35.08h-8.1V217.55h-14v14.88h-8.1V197.36h8.1Z" transform="translate(0 0)"/><path class="c" d="M325,225.81H311.79l-2.68,6.63H300.7l14.15-35.08h7.41l13.83,35.08h-8.41Zm-2.21-6.21-4.31-11.78-4.36,11.78Z" transform="translate(0 0)"/><path class="c" d="M334.47,232.43l5.63-35.08h6.73l8.73,21,8.73-21H371l5.63,35.08h-8.1l-2.79-20.93L357,232.43h-2.84l-8.78-20.93-2.79,20.93Z" transform="translate(0 0)"/><path class="c" d="M391.11,197.36c3.05,0,6.42.42,9.2,2.89a10.79,10.79,0,0,1,3.42,8.52,11.28,11.28,0,0,1-3,8.26c-2.79,2.84-6.47,3.1-8.94,3.1h-4.94v12.31h-8.1V197.36Zm-4.26,16.14h2.89a6.2,6.2,0,0,0,4.36-1.31,4.88,4.88,0,0,0,1.32-3.47,4.63,4.63,0,0,0-1.32-3.42,6.31,6.31,0,0,0-4.52-1.31h-2.73Z" transform="translate(0 0)"/><path class="c" d="M413.15,197.36v35.08h-8.1V197.36Z" transform="translate(0 0)"/><path class="c" d="M448.12,201.67a18.66,18.66,0,0,1,0,26.4,18.73,18.73,0,0,1-13.57,5.15,19.31,19.31,0,0,1-13.67-5.15,17.91,17.91,0,0,1-5.47-13,19.58,19.58,0,0,1,5.42-13.3c2.37-2.37,6.73-5.15,13.73-5.15C440,196.57,444.6,198.25,448.12,201.67ZM426.83,207a10.74,10.74,0,0,0-3.1,7.94,10.47,10.47,0,0,0,3.21,7.89,10.31,10.31,0,0,0,7.52,2.89,10.62,10.62,0,0,0,7.78-3,10.51,10.51,0,0,0,3-7.84,11.05,11.05,0,0,0-3-7.89,11.25,11.25,0,0,0-7.73-3A10.76,10.76,0,0,0,426.83,207Z" transform="translate(0 0)"/><path class="c" d="M455.71,232.43V197.36h7l19,22.61V197.36h8.1v35.08h-7l-19-22.72v22.72Z" transform="translate(0 0)"/><path class="c" d="M511.72,205.93a8.54,8.54,0,0,0-5.89-2.52,4.38,4.38,0,0,0-3.42,1.21,3.13,3.13,0,0,0-.89,2.21,2.46,2.46,0,0,0,.79,1.95c.84.79,2.05,1.11,4.42,2l2.63,1a14.07,14.07,0,0,1,4.79,2.68,8.75,8.75,0,0,1,2.58,6.52,12.57,12.57,0,0,1-3.1,8.68c-3.1,3.26-7.62,3.58-9.94,3.58a14.87,14.87,0,0,1-6.94-1.47,22.31,22.31,0,0,1-5.15-3.84l4.21-5.79a21.41,21.41,0,0,0,3.26,2.68,8.14,8.14,0,0,0,4.42,1.26,5.6,5.6,0,0,0,3.68-1.21,3.63,3.63,0,0,0,1.26-2.84,3.09,3.09,0,0,0-1.21-2.52,17.1,17.1,0,0,0-4.1-1.95l-2.89-1a11.82,11.82,0,0,1-4.89-2.79,8.62,8.62,0,0,1-2.1-6.1,10.78,10.78,0,0,1,3-7.89c2.47-2.52,5.42-3.21,8.68-3.21A17,17,0,0,1,515.35,200Z" transform="translate(0 0)"/><path class="c" d="M526.71,210.71h14V197.36h8.1v35.08h-8.1V217.55h-14v14.88h-8.1V197.36h8.1Z" transform="translate(0 0)"/><path class="c" d="M560.8,197.36v35.08h-8.1V197.36Z" transform="translate(0 0)"/><path class="c" d="M577,197.36c3.05,0,6.42.42,9.2,2.89a10.78,10.78,0,0,1,3.42,8.52,11.28,11.28,0,0,1-3,8.26c-2.79,2.84-6.47,3.1-8.94,3.1h-4.94v12.31h-8.1V197.36Zm-4.26,16.14h2.89a6.21,6.21,0,0,0,4.37-1.31,4.89,4.89,0,0,0,1.31-3.47A4.63,4.63,0,0,0,580,205.3a6.32,6.32,0,0,0-4.52-1.31h-2.74Z" transform="translate(0 0)"/><g class="e"><polygon class="f" points="152 235.81 152.02 235.85 228.78 235.85 190.44 171.3 152 235.81"/><polygon class="f" points="11.47 0 113.51 171.23 113.56 171.3 152 106.59 122.59 57.09 66.9 57.09 61.18 66.7 21.51 0 11.47 0"/><polygon class="g" points="100.89 0 97.2 6.19 127.42 57.09 181.4 57.09 154.4 102.55 166.31 122.62 226.86 20.79 253.45 65.55 292.52 0 100.89 0"/><path class="g" d="M109.44,178.24l-1.84,3.1Z" transform="translate(0 0)"/><polygon class="c" points="66.9 57.09 122.59 57.09 94.78 10.26 66.9 57.09"/><polygon class="c" points="152 106.59 142.04 123.36 113.56 171.3 109.92 177.43 142.01 231.7 145.78 225.37 152 235.81 190.44 171.3 152 106.59"/><path class="g" d="M142,231.7l18.21,30.65L142,292.94H262.69l-33.91-57.09H152l0,0-6.22-10.44ZM0,0,107.59,181.34,41.3,292.94H142L123.8,262.32,142,231.7l-32.09-54.27L4.55,0Z" transform="translate(0 0)"/></g></svg>