<svg xmlns="http://www.w3.org/2000/svg" viewBox="0 0 559.01 561.22"><defs><style>.a{fill:#fff;}</style></defs><title>gigazone-gaming-black</title><path d="M392.32,0,276.7,194.63H51.07L0,280.6,166.68,561.22,282.31,366.58H507.94l51.07-86Zm-237,366.58-3.71,6.24-27.42-46.11,27.42-46.1,27.42,46.06Zm252-86-1.86-3.13-25.55-42.93,23.71-39.92,3.71-6.24,27.42,46.11Z" transform="translate(0 0)"/><polygon class="a" points="257.94 380.45 191.06 380.45 224.55 436.65 257.94 380.45"/><polygon class="a" points="423.49 188.4 446.69 227.42 450.91 234.5 446.69 241.59 431.73 266.74 534.64 266.75 455.82 134.04 423.49 188.4"/><polygon class="a" points="108.1 326.71 112.31 319.63 127.27 294.47 24.36 294.47 103.19 427.17 135.51 372.82 112.31 333.8 108.1 326.71"/><polygon class="a" points="301.06 180.77 367.94 180.77 334.45 124.56 301.06 180.77"/><path class="a" d="M480.23,352.63c6.75,0,14-1.2,20.32-7.77s8.8-17.08,8.8-24v-.6H481.08v10.59h13.75a13.31,13.31,0,0,1-4.1,6.75c-1.28,1.11-4.27,3.07-9.91,3.07-4.36,0-8.2-1-11.53-4.44-2.39-2.39-4.78-6.58-4.78-13.07a19.5,19.5,0,0,1,4.87-13.49c2.73-2.9,6.57-4.61,11.79-4.61a14.29,14.29,0,0,1,8.71,2.73,17.24,17.24,0,0,1,5,6.15l11.87-6.4a31.49,31.49,0,0,0-9.22-10.16c-5.3-3.5-11.27-4.27-16-4.27-6.75,0-15.37,1-22.37,8.28-4.78,4.87-8.2,12.3-8.2,21.6,0,11.36,5,18.27,8.37,21.69C466.06,351.52,473.4,352.63,480.23,352.63Z" transform="translate(0 0)"/><polygon class="a" points="392.08 294.39 392.08 351.35 405.24 351.35 405.24 314.46 436.15 351.35 447.59 351.35 447.59 294.39 434.44 294.39 434.44 331.11 403.53 294.39 392.08 294.39"/><path class="a" d="M348.85,294.39l-14.18,34.07L320.5,294.39H309.57l-8.38,52.21-20.59-52.21h-12l-23,57h13.66l4.35-10.76h21.52l4.27,10.76h24.18l4.53-34,14.26,34H337l14.26-34,4.52,34h13.15l-9.14-57Zm-81.4,36.12,7.09-19.13,7,19.13Z" transform="translate(0 0)"/><path class="a" d="M250,320.26H221.75v10.59H235.5a13.3,13.3,0,0,1-4.1,6.75c-1.28,1.11-4.27,3.07-9.91,3.07-4.36,0-8.2-1-11.53-4.44-2.39-2.39-4.78-6.58-4.78-13.07a19.51,19.51,0,0,1,4.87-13.49c2.73-2.9,6.58-4.61,11.79-4.61a14.29,14.29,0,0,1,8.71,2.73,17.24,17.24,0,0,1,5,6.15l11.87-6.4a31.5,31.5,0,0,0-9.22-10.16c-5.3-3.5-11.27-4.27-16-4.27-6.75,0-15.37,1-22.38,8.28-4.78,4.87-8.2,12.3-8.2,21.6,0,11.36,5,18.27,8.37,21.69,6.66,6.83,14,7.94,20.84,7.94s14-1.2,20.33-7.77,8.79-17.08,8.79-24Z" transform="translate(0 0)"/><rect class="a" x="372.61" y="294.39" width="13.15" height="56.96"/><path class="a" d="M68.59,245.29v-10.7H95.91c0,.35,0,.73.05,1.15s0,1,0,1.85q0,13.17-7,20.44t-19.57,7.26a30.45,30.45,0,0,1-11-1.86,24.44,24.44,0,0,1-8.62-5.7,25.74,25.74,0,0,1-5.63-8.66,27.88,27.88,0,0,1-2-10.47,27.6,27.6,0,0,1,2-10.51,25.81,25.81,0,0,1,14.62-14.27,29.51,29.51,0,0,1,10.71-1.92,28.62,28.62,0,0,1,13.26,3,25.91,25.91,0,0,1,9.7,8.81l-12.06,5.78a14.65,14.65,0,0,0-4.86-4.41,12.61,12.61,0,0,0-6-1.45,12.29,12.29,0,0,0-9.83,4.16Q56,231.94,56,239.16t3.59,11.46a12.27,12.27,0,0,0,9.83,4.18,14.53,14.53,0,0,0,8.83-2.6,9.94,9.94,0,0,0,4.13-6.92Z" transform="translate(0 0)"/><polygon class="a" points="98.74 264.07 98.74 218.39 111.31 218.39 111.31 264.07 98.74 264.07 98.74 264.07"/><path class="a" d="M137.59,247.25v-9.58h24.46q0,.47,0,1t0,1.65q0,11.79-6.23,18.3t-17.52,6.51a27.26,27.26,0,0,1-9.88-1.67,21.87,21.87,0,0,1-7.72-5.1,23.1,23.1,0,0,1-5-7.75,25.8,25.8,0,0,1,0-18.78,23.12,23.12,0,0,1,13.09-12.78,26.43,26.43,0,0,1,9.6-1.72A25.62,25.62,0,0,1,150.24,220a23.19,23.19,0,0,1,8.69,7.89l-10.8,5.18a13.13,13.13,0,0,0-4.35-3.95,11.28,11.28,0,0,0-5.41-1.29,11,11,0,0,0-8.8,3.73q-3.21,3.73-3.21,10.19T129.57,252a11,11,0,0,0,8.8,3.74,13,13,0,0,0,7.91-2.32,8.9,8.9,0,0,0,3.7-6.19Z" transform="translate(0 0)"/><path class="a" d="M175.06,247l4.59-15.07q.4-1.4.8-2.93t.8-3.21l1,3.93q.38,1.53.59,2.22L187.44,247ZM189,218.39h-15.6l-15.76,45.68H170l2.37-8.17h17.69l2.31,8.17h2.86l6.2-9.63L189,218.39Z" transform="translate(0 0)"/><polygon points="201.43 254.44 195.23 264.07 204.76 264.07 201.43 254.44 201.43 254.44"/><path class="a" d="M298.32,240.53q0-1.34-.16-3-.17-2.22-.55-5.09,1.34,2.93,2.48,5.1a26.13,26.13,0,0,0,1.67,2.89l0,0H314.6l-16.26-22.14h-12v22.14Z" transform="translate(0 0)"/><polygon class="a" points="330.98 240.53 330.98 218.39 319.03 218.39 319.03 240.53 330.98 240.53 330.98 240.53"/><polygon class="a" points="286.33 242.08 286.33 264.07 298.34 264.07 298.34 242.08 286.33 242.08 286.33 242.08"/><path class="a" d="M319,242.08c0,.86.07,1.79.15,2.8q.17,2.22.55,5.06-1.37-3-2.51-5.16-1-1.91-1.51-2.69H302.94l16.09,22H331v-22Z" transform="translate(0 0)"/><polygon class="a" points="347.9 246.13 362.85 246.13 362.85 242.08 335.76 242.08 335.76 264.07 363.75 264.07 363.75 253.84 347.9 253.84 347.9 246.13 347.9 246.13"/><polygon class="a" points="335.76 218.39 335.76 240.53 362.85 240.53 362.85 236.33 347.9 236.33 347.9 228.41 363.75 228.41 363.75 218.39 335.76 218.39 335.76 218.39"/><path class="a" d="M271.47,242.1a13.69,13.69,0,0,1-3.36,8.84,10.88,10.88,0,0,1-7.82,3.78v10.55a24.57,24.57,0,0,0,8.58-1.81,24.92,24.92,0,0,0,8-5.2,23.13,23.13,0,0,0,7.06-16.17Z" transform="translate(0 0)"/><path class="a" d="M268.07,231.74a13.63,13.63,0,0,1,3.4,8.8h12.46a23.3,23.3,0,0,0-7.06-16.17,24.15,24.15,0,0,0-7.94-5.19,24.72,24.72,0,0,0-8.63-1.81v10.55a10.93,10.93,0,0,1,7.77,3.81Z" transform="translate(0 0)"/><polygon class="a" points="210.38 240.55 225.55 240.55 239.64 218.65 196.71 218.65 196.71 229.7 217.38 229.7 210.38 240.55 210.38 240.55"/><polygon class="a" points="224.55 242.1 209.39 242.1 201.43 254.44 204.76 264.07 195.23 264.07 191.63 269.66 236.71 269.66 236.71 258.55 213.96 258.55 224.55 242.1 224.55 242.1"/><path class="a" d="M250.94,251a13.74,13.74,0,0,1-3.31-8.87H235.14a23,23,0,0,0,7.16,16.17,23.9,23.9,0,0,0,7.88,5.2,24.55,24.55,0,0,0,8.57,1.81V254.71a10.84,10.84,0,0,1-7.81-3.75Z" transform="translate(0 0)"/><path class="a" d="M250.18,219.19a23.87,23.87,0,0,0-7.88,5.19,23,23,0,0,0-7.16,16.17h12.49a13.71,13.71,0,0,1,3.36-8.82,10.87,10.87,0,0,1,7.76-3.8V217.38a24.53,24.53,0,0,0-8.57,1.81Z" transform="translate(0 0)"/><path class="a" d="M369.63,222H370c.45,0,.82-.15.82-.52s-.24-.54-.76-.54a2,2,0,0,0-.45,0v1Zm0,2h-.82v-3.54a7.13,7.13,0,0,1,1.36-.11,2.21,2.21,0,0,1,1.23.26,1,1,0,0,1,.35.78.91.91,0,0,1-.73.82v0a1,1,0,0,1,.65.86,2.69,2.69,0,0,0,.26.89H371a3,3,0,0,1-.28-.86c-.07-.39-.28-.56-.74-.56h-.39v1.42Zm-2.18-1.86a2.74,2.74,0,0,0,2.76,2.83,2.71,2.71,0,0,0,2.7-2.81,2.73,2.73,0,1,0-5.46,0Zm6.37,0a3.64,3.64,0,1,1-3.63-3.54,3.56,3.56,0,0,1,3.63,3.54Z" transform="translate(0 0)"/></svg>