<svg xmlns="http://www.w3.org/2000/svg" viewBox="0 0 559.01 561.22"><defs><style>.a{fill:#fff;}</style></defs><title>gigazone-gaming-black</title><path d="M392.32,0,276.7,194.63H51.07L0,280.6,166.68,561.22,282.31,366.58H507.94l51.07-86Zm-237,366.58-3.71,6.24-27.42-46.11,27.42-46.1,27.42,46.06Zm252-86-1.86-3.13-25.55-42.93,23.71-39.92,3.71-6.24,27.42,46.11Z" transform="translate(0 0)"/><polygon class="a" points="257.94 380.45 191.06 380.45 224.55 436.65 257.94 380.45"/><polygon class="a" points="423.49 188.4 446.69 227.42 450.91 234.5 446.69 241.59 431.73 266.74 534.64 266.75 455.82 134.04 423.49 188.4"/><polygon class="a" points="108.1 326.71 112.31 319.63 127.27 294.47 24.36 294.47 103.19 427.17 135.51 372.82 112.31 333.8 108.1 326.71"/><polygon class="a" points="301.06 180.77 367.94 180.77 334.45 124.56 301.06 180.77"/><path class="a" d="M195.33,264.07l6.2-9.62-12.45-36H173.48l-15.75,45.65h12.38l2.37-8.17h17.68l2.31,8.17ZM175.17,247,179.75,232q.4-1.4.8-2.93t.79-3.21l1,3.93q.38,1.53.59,2.22L187.55,247Z" transform="translate(0 0)"/><path class="a" d="M480.23,352.63c6.75,0,14-1.2,20.32-7.77s8.8-17.08,8.8-24v-.6H481.08v10.59h13.75a13.31,13.31,0,0,1-4.1,6.75c-1.28,1.11-4.27,3.07-9.91,3.07-4.36,0-8.2-1-11.53-4.44-2.39-2.39-4.78-6.58-4.78-13.07a19.5,19.5,0,0,1,4.87-13.49c2.73-2.9,6.57-4.61,11.79-4.61a14.29,14.29,0,0,1,8.71,2.73,17.24,17.24,0,0,1,5,6.15l11.87-6.4a31.49,31.49,0,0,0-9.22-10.16c-5.3-3.5-11.27-4.27-16-4.27-6.75,0-15.37,1-22.37,8.28-4.78,4.87-8.2,12.3-8.2,21.6,0,11.36,5,18.27,8.37,21.69C466.06,351.52,473.4,352.63,480.23,352.63Z" transform="translate(0 0)"/><polygon class="a" points="195.33 264.07 191.73 269.66 236.79 269.66 236.79 258.55 214.05 258.55 214.05 258.55 224.63 242.11 209.48 242.11 201.53 254.45 204.85 264.07 195.33 264.07"/><polygon class="a" points="392.08 294.39 392.08 351.35 405.24 351.35 405.24 314.46 436.15 351.35 447.59 351.35 447.59 294.39 434.44 294.39 434.44 331.11 403.53 294.39 392.08 294.39"/><path class="a" d="M162.22,238.72q0-.56,0-1H137.73v9.57H150.1a8.89,8.89,0,0,1-3.7,6.19,13,13,0,0,1-7.91,2.32,11,11,0,0,1-8.79-3.74q-3.21-3.74-3.21-10.26t3.21-10.18a11,11,0,0,1,8.79-3.73,11.28,11.28,0,0,1,5.41,1.29,13.12,13.12,0,0,1,4.35,3.94l10.79-5.18a23.19,23.19,0,0,0-8.68-7.89,25.62,25.62,0,0,0-11.87-2.65,26.41,26.41,0,0,0-9.59,1.72,23.11,23.11,0,0,0-13.08,12.77,25.77,25.77,0,0,0,0,18.77,23,23,0,0,0,5,7.75,21.85,21.85,0,0,0,7.72,5.1,27.25,27.25,0,0,0,9.87,1.67q11.29,0,17.51-6.5t6.22-18.29Q162.24,239.28,162.22,238.72Z" transform="translate(0 0)"/><rect class="a" x="98.89" y="218.42" width="12.57" height="45.65"/><path class="a" d="M96.07,234.61H68.77V245.3H82.59a9.93,9.93,0,0,1-4.13,6.91,14.52,14.52,0,0,1-8.83,2.59,12.26,12.26,0,0,1-9.82-4.18q-3.59-4.18-3.59-11.46t3.59-11.37a12.28,12.28,0,0,1,9.82-4.16,12.61,12.61,0,0,1,6,1.45,14.64,14.64,0,0,1,4.86,4.4l12.05-5.78a25.9,25.9,0,0,0-9.7-8.81,28.59,28.59,0,0,0-13.25-3,29.5,29.5,0,0,0-10.71,1.92,25.8,25.8,0,0,0-14.61,14.26,27.57,27.57,0,0,0-1.95,10.5,27.87,27.87,0,0,0,2,10.46A25.75,25.75,0,0,0,50,257.73a24.43,24.43,0,0,0,8.62,5.69,30.43,30.43,0,0,0,11,1.86q12.61,0,19.55-7.26t6.95-20.42q0-1.22,0-1.85C96.11,235.34,96.09,235,96.07,234.61Z" transform="translate(0 0)"/><path class="a" d="M348.85,294.39l-14.18,34.07L320.5,294.39H309.57l-8.38,52.21-20.59-52.21h-12l-23,57h13.66l4.35-10.76h21.52l4.27,10.76h24.18l4.53-34,14.26,34H337l14.26-34,4.52,34h13.15l-9.14-57Zm-81.4,36.12,7.09-19.13,7,19.13Z" transform="translate(0 0)"/><polygon class="a" points="210.48 240.56 225.63 240.56 239.72 218.68 196.81 218.68 196.81 229.72 217.46 229.72 210.48 240.56"/><path class="a" d="M250,320.26H221.75v10.59H235.5a13.3,13.3,0,0,1-4.1,6.75c-1.28,1.11-4.27,3.07-9.91,3.07-4.36,0-8.2-1-11.53-4.44-2.39-2.39-4.78-6.58-4.78-13.07a19.51,19.51,0,0,1,4.87-13.49c2.73-2.9,6.58-4.61,11.79-4.61a14.29,14.29,0,0,1,8.71,2.73,17.24,17.24,0,0,1,5,6.15l11.87-6.4a31.5,31.5,0,0,0-9.22-10.16c-5.3-3.5-11.27-4.27-16-4.27-6.75,0-15.37,1-22.38,8.28-4.78,4.87-8.2,12.3-8.2,21.6,0,11.36,5,18.27,8.37,21.69,6.66,6.83,14,7.94,20.84,7.94s14-1.2,20.33-7.77,8.79-17.08,8.79-24Z" transform="translate(0 0)"/><path class="a" d="M251,251a13.74,13.74,0,0,1-3.31-8.86H235.22a23,23,0,0,0,7.15,16.16,23.89,23.89,0,0,0,7.87,5.19,24.53,24.53,0,0,0,8.57,1.81V254.72A10.84,10.84,0,0,1,251,251Z" transform="translate(0 0)"/><polygon class="a" points="363.75 253.84 347.91 253.84 347.91 246.14 362.85 246.14 362.85 242.09 335.78 242.09 335.78 264.07 363.75 264.07 363.75 253.84"/><path class="a" d="M276.92,258.27A23.1,23.1,0,0,0,284,242.11H271.53a13.68,13.68,0,0,1-3.35,8.83,10.88,10.88,0,0,1-7.81,3.78v10.54a24.52,24.52,0,0,0,8.58-1.81A24.9,24.9,0,0,0,276.92,258.27Z" transform="translate(0 0)"/><rect class="a" x="286.37" y="242.09" width="12.01" height="21.98"/><polygon class="a" points="366.3 219.76 367.58 219.76 367.58 224.1 369.13 224.1 369.13 219.76 370.4 219.76 370.4 218.42 366.3 218.42 366.3 219.76"/><polygon class="a" points="362.85 236.35 347.91 236.35 347.91 228.43 363.75 228.43 363.75 218.42 335.78 218.42 335.78 240.54 362.85 240.54 362.85 236.35"/><rect class="a" x="319.05" y="218.42" width="11.94" height="22.13"/><path class="a" d="M298.21,237.59q-.17-2.21-.55-5.08,1.34,2.93,2.48,5.1a26.3,26.3,0,0,0,1.67,2.88l0,.05h12.78l-16.25-22.13h-12v22.13h12C298.34,239.65,298.29,238.67,298.21,237.59Z" transform="translate(0 0)"/><path class="a" d="M319.05,264.07H331v-22H319.07c0,.86.07,1.79.15,2.8q.17,2.21.55,5.05-1.37-3-2.51-5.16-1-1.91-1.51-2.69H303Z" transform="translate(0 0)"/><path class="a" d="M268.13,231.76a13.62,13.62,0,0,1,3.4,8.8H284a23.3,23.3,0,0,0-7.06-16.16,24.15,24.15,0,0,0-7.94-5.19,24.73,24.73,0,0,0-8.63-1.81V228A10.92,10.92,0,0,1,268.13,231.76Z" transform="translate(0 0)"/><path class="a" d="M235.22,240.56H247.7a13.7,13.7,0,0,1,3.35-8.81,10.86,10.86,0,0,1,7.76-3.79V217.41a24.5,24.5,0,0,0-8.57,1.81,23.89,23.89,0,0,0-7.87,5.19,23,23,0,0,0-7.15,16.16Z" transform="translate(0 0)"/><path class="a" d="M372.67,220.37a6.25,6.25,0,0,0,.21.9l0,.17.77,2.66h1l.77-2.66.05-.17a7,7,0,0,0,.21-.9q0,.38.05.69c0,.21,0,.4.06.58l.33,2.46h1.45l-.87-5.68h-1.54l-.87,2.92q-.08.26-.12.44a2.94,2.94,0,0,0-.06.34,3.82,3.82,0,0,0-.15-.67l0-.1-.86-2.93h-1.53l-.88,5.68h1.44l.33-2.46c0-.21.05-.42.07-.63S372.66,220.59,372.67,220.37Z" transform="translate(0 0)"/><rect class="a" x="372.61" y="294.39" width="13.15" height="56.96"/></svg>