<svg xmlns="http://www.w3.org/2000/svg" viewBox="0 0 559 561.2"><defs><style>.a{fill:#fff;}</style></defs><title>gigazone-gaming-white</title><path class="a" d="M392.3,0,276.7,194.6H51.1L0,280.6,166.7,561.2,282.3,366.6H507.9l51.1-86ZM155.4,366.6l-3.7,6.2-27.4-46.1,27.4-46.1,27.4,46.1Zm252-86-1.9-3.1-25.6-42.9,23.7-39.9,3.7-6.2,27.4,46.1Z"/><polygon points="257.9 380.4 191.1 380.4 224.6 436.7 257.9 380.4"/><polygon points="423.5 188.4 446.7 227.4 450.9 234.5 446.7 241.6 431.7 266.7 534.6 266.7 455.8 134 423.5 188.4"/><polygon points="108.1 326.7 112.3 319.6 127.3 294.5 24.4 294.5 103.2 427.2 135.5 372.8 112.3 333.8 108.1 326.7"/><polygon points="301.1 180.8 367.9 180.8 334.5 124.6 301.1 180.8"/><path d="M195.3,264.1l6.2-9.6-12.5-36H173.4l-15.7,45.7h12.4l2.4-8.2h17.7l2.3,8.2h2.8ZM175.2,247l4.6-15.1c.3-.9.5-1.9.8-2.9s.5-2.1.8-3.2c.4,1.6.7,2.9,1,3.9s.4,1.8.6,2.2l4.6,15.1Z"/><path d="M480.2,352.6c6.7,0,14-1.2,20.3-7.8s8.8-17.1,8.8-24v-.6H481v10.6h13.7a12.86,12.86,0,0,1-4.1,6.7c-1.3,1.1-4.3,3.1-9.9,3.1-4.4,0-8.2-1-11.5-4.4-2.4-2.4-4.8-6.6-4.8-13.1,0-5.3,1.7-10.2,4.9-13.5,2.7-2.9,6.6-4.6,11.8-4.6a14.94,14.94,0,0,1,8.7,2.7,17.07,17.07,0,0,1,5,6.1l11.9-6.4a31.7,31.7,0,0,0-9.2-10.2c-5.3-3.5-11.3-4.3-16-4.3-6.7,0-15.4,1-22.4,8.3-4.8,4.9-8.2,12.3-8.2,21.6,0,11.4,5,18.3,8.4,21.7C466.1,351.5,473.4,352.6,480.2,352.6Z"/><polygon points="195.3 264.1 191.7 269.7 236.8 269.7 236.8 258.6 214.1 258.6 214 258.6 224.6 242.1 209.5 242.1 201.5 254.4 204.9 264.1 195.3 264.1"/><polygon points="392.1 294.4 392.1 351.3 405.2 351.3 405.2 314.5 436.1 351.3 447.6 351.3 447.6 294.4 434.4 294.4 434.4 331.1 403.5 294.4 392.1 294.4"/><path d="M162.2,238.7v-1H137.8v9.6h12.4a9.18,9.18,0,0,1-3.7,6.2,13.2,13.2,0,0,1-7.9,2.3c-3.7,0-6.7-1.2-8.8-3.7s-3.2-5.9-3.2-10.3,1.1-7.7,3.2-10.2,5.1-3.7,8.8-3.7a10.79,10.79,0,0,1,5.4,1.3,13.19,13.19,0,0,1,4.3,3.9l10.8-5.2a23.4,23.4,0,0,0-8.7-7.9,25.17,25.17,0,0,0-11.9-2.7,27.69,27.69,0,0,0-9.6,1.7,21.5,21.5,0,0,0-7.9,5.1,22.86,22.86,0,0,0-6.9,17.1,25,25,0,0,0,1.8,9.4,24.27,24.27,0,0,0,5,7.8,21.6,21.6,0,0,0,7.7,5.1,27.75,27.75,0,0,0,9.9,1.7c7.5,0,13.4-2.2,17.5-6.5s6.2-10.4,6.2-18.3Z"/><rect x="98.9" y="218.4" width="12.6" height="45.7"/><path d="M96.1,234.6H68.8v10.7H82.6a10,10,0,0,1-4.1,6.9,14.57,14.57,0,0,1-8.8,2.6,12.14,12.14,0,0,1-9.8-4.2c-2.4-2.8-3.6-6.6-3.6-11.5s1.2-8.6,3.6-11.4a12.28,12.28,0,0,1,9.8-4.2,13.26,13.26,0,0,1,6,1.4,15.45,15.45,0,0,1,4.9,4.4l12.1-5.8a26.23,26.23,0,0,0-9.7-8.8,28.22,28.22,0,0,0-13.2-3,29,29,0,0,0-10.7,1.9,28.06,28.06,0,0,0-8.8,5.6,25.64,25.64,0,0,0-5.8,8.6,27.62,27.62,0,0,0-1.9,10.5,29.22,29.22,0,0,0,2,10.5,26.53,26.53,0,0,0,5.6,8.7,23.13,23.13,0,0,0,8.6,5.7,31.28,31.28,0,0,0,11,1.9c8.4,0,14.9-2.4,19.6-7.3s6.9-11.6,6.9-20.4v-1.8A1.64,1.64,0,0,1,96.1,234.6Z"/><path d="M348.9,294.4l-14.2,34.1-14.2-34.1H309.6l-8.4,52.2-20.6-52.2h-12l-23,57h13.7l4.4-10.8h21.5l4.3,10.8h24.1l4.5-34,14.3,34H337l14.3-34,4.5,34H369l-9.1-57Zm-81.4,36.1,7.1-19.1,7,19.1Z"/><polygon points="210.5 240.6 225.6 240.6 239.7 218.7 196.8 218.7 196.8 229.7 217.5 229.7 210.5 240.6"/><path d="M250,320.3H221.7v10.6h13.8a12.86,12.86,0,0,1-4.1,6.7c-1.3,1.1-4.3,3.1-9.9,3.1-4.4,0-8.2-1-11.5-4.4-2.4-2.4-4.8-6.6-4.8-13.1,0-5.3,1.7-10.2,4.9-13.5,2.7-2.9,6.6-4.6,11.8-4.6a14.94,14.94,0,0,1,8.7,2.7,17.07,17.07,0,0,1,5,6.1l11.9-6.4a31.7,31.7,0,0,0-9.2-10.2c-5.3-3.5-11.3-4.3-16-4.3-6.7,0-15.4,1-22.4,8.3-4.8,4.9-8.2,12.3-8.2,21.6,0,11.4,5,18.3,8.4,21.7,6.7,6.8,14,7.9,20.8,7.9s14-1.2,20.3-7.8,8.8-17.1,8.8-24Z"/><path d="M251,251a13.32,13.32,0,0,1-3.3-8.9H235.2a23.37,23.37,0,0,0,1.8,8.4,22.6,22.6,0,0,0,5.3,7.7,24.67,24.67,0,0,0,7.9,5.2,24.93,24.93,0,0,0,8.6,1.8V254.7A11.12,11.12,0,0,1,251,251Z"/><polygon points="363.8 253.8 347.9 253.8 347.9 246.1 362.8 246.1 362.8 242.1 335.8 242.1 335.8 264.1 363.8 264.1 363.8 253.8"/><path d="M276.9,258.3a23.6,23.6,0,0,0,5.3-7.7,23.91,23.91,0,0,0,1.8-8.5H271.5a13.33,13.33,0,0,1-3.4,8.8,10.84,10.84,0,0,1-7.8,3.8v10.5a25.43,25.43,0,0,0,8.6-1.8A24.83,24.83,0,0,0,276.9,258.3Z"/><rect x="286.4" y="242.1" width="12" height="22"/><polygon points="366.3 219.8 367.6 219.8 367.6 224.1 369.1 224.1 369.1 219.8 370.4 219.8 370.4 218.4 366.3 218.4 366.3 219.8"/><polygon points="362.8 236.3 347.9 236.3 347.9 228.4 363.8 228.4 363.8 218.4 335.8 218.4 335.8 240.5 362.8 240.5 362.8 236.3"/><rect x="319.1" y="218.4" width="11.9" height="22.1"/><path d="M298.2,237.6c-.1-1.5-.3-3.2-.5-5.1.9,2,1.7,3.7,2.5,5.1a32.6,32.6,0,0,0,1.7,2.9v.1h12.8l-16.2-22.1h-12v22.1h12A27.68,27.68,0,0,1,298.2,237.6Z"/><path d="M319.1,264.1H331v-22H319.1c0,.9.1,1.8.2,2.8.1,1.5.3,3.2.5,5.1-.9-2-1.8-3.7-2.5-5.2q-1.05-2-1.5-2.7H303Z"/><path d="M268.1,231.8a13.53,13.53,0,0,1,3.4,8.8H284a24.38,24.38,0,0,0-1.8-8.5,22.6,22.6,0,0,0-5.3-7.7,24.67,24.67,0,0,0-7.9-5.2,25.43,25.43,0,0,0-8.6-1.8V228A10.45,10.45,0,0,1,268.1,231.8Z"/><path d="M235.2,240.6h12.5a13.53,13.53,0,0,1,3.4-8.8,11.22,11.22,0,0,1,7.8-3.8V217.5a25.43,25.43,0,0,0-8.6,1.8,23.12,23.12,0,0,0-7.9,5.2,23.6,23.6,0,0,0-5.3,7.7A21.51,21.51,0,0,0,235.2,240.6Z"/><path d="M372.7,220.4a5.07,5.07,0,0,0,.2.9v.2l.8,2.7h1l.8-2.7a.31.31,0,0,1,.1-.2,5.07,5.07,0,0,0,.2-.9,1.48,1.48,0,0,0,.1.7,1.27,1.27,0,0,0,.1.6l.3,2.5h1.4l-.9-5.7h-1.5l-.9,2.9a.76.76,0,0,0-.1.4.37.37,0,0,1-.1.3,2.54,2.54,0,0,0-.2-.7v-.1l-.9-2.9h-1.5l-.9,5.7h1.4l.3-2.5c0-.2.1-.4.1-.6A1.42,1.42,0,0,0,372.7,220.4Z"/><rect x="372.6" y="294.4" width="13.1" height="57"/></svg>